<?xml version="1.0" encoding="utf-8"?><svg xmlns="http://www.w3.org/2000/svg" xmlns:xlink="http://www.w3.org/1999/xlink"><symbol viewBox="0 0 161.1 225.5" id="acnur" xmlns="http://www.w3.org/2000/svg"><path class="ast1" d="M13.5 194.2v8h4.8v1.8h-7v-9.9h2.2zm5.8 4.9c0-.5.1-.8.3-1.1.2-.3.5-.5.8-.7.3-.2.7-.3 1.1-.4.4-.1.8-.1 1.2-.1.4 0 .7 0 1.1.1.4.1.7.1 1 .3.3.1.6.4.7.6.2.3.3.6.3 1v3.7c0 .3 0 .6.1.9 0 .3.1.5.2.7h-2c0-.1-.1-.2-.1-.3v-.4c-.3.3-.7.5-1.1.7-.4.1-.9.2-1.3.2-.3 0-.7 0-1-.1-.3-.1-.6-.2-.8-.4-.2-.2-.4-.4-.5-.7s-.2-.6-.2-1 .1-.7.2-1c.1-.3.3-.5.6-.6.2-.2.5-.3.8-.4.3-.1.6-.1.9-.2.3 0 .6-.1.9-.1.3 0 .5-.1.8-.1.2-.1.4-.1.5-.2s.2-.3.2-.5 0-.4-.1-.5l-.3-.3c-.1-.1-.2-.1-.4-.1h-.5c-.4 0-.7.1-.9.2-.2.2-.3.4-.4.8h-2.1zm4.5 1.4c-.1.1-.2.1-.3.2-.1 0-.3.1-.4.1-.1 0-.3.1-.4.1-.2 0-.3 0-.5.1-.1 0-.3.1-.4.1-.1 0-.3.1-.4.2l-.3.3c-.1.1-.1.3-.1.5s0 .3.1.4l.3.3c.1.1.2.1.4.1h.5c.4 0 .7-.1.9-.2.2-.1.4-.3.5-.5.1-.2.2-.4.2-.5v-1.2zm12.2-6.3l3.7 9.9h-2.2l-.7-2.2H33l-.8 2.2H30l3.7-9.9H36zm.1 6l-1.2-3.6-1.3 3.6h2.5zm10.7 4.4c-.1.4-.2.7-.5 1-.3.3-.6.6-1.1.8-.5.2-1.1.3-2 .3-.3 0-.7 0-1.1-.1-.4-.1-.7-.2-1-.4-.3-.2-.5-.4-.7-.7-.2-.3-.3-.6-.3-1H42c.1.4.3.6.5.8.3.1.6.2.9.2.6 0 1-.2 1.2-.5.3-.3.4-.7.4-1.3v-.9c-.2.4-.5.7-.9.8-.4.2-.8.3-1.2.3-.5 0-1-.1-1.4-.3-.4-.2-.7-.4-1-.8-.2-.3-.4-.7-.5-1.1-.1-.4-.2-.9-.2-1.4 0-.5.1-.9.2-1.3s.3-.8.6-1.1c.3-.3.6-.6 1-.8.4-.2.8-.3 1.3-.3s.9.1 1.2.3c.4.2.7.5.9.9v-1h1.9v6.7c0 .2-.1.5-.1.9zm-2.7-2.4c.2-.1.4-.3.5-.4l.3-.6c.1-.2.1-.5.1-.7 0-.3 0-.6-.1-.8-.1-.3-.1-.5-.3-.7-.1-.2-.3-.4-.5-.5-.2-.1-.5-.2-.8-.2-.3 0-.5.1-.7.2-.2.1-.4.3-.5.4l-.3.6c-.1.2-.1.5-.1.8 0 .3 0 .5.1.8 0 .3.1.5.3.7.1.2.3.4.5.5.2.1.5.2.8.2.2-.1.5-.2.7-.3zm6.4.1c.3.3.7.4 1.3.4.4 0 .7-.1 1-.3.3-.2.5-.4.5-.6H55c-.3.9-.7 1.5-1.3 1.8-.6.4-1.3.6-2.1.6-.6 0-1.1-.1-1.5-.3-.5-.2-.8-.4-1.1-.8-.3-.3-.6-.7-.7-1.2-.2-.5-.3-1-.3-1.5s.1-1 .3-1.5c.2-.5.4-.9.7-1.2.3-.3.7-.6 1.2-.8.4-.2.9-.3 1.5-.3s1.1.1 1.6.4c.5.2.8.5 1.1.9.3.4.5.8.6 1.4.1.5.2 1 .1 1.6H50c0 .7.2 1.1.5 1.4zm2.2-3.7c-.2-.3-.6-.4-1.1-.4-.3 0-.6.1-.8.2-.2.1-.4.2-.5.4-.1.2-.2.3-.3.5-.1.2-.1.3-.1.5h3.2c0-.6-.2-1-.4-1.2zm5.4-1.7v1c.2-.4.6-.7 1-.9.4-.2.8-.3 1.2-.3.5 0 1 .1 1.3.2.3.1.6.3.8.6.2.3.3.6.4.9.1.4.1.8.1 1.2v4.4h-2v-4c0-.6-.1-1-.3-1.3-.2-.3-.5-.4-1-.4s-.9.2-1.2.5c-.2.3-.4.8-.4 1.6v3.7h-2V197h2.1zm9.6 1.3c-.3 0-.6.1-.8.2-.2.1-.4.3-.5.6-.1.2-.2.5-.3.7-.1.3-.1.5-.1.8 0 .3 0 .5.1.8.1.3.1.5.3.7.1.2.3.4.5.5.2.1.5.2.8.2.5 0 .8-.1 1.1-.4.3-.3.4-.6.5-1.1h1.9c-.1.9-.5 1.7-1.1 2.2-.6.5-1.4.7-2.3.7-.5 0-1-.1-1.5-.3-.4-.2-.8-.4-1.1-.8-.3-.3-.6-.7-.7-1.2-.2-.4-.3-.9-.3-1.5s.1-1.1.2-1.5c.2-.5.4-.9.7-1.2.3-.3.7-.6 1.1-.8.5-.2 1-.3 1.5-.3.4 0 .8.1 1.2.2.4.1.7.3 1 .5.3.2.6.5.8.8.2.3.3.7.3 1.2h-1.9c-.1-.6-.5-1-1.4-1zm4.5-2.4v-1.6h2v1.6h-2zm2 1.1v7.1h-2v-7.1h2zm1.4 2.2c0-.5.1-.8.3-1.1.2-.3.5-.5.8-.7.3-.2.7-.3 1.1-.4.4-.1.8-.1 1.2-.1.4 0 .7 0 1.1.1.4.1.7.1 1 .3.3.1.6.4.7.6.2.3.3.6.3 1v3.7c0 .3 0 .6.1.9 0 .3.1.5.2.7h-2c0-.1-.1-.2-.1-.3v-.4c-.3.3-.7.5-1.1.7-.4.1-.9.2-1.3.2-.3 0-.7 0-1-.1-.3-.1-.6-.2-.8-.4-.2-.2-.4-.4-.5-.7-.1-.3-.2-.6-.2-1s.1-.7.2-1 .3-.5.6-.6c.2-.2.5-.3.8-.4.3-.1.6-.1.9-.2.3 0 .6-.1.9-.1.3 0 .5-.1.8-.1.2-.1.4-.1.5-.2s.2-.3.2-.5 0-.4-.1-.5l-.3-.3c-.1-.1-.2-.1-.4-.1H79c-.4 0-.7.1-.9.2-.2.2-.3.4-.4.8h-2.1zm4.5 1.4c-.1.1-.2.1-.3.2-.1 0-.3.1-.4.1-.1 0-.3.1-.4.1-.2 0-.3 0-.5.1-.1 0-.3.1-.4.1s-.3.1-.4.2l-.3.3c-.1.1-.1.3-.1.5s0 .3.1.4l.3.3c.1.1.2.1.4.1h.5c.4 0 .7-.1.9-.2.2-.1.4-.3.5-.5.1-.2.2-.4.2-.5v-1.2zm12.1 2.6c-.2.4-.5.7-.9.8-.4.2-.8.3-1.3.3s-1-.1-1.4-.3c-.4-.2-.7-.5-1-.8-.3-.4-.5-.8-.6-1.2-.1-.5-.2-.9-.2-1.4 0-.5.1-.9.2-1.4.1-.4.3-.8.6-1.2.3-.3.6-.6 1-.8.4-.2.9-.3 1.4-.3.4 0 .8.1 1.2.3.4.2.7.4.9.8v-3.6h2v9.9h-1.9v-1.1zm-.1-3.5c-.1-.3-.1-.5-.3-.7-.1-.2-.3-.4-.5-.5-.2-.1-.5-.2-.8-.2-.3 0-.6.1-.8.2-.2.1-.4.3-.5.5-.1.2-.2.5-.3.7-.1.3-.1.6-.1.8 0 .3 0 .6.1.8.1.3.2.5.3.7.1.2.3.4.5.5.2.1.5.2.8.2.3 0 .6-.1.8-.2.2-.1.4-.3.5-.5.1-.2.2-.5.3-.7.1-.3.1-.6.1-.9 0-.1 0-.4-.1-.7zm5.5 2.7c.3.3.7.4 1.3.4.4 0 .7-.1 1-.3.3-.2.5-.4.5-.6h1.7c-.3.9-.7 1.5-1.3 1.8-.6.4-1.3.6-2.1.6-.6 0-1.1-.1-1.5-.3-.5-.2-.8-.4-1.1-.8-.3-.3-.6-.7-.7-1.2-.2-.5-.3-1-.3-1.5s.1-1 .3-1.5c.2-.5.4-.9.7-1.2.3-.3.7-.6 1.2-.8.4-.2.9-.3 1.5-.3s1.1.1 1.6.4c.5.2.8.5 1.1.9.3.4.5.8.6 1.4.1.5.2 1 .1 1.6h-5.1c.1.7.3 1.1.5 1.4zm2.3-3.7c-.2-.3-.6-.4-1.1-.4-.3 0-.6.1-.8.2-.2.1-.4.2-.5.4-.1.2-.2.3-.3.5-.1.2-.1.3-.1.5h3.2c0-.6-.2-1-.4-1.2zm9.1-4.4v9.9h-2v-9.9h2zm1.5 4.9c0-.5.1-.8.3-1.1.2-.3.5-.5.8-.7.3-.2.7-.3 1.1-.4.4-.1.8-.1 1.2-.1.4 0 .7 0 1.1.1.4.1.7.1 1 .3.3.1.6.4.7.6.2.3.3.6.3 1v3.7c0 .3 0 .6.1.9 0 .3.1.5.2.7h-2c0-.1-.1-.2-.1-.3v-.4c-.3.3-.7.5-1.1.7-.4.1-.9.2-1.3.2-.3 0-.7 0-1-.1-.3-.1-.6-.2-.8-.4-.2-.2-.4-.4-.5-.7s-.2-.6-.2-1 .1-.7.2-1c.1-.3.3-.5.6-.6.2-.2.5-.3.8-.4.3-.1.6-.1.9-.2.3 0 .6-.1.9-.1.3 0 .5-.1.8-.1.2-.1.4-.1.5-.2.1-.1.2-.3.2-.5s0-.4-.1-.5l-.3-.3c-.1-.1-.2-.1-.4-.1h-.5c-.4 0-.7.1-.9.2-.2.2-.3.4-.4.8h-2.1zm4.5 1.4c-.1.1-.2.1-.3.2-.1 0-.3.1-.4.1-.1 0-.3.1-.4.1-.2 0-.3 0-.5.1-.1 0-.3.1-.4.1-.1 0-.3.1-.4.2l-.3.3c-.1.1-.1.3-.1.5s0 .3.1.4l.3.3c.1.1.2.1.4.1h.5c.4 0 .7-.1.9-.2.2-.1.4-.3.5-.5.1-.2.2-.4.2-.5v-1.2zm7.1-3.4c.2-.6.5-1.2 1-1.6.4-.5.9-.8 1.5-1.1.6-.3 1.3-.4 2-.4.8 0 1.4.1 2 .4.6.3 1.1.6 1.5 1.1.4.5.7 1 1 1.6.2.6.3 1.3.3 2s-.1 1.4-.3 2c-.2.6-.5 1.2-1 1.6-.4.5-.9.8-1.5 1.1-.6.3-1.3.4-2 .4-.8 0-1.4-.1-2-.4-.6-.3-1.1-.6-1.5-1.1-.4-.5-.7-1-1-1.6-.2-.6-.3-1.3-.3-2s.1-1.4.3-2zm2 3.3c.1.4.3.7.5 1.1.2.3.5.6.8.8.3.2.8.3 1.2.3.5 0 .9-.1 1.2-.3.3-.2.6-.4.8-.8.2-.3.4-.7.5-1.1.1-.4.1-.8.1-1.2 0-.4 0-.9-.1-1.3s-.3-.8-.5-1.1c-.2-.3-.5-.6-.8-.8-.3-.2-.8-.3-1.2-.3-.5 0-.9.1-1.2.3-.3.2-.6.4-.8.8-.2.3-.4.7-.5 1.1-.1.4-.1.8-.1 1.3 0 .4 0 .8.1 1.2zm10.9-6.2l4.1 6.6v-6.6h2v9.9H139l-4.1-6.6v6.6h-2v-9.9h2.1zm15.2 9.1c-.7.6-1.8 1-3.1 1s-2.4-.3-3.1-1c-.7-.6-1.1-1.6-1.1-3v-6.1h2.2v6.1c0 .3 0 .5.1.8 0 .3.1.5.3.7.1.2.4.4.6.5.3.1.6.2 1.1.2.8 0 1.3-.2 1.6-.5.3-.3.4-.9.4-1.6v-6.1h2.2v6.1c-.1 1.2-.5 2.2-1.2 2.9zM19 213.5v.9c.2-.4.5-.7.9-.8.4-.2.8-.3 1.2-.3.6 0 1 .1 1.4.3.4.2.7.5 1 .8.3.3.5.8.6 1.2.1.5.2 1 .2 1.5s-.1.9-.2 1.4c-.1.4-.3.8-.6 1.2-.3.3-.6.6-1 .8-.4.2-.8.3-1.4.3-.4 0-.8-.1-1.2-.3-.4-.2-.7-.4-.9-.8v3.4h-2v-9.6h2zm2.6 5.6c.2-.1.4-.3.5-.5.1-.2.2-.4.3-.7.1-.3.1-.6.1-.8 0-.3 0-.6-.1-.8-.1-.3-.2-.5-.3-.7-.1-.2-.3-.4-.5-.5-.2-.1-.5-.2-.8-.2-.3 0-.6.1-.8.2-.2.1-.4.3-.5.5-.1.2-.2.5-.3.7-.1.3-.1.6-.1.9 0 .3 0 .6.1.8.1.3.2.5.3.7.1.2.3.4.5.5.2.1.5.2.8.2.3-.1.6-.2.8-.3zm3.8-3.4c0-.5.1-.8.3-1.1.2-.3.5-.5.8-.7.3-.2.7-.3 1.1-.4.4-.1.8-.1 1.2-.1.4 0 .7 0 1.1.1.4 0 .7.1 1 .3.3.1.6.4.7.6.2.3.3.6.3 1v3.7c0 .3 0 .6.1.9 0 .3.1.5.2.7h-2c0-.1-.1-.2-.1-.3v-.4c-.3.3-.7.5-1.1.7-.4.1-.9.2-1.3.2-.3 0-.7 0-1-.1-.3-.1-.6-.2-.8-.4s-.4-.4-.5-.7c-.1-.3-.2-.6-.2-1s.1-.7.2-1c.1-.3.3-.5.6-.6.2-.2.5-.3.8-.4.3-.1.6-.1.9-.2.3 0 .6-.1.9-.1.3 0 .5-.1.8-.1.2-.1.4-.1.5-.2.1-.1.2-.3.2-.5s0-.4-.1-.5l-.3-.3c-.1-.1-.2-.1-.4-.1h-.5c-.4 0-.7.1-.9.2-.2.2-.3.4-.4.8h-2.1zm4.6 1.4c-.1.1-.2.1-.3.2-.1 0-.3.1-.4.1-.1 0-.3.1-.4.1-.2 0-.3 0-.5.1-.1 0-.3.1-.4.1-.1 0-.3.1-.4.2l-.3.3c-.1.1-.1.3-.1.5s0 .3.1.4l.3.3c.1.1.2.1.4.1h.5c.4 0 .7-.1.9-.2.2-.1.4-.3.5-.5.1-.2.2-.4.2-.5v-1.2zm5.3-3.6v1.3c.1-.2.2-.4.4-.6l.5-.5.6-.3c.2-.1.5-.1.7-.1.1 0 .3 0 .4.1v1.8h-.7c-.4 0-.7.1-.9.2-.2.1-.4.3-.6.5-.2.2-.3.4-.3.7-.1.3-.1.6-.1.9v3.2h-2v-7.1h2zm3.4 2.2c0-.5.1-.8.3-1.1.2-.3.5-.5.8-.7.3-.2.7-.3 1.1-.4s.8-.1 1.2-.1c.4 0 .7 0 1.1.1.4 0 .7.1 1 .3.3.1.6.4.7.6.2.3.3.6.3 1v3.7c0 .3 0 .6.1.9 0 .3.1.5.2.7h-2c0-.1-.1-.2-.1-.3v-.4c-.3.3-.7.5-1.1.7-.4.1-.9.2-1.3.2-.3 0-.7 0-1-.1-.3-.1-.6-.2-.8-.4s-.4-.4-.5-.7c-.1-.3-.2-.6-.2-1s.1-.7.2-1c.1-.3.3-.5.6-.6.2-.2.5-.3.8-.4.3-.1.6-.1.9-.2.3 0 .6-.1.9-.1.3 0 .5-.1.8-.1.2-.1.4-.1.5-.2.1-.1.2-.3.2-.5s0-.4-.1-.5l-.3-.3c-.1-.1-.2-.1-.4-.1h-.5c-.4 0-.7.1-.9.2-.2.2-.3.4-.4.8h-2.1zm4.5 1.4c-.1.1-.2.1-.3.2s-.3.1-.4.1c-.1 0-.3.1-.4.1-.2 0-.3 0-.5.1-.1 0-.3.1-.4.1-.1 0-.3.1-.4.2l-.3.3c-.1.1-.1.3-.1.5s0 .3.1.4l.3.3c.1.1.2.1.4.1h.5c.4 0 .7-.1.9-.2.2-.1.4-.3.5-.5.1-.2.2-.4.2-.5v-1.2zm9.1-6.4v9.9h-2v-9.9h2zm1.5 4.8c.2-.5.4-.9.7-1.2.3-.3.7-.6 1.2-.8.5-.2 1-.3 1.5-.3.6 0 1.1.1 1.5.3.5.2.8.4 1.2.8.3.3.6.7.7 1.2.2.5.3 1 .3 1.6s-.1 1.1-.3 1.5c-.2.5-.4.9-.7 1.2-.3.3-.7.6-1.2.8-.5.2-1 .3-1.5.3-.6 0-1.1-.1-1.5-.3-.5-.2-.8-.4-1.2-.8-.3-.3-.6-.7-.7-1.2-.2-.5-.3-1-.3-1.5s.1-1.2.3-1.6zm1.7 2.4c.1.3.1.5.3.7.1.2.3.4.5.5.2.1.5.2.8.2.3 0 .6-.1.8-.2.2-.1.4-.3.5-.5.1-.2.2-.5.3-.7.1-.3.1-.5.1-.8 0-.3 0-.6-.1-.8-.1-.3-.1-.5-.3-.7-.1-.2-.3-.4-.5-.5-.2-.1-.5-.2-.8-.2-.3 0-.6.1-.8.2-.2.1-.4.3-.5.5-.1.2-.2.5-.3.7-.1.3-.1.6-.1.8.1.2.1.5.1.8zm8.2.9c.1.2.2.3.3.4.1.1.3.2.5.2s.4.1.6.1h.4c.2 0 .3-.1.4-.2l.3-.3c.1-.1.1-.3.1-.4 0-.3-.2-.5-.6-.7-.4-.1-.9-.3-1.6-.4-.3-.1-.6-.1-.8-.2-.3-.1-.5-.2-.7-.3-.2-.1-.4-.3-.5-.5-.1-.2-.2-.5-.2-.8 0-.5.1-.8.3-1.1.2-.3.4-.5.7-.7.3-.2.6-.3 1-.4.4-.1.7-.1 1.1-.1.4 0 .8 0 1.1.1.4.1.7.2 1 .4.3.2.5.4.7.7.2.3.3.7.3 1.1h-1.9c0-.4-.2-.6-.4-.8-.3-.1-.6-.2-.9-.2h-.4c-.1 0-.2 0-.4.1-.1 0-.2.1-.3.2-.1.1-.1.2-.1.4s.1.3.2.4c.1.1.3.2.5.3.2.1.4.1.7.2.3.1.5.1.8.2.3.1.6.1.8.2.3.1.5.2.7.4.2.2.4.3.5.6.1.2.2.5.2.8 0 .5-.1.9-.3 1.2-.2.3-.4.6-.7.8-.3.2-.7.3-1 .4-.4.1-.8.1-1.2.1-.4 0-.8 0-1.2-.1-.4-.1-.7-.2-1.1-.4-.3-.2-.6-.4-.8-.8-.2-.3-.3-.7-.3-1.2h1.9c.1 0 .2.2.3.3zm14.8-8.1c.4 0 .8.1 1.2.2.4.1.7.3.9.6.3.2.4.5.6.9.1.3.2.7.2 1.1 0 .6-.1 1.1-.4 1.5-.2.4-.6.7-1.2 1 .3.1.5.2.7.3.2.2.3.3.4.5.1.2.2.4.2.7 0 .2.1.5.1.7v1.2c0 .2.1.4.1.6.1.2.1.4.2.5h-2.2c-.1-.3-.2-.7-.2-1.1 0-.4-.1-.8-.1-1.2-.1-.5-.2-.9-.5-1.1-.2-.2-.6-.4-1.2-.4h-2.2v3.8h-2.2v-9.9h5.6zm-.8 4.5c.5 0 .9-.1 1.1-.3.2-.2.4-.6.4-1.1 0-.5-.1-.8-.4-1-.2-.2-.6-.3-1.1-.3h-2.4v2.8h2.4zm7.2 3.7c.3.3.7.4 1.3.4.4 0 .7-.1 1-.3.3-.2.5-.4.5-.6h1.7c-.3.9-.7 1.5-1.3 1.8-.6.4-1.3.6-2.1.6-.6 0-1.1-.1-1.5-.3-.5-.2-.8-.4-1.1-.8-.3-.3-.6-.7-.7-1.2-.2-.5-.3-1-.3-1.5s.1-1 .3-1.5c.2-.5.4-.9.7-1.2.3-.3.7-.6 1.2-.8.4-.2.9-.3 1.5-.3s1.1.1 1.6.4c.5.2.8.5 1.1.9.3.4.5.8.6 1.4.1.5.2 1 .1 1.6h-5.1c0 .6.2 1.1.5 1.4zm2.2-3.8c-.2-.3-.6-.4-1.1-.4-.3 0-.6.1-.8.2-.2.1-.4.2-.5.4-.1.2-.2.3-.3.5-.1.2-.1.3-.1.5h3.2c0-.5-.2-.9-.4-1.2zm2.7-.3v-1.3H91v-.6c0-.6.2-1.2.6-1.6.4-.4 1-.6 1.8-.6h1v1.5h-.7c-.3 0-.5.1-.6.2-.1.1-.2.3-.2.6v.4h1.4v1.3H93v5.8h-2v-5.8h-1.2zm10.2 5.8v-1c-.2.4-.6.7-1 .9-.4.2-.8.3-1.2.3-.5 0-1-.1-1.3-.2-.3-.1-.6-.3-.8-.6-.2-.3-.3-.6-.4-.9s-.1-.8-.1-1.2v-4.4h2v4c0 .6.1 1 .3 1.3.2.3.5.4 1 .4s.9-.2 1.2-.5c.2-.3.4-.8.4-1.6v-3.7h2v7.1H100zm10 .5c-.1.4-.2.7-.5 1-.3.3-.6.6-1.1.8-.5.2-1.1.3-2 .3-.3 0-.7 0-1.1-.1-.4-.1-.7-.2-1-.4-.3-.2-.5-.4-.7-.7-.2-.3-.3-.6-.3-1h1.9c.1.4.3.6.5.8.3.1.6.2.9.2.6 0 1-.2 1.2-.5.3-.3.4-.8.4-1.3v-.9c-.2.4-.5.7-.9.8-.4.2-.8.3-1.2.3-.5 0-1-.1-1.4-.3-.4-.2-.7-.4-1-.8-.2-.3-.4-.7-.5-1.1-.1-.4-.2-.9-.2-1.4 0-.5.1-.9.2-1.3s.3-.8.6-1.1c.3-.3.6-.6 1-.8.4-.2.8-.3 1.3-.3s.9.1 1.2.3c.4.2.7.5.9.9v-1h1.9v6.7c0 .2 0 .6-.1.9zm-2.7-2.4c.2-.1.4-.3.5-.4l.3-.6c.1-.2.1-.5.1-.7 0-.3 0-.6-.1-.8-.1-.3-.1-.5-.3-.7-.1-.2-.3-.4-.5-.5-.2-.1-.5-.2-.8-.2-.3 0-.5.1-.7.2-.2.1-.4.3-.5.4l-.3.6c-.1.2-.1.5-.1.8 0 .3 0 .5.1.8 0 .3.1.5.3.7.1.2.3.4.5.5.2.1.5.2.8.2.3-.1.5-.1.7-.3zm4.3-6.3v-1.6h2v1.6h-2zm2 1.1v7.1h-2v-7.1h2zm1.4 2.2c0-.5.1-.8.3-1.1.2-.3.5-.5.8-.7.3-.2.7-.3 1.1-.4.4-.1.8-.1 1.2-.1.4 0 .7 0 1.1.1.4 0 .7.1 1 .3.3.1.6.4.7.6.2.3.3.6.3 1v3.7c0 .3 0 .6.1.9 0 .3.1.5.2.7h-2c0-.1-.1-.2-.1-.3v-.4c-.3.3-.7.5-1.1.7-.4.1-.9.2-1.3.2-.3 0-.7 0-1-.1-.3-.1-.6-.2-.8-.4-.2-.2-.4-.4-.5-.7-.1-.3-.2-.6-.2-1s.1-.7.2-1c.1-.3.3-.5.6-.6.2-.2.5-.3.8-.4.3-.1.6-.1.9-.2.3 0 .6-.1.9-.1.3 0 .5-.1.8-.1.2-.1.4-.1.5-.2.1-.1.2-.3.2-.5s0-.4-.1-.5l-.3-.3c-.1-.1-.2-.1-.4-.1h-.5c-.4 0-.7.1-.9.2-.2.2-.3.4-.4.8H115zm4.5 1.4c-.1.1-.2.1-.3.2-.1 0-.3.1-.4.1-.1 0-.3.1-.4.1-.2 0-.3 0-.5.1-.1 0-.3.1-.4.1-.1 0-.3.1-.4.2l-.3.3c-.1.1-.1.3-.1.5s0 .3.1.4l.3.3c.1.1.2.1.4.1h.5c.4 0 .7-.1.9-.2.2-.1.4-.3.5-.5.1-.2.2-.4.2-.5v-1.2zm8.5 2.6c-.2.4-.5.7-.9.8-.4.2-.8.3-1.3.3s-1-.1-1.4-.3c-.4-.2-.7-.5-1-.8-.3-.4-.5-.8-.6-1.2-.1-.5-.2-.9-.2-1.4 0-.5.1-.9.2-1.4.1-.4.3-.8.6-1.2.3-.3.6-.6 1-.8.4-.2.9-.3 1.4-.3.4 0 .8.1 1.2.3.4.2.7.4.9.8v-3.6h2v9.9H128v-1.1zm-.1-3.5c-.1-.3-.1-.5-.3-.7-.1-.2-.3-.4-.5-.5-.2-.1-.5-.2-.8-.2-.3 0-.6.1-.8.2-.2.1-.4.3-.5.5-.1.2-.2.5-.3.7s-.1.6-.1.8c0 .3 0 .6.1.8.1.3.2.5.3.7.1.2.3.4.5.5.2.1.5.2.8.2.3 0 .6-.1.8-.2.2-.1.4-.3.5-.5.1-.2.2-.5.3-.7.1-.3.1-.6.1-.9 0-.2-.1-.5-.1-.7zm3.4-.7c.2-.5.4-.9.7-1.2.3-.3.7-.6 1.2-.8.5-.2 1-.3 1.5-.3.6 0 1.1.1 1.5.3.5.2.8.4 1.2.8.3.3.6.7.7 1.2.2.5.3 1 .3 1.6s-.1 1.1-.3 1.5c-.2.5-.4.9-.7 1.2-.3.3-.7.6-1.2.8-.5.2-1 .3-1.5.3-.6 0-1.1-.1-1.5-.3-.5-.2-.8-.4-1.2-.8-.3-.3-.6-.7-.7-1.2-.2-.5-.3-1-.3-1.5s.1-1.2.3-1.6zm1.8 2.4c.1.3.1.5.3.7.1.2.3.4.5.5.2.1.5.2.8.2.3 0 .6-.1.8-.2.2-.1.4-.3.5-.5.1-.2.2-.5.3-.7.1-.3.1-.5.1-.8 0-.3 0-.6-.1-.8-.1-.3-.1-.5-.3-.7-.1-.2-.3-.4-.5-.5-.2-.1-.5-.2-.8-.2-.3 0-.6.1-.8.2-.2.1-.4.3-.5.5-.1.2-.2.5-.3.7-.1.3-.1.6-.1.8 0 .2 0 .5.1.8zm8.1.9c.1.2.2.3.3.4.1.1.3.2.5.2s.4.1.6.1h.4c.2 0 .3-.1.4-.2l.3-.3c.1-.1.1-.3.1-.4 0-.3-.2-.5-.6-.7-.4-.1-.9-.3-1.6-.4-.3-.1-.6-.1-.8-.2-.3-.1-.5-.2-.7-.3-.2-.1-.4-.3-.5-.5-.1-.2-.2-.5-.2-.8 0-.5.1-.8.3-1.1.2-.3.4-.5.7-.7.3-.2.6-.3 1-.4.4-.1.7-.1 1.1-.1s.8 0 1.1.1c.4.1.7.2 1 .4.3.2.5.4.7.7.2.3.3.7.3 1.1h-1.9c0-.4-.2-.6-.4-.8-.3-.1-.6-.2-.9-.2h-.4c-.1 0-.2 0-.4.1-.1 0-.2.1-.3.2-.1.1-.1.2-.1.4s.1.3.2.4c.1.1.3.2.5.3.2.1.4.1.7.2.3.1.5.1.8.2.3.1.6.1.8.2.3.1.5.2.7.4.2.2.4.3.5.6.1.2.2.5.2.8 0 .5-.1.9-.3 1.2-.2.3-.4.6-.7.8-.3.2-.7.3-1 .4-.4.1-.8.1-1.2.1-.4 0-.8 0-1.2-.1-.4-.1-.7-.2-1.1-.4-.3-.2-.6-.4-.8-.8-.2-.3-.3-.7-.3-1.2h1.9c.1 0 .2.2.3.3zM85.3 83.1c1.4 0 1.2-.8 1.2-2.3v-7.2c0-1.5-.1-2 .7-2 3 0 3.8-.3 3.8-2.9V42.1c0-7.3-5.2-6.1-6.6-8.7-2.1-3.6 3.9-3.6 1.7-11.4-.5-1.8-1.9-2.9-4.6-2.9-2.7 0-4.1 1.1-4.6 2.9-2.1 7.8 3.8 7.8 1.7 11.4-1.5 2.7-6.6 1.5-6.6 8.7v26.7c0 2.6.8 2.9 3.8 2.9.8 0 .7.5.7 2v7.2c0 1.5-.2 2.3 1.2 2.3h7.6m-23.5-58C59.2 28 55 34.5 57.7 40c5.5 2.1 5.1-17.4 12-17.1 3.4 3.1-1 12.4-2.4 16.4-1.7 5-3.1 15.5-6.3 20.6-2.7 4.2-.7 17.5-1.5 22.1-2.3 2.3-8.5.7-11.1.3 0-5.2-.7-9.4-1.5-17.8-.1-1.7-1.9-27.6-.4-30.7 3-6.5 19.2-19 21.4-21.3 2-2.1 8.8-9.1 11.5-9.1 1.9 1.3.8 4.2.3 5.4-2.6 6.3-14 12.8-17.9 16.4m39.7 0c2.5 2.8 6.7 9.3 4.1 14.7-5.6 2.1-5.2-17.4-12.1-17.1-3.3 3.1 1.1 12.4 2.5 16.4 1.7 5 3.1 15.5 6.3 20.6 2.6 4.2.7 17.5 1.4 22.1 2.4 2.3 8.5.7 11.2.3 0-5.2.6-9.4 1.4-17.8.2-1.7 2-27.6.5-30.7-3-6.5-19.2-19-21.4-21.3-2-2.1-8.9-9.1-11.5-9.1-2 1.3-.8 4.2-.3 5.4 2.6 6.4 14 12.9 17.9 16.5m-63.3-8.8c-1.5 1.4-4.7 2.3-6.9 5.3-.9-1.6 1.4-5.5 4-7.8 2-1.6 5.8-4.2 6.9-4.5.9 2-2.2 4.9-4 7"/><path class="ast1" d="M33.7 27.1c-2.5 2.3-5.1 3.2-8.5 7.4-1.4-5-1.1-9.4-.4-12.4 1.2-3.9 3.2-8.2 6.5-9.6-.7 2.2-1.8 5.3-2.1 9.4-1.4 5.7-2.3 5.9-2 6.6.3 0 2.2-3 4.5-5.3 2.7-2.7 6.1-3.3 8.4-4.9-.4 1.1-2.3 4.6-6.4 8.8"/><path class="ast1" d="M21.7 50.6c-3.3-5.9-3.7-10.3-3.9-15.3.2-3.5 1.9-11.5 4.4-12.7-.8 7.3 1.2 8 .4 14 0 .3-.9 6.6-.9 7 1-.2.1-5.8 11.8-13.8-2.6 4.4-1.4 5.8-6 11.6-5.3 5.2-6.1 10.4-5.8 9.2"/><path class="ast1" d="M26.4 56.2c-2.5 3.6-2 5.3-2.6 7-5.9-3.4-12.5-16.9-10.1-23.6 1.5 5.1 3.7 6.2 5.2 10.4 2.6 6.4 2.2 8.3 3.9 9.8-.3-3.3.8-7.2 1.9-10.1 1.6-2.5 2.9-5.7 4.1-6.8 1.2 4.7.3 8.5-2.4 13.3"/><path class="ast1" d="M31.6 67.7c0 5.2-.9 7.5-1.4 11.3-10.1-3.3-15.4-14.8-15.4-20.5 3.1 7 7.6 6.9 13.5 16.7.5-3.7-1-.9-1.2-8 .2-7.4 1.7-7.6 2-12.2 1.9 2 2.5 10.2 2.5 12.7"/><path class="ast1" d="M40.1 82.4c.8 3.8 1.1 8.3 1.7 11.6-5.8-2.1-7.2-.5-14.1-4.8-3.2-1.7-8.8-8.8-8.4-13.9 6.8 7.6 8 6.7 11.3 9.5 3.1 2.5 5.5 6.1 7.8 5.6.2-2-5-6.5-4.3-19.2 1.2 1.4 4.9 7.2 6 11.2"/><path class="ast1" d="M51.6 91.9c1.8 2.5 1.4 3.6 6 8.9-1.1.5-7.7 2.2-12 2.4-2.9 0-13.1-2.7-16.5-9.7 5.9 3.1 6 2.4 13.8 4.1 5.6 1.3 9.6 3.1 11.2 2.9-.3-.8-4.7-2.5-7.7-6.3-3-4-2.3-8.5-5-11.8 1.7-.5 8.7 7.6 10.2 9.5m73-75.5c1.4 1.4 4.7 2.3 6.8 5.3.9-1.6-1.4-5.5-4-7.8-1.9-1.6-5.7-4.2-6.9-4.5-.8 2 2.2 4.9 4.1 7"/><path class="ast1" d="M129.1 27.1c2.4 2.3 5 3.2 8.4 7.4 1.4-5 1.1-9.4.4-12.4-1.1-3.9-3.2-8.2-6.5-9.6.8 2.2 1.8 5.3 2 9.4 1.4 5.7 2.3 5.9 2 6.6-.3 0-2.2-3-4.5-5.3-2.6-2.7-6.1-3.3-8.4-4.9.5 1.1 2.5 4.6 6.6 8.8"/><path class="ast1" d="M141.1 50.6c3.4-5.9 3.7-10.3 3.9-15.3-.2-3.5-1.9-11.5-4.3-12.7.7 7.3-1.3 8-.4 14 0 .3.8 6.6.8 7-.9-.2-.1-5.8-11.7-13.8 2.5 4.4 1.3 5.8 5.9 11.6 5.3 5.2 6 10.4 5.8 9.2"/><path class="ast1" d="M136.5 56.2c2.4 3.6 2 5.3 2.6 7 5.9-3.4 12.6-16.9 10.1-23.6-1.4 5.1-3.7 6.2-5.1 10.4-2.7 6.4-2.3 8.3-3.9 9.8.3-3.3-.9-7.2-2-10.1-1.5-2.5-2.9-5.7-4.1-6.8-1.3 4.7-.4 8.5 2.4 13.3"/><path class="ast1" d="M131.1 67.7c0 5.2 1 7.5 1.5 11.3 10.1-3.3 15.4-14.8 15.4-20.5-3.2 7-7.6 6.9-13.6 16.7-.5-3.7 1-.9 1.2-8-.2-7.4-1.7-7.6-2-12.2-1.8 2-2.5 10.2-2.5 12.7"/><path class="ast1" d="M122.7 82.4c-.8 3.8-1 8.3-1.6 11.6 5.7-2.1 7.2-.5 14.1-4.8 3.1-1.7 8.9-8.8 8.5-13.9-6.8 7.6-8.1 6.7-11.3 9.5-3.1 2.5-5.6 6.1-7.8 5.6-.2-2 5-6.5 4.4-19.2-1.6 1.4-5.3 7.2-6.3 11.2"/><path class="ast1" d="M111.1 91.9c-1.7 2.5-1.3 3.6-6 8.9 1.2.5 7.7 2.2 12.1 2.4 2.8 0 13-2.7 16.4-9.7-5.9 3.1-6 2.4-13.8 4.1-5.6 1.3-9.5 3.1-11.2 2.9.3-.8 4.8-2.5 7.7-6.3 3-4 2.3-8.5 5-11.8-1.7-.5-8.7 7.6-10.2 9.5m-44.3 23.9l-1.7-.8s10.8-13.2 29.4-12.1c18.6 1 17.3 5.3 27.3 4.7 1.1-.1-.8 1.4-.8 1.4s-9.7 3.7-21.7-.3c-12-4.2-19.8-6.7-32.5 7.1"/><path class="ast1" d="M96.2 115.8l1.7-.8s-10.7-13.2-29.3-12.1c-18.7 1-17.4 5.3-27.4 4.7-1.1-.1.9 1.4.9 1.4s9.7 3.7 21.7-.3c12.1-4.2 19.8-6.7 32.4 7.1M30.9 142.8c0 8.1-4.4 12.1-13.4 12.1S4.1 151 4.1 142.8v-18h9.1v16c0 3 0 6.8 4.4 6.8 4.3 0 4.3-3.7 4.3-6.8v-16H31v18m5.3-18h9.3l8.5 15.7h.1v-15.7h8.6v29.4H54l-9-16.1h-.1v16.1h-8.6zm32 0h9.1V135h8.5v-10.2h9v29.4h-9v-11.7h-8.5v11.7h-9.1zm49.8 10.9c-.2-1.1-1-4.3-4.7-4.3-4.2 0-5.6 4.1-5.6 8.1 0 3.9 1.4 8.1 5.6 8.1 3 0 4.2-2.1 4.8-4.9h8.9c0 5.9-4.8 12.2-13.4 12.2-9.5 0-14.9-6.7-14.9-15.4 0-9.3 5.8-15.4 14.9-15.4 8.1 0 12.5 4.3 13.3 11.6h-8.9m21.7-3.9h4.2c3.5 0 4.5 1.1 4.5 2.9 0 2.6-2.3 2.9-4 2.9h-4.7v-5.8zm-9 22.4h9.1V144h4.8c3.6 0 3.8 2.9 4.1 5.7.1 1.5.3 3 .7 4.5h9.1c-.8-1.4-.9-4.9-1-6.3-.3-3.7-1.8-6.4-4.3-7.3 3-1.1 4.4-4.3 4.4-7.4 0-5.6-4.4-8.4-9.6-8.4h-17.2v29.4M19.6 169.3l2.8 9.3h-5.7l2.9-9.3zm-4.5-10.1l-11 30h9.3l1.4-4.3h9.6l1.3 4.3h9.6l-10.9-30h-9.3zm48.4 11.2h-9c-.2-1-.6-2-1.3-3-.7-1-1.9-1.5-3.6-1.5-2 0-3.4.8-4.4 2.4-.9 1.6-1.4 3.5-1.4 5.9 0 2.3.5 4.2 1.4 5.8.9 1.6 2.4 2.4 4.4 2.4 1.4 0 2.5-.4 3.3-1.3.8-.9 1.3-2.1 1.6-3.7h9.1c0 1.5-.3 3-.9 4.5-.6 1.5-1.5 2.8-2.7 4-1.2 1.2-2.7 2.2-4.4 2.9-1.7.7-3.6 1.1-5.7 1.1-3.2 0-5.9-.7-8.2-2.1-2.3-1.4-4.1-3.3-5.2-5.7-1.2-2.4-1.8-5.1-1.8-8 0-2.4.4-4.5 1.1-6.4.7-1.9 1.7-3.6 3.1-5 1.4-1.4 3-2.5 4.8-3.2 1.8-.7 3.9-1.1 6.2-1.1 2 0 3.8.3 5.5.8 1.6.5 3 1.3 4.1 2.3 1.2 1 2.1 2.3 2.7 3.8.7 1.6 1.1 3.2 1.3 5.1m21.9-11.2v16.1l-8.8-16.1h-9.5v30.1h8.8v-16.4h.1l9.2 16.4h9v-30.1zm40.5 0v18.4c0 4.1-1.1 7.2-3.4 9.3-2.3 2-5.7 3.1-10.3 3.1-2.3 0-4.3-.3-6-.8-1.7-.5-3.1-1.3-4.3-2.3-1.2-1-2-2.3-2.6-3.9-.6-1.6-.9-3.4-.9-5.4v-18.4h9.3v16.4c0 1.4.1 2.6.2 3.5.2.9.6 1.7 1.2 2.4.7.7 1.7 1 3 1s2.3-.3 3-1c.7-.7 1-1.5 1.2-2.4.1-.9.2-2.1.2-3.5v-16.4h9.4zm13.5 7.2v6h4.8c1.2 0 2.1-.2 2.9-.6.8-.4 1.2-1.2 1.2-2.4 0-1-.3-1.7-1-2.2-.7-.5-1.9-.7-3.6-.7h-4.3zm-9.2 22.9v-30h17.6c1.3 0 2.6.2 3.8.6 1.2.4 2.3.9 3.2 1.7.9.7 1.6 1.6 2.1 2.7s.8 2.3.8 3.7c0 1.7-.4 3.2-1.1 4.6-.8 1.4-1.9 2.4-3.3 2.9 1.2.5 2.2 1.3 3 2.7.8 1.3 1.2 2.9 1.4 4.8 0 .4.1 1.1.1 2.1.1 1 .2 1.9.3 2.6.1.7.3 1.3.6 1.7h-9.2c-.4-1.1-.6-2.7-.8-4.6-.1-1.2-.3-2.2-.5-3-.2-.8-.6-1.5-1.2-2s-1.4-.8-2.6-.8h-4.9v10.5h-9.3z"/></symbol><symbol viewBox="0 0 45 48" id="donate" xmlns="http://www.w3.org/2000/svg"><path fill="currentColor" d="M44.4 20.2c-.7-.8-1.9-.9-2.8-.3L27.4 31h-1.6c0 2.3-1.8 4.2-4.1 4.2H7c-.3 0-.6-.3-.6-.6 0-.4.3-.6.6-.6h14.6c1.5 0 2.8-1.2 2.9-2.7.1-1.7-1.2-3.1-2.8-3.1H3.5c-.9 0-1.8.4-2.5 1-1.1 1.1-1.3 2.8-.7 4.1l3.3 6.8c.7 1.4 2.1 2.3 3.7 2.3h18.2c1.2 0 2.3-.5 3.1-1.4l15.7-17.7c.9-.9.9-2.3.1-3.1M21 21.5l-1.3-1.1c-4.6-4.1-7.7-6.8-7.7-10.1 0-2.7 2.2-4.8 5-4.8 1.6 0 3.1 1.6 4 2.7 1-1.1 2.5-2.7 4-2.7 2.8 0 5 2.1 5 4.8 0 3.3-3.1 6-7.7 10.1L21 21.5z"/></symbol><symbol viewBox="0 0 24.2 26" id="down" xmlns="http://www.w3.org/2000/svg"><path fill="currentColor" d="M5.3 8L3 10.1l9.3 9.3 9.4-9.3L19.4 8l-7.1 7z"/></symbol><symbol viewBox="0 0 36 36" id="facebook" xmlns="http://www.w3.org/2000/svg"><path d="M17.888 35.858C8.008 35.858 0 27.83 0 17.928 0 8.028 8.009 0 17.888 0c9.88 0 17.888 8.027 17.888 17.929s-8.008 17.929-17.888 17.929zm1.454-17.19h3.478l.792-3.62h-4.27V12.55c0-1.107.568-1.807 2.195-1.807l2.075-.001v-3.42c-.359-.047-1.59-.151-3.024-.151-2.992 0-4.841 1.782-4.841 5.056v2.82h-3.583v3.62h3.583v10.018h3.595V18.667z" fill="currentColor"/></symbol><symbol viewBox="0 0 272 92" id="google" xmlns="http://www.w3.org/2000/svg"><path fill="#EA4335" d="M115.75 47.18c0 12.77-9.99 22.18-22.25 22.18s-22.25-9.41-22.25-22.18C71.25 34.32 81.24 25 93.5 25s22.25 9.32 22.25 22.18zm-9.74 0c0-7.98-5.79-13.44-12.51-13.44S80.99 39.2 80.99 47.18c0 7.9 5.79 13.44 12.51 13.44s12.51-5.55 12.51-13.44z"/><path fill="#FBBC05" d="M163.75 47.18c0 12.77-9.99 22.18-22.25 22.18s-22.25-9.41-22.25-22.18c0-12.85 9.99-22.18 22.25-22.18s22.25 9.32 22.25 22.18zm-9.74 0c0-7.98-5.79-13.44-12.51-13.44s-12.51 5.46-12.51 13.44c0 7.9 5.79 13.44 12.51 13.44s12.51-5.55 12.51-13.44z"/><path fill="#4285F4" d="M209.75 26.34v39.82c0 16.38-9.66 23.07-21.08 23.07-10.75 0-17.22-7.19-19.66-13.07l8.48-3.53c1.51 3.61 5.21 7.87 11.17 7.87 7.31 0 11.84-4.51 11.84-13v-3.19h-.34c-2.18 2.69-6.38 5.04-11.68 5.04-11.09 0-21.25-9.66-21.25-22.09 0-12.52 10.16-22.26 21.25-22.26 5.29 0 9.49 2.35 11.68 4.96h.34v-3.61h9.25zm-8.56 20.92c0-7.81-5.21-13.52-11.84-13.52-6.72 0-12.35 5.71-12.35 13.52 0 7.73 5.63 13.36 12.35 13.36 6.63 0 11.84-5.63 11.84-13.36z"/><path fill="#34A853" d="M225 3v65h-9.5V3h9.5z"/><path fill="#EA4335" d="M262.02 54.48l7.56 5.04c-2.44 3.61-8.32 9.83-18.48 9.83-12.6 0-22.01-9.74-22.01-22.18 0-13.19 9.49-22.18 20.92-22.18 11.51 0 17.14 9.16 18.98 14.11l1.01 2.52-29.65 12.28c2.27 4.45 5.8 6.72 10.75 6.72 4.96 0 8.4-2.44 10.92-6.14zm-23.27-7.98l19.82-8.23c-1.09-2.77-4.37-4.7-8.23-4.7-4.95 0-11.84 4.37-11.59 12.93z"/><path fill="#4285F4" d="M35.29 41.41V32H67c.31 1.64.47 3.58.47 5.68 0 7.06-1.93 15.79-8.15 22.01-6.05 6.3-13.78 9.66-24.02 9.66C16.32 69.35.36 53.89.36 34.91.36 15.93 16.32.47 35.3.47c10.5 0 17.98 4.12 23.6 9.49l-6.64 6.64c-4.03-3.78-9.49-6.72-16.97-6.72-13.86 0-24.7 11.17-24.7 25.03 0 13.86 10.84 25.03 24.7 25.03 8.99 0 14.11-3.61 17.39-6.89 2.66-2.66 4.41-6.46 5.1-11.65l-22.49.01z"/></symbol><symbol viewBox="0 0 272 92" id="google-monochrome" xmlns="http://www.w3.org/2000/svg"><path d="M115.75 47.18c0 12.77-9.99 22.18-22.25 22.18s-22.25-9.41-22.25-22.18C71.25 34.32 81.24 25 93.5 25s22.25 9.32 22.25 22.18zm-9.74 0c0-7.98-5.79-13.44-12.51-13.44S80.99 39.2 80.99 47.18c0 7.9 5.79 13.44 12.51 13.44s12.51-5.55 12.51-13.44zm57.74 0c0 12.77-9.99 22.18-22.25 22.18s-22.25-9.41-22.25-22.18c0-12.85 9.99-22.18 22.25-22.18s22.25 9.32 22.25 22.18zm-9.74 0c0-7.98-5.79-13.44-12.51-13.44s-12.51 5.46-12.51 13.44c0 7.9 5.79 13.44 12.51 13.44s12.51-5.55 12.51-13.44zm55.74-20.84v39.82c0 16.38-9.66 23.07-21.08 23.07-10.75 0-17.22-7.19-19.66-13.07l8.48-3.53c1.51 3.61 5.21 7.87 11.17 7.87 7.31 0 11.84-4.51 11.84-13v-3.19h-.34c-2.18 2.69-6.38 5.04-11.68 5.04-11.09 0-21.25-9.66-21.25-22.09 0-12.52 10.16-22.26 21.25-22.26 5.29 0 9.49 2.35 11.68 4.96h.34v-3.61h9.25zm-8.56 20.92c0-7.81-5.21-13.52-11.84-13.52-6.72 0-12.35 5.71-12.35 13.52 0 7.73 5.63 13.36 12.35 13.36 6.63 0 11.84-5.63 11.84-13.36zM225 3v65h-9.5V3h9.5zm37.02 51.48l7.56 5.04c-2.44 3.61-8.32 9.83-18.48 9.83-12.6 0-22.01-9.74-22.01-22.18 0-13.19 9.49-22.18 20.92-22.18 11.51 0 17.14 9.16 18.98 14.11l1.01 2.52-29.65 12.28c2.27 4.45 5.8 6.72 10.75 6.72 4.96 0 8.4-2.44 10.92-6.14zm-23.27-7.98l19.82-8.23c-1.09-2.77-4.37-4.7-8.23-4.7-4.95 0-11.84 4.37-11.59 12.93zM35.29 41.41V32H67c.31 1.64.47 3.58.47 5.68 0 7.06-1.93 15.79-8.15 22.01-6.05 6.3-13.78 9.66-24.02 9.66C16.32 69.35.36 53.89.36 34.91.36 15.93 16.32.47 35.3.47c10.5 0 17.98 4.12 23.6 9.49l-6.64 6.64c-4.03-3.78-9.49-6.72-16.97-6.72-13.86 0-24.7 11.17-24.7 25.03 0 13.86 10.84 25.03 24.7 25.03 8.99 0 14.11-3.61 17.39-6.89 2.66-2.66 4.41-6.46 5.1-11.65l-22.49.01z"/></symbol><symbol viewBox="0 0 48 48" fill="#FFF" id="landscape-overlay-icon" xmlns="http://www.w3.org/2000/svg"><path d="M0 0h48v48H0z" fill="none"/><path d="M32.97 5.03C39.5 8.13 44.19 14.48 44.9 22h3C46.88 9.68 36.58 0 24 0c-.45 0-.88.04-1.33.07L30.3 7.7l2.67-2.67zM20.46 3.49a3 3 0 0 0-4.24 0L3.49 16.22a3 3 0 0 0 0 4.24L27.53 44.5a3 3 0 0 0 4.24 0L44.5 31.77a3 3 0 0 0 0-4.24L20.46 3.49zm9.2 38.89L5.61 18.34 18.34 5.61l24.04 24.04-12.72 12.73zm-14.63.59C8.5 39.87 3.81 33.52 3.1 26h-3C1.12 38.32 11.42 48 24 48c.45 0 .88-.04 1.33-.07L17.7 40.3l-2.67 2.67z"/></symbol><symbol viewBox="0 0 36 36" id="link" xmlns="http://www.w3.org/2000/svg"><path d="M25.861 17.049v.001l-3.733 3.732a5.027 5.027 0 0 1-3.568 1.469 5.194 5.194 0 0 1-3.678-1.529 1.25 1.25 0 0 1 .42-2.045 1.251 1.251 0 0 1 1.356.273c.907.907 2.291 1.043 3.296.392.144-.094.28-.203.405-.329l3.732-3.732c1.005-1.005.98-2.667-.058-3.706-1.039-1.039-2.702-1.065-3.706-.06l-.686.687a1.25 1.25 0 0 1-1.356.273 1.248 1.248 0 0 1-.419-2.044l.687-.688c1.982-1.98 5.232-1.953 7.247.061a5.191 5.191 0 0 1 1.528 3.636 5.022 5.022 0 0 1-1.467 3.609m-7.574 7.574l-.802.802a5.021 5.021 0 0 1-3.566 1.468 5.194 5.194 0 0 1-3.676-1.528c-2.012-2.013-2.039-5.262-.06-7.241l3.73-3.73c1.981-1.979 5.228-1.952 7.241.06a1.25 1.25 0 0 1-1.768 1.768c-1.038-1.038-2.7-1.065-3.706-.06l-3.729 3.729c-1.005 1.005-.978 2.668.06 3.706 1.04 1.038 2.7 1.065 3.706.06l.803-.802a1.25 1.25 0 0 1 1.767 1.768M17.888 0C8.008 0 0 8.027 0 17.929s8.008 17.929 17.888 17.929c9.88 0 17.888-8.027 17.888-17.929S27.767 0 17.888 0" fill="currentColor"/></symbol><symbol viewBox="0 0 28 27" id="more" xmlns="http://www.w3.org/2000/svg"><path d="M4.2 3.7v2.2h19.5V3.7H4.2zm0 8.7v2.2h19.5v-2.2H4.2zm0 8.7v2.2h19.5v-2.2H4.2zm0-13v2.2h11.5V8.1H4.2zm0 8.7V19h11.5v-2.2H4.2z" fill="currentColor"/></symbol><symbol viewBox="0 0 13 54" id="q3-halfman" xmlns="http://www.w3.org/2000/svg"><title>Man Copy 7</title><path d="M11.833 9.206V.185C9.812.185 7.52 2.349 7.52 4.879a4.017 4.017 0 0 0 1.192 3.01 4.563 4.563 0 0 0 3.12 1.317zm-5.77 1.965a3.155 3.155 0 0 0-2.508.854 3.335 3.335 0 0 0-1.033 2.496L.878 27.893c-.02.476.165.937.506 1.26a1.55 1.55 0 0 0 1.264.415c.456.036.905-.124 1.24-.441.337-.318.529-.765.53-1.234l.76-7.361c0-.662.379-1.87 1.138-1.87a.886.886 0 0 1 .744.255.939.939 0 0 1 .267.758V50.64c0 1.338.253 2.675 2.024 2.675 1.77 0 2.023-1.337 2.023-2.675V32.918h.815l-.161-21.747H6.063z" fill="inherit" fill-rule="evenodd"/></symbol><symbol viewBox="0 0 42 90" id="q3-men" xmlns="http://www.w3.org/2000/svg"><title>Shape</title><path fill="inherit" d="M20.551 15.962c3.989 0 7.368-3.823 7.368-8.28 0-4.457-3.933-7.647-7.368-7.647-3.379 0-7.312 3.823-7.312 8.28 0 4.457 3.38 7.647 7.312 7.647zm11.245 1.069H9.417c-3.822 0-6.37 2.305-6.37 5.757L0 45.805c0 1.726 1.274 2.879 3.213 2.879 1.883 0 3.157-1.153 3.157-2.879l1.44-12.656c0-1.152.72-3.222 1.94-3.222 1.273 0 1.938.573 1.938 1.726V84.94c0 2.3.333 4.599 3.545 4.599 3.158 0 3.767-2.3 3.767-4.6v-30.5h3.158v30.5c0 2.3 1.883 4.6 5.096 4.6 3.157 0 2.88-2.3 2.88-4.6V31.654c0-1.153.61-1.726 1.884-1.726s.443.573.443 1.726l2.991 14.731c-.61 1.147.61 2.3 2.548 2.3 1.884 0 3.158-1.153 3.158-2.879L38.11 22.788c0-3.452-2.548-5.757-6.315-5.757z" fill-rule="evenodd"/></symbol><symbol viewBox="0 0 59 90" id="q3-women-children" xmlns="http://www.w3.org/2000/svg"><title>Shape</title><path fill="inherit" d="M27.777 7.266C27.739 3.224 24.435-.024 20.389 0c-4.046.025-7.31 3.315-7.297 7.357.012 4.041 3.296 7.31 7.342 7.311 4.072-.025 7.356-3.335 7.343-7.402zM0 43.623c.228 2.252 3.529 3.633 5.123 2.064l.967-2.2c1.537-3.576 4.042-9.483 5.123-12.047a.254.254 0 0 1 .228-.17.275.275 0 0 1 .285.283l-4.497 26.92a1.392 1.392 0 0 0 1.423 1.711h3.529l.398 26.244a2.992 2.992 0 0 0 2.96 2.968 3.072 3.072 0 0 0 3.017-2.73l1.138-26.482h1.423l1.196 26.483a2.993 2.993 0 0 0 3.102 2.728 2.992 2.992 0 0 0 2.874-2.967l.399-26.244h2.533c.227-.778.95-3.189 1.73-5.799L29.143 31.56a.274.274 0 0 1 .228-.29.335.335 0 0 1 .284.17c1.253 3.02 4.52 10.683 5.857 13.708.055.121.118.24.188.352.524-1.04 1.548-2.137 3.814-2.53a8.546 8.546 0 0 1-2.157-5.696c0-.729.092-1.455.273-2.16l-5.191-13.52c-.888-2.064-2.214-5.35-12.005-5.43-9.79.08-11.156 3.366-12.01 5.43L.854 41.27 0 43.623zm37.186 3.366c.25-.796.66-1.78 2.766-2.11a37.338 37.338 0 0 1 5.459-.403h1.047c1.829 0 3.655.136 5.464.404 2.107.33 2.516 1.313 2.767 2.109 0 0 3.859 12.894 4.155 13.935a1.725 1.725 0 0 1-3.193 1.302c-.826-1.86-2.812-6.59-3.592-8.443a.179.179 0 0 0-.16-.102.17.17 0 0 0-.17.176l-.495 33.73a1.835 1.835 0 1 1-3.666.148l-.83-18.568a.64.64 0 0 0-.78-.568c-.826 0-.826.568-.826.568L44.3 87.735a1.835 1.835 0 0 1-3.666-.147l-.495-33.731a.17.17 0 0 0-.17-.176c-.07 0-.13.04-.16.102-.78 1.853-2.772 6.583-3.592 8.443a1.725 1.725 0 0 1-3.193-1.302c.296-1.04 4.16-13.935 4.16-13.935zm8.64-3.116a6.612 6.612 0 0 1-6.163-4.023 6.598 6.598 0 0 1 1.384-7.224 6.617 6.617 0 0 1 7.216-1.464 6.604 6.604 0 0 1 4.098 6.11 6.569 6.569 0 0 1-6.535 6.601z" fill-rule="evenodd"/></symbol><symbol viewBox="0 0 36 36" id="twitter" xmlns="http://www.w3.org/2000/svg"><path d="M17.888 35.858C8.008 35.858 0 27.83 0 17.928 0 8.028 8.009 0 17.888 0c9.88 0 17.888 8.027 17.888 17.929s-8.008 17.929-17.888 17.929zm-2.735-10.04c7.02 0 10.86-6.07 10.86-11.333 0-.173-.005-.345-.012-.515a7.954 7.954 0 0 0 1.905-2.062 7.4 7.4 0 0 1-2.193.627 3.97 3.97 0 0 0 1.679-2.204 7.453 7.453 0 0 1-2.424.967 3.74 3.74 0 0 0-2.786-1.258c-2.108 0-3.817 1.783-3.817 3.983 0 .312.034.616.099.908-3.172-.166-5.985-1.752-7.867-4.162a4.097 4.097 0 0 0-.517 2.003c0 1.381.674 2.6 1.698 3.315a3.682 3.682 0 0 1-1.729-.498v.05c0 1.93 1.316 3.54 3.062 3.905a3.672 3.672 0 0 1-1.724.069c.486 1.582 1.895 2.734 3.566 2.766a7.458 7.458 0 0 1-5.651 1.65 10.479 10.479 0 0 0 5.85 1.789z" fill="currentColor"/></symbol><symbol viewBox="0 0 400 400" id="twitter-blue" xmlns="http://www.w3.org/2000/svg"><path fill="#1da1f2" d="M153.62 301.59c94.34 0 145.94-78.16 145.94-145.94 0-2.22 0-4.43-.15-6.63A104.36 104.36 0 0 0 325 122.47a102.38 102.38 0 0 1-29.46 8.07 51.47 51.47 0 0 0 22.55-28.37 102.79 102.79 0 0 1-32.57 12.45 51.34 51.34 0 0 0-87.41 46.78A145.62 145.62 0 0 1 92.4 107.81a51.33 51.33 0 0 0 15.88 68.47A50.91 50.91 0 0 1 85 169.86v.65a51.31 51.31 0 0 0 41.15 50.28 51.21 51.21 0 0 1-23.16.88 51.35 51.35 0 0 0 47.92 35.62 102.92 102.92 0 0 1-63.7 22 104.41 104.41 0 0 1-12.21-.74 145.21 145.21 0 0 0 78.62 23"/></symbol><symbol viewBox="0 0 126 30" id="unhcr" xmlns="http://www.w3.org/2000/svg"><path d="M84.073 29.176c-.27-.15-.464-.314-.554-.523-.224-.479-.209-.508.374-.508.479 0 .554.03.793.269.359.359.822.359 1.181 0 .15-.15.27-.344.27-.479a5.2 5.2 0 0 1 .03-.448c.014-.225 0-.225-.12-.105-.24.21-.778.389-1.137.389-.374 0-.987-.255-1.211-.509-.583-.643-.628-2.034-.105-2.826.464-.703 1.555-.913 2.213-.479.39.27.39.27.374.06-.015-.12.075-.165.524-.194l.538-.03-.015 2.123c-.015 2.184-.045 2.453-.434 2.901-.388.599-1.944.763-2.721.36zm1.63-2.377c.269-.15.448-.569.448-1.107 0-.419-.03-.538-.254-.793-.21-.239-.329-.284-.613-.284-.224 0-.434.06-.538.18-.434.388-.464 1.42-.045 1.869.194.254.673.314 1.002.135zm18.663 2.392c-.373-.194-.807-.688-.807-.927 0-.09.15-.12.523-.12.479 0 .554.03.793.27.194.194.344.269.553.269.374 0 .793-.224.853-.479.074-.329.12-.867.074-.867-.03 0-.164.075-.299.194-.613.449-1.75.27-2.183-.314-.718-.957-.479-2.677.449-3.215.523-.314 1.24-.314 1.69 0 .388.27.418.27.343.045-.044-.165 0-.18.554-.18h.598l-.03 2.169c-.03 2.572-.075 2.707-.867 3.125-.643.315-1.645.344-2.244.03zm1.675-2.497c.569-.613.374-1.825-.329-2.034-.284-.075-.388-.075-.613.045a.944.944 0 0 0-.359.299c-.269.508-.18 1.376.195 1.705.269.269.852.254 1.106-.015zm15.224 2.153c.03-.478.03-.478.315-.448.344.03.613-.09.702-.344.03-.105-.209-.868-.658-2.109-.388-1.062-.717-1.959-.717-2.019 0-.045.254-.09.568-.09h.568l.434 1.302c.24.717.463 1.3.478 1.3.03 0 .225-.553.449-1.24.21-.689.419-1.272.449-1.302.03-.03.314-.06.613-.045l.538.03-.837 2.259c-.464 1.24-.898 2.377-.987 2.527-.225.434-.613.613-1.316.613h-.599v-.434zm-72.067-.867c-1.017-.18-1.645-1.002-1.645-2.139 0-1.181.882-2.078 2.079-2.078.658 0 1.016.15 1.42.598.36.389.524.837.524 1.42v.375h-1.421c-1.57 0-1.57 0-1.301.523.15.27.478.464.837.464.27 0 .823-.3.823-.45 0-.044.224-.089.493-.089.524 0 .569.045.36.449-.225.434-.719.792-1.212.882-.254.045-.494.09-.523.075-.045.03-.225 0-.434-.03zm1.181-2.692c.045-.224-.314-.598-.643-.658-.359-.06-.822.15-.972.464-.15.314-.03.344.838.344.628-.015.762-.045.777-.15zm5.055 2.647c-.628-.18-.972-.448-1.241-1.002-.21-.434-.24-.583-.284-2.108-.03-.898-.015-1.84.015-2.064l.06-.434h1.136v1.585c0 1.825.045 2.363.18 2.617.269.509 1.405.599 1.854.15l.24-.24.029-2.063.03-2.064h1.256l-.03 2.124c-.03 1.989-.045 2.138-.224 2.497-.21.389-.613.763-1.047.912-.419.195-1.466.225-1.974.09zm24.406.03c-.448-.09-.747-.374-.852-.793-.045-.179-.09-1.002-.09-1.824v-1.51l.539.03.538.03.015 1.345c.015 1.092.045 1.391.18 1.57.299.464 1.076.36 1.286-.164.074-.21.12-.688.12-1.555v-1.256h.523c.344 0 .538.03.568.104.015.06.03.957.03 1.974v1.87l-.568.03c-.344.014-.539 0-.509-.06.03-.045.03-.15 0-.225-.045-.104-.09-.09-.284.075a1.37 1.37 0 0 1-.553.27c-.18.03-.374.06-.464.074-.06.075-.284.06-.479.015zm9.527 0a1.898 1.898 0 0 1-1.316-.972c-.18-.344-.21-.508-.195-1.166.015-.658.06-.823.27-1.137a2.92 2.92 0 0 1 .613-.613c.329-.225.463-.254 1.091-.254.643 0 .778.03 1.107.254.449.299.763.912.852 1.645l.06.478h-1.495c-.823 0-1.496.03-1.496.075s.045.21.09.344c.21.568 1.107.718 1.6.254.195-.194.33-.224.703-.224.464 0 .464 0 .374.24-.284.867-1.137 1.256-2.258 1.076zm1.27-2.572c.03 0 .016-.15-.03-.284-.104-.33-.582-.569-.971-.479-.24.045-.718.494-.718.658 0 .045.06.09.165.105.12.045 1.375.03 1.555 0zm3.201 2.587c-1.047-.164-1.69-.987-1.69-2.139 0-1.166.883-2.078 2.064-2.078.628 0 .867.075 1.316.493.389.36.628.927.628 1.54v.374h-1.42c-1.57 0-1.57 0-1.302.524.15.27.479.464.838.464.27 0 .822-.3.822-.45 0-.044.225-.089.494-.089.523 0 .568.045.359.434-.389.718-1.167 1.062-2.109.927zm1.122-2.662c.06-.18-.225-.553-.494-.658-.493-.194-1.3.284-1.151.658.075.194 1.585.165 1.645 0zm14.745 2.647c-.703-.075-1.136-.374-1.435-.987-.39-.793-.3-1.884.224-2.512.748-.898 2.393-.913 3.066-.03.269.359.493 1.017.493 1.45v.3h-2.96l.059.254c.18.732 1.137.987 1.66.418.165-.18.3-.224.688-.224.254 0 .478.015.478.045 0 .09-.284.613-.433.793-.374.403-1.032.583-1.84.493zm1.197-2.602c0-.045-.06-.194-.12-.314a.832.832 0 0 0-.972-.389c-.314.09-.763.643-.598.748.12.045 1.69.03 1.69-.045zm7.387 2.572c-.583-.15-.927-.434-1.21-.987-.195-.374-.24-.613-.24-1.062 0-1.316.777-2.108 2.079-2.108.882 0 1.54.359 1.78 1.017.179.463.149.508-.45.508-.493 0-.538-.015-.643-.24-.15-.313-.538-.508-.867-.433-.822.18-1.062 1.66-.374 2.348.195.194.284.224.583.18.42-.045.658-.255.748-.554.045-.21.09-.224.598-.224h.539l-.06.284c-.194.972-1.301 1.57-2.483 1.271zm-45.343-.15c-1.151-.568-1.39-2.422-.448-3.469.299-.329.837-.538 1.435-.538 1.032 0 1.72.583 1.93 1.63.164.807.209.792-1.436.792H72.99l.06.255c.105.448.434.703.912.703.36 0 .494-.045.703-.255s.329-.254.718-.254c.254 0 .463.03.463.075 0 .224-.568.912-.882 1.092-.493.224-1.495.224-2.019-.03zm1.81-2.422c.03-.03-.015-.194-.105-.344-.284-.479-.987-.553-1.346-.15-.224.255-.314.494-.194.524.18.06 1.585.03 1.645-.03zm-34.71.284V23.42h-.255c-.15 0-.523 0-.852-.015h-.598v-1.048h4.576v1.017l-.763.015c-.419 0-.793.045-.852.075-.06.045-.09.762-.09 2.213l.015 2.153-.583.03-.584.03v-2.243h-.015zm3.215-.538v-2.767h1.166v1.047c0 .987.015 1.032.15.852.314-.448 1.256-.613 1.854-.329.553.27.628.524.658 2.348l.03 1.63h-1.166l-.03-1.495c-.03-1.66-.06-1.75-.703-1.72-.688 0-.808.314-.808 1.96v1.255h-1.166l.015-2.781zm16.256 0v-2.767h1.226l1.137 1.84 1.136 1.839.03-1.84.03-1.839h1.166v5.533h-1.286l-1.106-1.81-1.122-1.809-.03 1.81-.03 1.81h-1.166v-2.767h.015zm7.238 2.751v-5.398c0-.075.419-.105 1.705-.105 1.854 0 2.108.045 2.527.508.538.584.509 1.645-.075 2.169-.284.254-.299.27-.12.359.285.164.464.598.54 1.42.044.434.089.838.149.928.044.15 0 .164-.569.164h-.628l-.045-.389c-.03-.224-.074-.583-.104-.822a3.18 3.18 0 0 0-.12-.568c-.12-.255-.553-.36-1.301-.33l-.718.03.015 1.047.015 1.047h-.613a12.31 12.31 0 0 0-.658-.06zm2.99-3.11c.3-.15.464-.539.345-.898-.105-.433-.539-.598-1.391-.598h-.703v1.616h.763c.404-.03.852-.074.987-.12zm6.94 1.525c0-1.226-.03-1.615-.105-1.615-.06 0-.21-.015-.314-.015-.18 0-.21-.045-.21-.389 0-.374 0-.389.315-.389.299 0 .314-.015.314-.314 0-.762.523-1.211 1.406-1.211h.553v.389c0 .389 0 .389-.3.389-.358 0-.508.15-.508.463 0 .24.03.255.36.255h.358v.388c0 .344-.015.39-.21.39-.552 0-.508-.12-.508 1.63v1.614H76.67l.015-1.585zm21.25 1.57c0-.015.464-1.256 1.033-2.736.568-1.496 1.032-2.722 1.032-2.737s.299-.03.658-.03c.538 0 .658.03.732.165.045.12.494 1.316 1.75 4.695l.254.703h-1.286l-.164-.508c-.09-.284-.21-.569-.254-.628-.105-.15-2.034-.12-2.08.015-.014.044-.104.329-.224.598l-.194.508h-.613c-.359-.015-.643-.03-.643-.045zm3.396-2.153c0-.045-.629-1.884-.658-1.914s-.688 1.78-.688 1.884c0 .03.299.06.658.06s.688 0 .688-.03zm11.17.18v-2.02h1.078v.285c0 .284 0 .284.12.09.328-.48 1.435-.629 1.973-.3.524.314.599.583.628 2.348l.03 1.585h-1.166l-.03-1.42c-.03-1.257-.045-1.436-.21-1.615-.224-.24-.762-.255-1.046-.015-.21.164-.21.224-.24 1.615l-.03 1.435h-1.136l.03-1.989zm-13.354-5.863c-3.828-.21-6.565-2.587-7.432-6.46-.225-.987-.225-3.276 0-4.278.359-1.645 1.017-2.946 1.989-4.007.762-.808 1.36-1.257 2.303-1.69 1.3-.599 2.078-.748 3.978-.748 1.405 0 1.764.03 2.363.21 1.495.418 2.766 1.21 3.484 2.168.852 1.136 1.211 2.034 1.51 3.798l.045.284h-4.965l-.164-.478c-.419-1.301-1.45-2.034-2.737-1.914-1.87.18-2.886 1.75-2.886 4.486 0 1.765.344 2.886 1.121 3.694.539.568.957.763 1.81.808.598.03.793 0 1.181-.165.763-.329 1.391-1.211 1.6-2.243l.045-.254h4.995l-.045.643c-.044.762-.448 1.974-.882 2.706-.419.688-1.33 1.66-1.974 2.11-1.525 1.076-3.066 1.45-5.339 1.33zm-55.139-.045c-2.647-.359-4.441-1.66-5.189-3.753-.434-1.182-.478-1.87-.478-7.687V3.14l2.572.015 2.572.015.015 5.279c.015 6.116.015 6.116.748 6.85.478.478.912.612 1.81.612.747 0 1.39-.299 1.72-.792.537-.808.523-.733.552-6.61l.03-5.384h5.055v5.444c0 3.424-.03 5.697-.09 6.146-.418 2.931-2.108 4.636-5.144 5.16-.703.134-3.425.179-4.173.09zm12.473-8.569v-8.27h5.234l2.363 4.367c2.079 3.828 2.378 4.337 2.438 4.127.03-.12.06-.418.06-.628V6.864l.014-3.739 2.393.03 2.393.03v16.45l-2.498.015-2.497.015-1.42-2.572c-.778-1.406-1.915-3.425-2.498-4.487l-1.077-1.914-.015 4.487-.015 4.486h-4.815l-.06-8.27zm17.96 0v-8.27l2.573.015 2.572.015v5.683h4.726V3.155l2.572-.015 2.572-.015v16.54h-5.174v-6.46h-4.666l-.015 3.215-.015 3.215-2.572.015-2.572.015v-8.27zm35.1 0v-8.27h5.07c2.886 0 5.338.045 5.682.09 2.588.359 4.188 1.974 4.307 4.322.105 1.84-.643 3.5-1.944 4.232l-.448.254.284.105c.433.18 1.077.867 1.39 1.48.434.808.629 1.69.748 3.156.09 1.151.225 2.049.42 2.677l.059.21h-5.055l-.09-.45c-.06-.239-.15-.822-.209-1.27-.24-2.05-.284-2.334-.419-2.678-.194-.538-.538-.972-.972-1.151-.314-.15-.598-.18-2.049-.18h-1.675v5.713h-5.114v-8.24h.015zm9.167-1.286c.778-.374 1.062-1.301.658-2.109-.344-.733-1.271-.972-3.484-.912l-1.212.03-.03 1.63-.03 1.63 1.81-.03c1.765-.015 1.855-.03 2.288-.24zM14.936 28.892c-.09-.045-.18-.104-.18-.12 0-.044.689-.717 1.003-.971.568-.45 1.585-1.062 2.138-1.287.105-.044.18-.09.15-.104-.045-.03-.613-.015-.942.03-.584.074-1.51.329-2.677.718a9.793 9.793 0 0 1-1.645.403c-1.122.165-2.812.045-3.65-.269a.89.89 0 0 1-.313-.21l-.12-.134.628-.015c.838-.03.927-.045 2.004-.419 1.271-.433 2.154-.598 3.739-.717 1.047-.075 1.72-.06 2.542.09.374.06 1.002.209 1.092.254.03.015.18-.015.329-.06 1.062-.3 2.093-.39 3.305-.314 1.63.12 2.587.299 3.993.777.957.33 1.091.344 1.87.374.343.015.627.03.627.045s-.06.09-.134.165c-.15.15-.314.209-.883.329-.613.134-1.061.18-1.794.18-.718 0-1.062-.03-1.675-.15-.509-.09-.658-.135-1.645-.464-1.017-.33-1.615-.494-2.124-.568-.374-.06-.972-.09-1.047-.06-.03.015.195.134.479.269.478.24.628.314 1.092.628.478.314 1.226.927 1.54 1.271.105.105.18.21.18.225s-.045.044-.105.06c-.06.03-.15.074-.21.09l-.104.044-.434-.434c-.763-.777-1.496-1.33-2.183-1.675-.344-.18-.883-.359-1.032-.359-.135 0-.658.195-1.017.36-.673.328-1.361.852-2.124 1.6-.284.269-.523.508-.523.508.045 0-.045-.045-.15-.09zm-5.399-3.065c-.164-.03-.747-.18-1.002-.27-.747-.254-1.51-.688-2.004-1.136-.239-.21-.553-.613-.658-.823l-.074-.164.418.21c.524.253.883.388 1.466.493 1.735.344 2.019.403 3.23.777.584.18.987.27 1.017.24.03-.03-.075-.105-.463-.374-.509-.33-.748-.524-1.062-.823-.509-.493-.718-.912-1.017-2.034-.135-.508-.27-.837-.404-1.062-.06-.104-.105-.179-.105-.194.075-.075.509.21 1.002.703.883.852 1.526 1.63 1.825 2.198.254.494.508.883.882 1.331.165.195.284.36.27.374-.045.045-.913.27-1.391.36-.928.179-1.54.238-1.93.194zm17.438-.03a19.104 19.104 0 0 1-1.884-.39c-.225-.059-.42-.119-.42-.134s.03-.075.09-.134c.524-.629.748-.958 1.032-1.496.255-.508.3-.553.479-.778.583-.702 1.54-1.69 1.9-1.959.194-.15.418-.254.463-.209.015.015-.045.105-.12.224-.18.27-.269.524-.448 1.197-.255.942-.45 1.33-.898 1.794-.314.33-.598.554-1.166.942-.225.15-.404.285-.404.3-.015.06.24.015.823-.165.299-.09.687-.21.852-.254a13.77 13.77 0 0 1 1.63-.389c.284-.06.718-.135.957-.18.553-.104.853-.209 1.406-.478l.464-.224-.09.15c-.15.283-.284.448-.554.717-.553.538-1.27.957-2.153 1.271-.793.24-1.241.284-1.96.195zm-18.2-2.274c-.21-.074-.718-.194-1.152-.284-.777-.134-1.256-.314-1.974-.747a3.752 3.752 0 0 1-.763-.569c-.702-.673-1.3-1.66-1.465-2.422-.045-.21-.075-.554-.045-.554.015 0 .27.254.568.554.628.643.942.897 1.51 1.256.48.299.853.613 1.436 1.166.524.509.748.673.958.733.314.075.314.03-.015-.643a7.761 7.761 0 0 1-.494-1.166c-.254-.778-.359-1.586-.344-2.752v-.21l.075.105c.299.374.822 1.211 1.092 1.795.314.673.403 1.047.568 2.348.075.643.164 1.226.18 1.36.06.09.044.09-.135.03zm19.815 0c0-.03.03-.269.06-.553.03-.27.09-.763.134-1.077.135-1.106.21-1.45.494-2.033.284-.614.837-1.51 1.122-1.825l.134-.15-.015.644c-.03 1.345-.224 2.183-.807 3.394-.15.3-.27.584-.27.643 0 .09 0 .105.135.09.254-.015.494-.18 1.152-.807.508-.494.972-.868 1.316-1.077.493-.3.912-.643 1.525-1.256l.598-.599v.165c0 1.017-1.077 2.662-2.153 3.335-.748.463-1.286.673-2.05.822-.493.09-1.001.21-1.225.3-.135.03-.15.03-.15-.016zm-3.634-2.662a1.193 1.193 0 0 1-.464-.134c-.18-.09-.224-.12-.239-.224-.015-.06-.015-.898 0-1.855.03-2.288-.03-2.96-.284-3.44-.33-.643-.449-.882-.598-1.375-.165-.509-.255-.808-.748-2.857a14.803 14.803 0 0 0-.523-1.72c-.494-1.345-.644-1.884-.629-2.467 0-.359.045-.583.18-.778.075-.104.105-.134.21-.134.343 0 .732.359 1.001.912.18.359.3.718.643 1.765.27.837.434 1.166.658 1.405.18.18.33.24.509.195.164-.045.284-.464.284-.972 0-.733-.33-1.556-.927-2.363-.27-.374-.464-.539-1.69-1.45-1.032-.778-1.48-1.137-1.93-1.571-.672-.658-1.001-1.152-1.18-1.75-.135-.463-.09-.807.104-.987.254-.224 1.092.374 2.572 1.87.33.329.987.927 1.436 1.316 2.408 2.063 3.56 3.215 4.082 4.097.165.27.18.36.225.748.045.404.045 2.378 0 3.35a154.136 154.136 0 0 1-.15 2.781c-.015.105-.03.33-.03.509-.015.18-.074.808-.134 1.406-.165 1.555-.21 2.078-.225 2.587-.03.748-.044.882-.074.912-.015.015-.255.06-.524.105-.748.134-1.151.164-1.555.12zm-13.415-.044c-.15-.03-.433-.075-.613-.105l-.329-.06-.015-.389c-.015-.508-.075-1.3-.239-2.766a79.556 79.556 0 0 1-.284-3.844c-.015-.21-.03-.508-.03-.673a14.21 14.21 0 0 1-.03-.957 35.46 35.46 0 0 1-.03-1.181c-.015-.628.03-1.81.09-2.064.09-.359.463-.897 1.151-1.645.614-.658 1.48-1.466 3.216-2.961.508-.434 1.047-.927 1.196-1.107.344-.374 1.152-1.121 1.54-1.45.36-.285.733-.524.943-.569.15-.045.164-.03.239.045.27.254.21.882-.12 1.51-.194.36-.419.659-.867 1.107-.553.554-1.077.987-2.199 1.81-.747.538-1.181.912-1.375 1.136-.569.673-.972 1.51-1.077 2.229-.075.508.075 1.226.27 1.286.253.09.552-.135.777-.613.074-.15.284-.748.478-1.331.569-1.72.883-2.229 1.45-2.318.135-.015.165-.015.24.06.15.134.224.388.24.762.03.598-.105 1.152-.629 2.542-.329.913-.344.943-.897 3.26-.254 1.047-.493 1.75-.793 2.334-.463.897-.463.867-.463 3.514 0 2.423.03 2.228-.3 2.393-.179.09-.209.09-.732.104a7.897 7.897 0 0 1-.808-.06zm6.072 0c-.06-.045-.06-.105-.075-1.376-.015-.733-.03-1.346-.045-1.361-.015-.015-.179-.03-.358-.045-.404-.03-.554-.075-.629-.254-.044-.105-.06-.404-.06-3.814 0-3.978 0-3.918.165-4.247.165-.314.33-.464.853-.733.388-.21.523-.314.628-.523.134-.27.104-.449-.135-.793-.344-.523-.434-.777-.434-1.226.015-.509.165-1.017.374-1.181.254-.21.643-.3 1.062-.27.344.03.553.135.748.33.239.254.359.732.329 1.27-.015.36-.105.599-.33.943-.253.374-.283.463-.283.643 0 .194.09.389.239.523.06.06.27.18.463.284.434.225.703.464.823.718.194.404.18.284.18 4.307-.015 3.47-.015 3.709-.06 3.799-.09.15-.24.194-.613.224-.18.015-.36.03-.374.06-.03.03-.045.463-.045 1.346 0 1.226-.015 1.316-.075 1.376-.06.074-.09.074-1.166.074-.913-.03-1.122-.03-1.182-.074zM5.77 19.71c-1.032-.434-1.944-1.271-2.632-2.393-.449-.733-.838-1.884-.838-2.423v-.15l.135.27c.269.509.389.658 1.241 1.496.957.942 1.182 1.211 1.63 1.884.284.419.314.449.33.359.03-.15-.016-.33-.105-.568-.15-.33-.18-.599-.18-1.331 0-.748.045-1.137.24-1.795.134-.494.209-.852.209-1.032 0-.419.299.24.448.972.15.748.195 1.256.195 2.109 0 .628-.015.867-.075 1.211-.18 1.062-.254 1.51-.27 1.51-.014.016-.164-.044-.328-.119zm25.647.09c0-.03-.03-.165-.044-.3a9.451 9.451 0 0 0-.12-.672 8.942 8.942 0 0 1-.18-1.705c0-1.256.24-2.647.539-3.11l.075-.12.03.104c.015.06.044.21.06.36.014.134.09.433.149.642.21.733.299 1.48.27 2.169-.03.523-.09.807-.21 1.076a.708.708 0 0 0-.075.539c.015.06.075-.015.344-.404.434-.643.837-1.092 1.66-1.9.718-.702.957-.971 1.211-1.45.135-.254.15-.254.135-.03-.03.778-.673 2.228-1.361 3.08-.344.42-.897.943-1.286 1.197-.449.284-1.182.613-1.197.524zM4.333 15.822c-.643-.404-1.436-1.496-1.944-2.692-.374-.868-.553-1.675-.523-2.363.015-.434.09-.763.134-.643.015.03.075.18.12.299.134.344.284.643.553 1.062.135.21.3.478.359.628.224.449.538 1.286.808 2.198.104.33.209.569.299.658.06.06.06.06.09-.374.014-.299.044-.568.104-.837.12-.509.33-1.152.419-1.301.045-.06.194-.33.329-.598.374-.703.538-.957.613-.957.015 0 .03.044.045.104.105.539.12 1.122.03 1.556-.12.553-.33 1.046-.733 1.704-.284.479-.374.703-.479 1.212-.044.224-.09.404-.09.418.03.015-.044-.014-.134-.074zm28.654-.03c-.015-.075-.06-.254-.09-.419-.06-.359-.194-.673-.434-1.077-.583-.987-.807-1.645-.807-2.422 0-.494.09-1.017.164-.958.09.075.24.315.539.868.164.299.329.613.373.673.15.224.434 1.166.509 1.69.015.12.045.374.045.553 0 .24.015.314.045.314.074-.03.239-.389.344-.733.15-.493.299-.942.508-1.48.24-.598.33-.778.628-1.256.3-.464.464-.793.598-1.167.105-.27.105-.284.135-.21.06.165.105.464.105.763 0 1.197-.643 2.827-1.6 4.053-.285.36-.703.778-.913.898l-.12.074-.03-.164zM3.78 12.382c-.509-1.032-.733-2.004-.733-3.26 0-.628 0-.703.105-1.182.12-.568.314-1.196.478-1.555.105-.21.39-.568.449-.568.015 0 .015.284.015.613-.015.523 0 .688.06 1.077.045.299.074.658.09 1.002.014.478 0 .658-.105 1.495-.06.524-.105.957-.105.972.015.015.09-.12.21-.463.224-.584.628-1.167 1.256-1.78.463-.449 1.375-1.196 1.375-1.122 0 .015-.044.12-.104.24s-.195.463-.3.747-.254.644-.328.793c-.18.359-.554.912-.808 1.167-.598.643-1.122 1.45-1.286 1.989-.03.104-.075.194-.075.194s-.09-.15-.194-.359zm29.685.194c-.15-.493-.613-1.24-1.076-1.764-.748-.838-1.017-1.286-1.346-2.228-.09-.27-.225-.599-.285-.718s-.104-.24-.104-.24.194.135.418.3c1.197.912 1.93 1.794 2.274 2.766.12.314.18.404.15.195-.016-.075-.06-.524-.12-1.017-.12-1.107-.12-1.48-.015-2.259.074-.463.09-.687.09-1.181 0-.583 0-.598.06-.568.283.15.657 1.106.881 2.213.195.987.06 2.483-.299 3.53-.104.284-.508 1.15-.538 1.15-.03 0-.06-.074-.09-.179zM4.797 8.628c-.24-.867-.27-2.033-.075-2.841.135-.598.523-1.436.852-1.854.21-.255.539-.539.703-.584.075-.015.075-.015-.03.284a9.362 9.362 0 0 0-.388 1.81c-.045.344-.195.897-.404 1.436-.09.224-.12.359-.105.374.015.014.165-.135.374-.404.688-.883 1.092-1.242 1.87-1.6.209-.105.463-.21.553-.255s.209-.104.269-.15.104-.059.104-.044-.044.12-.104.224c-.24.464-.868 1.316-1.376 1.84-.12.12-.479.418-.808.658-.418.314-.717.553-1.002.852l-.403.404-.03-.15zm27.472-.284a9.87 9.87 0 0 0-.972-.837c-.613-.464-1.002-.823-1.48-1.421-.375-.464-.823-1.166-.823-1.286 0-.015.075.015.15.06.089.045.209.12.268.15 1.331.612 1.481.732 2.259 1.72.239.298.448.537.478.537.03-.014.015-.12-.134-.463-.15-.359-.36-1.122-.36-1.271 0-.344-.194-1.286-.388-1.915-.06-.164-.09-.299-.075-.299.06 0 .389.21.524.36.493.478.957 1.45 1.121 2.317.045.24.06.479.06 1.062 0 .673-.015.778-.09 1.152-.134.613-.09.598-.538.134zM6.337 5.578c-.03-.03-.03-.314.015-.45.09-.343.404-.851.748-1.21.404-.434 1.735-1.346 1.944-1.346.045 0 .045.045.045.18 0 .298-.165.582-.688 1.195-.374.434-.36.434-.808.703-.523.314-.762.494-1.017.748-.12.09-.224.18-.239.18zm24.571-.225c-.254-.254-.434-.389-1.002-.718-.3-.179-.419-.269-.628-.508-.613-.673-.867-1.062-.867-1.36 0-.09 0-.18.014-.195.075-.075 1.047.538 1.616 1.002.613.508 1.091 1.24 1.136 1.72.03.313 0 .328-.269.06z"/></symbol><symbol viewBox="0 0 89 89" id="unhcr-vertical" xmlns="http://www.w3.org/2000/svg"><path d="M47.074 86.17c-.269-.15-.463-.315-.553-.524-.224-.478-.21-.508.374-.508.478 0 .553.03.792.269.36.359.823.359 1.182 0 .15-.15.269-.344.269-.479a5.2 5.2 0 0 1 .03-.448c.015-.225 0-.225-.12-.105-.239.21-.777.389-1.136.389-.374 0-.987-.254-1.212-.509-.583-.643-.628-2.034-.104-2.826.463-.703 1.555-.912 2.213-.479.389.27.389.27.374.06-.015-.12.075-.164.523-.194l.539-.03-.015 2.123c-.015 2.184-.045 2.453-.434 2.902-.389.598-1.944.762-2.722.359zm1.63-2.378c.27-.15.449-.569.449-1.107 0-.419-.03-.538-.254-.793-.21-.239-.33-.284-.613-.284-.225 0-.434.06-.539.18-.433.389-.463 1.42-.045 1.87.195.253.673.313 1.002.134zm18.664 2.392c-.374-.194-.808-.687-.808-.927 0-.09.15-.12.524-.12.478 0 .553.03.792.27.195.194.344.269.554.269.374 0 .792-.224.852-.479.075-.329.12-.867.075-.867-.03 0-.164.075-.3.194-.612.45-1.749.27-2.182-.314-.718-.957-.479-2.676.448-3.215.524-.314 1.241-.314 1.69 0 .389.27.419.27.344.045-.045-.164 0-.18.553-.18h.599l-.03 2.169c-.03 2.572-.075 2.707-.868 3.126-.643.314-1.645.344-2.243.03zm1.675-2.497c.568-.613.374-1.824-.329-2.034-.284-.075-.389-.075-.613.045a.944.944 0 0 0-.36.3c-.268.508-.179 1.375.195 1.704.27.27.853.254 1.107-.015zm15.224 2.154c.03-.479.03-.479.314-.45.344.03.613-.089.703-.343.03-.105-.21-.867-.658-2.109-.389-1.062-.718-1.959-.718-2.019 0-.044.254-.09.568-.09h.569l.433 1.302c.24.718.464 1.3.479 1.3.03 0 .224-.553.449-1.24.209-.688.418-1.272.448-1.302s.314-.06.613-.044l.539.03-.838 2.258c-.463 1.241-.897 2.378-.987 2.527-.224.434-.613.613-1.316.613h-.598v-.433zM12.2 84.973c-1.017-.18-1.645-1.002-1.645-2.138 0-1.182.883-2.08 2.08-2.08.657 0 1.016.15 1.42.6.359.388.523.837.523 1.42v.374h-1.42c-1.57 0-1.57 0-1.302.523.15.27.479.464.838.464.27 0 .822-.3.822-.449 0-.045.225-.09.494-.09.523 0 .568.045.359.449-.224.434-.718.793-1.211.882-.255.045-.494.09-.524.075-.045.03-.224 0-.434-.03zm1.182-2.692c.045-.224-.314-.598-.643-.658-.36-.06-.823.15-.972.464s-.03.344.837.344c.628-.015.763-.045.778-.15zm5.055 2.647c-.629-.18-.972-.448-1.242-1.002-.209-.433-.239-.583-.284-2.108-.03-.898-.015-1.84.015-2.064l.06-.434h1.137v1.585c0 1.825.044 2.363.179 2.618.27.508 1.406.598 1.854.15l.24-.24.03-2.064.03-2.064h1.256l-.03 2.124c-.03 1.989-.045 2.138-.225 2.497-.209.39-.613.763-1.046.913-.42.194-1.466.224-1.974.09zm24.406.03c-.449-.09-.748-.374-.852-.792-.045-.18-.09-1.002-.09-1.825v-1.51l.538.03.539.03.015 1.345c.014 1.092.044 1.391.179 1.57.3.464 1.077.36 1.286-.164.075-.21.12-.688.12-1.555V80.83h.523c.344 0 .539.03.568.104.015.06.03.957.03 1.974v1.87l-.568.03c-.344.015-.538 0-.508-.06.03-.045.03-.15 0-.225-.045-.104-.09-.09-.285.075-.12.105-.373.24-.553.27l-.463.074c-.06.075-.285.06-.479.015zm9.526 0a1.9 1.9 0 0 1-1.316-.972c-.18-.344-.21-.508-.194-1.166.015-.658.06-.823.269-1.137.15-.21.419-.478.613-.613.33-.224.464-.254 1.092-.254.643 0 .778.03 1.107.254.448.299.762.912.852 1.645l.06.479h-1.496c-.822 0-1.495.03-1.495.074s.045.21.09.344c.209.569 1.106.718 1.6.254.194-.194.329-.224.703-.224.463 0 .463 0 .373.24-.284.867-1.136 1.256-2.258 1.076zm1.271-2.572c.03 0 .015-.15-.03-.284-.104-.33-.583-.568-.972-.479-.239.045-.717.494-.717.658 0 .045.06.09.164.105.12.045 1.376.03 1.555 0zm3.2 2.587c-1.046-.164-1.69-.987-1.69-2.138 0-1.167.883-2.08 2.065-2.08.628 0 .867.076 1.316.494.389.36.628.928.628 1.54v.375h-1.42c-1.571 0-1.571 0-1.302.523.15.27.479.464.837.464.27 0 .823-.3.823-.449 0-.045.224-.09.494-.09.523 0 .568.045.358.434-.388.718-1.166 1.062-2.108.927zm1.122-2.662c.06-.18-.224-.553-.493-.658-.494-.194-1.301.284-1.152.658.075.195 1.586.165 1.645 0zm14.746 2.647c-.703-.075-1.137-.374-1.436-.987-.389-.792-.299-1.884.225-2.512.747-.898 2.392-.913 3.065-.03.27.359.494 1.017.494 1.45v.3h-2.962l.06.254c.18.733 1.136.987 1.66.419.164-.18.299-.225.688-.225.254 0 .478.015.478.045 0 .09-.284.613-.434.793-.373.403-1.032.583-1.84.493zm1.196-2.602c0-.045-.06-.194-.12-.314a.832.832 0 0 0-.971-.389c-.314.09-.763.643-.599.748.12.045 1.69.03 1.69-.045zm7.388 2.572c-.583-.15-.927-.433-1.211-.987-.195-.374-.24-.613-.24-1.062 0-1.316.778-2.108 2.08-2.108.881 0 1.54.359 1.779 1.017.18.463.15.508-.449.508-.493 0-.538-.015-.643-.24-.15-.313-.538-.508-.867-.433-.823.18-1.062 1.66-.374 2.348.194.195.284.224.583.18.419-.045.658-.255.748-.554.045-.21.09-.224.598-.224h.538l-.06.284c-.194.972-1.3 1.57-2.482 1.271zm-45.343-.15c-1.152-.568-1.391-2.422-.449-3.469.3-.329.838-.538 1.436-.538 1.032 0 1.72.583 1.929 1.63.164.807.21.793-1.436.793h-1.435l.06.254c.104.448.433.703.912.703.359 0 .493-.045.703-.255s.329-.254.717-.254c.255 0 .464.03.464.075 0 .224-.568.912-.882 1.092-.494.224-1.496.224-2.02-.03zm1.81-2.422c.03-.03-.016-.194-.105-.344-.285-.478-.987-.553-1.346-.15-.225.255-.314.494-.195.524.18.06 1.586.03 1.645-.03zm-34.711.284v-2.228h-.254c-.15 0-.524 0-.853-.015h-.598V79.35h4.576v1.017l-.762.015c-.42 0-.793.045-.853.075-.06.045-.09.762-.09 2.213l.015 2.154-.583.03-.583.03V82.64h-.015zm3.215-.538v-2.767H7.43v1.047c0 .987.015 1.032.15.852.313-.448 1.256-.613 1.854-.329.553.27.628.524.658 2.348l.03 1.63H8.954l-.03-1.495c-.03-1.66-.06-1.75-.703-1.72-.688 0-.807.314-.807 1.96v1.255H6.247l.015-2.781zm16.256 0v-2.767h1.226l1.136 1.84 1.137 1.84.03-1.84.03-1.84h1.166v5.533h-1.286l-1.107-1.81-1.121-1.809-.03 1.81-.03 1.81h-1.167v-2.767h.015zm7.238 2.752v-5.4c0-.075.42-.104 1.705-.104 1.855 0 2.109.045 2.528.509.538.583.508 1.645-.075 2.168-.284.254-.3.27-.12.359.284.164.464.598.539 1.42.045.434.09.838.15.928.044.15 0 .164-.57.164h-.627l-.045-.388c-.03-.225-.075-.584-.105-.823s-.09-.493-.12-.568c-.119-.254-.553-.36-1.3-.33l-.718.03.015 1.047.015 1.047h-.614c-.388-.045-.658-.06-.658-.06zm2.991-3.111c.3-.15.464-.538.344-.897-.104-.434-.538-.599-1.39-.599h-.703v1.616h.762c.404-.03.853-.075.987-.12zm6.94 1.525c0-1.226-.03-1.615-.105-1.615-.06 0-.21-.015-.314-.015-.18 0-.21-.045-.21-.389 0-.373 0-.388.314-.388.3 0 .315-.015.315-.315 0-.762.523-1.21 1.405-1.21h.554v.388c0 .389 0 .389-.3.389-.358 0-.508.15-.508.463 0 .24.03.255.359.255h.359v.388c0 .344-.015.39-.21.39-.553 0-.508-.12-.508 1.63v1.615h-1.166l.015-1.586zm21.25 1.57c0-.014.464-1.256 1.032-2.736.569-1.496 1.032-2.722 1.032-2.737s.3-.03.658-.03c.539 0 .658.03.733.165.045.12.494 1.316 1.75 4.695l.254.703H65.11l-.165-.508c-.09-.284-.209-.568-.254-.628-.105-.15-2.034-.12-2.079.015-.015.045-.104.329-.224.598l-.194.508h-.614c-.358-.015-.643-.03-.643-.044zm3.395-2.153c0-.045-.628-1.884-.658-1.914s-.688 1.78-.688 1.884c0 .03.3.06.658.06s.688 0 .688-.03zm11.171.18v-2.02h1.077v.285c0 .284 0 .284.12.09.329-.48 1.436-.629 1.974-.3.523.314.598.584.628 2.348l.03 1.586h-1.168l-.03-1.421c-.03-1.256-.044-1.436-.209-1.615-.224-.24-.763-.255-1.047-.015-.209.164-.209.224-.239 1.615l-.03 1.436h-1.136l.03-1.99zM62.15 77.002c-3.829-.21-6.565-2.587-7.433-6.46-.224-.987-.224-3.275 0-4.277.36-1.645 1.017-2.947 1.99-4.008.762-.808 1.36-1.257 2.302-1.69 1.301-.598 2.079-.748 3.978-.748 1.406 0 1.765.03 2.363.21 1.496.418 2.767 1.21 3.485 2.168.852 1.136 1.211 2.034 1.51 3.798l.045.285h-4.965l-.165-.479c-.418-1.301-1.45-2.034-2.736-1.914-1.87.18-2.887 1.75-2.887 4.486 0 1.765.344 2.887 1.122 3.694.538.568.957.763 1.81.808.598.03.792 0 1.18-.165.764-.329 1.392-1.211 1.601-2.243l.045-.254h4.995l-.045.643c-.045.762-.449 1.974-.882 2.707-.419.687-1.331 1.66-1.974 2.108-1.526 1.077-3.066 1.45-5.34 1.331zm-55.14-.045c-2.647-.359-4.442-1.66-5.19-3.753-.433-1.182-.478-1.87-.478-7.687v-5.384l2.572.015 2.573.015.015 5.279c.015 6.117.015 6.117.747 6.85.479.478.913.613 1.81.613.748 0 1.39-.3 1.72-.793.538-.808.523-.733.553-6.61l.03-5.384h5.055v5.444c0 3.424-.03 5.698-.09 6.146-.419 2.931-2.109 4.636-5.145 5.16-.702.134-3.424.179-4.172.09zm12.472-8.569v-8.27h5.235l2.363 4.367c2.078 3.828 2.377 4.337 2.437 4.127.03-.12.06-.418.06-.628v-4.127l.015-3.739 2.393.03 2.393.03v16.45l-2.498.015-2.497.015-1.421-2.572c-.778-1.406-1.914-3.425-2.498-4.486l-1.076-1.915-.015 4.487-.015 4.486h-4.816l-.06-8.27zm17.961 0v-8.27l2.573.015 2.572.015v5.683h4.726v-5.683l2.572-.015 2.572-.015v16.54h-5.174v-6.46h-4.666l-.015 3.215-.015 3.215-2.572.015-2.573.015v-8.27zm35.1 0v-8.27h5.07c2.885 0 5.338.045 5.682.09 2.587.359 4.187 1.974 4.307 4.322.105 1.84-.643 3.5-1.944 4.232l-.449.254.284.105c.434.18 1.077.867 1.391 1.48.434.808.628 1.69.748 3.156.09 1.151.224 2.049.419 2.677l.06.21h-5.055l-.09-.45c-.06-.239-.15-.822-.21-1.27-.239-2.05-.284-2.334-.418-2.677-.195-.539-.538-.973-.972-1.152-.314-.15-.598-.18-2.049-.18h-1.675v5.713h-5.115l.015-8.24zm9.167-1.286c.777-.374 1.062-1.301.658-2.109-.344-.732-1.271-.972-3.485-.912l-1.211.03-.03 1.63-.03 1.63 1.81-.03c1.764-.015 1.854-.03 2.288-.239zM37.668 56.664c-.165-.09-.344-.195-.344-.225 0-.09 1.316-1.36 1.914-1.854 1.077-.853 3.02-2.02 4.083-2.453.194-.09.344-.164.284-.194-.09-.06-1.167-.03-1.795.06-1.107.15-2.871.628-5.1 1.36a17.837 17.837 0 0 1-3.14.763c-2.139.314-5.354.09-6.954-.508a1.63 1.63 0 0 1-.598-.404l-.225-.254 1.197-.03c1.6-.06 1.764-.09 3.813-.793 2.423-.822 4.098-1.136 7.119-1.36 1.989-.15 3.275-.12 4.845.164.718.12 1.914.404 2.079.478.06.03.344-.03.628-.12 2.019-.568 3.993-.747 6.296-.597 3.11.224 4.935.568 7.612 1.48 1.825.628 2.079.658 3.56.718.657.03 1.196.06 1.196.09s-.12.164-.254.314c-.285.284-.599.403-1.675.628-1.167.254-2.02.344-3.425.344-1.361 0-2.019-.06-3.185-.284-.973-.165-1.257-.255-3.141-.883-1.944-.628-3.08-.942-4.053-1.076-.718-.12-1.854-.165-1.989-.12-.06.03.374.254.912.508.913.449 1.197.599 2.08 1.197.911.598 2.332 1.764 2.93 2.422.195.195.344.404.344.434 0 .03-.09.09-.194.12-.12.06-.284.15-.404.164l-.194.09-.823-.823c-1.45-1.48-2.856-2.542-4.157-3.185-.658-.344-1.675-.688-1.96-.688-.254 0-1.256.374-1.944.688-1.286.628-2.587 1.63-4.052 3.05-.539.51-1.002.973-1.002.973.09-.03-.075-.105-.284-.194zm-10.29-5.848c-.313-.06-1.42-.344-1.914-.508-1.42-.479-2.87-1.316-3.813-2.169-.449-.404-1.062-1.166-1.256-1.57l-.15-.314.793.404c1.002.478 1.675.747 2.796.942 3.305.658 3.844.763 6.162 1.48 1.106.344 1.884.509 1.944.449.06-.06-.15-.194-.882-.718-.973-.628-1.421-1.002-2.02-1.57-.971-.942-1.36-1.735-1.944-3.873-.254-.972-.508-1.6-.762-2.02-.12-.194-.195-.343-.195-.373.15-.15.972.404 1.915 1.346 1.675 1.63 2.9 3.11 3.484 4.187.479.942.972 1.675 1.675 2.542.314.374.538.688.509.718-.09.09-1.735.509-2.648.688-1.78.33-2.946.449-3.693.36zm33.23-.06c-.972-.15-2.677-.478-3.589-.747-.433-.12-.792-.225-.792-.255s.06-.15.164-.254c1.002-1.196 1.42-1.824 1.96-2.856.478-.972.568-1.062.911-1.48 1.107-1.347 2.932-3.216 3.62-3.74.373-.284.792-.478.882-.403.03.03-.09.194-.224.433-.344.509-.509 1.002-.853 2.274-.478 1.794-.852 2.542-1.705 3.424-.598.628-1.136 1.062-2.228 1.795-.434.284-.763.538-.763.568-.03.12.449.03 1.57-.314.569-.164 1.317-.404 1.63-.479a28.017 28.017 0 0 1 3.111-.747c.539-.12 1.361-.255 1.825-.344 1.062-.195 1.63-.404 2.677-.912l.882-.434-.164.284c-.285.538-.539.852-1.062 1.36-1.062 1.033-2.423 1.825-4.098 2.424-1.525.493-2.378.583-3.754.403zm-34.68-4.322c-.404-.15-1.36-.374-2.198-.538-1.48-.254-2.393-.598-3.769-1.42-.628-.375-.972-.629-1.45-1.077-1.347-1.287-2.483-3.17-2.797-4.622-.09-.403-.15-1.061-.09-1.061.03 0 .509.478 1.077 1.061 1.196 1.227 1.794 1.705 2.871 2.393.912.569 1.63 1.167 2.737 2.229 1.002.972 1.42 1.286 1.824 1.39.599.15.599.06-.03-1.226-.538-1.077-.687-1.48-.942-2.228-.478-1.48-.688-3.021-.658-5.25v-.403l.15.194c.568.718 1.57 2.303 2.079 3.425.598 1.286.762 1.989 1.076 4.471.15 1.227.314 2.333.344 2.588.15.18.12.18-.224.074zm37.761 0c0-.06.06-.508.12-1.061.06-.509.164-1.451.254-2.05.254-2.108.404-2.766.942-3.873.539-1.166 1.6-2.87 2.139-3.484l.254-.284-.03 1.226c-.06 2.572-.434 4.158-1.54 6.476-.284.568-.509 1.106-.509 1.226 0 .164 0 .194.254.164.479-.03.943-.344 2.199-1.54.972-.942 1.854-1.66 2.512-2.049.942-.568 1.735-1.226 2.901-2.393l1.137-1.136v.314c0 1.944-2.049 5.07-4.098 6.356-1.42.882-2.452 1.286-3.903 1.57-.942.164-1.914.404-2.333.568-.269.045-.299.045-.299-.03zm-6.924-5.084a2.42 2.42 0 0 1-.882-.255c-.344-.164-.434-.224-.449-.433-.03-.12-.03-1.705 0-3.53.06-4.366-.06-5.638-.538-6.55-.628-1.226-.853-1.675-1.137-2.617-.314-.972-.478-1.54-1.42-5.444-.315-1.286-.51-1.914-1.003-3.275-.942-2.572-1.226-3.589-1.196-4.695 0-.688.09-1.107.344-1.481.15-.194.194-.254.404-.254.658 0 1.39.688 1.914 1.735.344.687.568 1.36 1.226 3.364.509 1.6.823 2.229 1.256 2.677.344.344.629.449.973.374.314-.09.538-.882.538-1.854 0-1.391-.628-2.961-1.765-4.502-.508-.717-.882-1.032-3.215-2.766-1.96-1.48-2.827-2.169-3.679-2.991-1.286-1.257-1.914-2.199-2.258-3.335-.254-.883-.165-1.54.194-1.885.479-.433 2.079.718 4.905 3.56.629.628 1.885 1.764 2.737 2.512 4.591 3.933 6.79 6.132 7.777 7.807.314.508.344.688.433 1.42.09.763.09 4.532 0 6.386-.09 2.019-.254 4.905-.284 5.294a7.97 7.97 0 0 0-.06.972c-.03.344-.15 1.54-.254 2.677-.314 2.961-.404 3.963-.433 4.935-.06 1.42-.09 1.675-.15 1.735-.03.03-.479.12-1.002.194-1.436.255-2.213.314-2.976.225zm-25.558-.075a18.94 18.94 0 0 0-1.166-.194l-.629-.12-.03-.748c-.03-.972-.149-2.482-.448-5.279a149.04 149.04 0 0 1-.538-7.328 21.38 21.38 0 0 1-.06-1.286c-.03-.314-.06-1.137-.06-1.824-.03-.688-.06-1.705-.06-2.259-.03-1.196.06-3.454.165-3.933.164-.688.882-1.705 2.198-3.14 1.166-1.257 2.826-2.797 6.131-5.638.973-.823 1.99-1.765 2.274-2.109.658-.718 2.198-2.139 2.93-2.767.689-.538 1.392-1.002 1.795-1.076.285-.09.314-.06.449.09.508.478.404 1.674-.224 2.87-.374.689-.793 1.257-1.66 2.11-1.062 1.061-2.05 1.884-4.188 3.454-1.42 1.032-2.258 1.735-2.617 2.168-1.077 1.287-1.854 2.872-2.049 4.248-.15.972.15 2.333.509 2.452.478.165 1.062-.254 1.48-1.166.15-.284.539-1.421.913-2.543 1.076-3.275 1.675-4.247 2.766-4.411.255-.03.314-.03.449.12.284.254.434.747.449 1.45.06 1.137-.195 2.198-1.197 4.845-.628 1.735-.658 1.795-1.705 6.207-.478 1.989-.942 3.335-1.51 4.441-.882 1.705-.882 1.66-.882 6.7 0 4.621.06 4.247-.569 4.561-.344.165-.403.165-1.39.195-.644-.015-1.197-.03-1.526-.09zm11.56 0c-.12-.09-.12-.194-.15-2.617-.03-1.391-.06-2.572-.09-2.587-.029-.03-.343-.06-.687-.09-.763-.06-1.062-.15-1.196-.479-.09-.194-.12-.762-.12-7.268 0-7.582 0-7.462.314-8.09.314-.599.628-.883 1.63-1.391.748-.404 1.002-.598 1.197-1.002.254-.509.194-.853-.255-1.51-.658-1.003-.822-1.481-.822-2.334.03-.972.314-1.944.718-2.258.478-.404 1.226-.568 2.019-.508.658.06 1.061.254 1.42.628.449.478.688 1.39.628 2.423-.03.688-.194 1.136-.628 1.794-.478.718-.538.883-.538 1.226 0 .374.164.748.448 1.002.12.12.509.344.883.539.822.434 1.346.882 1.57 1.36.374.763.344.54.344 8.211-.03 6.61-.03 7.074-.12 7.238-.164.284-.448.374-1.166.434-.344.03-.688.06-.718.12-.06.06-.09.882-.09 2.572 0 2.333-.03 2.512-.15 2.617-.119.15-.164.15-2.227.15-1.69-.105-2.094-.105-2.214-.18zM20.2 39.166c-1.959-.822-3.709-2.422-5.01-4.561-.852-1.39-1.6-3.59-1.6-4.621V29.7l.254.508c.509.972.748 1.257 2.363 2.857 1.825 1.794 2.259 2.303 3.11 3.589.54.792.6.852.629.688.06-.284-.03-.628-.194-1.077-.285-.628-.344-1.137-.344-2.542 0-1.421.09-2.169.448-3.425.255-.942.404-1.63.404-1.96 0-.792.568.45.853 1.855.284 1.421.373 2.393.373 4.023 0 1.197-.03 1.66-.15 2.303-.343 2.02-.478 2.872-.508 2.872-.03.03-.314-.09-.628-.225zm48.873.165c0-.06-.06-.314-.09-.568-.03-.285-.15-.853-.224-1.287-.224-1.196-.344-2.228-.344-3.245 0-2.393.449-5.04 1.032-5.922l.15-.224.06.194c.029.12.089.404.119.688.03.254.164.823.284 1.226a12.91 12.91 0 0 1 .508 4.128c-.06 1.002-.164 1.54-.403 2.049-.195.374-.225.718-.15 1.032.03.12.15-.03.658-.763.823-1.226 1.6-2.079 3.17-3.62 1.361-1.345 1.825-1.854 2.304-2.766.254-.478.284-.478.254-.06-.06 1.48-1.286 4.248-2.587 5.878-.658.792-1.705 1.794-2.453 2.273-.852.538-2.258 1.166-2.288.987zm-51.61-7.582c-1.226-.763-2.736-2.857-3.708-5.13-.718-1.66-1.062-3.185-1.002-4.501.03-.823.164-1.45.254-1.227.03.06.15.344.224.569.255.658.539 1.226 1.062 2.019.254.403.568.912.688 1.196.434.852 1.032 2.453 1.54 4.187.195.628.404 1.077.569 1.257.12.12.12.12.164-.718.03-.569.09-1.077.195-1.6.224-.973.628-2.199.792-2.483.09-.12.374-.628.628-1.137.718-1.345 1.032-1.824 1.167-1.824.03 0 .06.09.09.194.194 1.032.224 2.139.06 2.961-.225 1.062-.629 1.99-1.391 3.246-.539.912-.718 1.346-.913 2.303-.09.433-.164.762-.164.792.06.075-.09.015-.254-.104zm54.6-.06c-.029-.15-.119-.479-.164-.793-.12-.688-.374-1.286-.822-2.049-1.107-1.884-1.54-3.14-1.54-4.62 0-.943.164-1.945.314-1.825.164.15.448.598 1.031 1.66.314.568.629 1.166.718 1.286.284.434.823 2.228.972 3.215.03.225.09.718.09 1.062 0 .449.03.598.09.598.15-.06.448-.747.658-1.39.284-.943.568-1.795.972-2.827.449-1.137.628-1.48 1.196-2.393.569-.882.883-1.51 1.137-2.228.194-.509.194-.538.254-.404.12.314.194.882.194 1.45 0 2.274-1.226 5.385-3.05 7.717-.539.688-1.346 1.481-1.735 1.705l-.224.15-.09-.314zm-55.661-6.49c-.972-1.96-1.391-3.814-1.391-6.207 0-1.196 0-1.346.194-2.258.225-1.077.599-2.273.913-2.961.194-.404.747-1.077.852-1.077.03 0 .03.538.03 1.167-.03 1.002 0 1.316.12 2.048.09.569.15 1.257.164 1.915.03.912 0 1.256-.194 2.856a55.532 55.532 0 0 0-.195 1.854c.03.03.165-.224.404-.882.434-1.107 1.196-2.228 2.393-3.395.882-.852 2.617-2.273 2.617-2.138 0 .03-.09.224-.194.448-.12.225-.374.883-.569 1.421s-.478 1.226-.628 1.51c-.344.689-1.062 1.735-1.54 2.229-1.137 1.226-2.139 2.767-2.453 3.783-.06.195-.15.374-.15.374s-.164-.284-.373-.688zm56.574.373c-.284-.942-1.166-2.363-2.049-3.365-1.42-1.6-1.944-2.452-2.572-4.247a14.296 14.296 0 0 0-.538-1.36c-.12-.225-.195-.45-.195-.45s.374.255.793.569c2.273 1.735 3.679 3.425 4.337 5.28.224.597.344.762.284.373-.03-.15-.12-1.002-.224-1.944-.225-2.109-.225-2.827-.03-4.307.15-.883.164-1.316.164-2.258 0-1.107 0-1.137.12-1.077.538.284 1.256 2.108 1.675 4.217.374 1.884.12 4.726-.568 6.73-.195.538-.973 2.198-1.032 2.198-.045-.015-.105-.164-.165-.359zm-54.63-7.522c-.449-1.66-.509-3.873-.15-5.414.255-1.136 1.002-2.736 1.63-3.53.404-.478 1.032-1.03 1.346-1.106.15-.03.15-.03-.06.539a18.173 18.173 0 0 0-.747 3.454c-.09.658-.374 1.705-.763 2.737-.164.434-.224.688-.194.718.03.03.314-.254.717-.763 1.317-1.675 2.08-2.363 3.56-3.05a27.24 27.24 0 0 1 1.062-.48c.164-.089.403-.194.508-.283.12-.09.194-.12.194-.09s-.09.224-.194.434c-.449.882-1.66 2.512-2.617 3.499-.224.224-.912.793-1.54 1.256-.793.598-1.361 1.062-1.915 1.63l-.762.763-.075-.314zm52.357-.553a17.95 17.95 0 0 0-1.854-1.6c-1.167-.883-1.915-1.57-2.827-2.707-.718-.883-1.57-2.229-1.57-2.453 0-.03.15.03.284.12.164.09.404.224.508.284 2.543 1.166 2.827 1.39 4.307 3.275.45.568.853 1.032.913 1.032.06-.03.03-.225-.255-.883-.284-.687-.687-2.138-.687-2.422 0-.658-.374-2.453-.748-3.65-.12-.313-.165-.567-.15-.567.12 0 .748.403 1.002.687.942.913 1.825 2.767 2.139 4.412.09.449.12.912.12 2.019 0 1.286-.03 1.48-.165 2.198-.254 1.167-.165 1.137-1.017.255zm-49.426-5.264c-.06-.06-.06-.599.03-.853.164-.658.763-1.63 1.42-2.303.763-.822 3.306-2.572 3.71-2.572.09 0 .09.09.09.344 0 .568-.315 1.106-1.317 2.273-.718.822-.688.822-1.54 1.346-1.002.598-1.45.942-1.944 1.42-.21.165-.42.345-.449.345zm46.839-.434c-.479-.479-.823-.748-1.914-1.361-.569-.344-.793-.509-1.197-.972-1.166-1.286-1.66-2.02-1.66-2.587 0-.165 0-.344.03-.374.15-.15 1.99 1.032 3.08 1.914 1.167.972 2.08 2.363 2.17 3.275.06.598 0 .613-.51.105z"/></symbol><symbol viewBox="0 0 44 28" id="volunteer" xmlns="http://www.w3.org/2000/svg"><path fill="currentColor" d="M29.5 12c3.3 0 6-2.7 6-6s-2.7-6-6-6-6 2.7-6 6 2.7 6 6 6zm-15 0c3.3 0 6-2.7 6-6s-2.7-6-6-6-6 2.7-6 6 2.7 6 6 6zm0 4c-4.7 0-14 2.3-14 7v5h28v-5c0-4.7-9.3-7-14-7zm15 0c-.6 0-1.2 0-1.9.1 2.3 1.7 3.9 3.9 3.9 6.9v5h12v-5c0-4.7-9.3-7-14-7z"/></symbol><symbol viewBox="0 0 22.9 22.9" id="x" xmlns="http://www.w3.org/2000/svg"><path fill="currentColor" d="M11.6 13.1l5.4 5.2 1.7-1.6-5.5-5.4 5.5-5.4L17 4.3l-5.6 5.5L6 4.6 4.3 6.2l5.5 5.4L4.2 17l1.7 1.6 5.7-5.5z"/></symbol><symbol viewBox="18 24 40 30" id="youtube-player-icon" xmlns="http://www.w3.org/2000/svg"><path d="M33.862 43.284L33.86 32.05l10.802 5.636-10.8 5.597zm23.717-13.179s-.39-2.755-1.59-3.968c-1.52-1.592-3.223-1.6-4.005-1.693-5.594-.405-13.986-.405-13.986-.405h-.017s-8.392 0-13.987.405c-.781.093-2.485.1-4.005 1.693-1.2 1.213-1.59 3.968-1.59 3.968S18 33.34 18 36.575v3.034c0 3.235.4 6.47.4 6.47s.39 2.755 1.589 3.968c1.52 1.592 3.518 1.542 4.408 1.709 3.198.307 13.592.401 13.592.401s8.4-.012 13.995-.417c.782-.093 2.486-.1 4.006-1.693 1.199-1.213 1.59-3.968 1.59-3.968s.398-3.235.398-6.47v-3.033c0-3.236-.399-6.47-.399-6.47z" fill="#FFF" fill-rule="evenodd"/></symbol></svg>