<?xml version="1.0" encoding="utf-8"?>
<!-- Generator: Adobe Illustrator 21.1.0, SVG Export Plug-In . SVG Version: 6.00 Build 0)  -->
<svg version="1.1" id="Capa_1" xmlns="http://www.w3.org/2000/svg" xmlns:xlink="http://www.w3.org/1999/xlink" x="0px" y="0px"
	 viewBox="0 0 700 700" style="enable-background:new 0 0 700 700;" xml:space="preserve">
<style type="text/css">
	.st0{fill:#C4C4C4;stroke:#FFFFFF;stroke-miterlimit:10;}
</style>
<g transform="translate(-1165.991943359375,-1505.1595458984375),scale(4,4)">
	<g id="states">
		<path class="st0" d="M429.6,466.3l-0.9-0.2l-0.5,0.7l-1.1-0.3l-0.2-0.5l-1.6-0.1l-0.9-0.7l-0.6-1.8l-0.5-0.2l0.1-0.5l-0.5-0.2
			l0.6-1.4l0.6-0.3l1.3-1.1l0.2-0.8l0.1-0.8l0.8,0.2l-0.3-0.5l0.7-1l0.4,0.4l-0.4,0.5l0.3,0.5l0.9,0.2l0.3,1l-0.2,0.8l1.2,0.6
			l0.6,0.8l-0.3,1.3l0.6,0.6l-0.5,0.2l0.3,0.8l-0.1,0.9L429.6,466.3z"/>
		<path class="st0" d="M404.2,471.7l-0.3,1.5l-0.5,0.2l-0.2,0.9l1,0.8l-0.3,0.8l0.3,0.8l0.6-0.5l0.6,0.8l-0.4,1.3l0.5,0.1l0.9,1
			l0.7-0.2l0.2-0.9l0.4,0.2l0.6-0.7l1.4-1.1l0.6-0.1l0.5-1.2l0.7-0.4l1.1,1l0.3-0.6l1-0.6l0.5,0.1l1.1-0.3l0.4-1l0.6-1l1.1,0.5
			l-0.6-1l0.2-0.3l0.6,0.3l0.5,0.9l0.1-0.3l0.7,0l0.4,0.7l0.4,0.1l0.7-0.5l0.5,1.4l0.2,0.6l0.6,0.4l-0.1,0.5l1.1,1.2l0.1,0.6
			l0.5-0.4v0.5l2.6,0.2l0.7-0.3l0.2,0.7l1.1,1.1l-0.1,0.6l0.1,0l0.2,0.8l-0.1,0.7l0.4-0.4l0.1,0.4l0.6,0l-0.2,1.1l0.8,0l1.3,0.4
			l0.5,0.9l-0.3,1.1l1-0.1l1.3,0.5l-1.3,0.6l2.2,0.9l0.7,0.5l1.1-0.8l1,0l0.1-0.3l1.6,0.2l0.2,0.8l-0.3,0.3l0.3,1v0.5l-1.2,1.2
			l0.1,1.7l0.3,0l0.2,0.9l0.8,0.5l0.6-0.1l0.8,1.3l0.3,1l-0.4,0.4l0.5,1.1l0.3,1.2l-0.3,0l-0.3,0.9l0.4,0.5l1.1-0.1l0.7,0.6
			l-0.2,0.5l-0.1,1.2l1.2,0.2l1.3,0.8l1.3,0.5l-0.4,0.4l-0.5-0.1l-0.9,1.2l0.7,1.6l-0.6,2l-0.5,0.7l-1.1,0.2l-0.6-0.1l0,0.9l0.4,1.5
			l-0.6,0.4l-0.9,0.2l-0.6-0.3l-0.2,0.3l-1,0.2l0.1,0.9l0.6,0.1l0.1,0.8l-0.9,1.2l-1-0.1l-1.5,0.7l-0.2,0.6l-0.3-0.5l-2.1-2
			l-1.5-1.8l-1.2,0.1l-0.2,0.4l-0.9-0.1l-3-1.1l-4.4-1.2l-2.1-0.4l-2-0.1l-0.6,0.1l-1.1-0.3l-1.5-0.8l-1.4-1.2l-0.7-0.2l0.4-0.5
			l-0.6-0.3l-0.6,0.2l-0.8-0.8l-0.5-0.3l-2.3-0.7l-2.4-1l-5.7-2l-1.6-0.4l-1.7-0.7l-2.5-0.9l-2.1-0.8l-0.5,0l0.2-0.4l-0.4-0.5
			l-1.7-1.2l-0.7-0.7l-1-0.5l-3.1-1.3l0-0.7l-0.8-0.8l-1.8-0.4l-0.2-0.5l-0.6-0.1l-0.1-0.7l-0.6-0.8l-1.2-0.8l-0.6-1.3l-0.7-0.6
			l-2.5-1.3l-1.2-0.4l-1.1,0.1l-0.6,0.8l0-0.5l-0.6-0.4l-0.2-1.3l0.4-1.9l0.3-0.4l1.5-0.2l0.4-0.3l1,0l0.2-0.5l0.7,0l0.6-0.8
			l0.6-0.2l0-1.3l-0.5-1l0.5-0.7l-0.5-0.6l0.1-1.1l0.6-0.7l1.3-0.5l1-0.1l0.2,0.4l1.1-0.3l0.6,0.5l0.3,0.9l1.4,0.7l1.2-0.1l0.5-0.4
			l0.7,0.2l0.1-0.3l1.4-0.5l1.2,0.2l0.4,0.4l1.7,0.2l1.4-0.4l0.1,0.6l0.5,0.2l0.4,0.7l0.6-0.1l0.8-0.8l0.6,0.4l0.8-0.1l0.3,0.7
			l0.7,0.2l0.3,0.5l0.5-0.2l0.2,0.7l0.6,0.2l0.9-0.9l-0.9-0.8l-1.9-1.1l-0.4-0.8l0.2-1.3l-0.2-0.9l-0.4-0.1l0.2-0.8l-0.4-0.3
			l0.1-1.5l0.3-0.6l0.5-0.2l0.8,0.8l0,0.5l1.4-1.3l0.2-0.4l0.5,0.5l1.4,0.5l0.3,0.6L404.2,471.7z"/>
		<path class="st0" d="M414.2,444.2L414.2,444.2l0.3-0.2l0.9,1.1l1.2,1l1.1-0.2l0.5,0.7l2-0.5l-0.1,0.5l1,1.5l0.4,1.3l-0.6,0.8
			l-0.2,0.9l1.2,1l0.7,0l-0.3,1.2l0.7,0.2l1.4-1.5l0.9-0.6l0.2-0.7l-0.4-0.4l1.2-1.4l1.2-0.1l0.4,0.5l-0.1,0.4l0.6-0.6l0,0.8
			l0.4-0.2v0v0v0l0.1-1.3l0.2-0.3l0.8,0.7l0,1l-0.9,0.3l0.6,0.6l0.1,0.5l-1.1,0.5l0.2,0.7l1,0.5l0.6-1.3l0.6-0.6l1.5,0.8l0.3-0.5
			l1.6,0.6l0.2,0.7l0.3-0.4l1.1,1.3l-0.2,0.8l-0.4,0.1l0.2,1.1l-0.9,0l0.1,1l-0.1,0.1l-0.7,0.8l1,1.6l0.3,0.6l-0.4,0l0.3,1.5
			l-0.3,0.5l0.6,1.2l-0.3,0.4l-0.1,1l0.4,1.1l-0.2,0.9l0.3,0.8l-0.2,0.4l-0.6,0.2l-0.9,1.1l-1.3,0.1l-1.2-0.6l-0.2-1.1l-0.8-0.7
			l-1.1-0.2l0.4-0.9l0.1-0.9l-0.3-0.8l0.5-0.2l-0.6-0.6l0.3-1.3l-0.6-0.8l-1.2-0.6l0.2-0.8l-0.3-1l-0.9-0.2l-0.3-0.5l0.4-0.5
			l-0.4-0.4l-0.7,1l0.3,0.5l-0.8-0.2l-0.1,0.8l-0.2,0.8l-1.3,1.1l-0.6,0.3l-0.6,1.4l0.5,0.2l-0.1,0.5l0.5,0.2l0.6,1.8l-0.6,0.6
			l0.1,1.1l-0.1,1.7l-0.9,1l-0.7,0l-0.4,0.3l0.1,0.9l-0.7,1.2l-0.5,0.7l-0.7,0.5l-0.4-0.1l-0.4-0.7l-0.7,0l-0.1,0.3l-0.5-0.9
			l-0.6-0.3l-0.2,0.3l0.6,1l-1.1-0.5l-0.6,1l-0.4,1l-1.1,0.3l-0.5-0.1l-1,0.6l-0.3,0.6l-1.1-1l-0.7,0.4l-0.5,1.2l-0.6,0.1l-1.4,1.1
			l-0.6,0.7l-0.4-0.2l-0.2,0.9l-0.7,0.2l-0.9-1l-0.5-0.1l0.4-1.3l-0.6-0.8l-0.6,0.5l-0.3-0.8l0.3-0.8l-1-0.8l0.2-0.9l0.5-0.2
			l0.3-1.5l-0.9-0.3l-0.3-0.6l-1.4-0.5l-0.5-0.5l1.2-0.9l0.2-1.3l1.3-0.5l0.8-0.6l0.4-1.5l0.5-0.2l-0.2-0.7l0.9-1.3l0.1-1.9l0.3-0.6
			l1.4-0.3l0.4-0.6l-0.2-0.1l0.2-1.4l-0.7-0.5l-0.2-1.4l-0.5-0.7l0.7-0.9l0.8,0.4l0.7-0.5l0.1-1.8l0.2-0.5l1.2,0l-0.7-0.5l-0.5-0.7
			l0-1.2l0.3-0.4l-0.7,0l0-0.9l0.3,0.2l0.8,0.4l2-0.9l0,0.3l0.9-0.1l-0.3-1l0.2-1l-0.6-0.5l-0.4-1l0.5,0.1l0.1,0.7l0.6,0l-0.3-0.6
			l0.4-0.7L414.2,444.2z"/>
		<path class="st0" d="M429.6,466.3l1.1,0.2l0.8,0.7l0.2,1.1l1.2,0.6l1.3-0.1l0.9-1.1l0.6-0.2l-0.3,0.3l-0.5,1.4l-0.5,0.4l0.8,0.1
			l-0.5,0.7l0,0l-0.7,1.1l-0.4,1l0.7,0.1l-0.4,0.7l0.5,1.5l0.1,2.3l0,1l-0.4,0.1l-1.4-1.3l-0.5,0.1l-0.1,0.5l-1.1,0.3l-0.1,0.6
			l-1.2,0.2l-1.4,1.6l-0.1,0l0.1-0.6l-1.1-1.1l-0.2-0.7l-0.7,0.3l-2.6-0.2v-0.5l-0.5,0.4l-0.1-0.6l-1.1-1.2l0.1-0.5l-0.6-0.4
			l-0.2-0.6l-0.5-1.4l0.5-0.7l0.7-1.2l-0.1-0.9l0.4-0.3l0.7,0l0.9-1l0.1-1.7l-0.1-1.1l0.6-0.6l0.9,0.7l1.6,0.1l0.2,0.5l1.1,0.3
			l0.5-0.7L429.6,466.3z"/>
		<path class="st0" d="M285.3,337.7l0.9,0.5l2.4,1.8l-0.1,0.7l0.9,0.5l0.3-0.5l0.4,0.3l0,0.6l-0.5,0.1l0.4,0.6l-2.8,1.5l-0.7-0.2
			l-0.1,0.9l0.5,0.2l-0.1,1.1l-1,0.6l0.7,1.8l-0.6-0.1l0.9,1.3l0.7,0.4l-0.5,0.3l0.4,0.7l-0.1,2.6l1.1,0.4l0.9,1.9l1.6,1.3l-0.3,0.2
			l0.3,0.7l1.1-0.1l2.8,3.1l0.4,1.3l0.9,1.8l1.1,0.6l0,0.7l-0.6,0.4l0.3,0.7l1.2,1.8l0.8,0.2l1.9-0.5l0.6-1.1l1-0.3l2,0.7l1.4,1.3
			l0.1,0.9l0.5,0l0.7,1.4l0.2,0.9L307,373l1.5,0.9l0.1,0.3l-0.6,0.7l0.8,0.1l0.7,0.8l-0.2,0.5l-1.5-0.6l-0.1,1.3l1,1.9l-0.4,1.1
			l0.3,1.8l0.3,0.7l0.1-0.7l1.3-0.4l0.8,1.1l0.1,1l0.6,0.5l-0.3,0.6l0.7,0.5l-0.5,0.9l0.3,0.2l0.5,1.5l0.7,0.2l0.2,1.4l-0.3,1.1
			l0.8,0.6l0.7,0.2l0.9-0.5l1.5,0.2l0.4,0.6l-0.4,0.2l0.1,1l-0.4,0l-0.4,0.9l-0.8,0.4l0.5,1.4l-0.5,1.4l-0.4,0.7l0,0.9l0.4,1.4
			l0.6-0.1l0.4,1.3l0,1.2l-0.4,0.4l-0.6-0.4l-0.5,0.2l-0.1-0.4h-1l0-0.4l-1-0.5l-0.7,0.3l0.4,1v0.8l-0.4,0l-1-1.3l-1-2l-1-1.2
			l-1.6-1.5l-1.2-0.8l-2.1-2.5l-1.7-1.8l-0.8-0.6l-1.6-1.6l-0.7-0.1l0-0.7l-0.6-0.5l-0.7-1.3l0.2-0.4l-0.8-1.2l-1.8-1.7l0-0.3
			l-1-0.8l-0.1-0.4l-2.1-1.7l0.3-0.6l-0.9-1.1l-0.6-1.1l-0.2-0.9l-2-2l-3.3-2.9l-3.5-2.4l-1.4-1.3l-3.3-2.4l-2.3-1.3l-0.9-1.3
			l-1.6-1l-1.1-0.9l-0.3-0.5l-0.1-1l-1.2-1.5l-0.6-0.3l-0.3-0.8l-1.7-3l-1.7-1.4l-0.5-1.3l-0.7-0.5l-0.7-1l-1.1-0.8l-2.7-1.2
			l-1.7-0.5l-0.8,0l-2-1l-1.9-0.3l-1.1-1.1l-0.7-1l-0.8-0.3l-1-1.2l-1.3-0.4l-1.7,0.2l-0.3-2.3l-0.4-1l0.2-1.6l-0.5-1.1l0.7-2.1
			l1.7-2.8l0.4-1.5l0.5-0.8l1-0.5l0.2,0.2v0v0l0.4,0.5l0.7,0.2h0l0.5-0.3l0.5-0.9l1.1-0.9l1.2,0.2l0.5-0.5l0.5,0.2l0.1-0.8l0.7-0.5
			l-1.3-0.1l0.4-0.2l0.3-1.2l1.7-0.4l0.8-0.4l1,0.1l0-1.1l0.8-0.7l0-0.8l0.5-0.2l0.5-1.3l0.7-0.2l-0.3-0.4l0.7-1.1l0.9-1.8l0.7-0.1
			l-1.4-0.2l0.3-1l1.3,0.5l1-0.2l0.3,0.4l0.5-0.6l0.4,0.5l0.5-0.5l1,0.2l0.2,0.6l-0.9,0.9l0.1,1l0.9,0.5l0.6-0.5l0,0.8l0.9-0.1
			l1.2,1.4l-0.2,0.6l0.6,0.2l-0.2,1.5l-1.2,0.9l0.5,0.2l1.6,2l-0.1,1.1l-0.7,0.6l2.7,4.2l0,0.6l1.1,0.5l0.1,0.6l0.5,0l0.3-0.7
			l3.1,0.2l0.6,1.1l1-0.6l0.8-0.1l1.2,0.6l0.7,0.6l0,0.5l0.5,0.9l-0.3,1.5l0.9,0.6L285.3,337.7z"/>
		<path class="st0" d="M146.2,288.7l0.8,2.1l-0.1,1.2l0.3,0.4l0,1l-0.5,0.7l0,1.5l-1.2-0.1l-0.1-0.6l-0.8-0.6l-0.9,0.4l0.1-0.8
			l0.6-0.5l1.3-1.6l-0.4-1.4l0.3-1.2L146.2,288.7z M186.8,282.7l0.6,0.2l1.7,1.5l-0.3,0.3l-0.6-0.8l-1-0.6L186.8,282.7z
			 M175.7,274.4l0.4,0.1l-0.1,1L175.7,274.4z M175.9,265.2l1.6,1.2l0.6,0.7l0.7,1.5l-0.4,0.6l0.1,0.9l0.3,0.2l1.6,0.3l1.3-0.1
			l0.1,1.2l-0.1,2l0.5,1.2l0.8,0.2l-0.3,1.4l-1.3-0.8l-1.1-0.9l-0.9-1.4l-1.8-1.3l-0.8-1.4l-0.8-0.1l-1.3-2.4l-0.3-0.1l0-0.9
			l0.5-1.2l-0.1-0.5L175.9,265.2z M91.9,272.8l-0.2,0.5l0.3,0.9l1,0.8l0.2,1.1l0,1.8l-0.3,0.7l-0.9,0.3l0.2-0.5l-0.2-1.2l-0.6-1.7
			l-0.8-0.5l0-1.7L91.9,272.8z M154.4,219.6l0.6,1.1l0.8,0.6l0.3,0.8l-1.2,0l-1.3-1l-0.1-1.7L154.4,219.6z M153.2,205.3l-0.7,0.4
			l-0.6-0.4l-0.9,0.4l0.1,0.7l-0.6,1l0.1,0.8l-1.1,1.3l-0.5,0.9l1.3,1.4l-0.2,0.7l0.6,2.2l-0.2,0.9l0,1.6l1,1l1.2,0.2l0.6,0.9
			l-0.2,1.8l0.5,1.2l0,1.1l-0.7,0.8l-0.4,1.5l0,1.5l-0.4,0.7l0,2.9l-0.1,2l0.4,1.3l1,0.9l-0.4,0.8l0.4,0.5l1.6,0.9l0.4,2.4l-0.2,2
			l0.1,1.6l0.8,1.6l0.3,1.1l0,1.6l-0.4,2.9l0.3,0.4l-0.5,1.2l1.5,2.6l0.3,1.2l0.5,0.8l0.8,0.3l0.3,0.7l1,0.5l0,0.7l0.5,1.6l0.9,0.7
			l0.7,0l0.4-0.6l1.1,0.5l0.9,1.1l1.5,1.1l0.4,0.8l0.9,0.4l1,1.1l1.9,1.7l1,0.5l1.4,1.7l1,0.8l0.2,0.6l-0.6,0.7l0.2,0.6l1.3,1.5
			l0.5,1.4l-0.4,0.3l0.3,1.2l-0.2,0.4l0.8,1.1l0.5-0.1l0-1.1l1-0.1l0.1,0.5l0.9,0.4l-0.1,1.3l0.4,0.8l0.4,0l1.1-0.8l0.5,0.1l0.7,0.9
			l0,0.9l0.7,1.8l0.5,0.5l0,0.7l0.4,1.7l1.5,1l0.6,0.1l1.4-0.4l0.6,0.8l0.4-0.2l0,1.2l-0.3,0.9l-0.1,1.1l1.5,1.7l-0.4,1.2l0.4,1.4
			l-0.3,0.8l0.7,0.5h-11.4h-13.8l1.1-1.6l1-1.7l0.4-0.9l-0.4-0.7l-0.7-0.2l1.1-2.7l0.3-1.2l-0.4-1.1l-0.8-0.9l-0.8-0.2l0-1.4
			l-0.3-0.3l-1.5-0.1l0-0.6l-0.8-0.7l-0.5-0.1l0.1-0.5l-0.6-1.2l-0.4-0.1l-0.2-0.9l-1.4-1.3l-0.8,0.2l-0.2-0.5l-1-0.7l-0.1-1.5
			l-0.5-0.8l-1.4-0.3l-0.5-1.5l-1.2-0.6l-0.9-1.3l-1.5-1.7l-2.3-1.1l-1.9-0.2l-0.8-1.4l-1.1-0.8l-1.4-0.3l-1.2-1.2l-1,0l-1.5-1.6
			l-0.5,0l-1.4-1.2l0.3-1.4l-0.3-1.5l-0.7-1l-1.2-0.1l0.5-2.8l-0.4-1.2l0.1-0.9l-0.1-1.7l-0.5-1.2l-1.3-1.2l-0.7-0.1l-1,0.8
			l-0.2-1.3l-0.5-0.8l0.4-3.6l-0.4-1.4l-0.1-1.3l-0.3-0.7l-0.7-0.2l-0.6-0.6l-0.6-0.2l-1.6-2.1l-0.9,0.2l-0.3-0.5l0.5-2.6l0-0.9
			l-1.5-2.7l-1-0.9l-0.6-0.8l-0.2-0.8l-1.2-1.1l-0.6,0l-0.1-0.7l-0.7-0.4l-0.8-1.2l0.7-0.3l-0.3-0.7l0.3-1l-1.4-1.8l1.2,0.6l0.4-0.3
			l0.6-1.7l-0.3-0.9l-0.7,0l-0.5-0.7l-0.9-0.2l-0.3-1.3l-1.5-0.4l-0.5-0.7L117,213l-0.8-2.4l-1.6-0.6l-1.2-2.6l-0.6-1.9l0-1
			l30.9-2.9l11.1-0.9l-1.4,2.7L153.2,205.3z"/>
		<path class="st0" d="M192.6,281.6l0,1.2l-0.8,0l-0.2-1L192.6,281.6z M197.2,271.8l0.5,0.7l-0.2,1.1l0.9,1.4l0.4,1.1l-0.6,2.9
			l-0.6,0.9l-0.1,1.1l-0.6,0.4L196,281l-0.7-0.7l-1-0.1l-0.2-0.3l-2-1.2l1.2-0.8l0.4-0.6l-0.3-1.3l0.5-3.1l0.5-0.6l0.7,0.3l0.9-0.7
			L197.2,271.8z M155.6,220.5l1.3,0.1l-0.2,0.5L155.6,220.5z M153.2,205.3l9.9,3.5l18.1,6.7l9.5,3.4l27.8,10.3l11.1,0h25.6l3.8,0
			l-1.1,1.9l-1.1,0l-0.4,0.7l0.7-0.3l0.2,0.5l0.8,0l-0.7,1.2l1.3,0.7l0.1,0.6l0.6,0.4l-0.3,0.4l1.2,0l0,0.6l-2.1,0l0,2.1l-2.4-0.1
			l0.2,0.9l-0.1,1.8l-0.2,0.7l0.5-0.1l0.9,1l-0.1,1.3l0.8,0.4l1.8,0.4l0.9,0.5l0.4,1.8l0.9,0l-0.2,0.6l-0.6,0.4l0.5,0.9l0,0.7
			l0.7,0.1l0.7,1.1l-0.1,0.3l-1.2-0.6l0.2,5.4l-0.2,2l0.2,1.7l-0.5,0.3l0.1,0.5l1.5,0.2l0,1.2l-0.9,0.4l-1.2,0l0.7,1.1l-0.6,0.2
			l0.3,1.8l-0.4,0.3l0.3,1.1l-1.3,0.5l0.8,3.2l-0.2,0.8l-0.8,0l-0.3,2.1l0.3-0.2l0.5,0.9l-0.5,0.6l0.6,3.2l-0.1,1l0.3,0.2l0.8,2.2
			l1,0.5l0.1,2.1l0.9,1.5l0.1,1l0.3,0.2L263,287l0.6,1.7l-0.6,0.2l0,0.6l-0.5,0.3l-0.9-0.6l-0.6,0.2l-0.1,0.9l-0.8-0.2l-1.1,0.6
			l-3.7,0.2l-0.4-0.3l-0.2,0.4l-0.4-0.4l-0.9,0.1l0.2,1.5l-0.1,1.4l0.6,2.2l0.7,0.8l1.1,0.8l0.2,1.7l0.8,0.3l-0.9,1.1l0.4,0.8l1.1,0
			l1.2,0.8l0.2,1.4l0.7,1.4l1,0.4l-0.1,1.6l0.5,0.7l0.1,0.9l0.7,1.3l-1.3,1.5l0.4,1.2l0.6,0.5l0.2,1.5l-0.1,0.8l0.7-0.2l-0.2,0.7
			l1.2,0.5l1.4,0.2l-0.7,0.1l-0.9,1.8l-0.7,1.1l0.3,0.4l-0.7,0.2l-0.5,1.3l-0.5,0.2l0,0.8l-0.8,0.7l0,1.1l-1-0.1l-0.8,0.4l-1.7,0.4
			l-0.3,1.2l-0.4,0.2l1.3,0.1l-0.7,0.5l-0.1,0.8l-0.5-0.2l-0.5,0.5l-1.2-0.2l-1.1,0.9l-0.5,0.9l-0.5,0.3h0l-0.7-0.2l-0.4-0.5v0v0
			l-0.2-0.2l-1,0.5l0.1-2.5l-0.2-0.9l-0.9-1.5l-0.8-0.6l-1-1.2l-1.4-0.2l-1.2-0.4l-1.2-0.1l-0.9,0.4l-1.5-0.7l-1.1-1.1l-0.4-0.7
			l-0.7-2.5l-0.8-1.2l-0.2-1l-0.5-0.4l-1.3-0.3l-1-0.6l-3.3-0.9l-1.7-1.7l-1.2-0.8l-1.1,0l-1.2-0.6l0.2-3.4l-0.1-0.9l-0.5-1.5
			l0.4-1.8l-0.3-1.5l0.5-1l1.2-0.2l-1-0.8l-0.9,0l-3.2-0.8l-0.3-0.6l-1.1,0.7l-0.3,0.5l0.9-0.2l-0.5,1.2l-1.4-1.3l-0.3-1l-0.7-0.1
			l-0.7,0.5l-1.3-0.9l-0.6-0.2l-0.6-0.9l-1.1-0.8l-0.1-0.6L214,293l-0.1-0.7l-0.7-0.4l-0.3-1.1l-1.1-0.9l-0.1-1l-0.5-0.4l-1.6-0.6
			l-1.1-0.6l-1.2-0.3l-0.9-2.7l-0.6-0.7l-1.2-0.8l-1-0.9l-0.4-0.8l0.9-0.6l-1.5-1.2l-0.8-0.2l-0.3-0.8l-1.1-1.2l-1.1-0.2l0.4-0.4
			l-0.3-0.7l0-1.8l-0.7-1.3l-0.5,0l0.4-1.2l-0.4-1.4l-0.9-0.5l-1,0.3l-1.1-0.4l-0.3-0.8l0.7-1.5l0.1-0.6l-0.9-0.8l-0.1-0.8l-1.2-1.2
			l-0.3-0.9l-0.9-0.9l-0.5-1.4l-0.8-1.1l-0.2-1.1l-1.4-0.5l0.2-1.7l-0.5-1.4l0.1-2.2l-0.4-1l-0.8-0.8l-0.7,0l0.3-0.7l-0.1-1.6
			l-0.3-0.8l-1.3-1.7l-0.7-0.6l-1.5-2.6l-0.9-3l0.5-1.7l0.1-1.6l-0.6-1.8l0.6,1.3l0.5-0.8l0.1-0.8l-0.7-2.4l-1.5-0.7l-0.3-0.4h-0.8
			l-1.7-0.5l-3.2-0.6l-0.4-0.5l-1.1-0.2l0.2-0.8l-0.5-1.4l-0.1-0.9l-0.8-0.8l-2-0.9l-0.8-0.6l-1.5-0.2l-0.7-0.5l0.1,1.1l0.3,0.3
			l-0.5,0.7l-0.5-0.1l-0.2,0.8l-2.1,0l-1-0.4l-1.6-1l-0.7-0.8l-2.7-1.5l-1.1-1.2l-1.1-0.6l-1,0.1l-0.8-0.3l-0.6-0.8l-0.9,0l-0.6-0.9
			l-1.2-0.2l-1-1l0-1.6l0.2-0.9l-0.6-2.2l0.2-0.7l-1.3-1.4l0.5-0.9l1.1-1.3l-0.1-0.8l0.6-1l-0.1-0.7l0.9-0.4l0.6,0.4L153.2,205.3z"
			/>
		<path class="st0" d="M240.7,370.9l0,0.3l-1.3-0.3l-0.9-2.1l0.1-0.6l-0.4-0.6l0.2-1L240.7,370.9z M231,363.7l1.1,1.1l-0.3,0.9
			l-0.7,0.5l0-0.6l-0.6-0.3l-0.3-1.2L231,363.7z M230.4,362.5l0.5,0.7l-0.9-0.3L230.4,362.5z M224.9,352.6l0.7,1l1.2,0.3l0.5,0.4
			l0.1,1.1l0.8,1.5l-1,0.3l0.2-0.4l-1.4-1.1l-0.5-1.4l-0.5-0.2L224.9,352.6z M225.2,348.8l-0.3,0.7l-0.4-0.3L225.2,348.8z
			 M223.7,340.9l0.2,2.3l-0.8-0.9l0.1-0.8L223.7,340.9z M219.2,340.9l0.4,0.9l-0.6,0.1l-0.2-0.9L219.2,340.9z M218.7,333.9l-0.4,0.7
			l0.2,1.3l-0.7-0.6l-1.3,1.8l0,0.8l-0.4,0.3l0,0.8l-0.5-0.3l0.3-2.1l0.7-1.2l-0.1-1l0.8-0.5l0.4,0.3L218.7,333.9z M200.9,310.9
			l0.6,0.8l-0.3,0.6l-0.5-0.1l-0.4-1L200.9,310.9z M203.3,307.3l0.3,0.5l-0.6-0.1L203.3,307.3z M146.6,298.4l0.6,0.4l-0.3,0.3
			L146.6,298.4z M163.8,296.1h13.8H189l0.1,0.7l-0.3,2l0.9,0.7l0.3,1.4l0.8,0.9l0.3,0l0.8,1.2l1.1,0.2l1.9,0.9l1.1,0.8l0.6,1.2
			l0.4,2.1l1.1,1.2l0.7,1.4l-0.3,0.8l0.9,0.9l1.4,0.7l1.4,0.3l1,0.4l-0.9,1.3l-0.1,1.4l0.6,0.5l0.4,0.9l0.8,0.7l1.4-0.8l1.3,1
			l0.4,0.7l1,0.7l0.3,0.5l1.5,1l-0.1,2.5l0.2,0.4l1.9,0.7l-0.4,1.2l0.1,0.8l1.3,1.4l0.2,1.1l-0.2,0.6l0.9,2.7l0.5,0.7l-0.5,1
			l0.2,0.4l-0.4,0.7l0.3,1.2l0.1,1.4l0.3,0l0.2,1.3l1.4,0.9l0.6,2.2l1.4,1.7l1.7,0.2l-0.2,1.2l0.4,0.7l0.4,1.5l0.8,1l-0.2,0.8
			l0.4,0.9l0.2,1.2l0.5,0.4l0.3,0.9l0.6,0.3l0.3,0.6l0.9,0.3l0.2,0.9l1.1,1.6l0.5,1.5l-0.6,2l-0.6,0.6l-0.2,1l0.2,2l0.8,1l-0.1,1.1
			l0.3,1l0.6,0.7l0.6,1.2l1,0.8l2.7,0.7l1.7-0.1l-0.1-1l-0.5-0.4l-0.1-1.1l0.7-0.7l1.1,0.2l0,0.5l0.8,0.5l0.3,0.8l1.7,0.8l1.2,1
			l0.3,2.1l1,0.4l1.8-0.6l0.4,0.8l-0.6,0.9l0.3,1.2l0.8,0.6l1.3,1.5l-0.2,1.3l0.4,1.5l3,1.3l0.9,0.5l-0.2,0.5l0.3,0.8l0.6,0.7
			l-0.1,0.6l0.3,0.6l-0.3,0.2l0.1,1.4l-0.5,2l-1.3,1.7l-0.8,0.5l-1.6,0.5l-0.8,0.6l-0.3,0.7l-1,0.4l-0.3,0.6l-0.8,0.7l-0.8,0.2
			l0.1,0.3l-1.2,0.1l-1-0.6l-0.6-0.7l-0.8-1.5l-0.2-1.5l-0.7-2.5l-0.1-1.1l-1.8-3.6l-0.8-1.2l-1.1-1l-3.1-1.5l-0.8-0.5l-1.5-1.3
			l-2.5-2.8l-3.4-3.3l-1.8-1.3l-2.2-1.4l-2.7-1.5l-2.2-1l-0.9-0.2l-1.9,0.3l-0.3,0.8l-0.7-0.8l-3.3-2.5l-2.8-1.4l0-0.5l-1.2-1.3
			l0.7-0.6l-0.1-0.8l-0.7-0.8l-0.9-0.4l-0.7,0.3l-0.5-0.4l0.4-0.8l1.4-3.9l0.8-2.9l0.3-2.1l0.4-1.2l0.3-2.4l-0.1-5.1l-0.5-1.3
			l-1.1-3.3l-0.7-0.9l-1.3-0.7l0-0.5l-0.6-1.5l-1.1-1.3l-1.1-0.3l-0.4,0.5l-2.7-1.8l-0.5,0.2l-0.6-0.8l-1.7-1.3l-1-0.9l-1.9-1.2
			l-1.5-1.4l-1-0.6l-0.2-0.4l-1.1-0.6l-1.1-0.2l-0.3-1l-1.6-0.9l-1.5-0.2l-0.9,0.4l-0.6,1.4l-0.5,0.3l-1.1-0.5l-0.7-0.9l-0.9-0.4
			l-0.8-2.1l-0.9-0.9l-0.8-0.5l-1.3-0.4l-1,0.5l-0.9-1l-0.2-0.6l-1.2-1.2l-1-0.5l-1.5-0.2l-0.3,0.4l-1.6-1.1l-0.8,0.1l0-0.6
			l-0.9-0.4l0-2.1l-0.4-1.4l-1.2-0.8l-0.4-0.5l-1.2-0.6l-1.3-0.4l-0.7-1.5l-0.6-0.6l-0.9,0l-0.2-0.5l-1-0.5l-0.2-0.6l-0.8-0.4
			l-0.2,0.2l-0.6-0.9l-0.4-1.2l-0.4-0.5l0.5-0.3l0.7,0.6l1.6-0.1l1.2,0.1l0.3,0.3l1.8,0l0.8,0.4l1.5,0.3l1.3-0.2l0.6,0.3l1-0.5
			l2-1.5l0.6,0.1l0.5-0.5l0-1.1L163.8,296.1z"/>
		<path class="st0" d="M397.8,363.2l1,1.8l-1.9,2.2l-1.7,1.2l-1.1-1l-0.1-1.1l-0.9,3.5l-1.9,0.8l-0.8,0.1l0.4,4.6l-2.4,2l-1.9,1.8
			l-5.9,5.1l-4.1,1.4l-1.9,0.4l-0.8-0.1v-0.7l-0.4,0l0-0.9l-0.8,0l-0.3,1.6l-0.7,0.8l0.7,0.7l-0.5,0.1l-0.1,0.8l0.9,0.4l0,0.8
			l0.5,0.7l-0.8,1.6l0.4,0l0.8,3.5l1.2,1.6l3.2,2.6l1.5-0.2l-0.3,1.8l0.9,0.2l-0.3,1l0.9,0.7l0.2-0.4l0.6,0.1l-0.2-0.5l0.9-0.2
			l0.7,0.1l1.4-1.9l0.1-0.8l1.2-0.8l0.1-0.8l1.4-0.1l1.1,0.7l-0.5,0.7l0.7,0.3l0.8,1.4l0.1,1.4l-0.5,1l-1.1-0.1l-0.1,1.9l-0.9-0.1
			l0.2,0.9l0.5,0.3l-0.4,0.6l0.5,0l1.1,1l-0.5,0.6l0.4,0.8l-0.4,0.9l-0.1,0.8l0.5,0.9l-0.8,0.1l-1,1.1l0.3,0.4l-1.3,0.8l-0.2,1.1
			l-0.2,0.2l-0.5-0.2l-0.4-0.8l-0.1-1.2l-1.4,0.2l-0.1-0.6l-0.9-0.6l-0.7-0.8l-1.9-0.3l0-0.2l-1.8-1.3l-1-0.3l0.4-0.7l0-1.2
			l-0.4-0.1l-0.3-1.1l-0.7-0.1l-0.5,0.4l-0.8-0.1l0.1-1.1l-0.5-0.3l-1.3-0.2l-1-1.6l-0.2,1.3l-1.2,0.5l-1.4,0.2l-0.1,0.8l-0.9,0.3
			l-2.5,0l0,0.9l0.5,0.3l-0.9,2.3l-1.1,0.7l-0.1,0.5l-0.8,0.9l-1.2,2.7l0.5,0.4l-0.1,0.6l1.9,1.5l-0.3,0.5l-0.8,0.4l0.7,1.4l1.2,0.4
			l0,0.6l1.1,0.2l0.1,0.6l-0.5,1l-0.1,0.7l0.3,0.8l-0.9,0.5l-0.4-0.8l-1,1.2l-0.4-0.2l-0.4,0.6l-1.4,1.1l-0.2,0.6l-0.7-0.2l-0.9-0.8
			l-0.5,0.3l-0.6-0.3l-0.4,1.2l0.2,0.8l-0.5,0.4l0.7,0.6l-0.3,0.5l-0.9,0.4l-1.4-0.8l-0.8,0.2l-0.4,0.6l-0.3-0.2l-0.8,0.4l-0.5-0.2
			l-0.9-1.2l0-0.4l-0.9-0.1l-0.6,0.3l-0.1-0.3l-0.7,0.6L349,428l-0.3-0.9l-0.4-0.3l-0.1-1.6l-0.4-0.1l-0.9,0.4l-0.1-0.7l1-0.6
			l2.7-0.3l0.1-0.4l-0.6-1.3l-0.6,0.1l-0.3,0.9l-1.3-1.3l-0.7-0.1l0.5-0.7l-0.4-0.4l0.1-0.5l0.7-0.3l0.9,0.3l0-0.6l0.8,0l-0.1-1.1
			l0.4-0.6l0.3-1.2l-0.4-0.6l-0.8-0.6l0.8,0l0.4-0.5l0.6,0.4l0-0.5l1.1-1.3l1.1-0.1l0.1-0.5l1-0.9l0.2,0.3l1.3,0l-0.2-0.5l1.6-0.3
			l0.1-0.9l-0.8-0.2l0.5-0.6l0.9-0.4l-0.4-0.5l-0.1-0.7l0.9-0.6l-0.1-0.5l-0.8-0.9l-1.6-0.1l-0.6,0.3l0.2-0.8l0.7-0.5v-0.6l-0.5,0.1
			l-0.4-0.6l-0.2,0.3l-0.9-0.4l-0.3,0.4l-1,0.4l0.4,0.6l-0.2,1l0.5-0.5l0.5,0.2l-0.3,1.2l-0.4-0.2l-1.2,0.6l-0.5,1.8l-0.6,0.3
			l-0.8-0.1v-0.4l-1.1,0.1l-0.4,0.5l-1.4-0.2l-0.1-0.4l0.5-0.7l0.5-1.4l0.5-0.7l-0.7-0.3l0-0.9l0.5,0.1l0.2-1.3l0.4-0.6l-0.2-1.7
			l-0.6-0.7l-0.8,0.3l-1.1-0.5l-0.7,0.3l-0.3,1.5l-0.4,1l0,1l-0.6,0.6l0.3,1l-0.6,2.3l-0.7-1.3l-0.4-1.8l1-1.6l-0.3-1.1l0.4-0.5
			l-0.2-0.4l0.3-1l1.4-0.7l0.3-2.1l-0.4-0.2l-1.3,0l-1-0.4l-2,0.1l-0.8,0.9l1,0.5l-0.2,0.3l0.2,1.1l0.8,1l-0.6,0.2l1.3,0.9l-0.5,1.1
			l-0.8,0.4l-0.2,0.9l-0.6-0.2l-0.8,0.4l0.7-2.1l-0.5-1.3l-0.7,0.3l0.1,0.4l-0.9-0.3l-0.5,0.2l-0.1,0.9l0.5,0.3l0.1,0.9l-0.8-0.6
			l-0.8,0.6l0,0.8l-0.6,0.1l0-0.4l-1-0.4l0-0.4l0.9-1.2l-0.4-1.2l1.1-1.1l-0.5-1l0.5-1.3l0.7-1.2l0.6,0.4l1.9-0.2l-0.5-0.8l0.1-1.4
			l-0.8-0.8l-0.3-0.6l-0.1-0.5l0-2.8l0.8-1l0.3-3.3l0.8-2.1l1.2-1l1.8-1.2l0.2-0.9l0.5-0.2l0.7,0.5l0.5-1.2l-1.2-0.1l0.2-0.4l-0.4-1
			l0.8-1l-0.7-1.3l0.4-0.6l0.2-1.1l-0.3,0l-0.6-0.8l1.1-0.6l2-1.7l0.6-0.4l0.4,0.7l1.3-1.7l-0.2-1.7l1.1,0l0.4-0.6l0.7-0.4l0.4-1.7
			l0.6,0.1l1.8-0.1l0.5-0.4l0.5,0.6l1-0.3l1.2,0.6l1-1.2l1,0.6l0.3-0.5l1.2,0.6l0.2-0.6l1.1,1.5l0.8-0.4l0.6,0.6l0.8,0l1.6-0.5
			l0.1-0.2l1.3,0.1l0.9-0.4l0-1.2l-0.2-2.3l-0.3-1.9l-0.9-3.7l-1.9-0.8v-0.7l0.5,0l0.2-0.6l-0.7-1.1l3.9,1.3l-0.3-2.2l2.9-0.2l1,0.1
			l2.7,0.9l4.1,1l0.3,0.9l1,1.9l1.5,0.7l0.5-0.4l1,0.5l-0.1,0.9l-0.6-0.2l0.3,0.8l2.8,0.4l1-1l1-0.5l2.5,0.9l0.6,1.6l0.6,1.1
			l0.8,0.6l2.1,0.9l1-0.8l1,0.5L397.8,363.2z"/>
		<path class="st0" d="M315.8,325.1l0.4,0.4l0.3-0.4l0.9,0.2l0.6-0.3l0.4,0.4l-0.2,0.5l0.7,0.5l0.5-0.5l0.4,0.5l2.8-1.2l0.8,2l1-0.7
			l0.5,0.1l1.2-1.2l1.6,0l1.1,0.3l2.2,2.4l0.5-0.2l0.3,0.8l1.3-1.4l0.1-1l1.1-2.7l1.8-1l0.8-1.3l-0.5-0.7l0-0.7l0.7-0.9l0.8,1.3
			l0.8,0.1l2.4,0.6l0.2-0.6l0.7-0.1l0,0.5l2.3,0l2.8,0.6l0.7,0.1l0.4,0.5l4.6,1.8l1,4.7l1,1.5l-1.6,2.8l0.1,5.5l0.4,0.7l-0.1,1.3
			l-0.5,0.8l-0.5,1.5l-0.5,0l-0.8,1.6l-0.7,0.4l0.3,0.4l1.9,2l0.5,0.1l0.1,0.8l-1.2-0.5l-1,0.5l-0.3,1l-0.5,0.7l0.2,0.7l0.4,0.1
			l0.7,1l0.6,0.5l0.7,1.3l1.7,1l-0.2,0.7l0.5,0.5l-0.2,0.6l2.8,2.7l1.6,0.6l0.6-0.1l0.9,0.4l1.2,0.8l0.1-0.6l3.2-5.7l0.7,1.1
			l-0.2,0.6l-0.5,0v0.7l1.9,0.8l0.9,3.7l0.3,1.9l0.2,2.3l0,1.2l-0.9,0.4l-1.3-0.1l-0.1,0.2l-1.6,0.5l-0.8,0l-0.6-0.6l-0.8,0.4
			l-1.1-1.5l-0.2,0.6l-1.2-0.6l-0.3,0.5l-1-0.6l-1,1.2l-1.2-0.6l-1,0.3l-0.5-0.6l-0.5,0.4l-1.8,0.1l-0.6-0.1l-0.4,1.7l-0.7,0.4
			l-0.4,0.6l-1.1,0l0.2,1.7l-1.3,1.7l-0.4-0.7l-0.6,0.4l-2,1.7l-1.1,0.6l0.6,0.8l0.3,0l-0.2,1.1l-0.4,0.6l0.7,1.3l-0.8,1l0.4,1
			l-0.2,0.4l1.2,0.1l-0.5,1.2l-0.7-0.5l-0.5,0.2l-0.2,0.9l-1.8,1.2l-1.2,1l-0.8,2.1l-0.3,3.3l-0.8,1l0,2.8l0.1,0.5l0.3,0.6l0.8,0.8
			l-0.1,1.4l0.5,0.8l-1.9,0.2l-0.6-0.4l-0.7,1.2l-0.5,1.3l0.5,1l-1.1,1.1l0.4,1.2l-0.9,1.2l-0.4-0.2l-2.1,0.9l-0.2,0.6l-0.8-0.8
			l-0.7-0.4l-0.2-0.9l-0.9,0l0-1.5l-0.3-0.5l-0.8,0.2l-0.8-0.3l-0.3-1.4l-1.4-0.1l-0.1,0.8l-1.7,1.9l-0.5,0.1l-0.3-1.6l-1.1-1.3
			l0.3-0.6l2.9-0.9l-0.4-0.2l0.2-1l-0.5-0.5l-0.5,0.3l-0.5-0.6l0-0.9l-0.4-0.6l0.2-0.6l-0.3-0.5l-1.1,0.3l-1.5,0.1l-2.3,0l-0.4,0.2
			l-0.5-1.5l-0.1-1l-0.6-0.2l-0.4-0.6l-1.5-0.2l-0.9,0.5l-0.7-0.2l-0.8-0.6l0.3-1.1l-0.2-1.4l-0.7-0.2l-0.5-1.5l-0.3-0.2l0.5-0.9
			l-0.7-0.5l0.3-0.6l-0.6-0.5l-0.1-1l-0.8-1.1l-1.3,0.4l-0.1,0.7l-0.3-0.7l-0.3-1.8l0.4-1.1l-1-1.9l0.1-1.3l1.5,0.6l0.2-0.5
			l-0.7-0.8l-0.8-0.1l0.6-0.7l-0.1-0.3L307,373l0.2-1.1L307,371l-0.7-1.4l-0.5,0l-0.1-0.9l-1.4-1.3l-2-0.7l-1,0.3l-0.6,1.1l-1.9,0.5
			l-0.8-0.2l-1.2-1.8l-0.3-0.7l0.6-0.4l0-0.7l-1.1-0.6l-0.9-1.8l-0.4-1.3l-2.8-3.1l-1.1,0.1l-0.3-0.7l0.3-0.2l-1.6-1.3l-0.9-1.9
			l-1.1-0.4l0.1-2.6l-0.4-0.7l0.5-0.3l-0.7-0.4l-0.9-1.3l0.6,0.1l-0.7-1.8l1-0.6l0.1-1.1l-0.5-0.2l0.1-0.9l0.7,0.2l2.8-1.5l-0.4-0.6
			l1.7,0.4l0.4,1.4l2.3-0.3l1.3,0.3l0.7-0.4l0.4-0.9l1.2-0.8l1.3-1.3l-1.6,1l-0.1-4.3l0.2-0.8l1.6-0.4l0.2-0.6l-0.5-1.1l0.2-1
			l0.8-0.5l-0.3-1.3l2.1-2.8l0.4,0.3l0.2-0.6l-0.5,0.1l0.1-0.6l0.6-0.2l0.4-1.2l-0.2-0.8l-0.5-0.5l0.7-0.3l0.4-2.2l0.5-0.7l1-0.4
			l-0.8-0.3l0-0.9l0.9-0.1l0.4,0.4l0.9-1.7l1.9,1.6l0.8,0.4l0.5-0.1l1.6,1.7l-0.3-0.7l0.8-0.3l1.2,1.9l1.3,0.1l-0.3-1.3l1.2,2.7
			l0.9,0.1L315.8,325.1z"/>
		<path class="st0" d="M354,276.2l-0.9,1.7l-0.8,1l-0.1,0.6l-1.8,3.5l-0.7,1.1l-0.7-0.6l-0.9,2.1l0.1,0.4l-1.5,3.1l-0.7,1.1
			l-1.7,3.7l-1,2.8l0.9,0.3l-0.3,0.9l-0.9-0.3l-0.3,1.8l1,0.2l-0.6,0.6l0.9,1.2l-0.3,1.6l0.2,1.1l0.2-0.1l0.3,1.1l-0.4,4.7l0.8,0.3
			l0.2,1.1l0.4,0.6l0,1.7l0.3,0.7l0.5,0.2l0.2,1.2l-0.6,0.3l-0.1,0.5l-1.2,0.9l0,0.8l1.3,1.2l0.4,0.1l1,2l-2.8-0.6l-2.3,0l0-0.5
			l-0.7,0.1l-0.2,0.6l-2.4-0.6l-0.8-0.1l-0.8-1.3l-0.7,0.9l0,0.7l0.5,0.7l-0.8,1.3l-1.8,1l-1.1,2.7l-0.1,1l-1.3,1.4l-0.3-0.8
			l-0.5,0.2l-2.2-2.4l-1.1-0.3l-1.6,0l-1.2,1.2l-0.5-0.1l-1,0.7l-0.8-2l-2.8,1.2l-0.4-0.5l-0.5,0.5l-0.7-0.5l0.2-0.5l-0.4-0.4
			l-0.6,0.3l-0.9-0.2l-0.3,0.4l-0.4-0.4l0-0.3l-0.9-0.1l-1.2-2.7l0.3,1.3l-1.3-0.1l-1.2-1.9l-0.8,0.3l0.3,0.7l-1.6-1.7l-0.5,0.1
			l-0.8-0.4l-1.9-1.6l-0.9,1.7l-0.4-0.4l-0.9,0.1l0,0.9l0.8,0.3l-1,0.4l-0.5,0.7l-0.4,2.2l-0.7,0.3l0.5,0.5l0.2,0.8l-0.4,1.2
			l-0.6,0.2l-0.1,0.6l0.5-0.1l-0.2,0.6l-0.4-0.3l-2.1,2.8l0.3,1.3l-0.8,0.5l-0.2,1l0.5,1.1l-0.2,0.6l-1.6,0.4l-0.2,0.8l0.1,4.3
			l1.6-1l-1.3,1.3l-1.2,0.8l-0.4,0.9l-0.7,0.4l-1.3-0.3l-2.3,0.3l-0.4-1.4l-1.7-0.4l0.5-0.1l0-0.6l-0.4-0.3l-0.3,0.5l-0.9-0.5
			l0.1-0.7l-2.4-1.8l-0.9-0.5l0.1-0.3l-0.9-0.6l0.3-1.5l-0.5-0.9l0-0.5l-0.7-0.6l-1.2-0.6l-0.8,0.1l-1,0.6l-0.6-1.1l-3.1-0.2
			l-0.3,0.7l-0.5,0l-0.1-0.6l-1.1-0.5l0-0.6l-2.7-4.2l0.7-0.6l0.1-1.1l-1.6-2l-0.5-0.2l1.2-0.9l0.2-1.5l-0.6-0.2l0.2-0.6l-1.2-1.4
			l-0.9,0.1l0-0.8l-0.6,0.5l-0.9-0.5l-0.1-1l0.9-0.9l-0.2-0.6l-1-0.2l-0.5,0.5l-0.4-0.5l-0.5,0.6l-0.3-0.4l-1,0.2l-1.3-0.5l-0.3,1
			l-1.2-0.5l0.2-0.7l-0.7,0.2l0.1-0.8l-0.2-1.5l-0.6-0.5l-0.4-1.2l1.3-1.5l-0.7-1.3l-0.1-0.9l-0.5-0.7l0.1-1.6l-1-0.4l-0.7-1.4
			l-0.2-1.4l-1.2-0.8l-1.1,0l-0.4-0.8l0.9-1.1l-0.8-0.3l-0.2-1.7l-1.1-0.8l-0.7-0.8l-0.6-2.2l0.1-1.4l-0.2-1.5l0.9-0.1l0.4,0.4
			l0.2-0.4l0.4,0.3l3.7-0.2l1.1-0.6l0.8,0.2l0.1-0.9l0.6-0.2l0.9,0.6l0.5-0.3l0-0.6l0.6-0.2L263,287l0.3-0.7l-0.3-0.2l-0.1-1
			l-0.9-1.5l-0.1-2.1l-1-0.5l-0.8-2.2l-0.3-0.2l0.1-1l-0.6-3.2l0.5-0.6l-0.5-0.9l-0.3,0.2l0.3-2.1l0.8,0l0.2-0.8l-0.8-3.2l1.3-0.5
			l-0.3-1.1l0.4-0.3l-0.3-1.8l0.6-0.2l-0.7-1.1l1.2,0l0.9-0.4l0-1.2l-1.5-0.2l-0.1-0.5l0.5-0.3l-0.2-1.7l0.2-2l-0.2-5.4l1.2,0.6
			l0.1-0.3l-0.7-1.1l-0.7-0.1l0-0.7l-0.5-0.9l0.6-0.4l0.2-0.6l-0.9,0l-0.4-1.8l-0.9-0.5l-1.8-0.4l-0.8-0.4l0.1-1.3l-0.9-1l-0.5,0.1
			l0.2-0.7l0.1-1.8l-0.2-0.9l2.4,0.1l0-2.1l2.1,0l0-0.6l-1.2,0l0.3-0.4l-0.6-0.4l-0.1-0.6l-1.3-0.7l0.7-1.2l-0.8,0l-0.2-0.5
			l-0.7,0.3l0.4-0.7l1.1,0l1.1-1.9l9.6,0v-9.2l5.5,0l11.1,0l12.7,0l0.7,0.7l0.6-0.3l1.2,0.7l1.4,2.3l0.4,1.2l0.5,0.3l0.5,1.3
			l1.5,1.2l1,0.6l1.3,0.1l0.8,0.6l0.4,1.1l1.1,0.5l1.3,1.8l0.4,0.7l0.6,0.1l0.6,0.6l1.1,0.4l0.8,0.7l0.8,1.9l2.4,1.8l0.4,0.8
			l1.3,0.9l0.5-0.3l0.6,0.6l0.7-0.2l1,1.1l0.7,0.1l1.1,1.4l0.8-0.1l0.6,1.6l0.8,0.1l0.9,1.8l0.1,1.5l0.4,0.5l-0.2,0.5l0.8,0.5
			l-0.2,0.3l1.1,1.6l0.5,0.3l0.8,1.6l-0.2,0.9l0.1,1.2l-0.3,0.5l0.6,1.9l-0.2,0.6l0.8,1.2l0.2,0.8l0.5,0.4l0.7,1.4l0.1,1.2l1.3,1.4
			l1.2,0.8l0.2,0.6l0.8,0.5l1.3,0.1l1,0.7l-0.2,0.5l1,1.3l1,0.4l1.2,1.1l1.1,0.5l3.3,0.6l0,0.8l0.7,0.1l0.4,0.8l2.9,0.5l2.1,2.3
			l1.3,0.5l0.2-0.6L354,276.2z"/>
		<path class="st0" d="M154.7,479.5l0.7,0l-0.1,0.4l-1,0.2l-0.1-0.5L154.7,479.5z M220,470.4l1.2,1.1l0,1.2l-0.5,0.3l-0.4-0.5
			l-0.8-0.2l-0.5-1l0.6-0.3L220,470.4z M350.9,468.3l-1.2,1.1l-0.2,0.6l-0.8-0.4l-0.4,0.5l0.4,0.5l-0.1,0.7l-1.4,0.8l-0.7,1.3
			l-1.7-1.6l-2-1.3l-0.6-0.6l-2.4-1.3l-1.8-0.8l-2-0.7l0.5-0.6l-0.1-0.5l-0.8-0.5l-0.6-0.1l-0.2,0.5l-0.4-0.3l-0.5,0.4l-0.2-0.5
			l-0.7-0.3l-3.5-1l0.3-0.2l1.5,0.7l-0.2-0.5l0.4,0l0.4-1l0.6-0.4l0.6,0.5l0.9-0.8l0.7-0.2l0,0.4l1-0.4l0.5,0.2l1.2-0.6l1,0.2
			l1.2-0.3l-0.2-0.6l0.7-0.7l0.3-0.8l-0.3-0.1l0.3-0.7l0.2-0.3l1.7,0.8l1.1,0.4l0.2-0.5l1.2,1l1.8-0.8l0.4-0.7l1.3-0.4l0,0.7
			l0.8,1.3l0.5,0.3l0.4,0.7l0.5,0.3l-0.4,0.8l-0.1,1.5l0.3,0.6l-0.5,1.2l0,0.9l0.6,0.7V468.3z"/>
		<path class="st0" d="M303.1,423.7l-0.4,0.8l-0.5-0.4L303.1,423.7z M299.5,421.3l1,0.2l0.3,0.4l-0.5,0.8l-1.9-0.9l0.6-0.5
			L299.5,421.3z M295.6,417.5l1.4,0.2l0.7,0.5l0,0.4l0.5,0.6l-0.5,1l-0.2-0.3l-1.5-0.7l-0.4-1L295.6,417.5z M295.3,416l0.2,0.7
			l-0.5-0.2L295.3,416z M335.9,404l0,0.4l1,0.4l0,0.4l-0.1,1.3l-0.6,0.6l-0.6,2.5l0.1,1.1l-0.1,1.5l1.5-0.5l0.6,0.6l0.9-0.3l0.3,0.3
			l-0.5,1.1l0.1,1.1l1.2,1.1l1.4-0.1l1.2,0.4l1,0l-0.1,0.5l0.8,0.9l-0.7,1.1l0.4,0.4l-0.3,0.5l0.6,0.4l0.6,0.3l0.1,0.7l0.9,0.5
			l0.4-0.2l0.5,0.5l0.5,0.9l-0.8,0.3l0.4,0.7l-0.1,0.7l-0.9,0.7l-0.3,1l-0.8,0l-1,0.3l-1-0.4l-0.7,0.5l-0.3,0.6l-0.6,0.2l-0.6-0.3
			l-1.1,0.3l-0.8-0.1l-0.4,0.8l0.3,0.4l-0.3,1.5l-0.2,0.5l0.1,1l0.6,0.2l-0.8,0.7l-0.6,1l-0.7,0.5l-0.7,0l0.2,0.5l-0.4,0.5l0.8-0.3
			l0.5,0.5l0.3-0.2l0.7,1.7l-0.2,1.7l-0.4-0.3l-0.2-1.3l-1.1-0.7l-0.8-1l-0.9-0.4l-0.9-0.7l-0.7-1.3l-0.8-0.4l-0.4,0.2l-1.2-0.4
			l0-0.3l-0.9-0.5l0.1-0.4l-1-0.3l-0.9,0.1l-2.3,2.1l-0.7-0.2l-0.6,0.2l-0.1-0.4l-0.7,0.2l-0.9,0.8l-0.6,1.1l0,1l-0.4-0.2l-0.7,0.6
			l-0.2,0.8l-0.6,0.6l-0.6-1.1l-0.9-0.6l-0.6,0.5l-2.1-0.7l0.4-0.3l0.7-1.6l0.4-0.2l0.4-0.8l0.7-0.4l0.7-1l0.1-0.5l0.8,0.2l0.5-0.5
			l0.2-0.8l-0.1-1.5l0.3-0.5l-0.3-1.9l-0.3-0.8l0.5-1.2l0.5-0.7l-0.2-0.8l-0.6-0.7l-0.5,0.3l-2.5-1.7l-0.6-0.7l-1.5-3.2l-1.3-2.1
			l-0.6-1.1l-0.3-1l0.1-2.7l-0.4-2.8l-0.5-1.8l-1.1-2.4l1,1.3l0.4,0v-0.8l-0.4-1l0.7-0.3l1,0.5l0,0.4h1l0.1,0.4l0.5-0.2l0.6,0.4
			l0.4-0.4l0-1.2l-0.4-1.3l-0.6,0.1l-0.4-1.4l0-0.9l0.4-0.7l0.5-1.4l-0.5-1.4l0.8-0.4l0.4-0.9l0.4,0l-0.1-1l0.4-0.2l0.6,0.2l0.1,1
			l0.5,1.5l0.4-0.2l2.3,0l1.5-0.1l1.1-0.3l0.3,0.5l-0.2,0.6l0.4,0.6l0,0.9l0.5,0.6l0.5-0.3l0.5,0.5l-0.2,1l0.4,0.2l-2.9,0.9
			l-0.3,0.6l1.1,1.3l0.3,1.6l0.5-0.1l1.7-1.9l0.1-0.8l1.4,0.1l0.3,1.4l0.8,0.3l0.8-0.2l0.3,0.5l0,1.5l0.9,0l0.2,0.9l0.7,0.4l0.8,0.8
			l0.2-0.6l2.1-0.9L335.9,404z"/>
		<path class="st0" d="M405.6,443.8l0.1-0.2l1.5,0.6l1.4,1.2l-0.2,0.5l-0.8,0.6l0.7,0.2l-0.1,1l1.1,0.6l-0.3-0.2l0,0.9l0.7,0
			l-0.3,0.4l0,1.2l0.5,0.7l0.7,0.5l-1.2,0l-0.2,0.5l-0.1,1.8l-0.7,0.5l-0.8-0.4l-0.7,0.9l0.5,0.7l0.2,1.4l0.7,0.5l-0.2,1.4l0.2,0.1
			L408,460l-1.4,0.3l-0.3,0.6l-0.1,1.9l-0.9,1.3l0.2,0.7L405,465l-0.4,1.5l-0.8,0.6l-1.3,0.5l-0.2,1.3l-1.2,0.9l-0.2,0.4l-1.4,1.3
			l0-0.5l-0.8-0.8l-0.5,0.2l-0.3,0.6l-0.1,1.5l0.4,0.3l-0.2,0.8l0.4,0.1l0.2,0.9l-0.2,1.3l0.4,0.8l1.9,1.1l0.9,0.8l-0.9,0.9
			l-0.6-0.2l-0.2-0.7l-0.5,0.2l-0.3-0.5l-0.7-0.2l-0.3-0.7l-0.8,0.1l-0.6-0.4l-0.8,0.8l-0.6,0.1l-0.4-0.7l-0.5-0.2l-0.1-0.6
			l-1.4,0.4l-1.7-0.2l-0.4-0.4l-1.2-0.2l-1.4,0.5l-0.1,0.3l-0.7-0.2l-0.5,0.4l-1.2,0.1l-1.4-0.7l-0.3-0.9l-0.6-0.5l-1.1,0.3
			l-0.2-0.4l-1,0.1l-1.3,0.5l-0.6,0.7l-0.1,1.1l0.5,0.6l-0.5,0.7l0.5,1l0,1.3l-0.6,0.2l-0.6,0.8l-0.7,0l-0.2,0.5l-1,0l-0.4,0.3
			l-1.5,0.2l-0.3,0.4l-0.4,1.9l0.2,1.3l0.6,0.4l0,0.5l-1,0.5l-2.1-1l-3.1-0.9l-2.1-0.5l-1.9-0.2l-1.2-0.4l-3.5-1.6l-1.3-0.4l-0.9,0
			l-1.7-0.7l-1.5-0.3l-0.8-0.4l-0.4,0.1l-0.9-0.6l-1.3-0.6l-0.7-1l0-0.4l-0.9-1.8l-0.9-0.9l-1.4-0.9l0.4-0.5l-0.9-1.1l0.7-1.3
			l1.4-0.8l0.1-0.7l-0.4-0.5l0.4-0.5l0.8,0.4l0.2-0.6l1.2-1.1l0.1-0.3l1.9,0l0.8,0.1l1.9-0.9l0.3,1l0.5,0.6l0.9,0.1l1-1.7l0.6-0.1
			l0.1-0.4h0.6l-0.4-0.5l-0.1-1l0.7,0.2l0.3-1l0.8-0.1l0.5-0.5l0.7,0.1l1.6-1l1.4,0.8l0.6-0.9v-0.6l0.5-0.5l0.2-0.8l0.6-0.9l0.1-1
			l0.4-0.2l-0.6-0.4l-0.1-0.5l-1.4,0.7l-0.6-0.5l-0.5,0.3l-0.4,0l0.5-0.8l-0.2-1.3l-0.9-0.3L363,455l0.3-0.3l-0.5-0.7l-0.2-0.7
			l0.4-0.6l0.9,0l0.2-1.6l-0.9-1l-1.7-0.5l-0.4,0.2l-0.8-0.6l-0.7,0.2l-0.4,0.4l-0.6-0.7l0.5-0.9l-0.4-0.8l0.2-0.9l0.6,0.2l1.3-0.2
			l-0.5-0.6l1.4,0.2l1,1l-0.1-0.6l0.6,0l0.9-0.5l0.9-0.1l-0.1-0.9l1-0.2l0.3-0.7l1,0.1l0.6-0.3l-0.2-0.3l1.7-0.9l1.2,0.2l1-0.6
			l1,0.4l0.8-0.4l0.6,0l0.1-0.4l1.3-0.1l1.5,0.1l-0.3,0.6l0.6-0.3l0.8,0.3l-0.3,0.7l0.4,0.2l-0.3,0.5l1.1,1.5l0.9-0.7l0.5,0.4
			l0.4-0.3l0.5,0.3l0.6-0.2l0.6,0.4l0.1-0.5l0.7-0.4l0.3-1.4l0.7,0l0.6-0.4l0.9,0.4l0.6-0.3l0.3,0.7l-0.2,0.4l0.7-0.1l0.4,0.5
			l0.7,0.2l-0.2,0.8l-1-0.1l0,0.7l0.6,0.6l-0.3,0.1l0.2,0.9l-0.1,0.7l1.9-0.1l1.6,0.2l0.7-0.3l-0.2-1.1l0.7,0.7l1-0.5l1,0l0.4,0.4
			l-0.4,0.4l0.8,0.6l-0.6,0.8l0.7,0.7l0.3-0.6h0.7l1.3,0.5l0.2-0.8l0.6,0.4l0.2,0.7l0.6,0.1l0.5-0.5l1-0.4l0.7,0.1l0.4-0.6h0.7
			l-0.6,0.5l1.1,0l-0.2,0.8l0.4-0.7l0.9-0.4l1.7-0.2l0.1-1.4l-0.6-0.3l0-0.7l0.4-0.3l0.3-1.5l0.6-0.6L405.6,443.8z"/>
		<path class="st0" d="M348.3,426.8l0.4,0.3l0.3,0.9l0.7,0.3l0.7-0.6l0.1,0.3l0.6-0.3l0.9,0.1l0,0.4l0.9,1.2l0.5,0.2l0.8-0.4
			l0.3,0.2l0.4-0.6l0.8-0.2l1.4,0.8l0.9-0.4l0.3-0.5l-0.7-0.6l0.5-0.4l-0.2-0.8l0.4-1.2l0.6,0.3l0.5-0.3l0.9,0.8l0.7,0.2l0.2-0.6
			l1.4-1.1l0.4-0.6l0.4,0.2l1-1.2l0.4,0.8l0.9-0.5l-0.3-0.8l0.1-0.7l0.5-1l-0.1-0.6l-1.1-0.2l0-0.6l-1.2-0.4l-0.7-1.4l0.8-0.4
			l0.3-0.5l0.9-0.2l0.1-0.4l1-0.3l0.7,0.4l0.7,0l2,1.3l1.3,0.4l0.8,0.5l0.5-0.6l1.2-0.1l0.2-0.7l0.6,0.1l0.6-0.3l0.8-1.4l0.7-0.7
			l0.2-0.7l2.8-1.1l0.7,0.1l0-0.6l-0.9,0.2l-0.1-0.8l0.5-0.3l0-0.7l1.9,0.3l0.7,0.8l0.9,0.6l0.1,0.6l1.4-0.2l0.1,1.2l0.4,0.8
			l0.5,0.2l-0.5,0.4l-0.8,0l0.1,0.8l0.4,0l-0.6,1.9l0.1,0.5l-1,1.5l0.9,1.2l0.3,0.9l-0.4,0l-1.4,0.5l0.6,0.7l0,1l-0.8,0.1l-1.4,0.7
			l-0.3,1.9l-0.8,0.4l0.3,0.6l-0.9,0.2l-0.6,1.2l0,0.6l-0.5,0.8l-1.4,1.4l-0.5,0.7l-0.5,0.1l-0.4,1.1l0.4,0.1l0.2,0.7l0.5-0.1
			l0.4,0.5l-0.1,0.8l0.9,0.2l0.3,1.1l-0.6,1.3l-0.3-0.2l-1,1.9l0,0.1l-0.6,1.1l-1.3,0.1l-0.1,0.4l-0.6,0l-0.8,0.4l-1-0.4l-1,0.6
			l-1.2-0.2l-1.7,0.9l0.2,0.3l-0.6,0.3l-1-0.1l-0.3,0.7l-1,0.2l0.1,0.9l-0.9,0.1l-0.9,0.5l-0.6,0l0.1,0.6l-1-1l-1.4-0.2l0.5,0.6
			l-1.3,0.2l-0.6-0.2l-0.2,0.9l0.4,0.8l-0.5,0.9l0.6,0.7l0.4-0.4l0.7-0.2l0.8,0.6l0.4-0.2l1.7,0.5l0.9,1l-0.2,1.6l-0.9,0l-0.4,0.6
			l0.2,0.7l0.5,0.7L363,455l0.4,1.1l0.9,0.3l0.2,1.3l-0.5,0.8l0.4,0l0.5-0.3l0.6,0.5l1.4-0.7l0.1,0.5l0.6,0.4l-0.4,0.2l-0.1,1
			l-0.6,0.9l-0.2,0.8l-0.5,0.5v0.6l-0.6,0.9l-1.4-0.8l-1.6,1l-0.7-0.1l-0.5,0.5l-0.8,0.1l-0.3,1l-0.7-0.2l0.1,1l0.4,0.5H359
			l-0.1,0.4l-0.6,0.1l-1,1.7l-0.9-0.1l-0.5-0.6l-0.3-1l-1.9,0.9l-0.8-0.1l-1.9,0l-0.1,0.3v-1.2l-0.6-0.7l0-0.9l0.5-1.2l-0.3-0.6
			l0.1-1.5l0.4-0.8l-0.5-0.3l-0.4-0.7l-0.5-0.3l-0.8-1.3l0-0.7l-1.3,0.4l-0.4,0.7l-1.8,0.8l-1.2-1l-0.2,0.5l-1.1-0.4l-1.7-0.8
			l-0.2,0.3l-0.3,0.7l0.3,0.1l-0.3,0.8l-0.7,0.7l0.2,0.6l-1.2,0.3l-1-0.2l-1.2,0.6l-0.5-0.2l-1,0.4l0-0.4l-0.7,0.2l-0.9,0.8
			l-0.6-0.5l-0.6,0.4l-0.4,1l-0.4,0l0.2,0.5l-1.5-0.7l-0.3,0.2l0.1-0.6l-0.8-0.2l0.1-0.3l-1.4,0l0.4-0.9l-0.7-0.4l-0.9,0.4l-1-0.4
			l-1.7-1.5l0.1-0.9l-0.8-0.6l0.2-0.4l-0.4-0.3l-0.1-0.9l-0.4-0.4L322,457l-0.4-0.7l-0.6-0.2l-1.1-1l-1.4-2.3l-1.1-1.4l-1.7-2.5
			l-0.8-1.6l0.1-1.6l-0.3-0.9l-1.7-1.6l-0.5-0.9l-0.1-0.8l0.7-0.4l0.7-0.8l1.5-0.4l2.8-0.2l0.8-0.2l1.2-0.8l0.4-1.1l-0.2-0.7
			l-0.6-0.3l0.6-0.6l0.2-0.8l0.7-0.6l0.4,0.2l0-1l0.6-1.1l0.9-0.8l0.7-0.2l0.1,0.4l0.6-0.2l0.7,0.2l2.3-2.1l0.9-0.1l1,0.3l-0.1,0.4
			l0.9,0.5l0,0.3l1.2,0.4l0.4-0.2l0.8,0.4l0.7,1.3l0.9,0.7l0.9,0.4l0.8,1l1.1,0.7l0.2,1.3l0.4,0.3l0.2-1.7l-0.7-1.7l-0.3,0.2
			l-0.5-0.5l-0.8,0.3l0.4-0.5l-0.2-0.5l0.7,0l0.7-0.5l0.6-1l0.8-0.7l-0.6-0.2l-0.1-1l0.2-0.5l0.3-1.5l-0.3-0.4l0.4-0.8l0.8,0.1
			l1.1-0.3l0.6,0.3l0.6-0.2l0.3-0.6l0.7-0.5l1,0.4l1-0.3l0.8,0l0.3-1l0.9-0.7l0.1-0.7l-0.4-0.7l0.8-0.3l-0.5-0.9l-0.5-0.5l-0.4,0.2
			l-0.9-0.5l-0.1-0.7l-0.6-0.3l-0.6-0.4l0.3-0.5l-0.4-0.4l0.7-1.1l-0.8-0.9l0.1-0.5l-1,0l-1.2-0.4l-1.4,0.1l-1.2-1.1l-0.1-1.1
			l0.5-1.1l-0.3-0.3l-0.9,0.3l-0.6-0.6l-1.5,0.5l0.1-1.5l-0.1-1.1l0.6-2.5l0.6-0.6l0.1-1.3l0.6-0.1l0-0.8l0.8-0.6l0.8,0.6l-0.1-0.9
			l-0.5-0.3l0.1-0.9l0.5-0.2l0.9,0.3l-0.1-0.4l0.7-0.3l0.5,1.3l-0.7,2.1l0.8-0.4l0.6,0.2l0.2-0.9l0.8-0.4l0.5-1.1l-1.3-0.9l0.6-0.2
			l-0.8-1l-0.2-1.1l0.2-0.3l-1-0.5l0.8-0.9l2-0.1l1,0.4l1.3,0l0.4,0.2l-0.3,2.1l-1.4,0.7l-0.3,1l0.2,0.4l-0.4,0.5l0.3,1.1l-1,1.6
			l0.4,1.8l0.7,1.3l0.6-2.3l-0.3-1l0.6-0.6l0-1l0.4-1l0.3-1.5l0.7-0.3l1.1,0.5l0.8-0.3l0.6,0.7l0.2,1.7l-0.4,0.6l-0.2,1.3l-0.5-0.1
			l0,0.9l0.7,0.3l-0.5,0.7l-0.5,1.4l-0.5,0.7l0.1,0.4l1.4,0.2l0.4-0.5l1.1-0.1v0.4l0.8,0.1l0.6-0.3l0.5-1.8l1.2-0.6l0.4,0.2l0.3-1.2
			l-0.5-0.2l-0.5,0.5l0.2-1l-0.4-0.6l1-0.4l0.3-0.4l0.9,0.4l0.2-0.3l0.4,0.6l0.5-0.1v0.6l-0.7,0.5l-0.2,0.8l0.6-0.3l1.6,0.1l0.8,0.9
			l0.1,0.5l-0.9,0.6l0.1,0.7l0.4,0.5l-0.9,0.4l-0.5,0.6l0.8,0.2l-0.1,0.9l-1.6,0.3l0.2,0.5l-1.3,0l-0.2-0.3l-1,0.9l-0.1,0.5
			l-1.1,0.1l-1.1,1.3l0,0.5l-0.6-0.4l-0.4,0.5l-0.8,0l0.8,0.6l0.4,0.6l-0.3,1.2l-0.4,0.6l0.1,1.1l-0.8,0l0,0.6l-0.9-0.3l-0.7,0.3
			l-0.1,0.5l0.4,0.4l-0.5,0.7l0.7,0.1l1.3,1.3l0.3-0.9l0.6-0.1l0.6,1.3l-0.1,0.4l-2.7,0.3l-1,0.6l0.1,0.7l0.9-0.4l0.4,0.1
			L348.3,426.8z"/>
		<path class="st0" d="M561.2,499.8l0.2,0.6l1.3,0.5l0.1,0.6l0.4-0.4l1,0.3l-0.1,1.1l0.7,0.3l0.2,0.5l0.7,0.9l0.9,0.3l0,0.4l1,1
			l0,0.4l1,0.3l0.4,0.4l0-0.6l0.5,0l-0.3,0.5l0.7,0.1l0.3,0.7l0.6-0.1l0.5,0.5l0.9,0l0,0.4l0.7,0.2l1,0.8l0.9,1.5l0.1,0.8l0.5,0.3
			l-0.4,0.2l0,0.8l0.5,0l0.6,1l1.9,0.2l-0.1,0.6l1.1,0l0.4,0.6l0.1,0.9l-0.8,1.1l0.3,0.3l-0.6,0.2l0,1.2l0.5,0.4l-0.5,1.2l0.3,0.4
			l-8.9,0h-13.6l-8.3,14.7l2.6,3.5l-0.7,1.1l-0.5-0.1l-0.4,0.6l0,2.1l-0.6,0.7l0.4,1l-0.1,0.6l0.4,0.4l0,1l-0.4,0.4l-0.2,1.1
			l-0.8,0.8l-5.1-5l-2.8-3l-3.7-3.9l-4.6-4.5l-3-2.7l-3.7-3l-2.7-2l-1.5-0.9l-2.3-1.2l-1.4-0.3l-0.6-0.3l-1.2-2.2l-0.1-0.7l1.1-0.7
			l0.3-1.1l-0.3-1l-1.5-2.4l4.7-12.3l0.1-0.5l0.6-0.2l0.4-1l0.5-0.4l1.9-0.2l0-0.5l1-0.5l1.7-2.4l0.5-1.9l0.5,0.1l0.1-0.7l0.5-0.1
			l0.6-1l0.5-0.1l0.1-0.9l-0.7-1.4l0.7,0.2l0.3-1.5l-0.2-0.7l0.2-0.9l0.7-0.1l0.5-0.8l0.5,0.6l0.6-0.2l1.1,0.5l0.9,0.8l-0.7,0.6
			l0.3,0.5l0.4-0.4l1,0l0.5,0.8l-0.5,0.6l-0.3,0.9l0.4,0.3l-0.1,1.5l0.7,0.7l0.2,0.9l0.8,0.9l0.1-0.4l0.9-0.1l1,0.5l0.2,0.9
			l-0.6,0.2l1.2,0.1l0.3,1l0.7,0.2l0.9-0.6l0.3-1.2l1.1-0.9l-0.1-0.5l0.4-0.5l0.7,0l0.2-0.4l1.5,0l1.5-0.9l0-1.6l0.4-0.2l0.9,0.4
			l0.8-1l1-0.8l0.7,0.4l0.7-1.7l0.6,0.2l-0.2-0.5l1-0.4l0.5-0.5l0.8,0.4l-0.1,0.7l0.5-0.7l1.1,0.3l0.6-0.3l0.6,0.9l-0.2,0.6l0.2,0.7
			l-0.3,0.6l-0.6,0.1l1.6,0.6l1.1,0.6l0.6,1l-0.3,0.1l0.4,0.6l0.1,0.8l-0.6,1.6l2,0.8l0-0.4l0.8,0.6l1.6,0.3l0,0.5l0.6,0.7l-0.7,0.1
			L561.2,499.8z"/>
		<path class="st0" d="M569.1,489.5l0,10.3h-7.9l0.2-0.9l0.7-0.1l-0.6-0.7l0-0.5l-1.6-0.3l-0.8-0.6l0,0.4l-2-0.8l0.6-1.6l-0.1-0.8
			l-0.4-0.6l0.3-0.1l-0.6-1l-1.1-0.6l-1.6-0.6l0.6-0.1l0.3-0.6l-0.2-0.7l0.2-0.6l-0.6-0.9l-0.6,0.3l-1.1-0.3l-0.5,0.7l0.1-0.7
			l-0.8-0.4l-0.5,0.5l-1,0.4l0.2,0.5l-0.6-0.2l-0.7,1.7l-0.7-0.4l-1,0.8l-0.8,1l-0.9-0.4l-0.4,0.2l0,1.6l-1.5,0.9l-1.5,0l-0.2,0.4
			l-0.7,0l-0.4,0.5l0.1,0.5l-1.1,0.9l-0.3,1.2l-0.9,0.6l-0.7-0.2l-0.3-1l-1.2-0.1l0.6-0.2l-0.2-0.9l-1-0.5l-0.9,0.1l-0.1,0.4
			l-0.8-0.9l-0.2-0.9l-0.7-0.7l0.1-1.5l-0.4-0.3l0.3-0.9l0.5-0.6l-0.5-0.8l-1,0l-0.4,0.4l-0.3-0.5l0.7-0.6l-0.9-0.8l-1.1-0.5
			l-0.6,0.2l-0.5-0.6l-0.5,0.8l-0.7,0.1l-0.2,0.9l0.2,0.7l-0.3,1.5l-0.7-0.2l0.7,1.4l-0.1,0.9l-0.5,0.1l-0.6,1l-0.5,0.1l-0.1,0.7
			l-0.5-0.1l-0.5,1.9l-1.7,2.4l-0.6-0.1l0.1-0.4l-1-0.9l0.7-0.6l0.5-1.3l0-0.9l-0.5-0.2l-1.4-1.3l-0.3-0.8l-0.4-0.4l-0.6,0.1
			l-1.3-0.7l0.2-0.3l-0.9-0.1l-0.5-0.4l-0.2-0.9l-0.4-0.6L516,489l-0.2-0.6l-0.8,0l-0.1-1.6l0.4-0.5L515,486l0.2-1l-0.5-1.3l0-0.8
			l-0.5,0l0-0.7l4.8-1.6l4.7-1.7l2.1-0.5l1.3-0.2l5.2-0.2l1.2,0.2l2.2-0.2l1.5-0.6l1.1-0.9l1.1-1.7l0.7,0.1l1.3-0.2l1.8-0.5l0.1,0.6
			l0.7,1.1l0.2,1.3l1.1,0.8l0.5-0.6l0.2,0.3l2.3,0l0.1,2.2l-0.1,1.3l0.5,1.1l-0.2,1l0.9,1.1l1.2-0.1l0.5,0.9l0.6,0.2l0.2,0.5l1,0
			l0.7,0.6l1.1,0.2l2.9,1.8l0.5-0.7l-0.2-0.6l0.2-2.8l0.7-0.9l0.7-0.1l0.3-0.4l0,0.7l1.4,0.9l0.9,0.4l1,0l1.9,1.6l1.3,0l0.4,0.2
			l2.3,0L569.1,489.5z"/>
		<path class="st0" d="M481.2,483.5L481.2,483.5l0.7-0.1l0.4-0.1l0.7,0l0.2,0.3l1.2,0.1l0.6,3.3l-0.9,1.9l-0.3,1.3l-0.6,0.7l0.5,0.3
			l0.1,0.6l0.6,0.6l0.8,0.3l0.2,0.4l-0.5,0l1,0.4l0.7,1.2l1-0.5l0.8,0.2l1.3-0.5l0.7-0.7l0.1,0.2l0.9-1.1l0.3,0.1l0.7-0.5l0.6,0
			l0.7-0.9l0.5,0.1l0.5-0.4l0.8,0.9l0.1,0.7l-1.2,0.2l-0.4,0.5l0.4,0.3l3.1,4.2l1.8,0.8l1.4,0.4l-0.3,0.8l-0.2,1.4l18.4,1l-4.7,12.3
			l1.5,2.4l0.3,1l-0.3,1.1l-1.1,0.7l0.1,0.7l1.2,2.2l0.6,0.3l-3.5-1.7l-3.2-1.1l-2.7-0.6l-2.5-0.3l-3.1-0.1l-3.6,0.6l-1.3-0.1
			l-0.2,0.4l-1.4,0.2l-0.8,0.9l-1.1,0.4l-0.7,0.8l0.2,0.5l-1,0.4l-0.1,0.4l-0.8,0l-1.5,0.3l-1.6,0.8l-1.8,0.3l-0.2,0.4l-1.8,0.4
			l-1.4,0.4l-1.6,0.7l-0.4,0.4l-0.8,0.1l-0.2,0.4l-1.8,1l-2.1,0l-1.3-0.2l-1.2,0.7l-0.9,0l-2.6-1.1l-2.7-0.4l-1.2-0.7l-1.5-0.4
			l-0.6-0.4l-0.2-0.6l-0.7-0.2l-1.6-0.9l-1.4-0.4l-1.5-0.1l-0.2,0.1l-1.9-0.3l-0.9-0.3l-0.6,0.1l-1.3-0.3l-0.7,0.3l-1.9-0.4l-3-2.1
			l-2.2-1.3l-2.4-1.2l-1.2-0.3l-2-0.3l-2.6-0.9l0.2-0.6l1.5-0.7l1,0.1l0.9-1.2l-0.1-0.8l-0.6-0.1l-0.1-0.9l1-0.2l0.2-0.3l0.6,0.3
			l0.9-0.2l0.6-0.4l-0.4-1.5l0-0.9l0.6,0.1l1.1-0.2l0.5-0.7l0.6-2l-0.7-1.6l0.9-1.2l0.5,0.1l0.4-0.4l-1.3-0.5l-1.3-0.8l-1.2-0.2
			l0.1-1.2l0.2-0.5l-0.7-0.6l-1.1,0.1l-0.4-0.5l0.3-0.9l0.3,0l-0.3-1.2l-0.5-1.1l0.4-0.4l-0.3-1l-0.8-1.3l-0.6,0.1l-0.8-0.5
			l-0.2-0.9l-0.3,0l-0.1-1.7l1.2-1.2v-0.5l0.7-0.3l0.8,0l0.6-0.2l0.3-0.8l0.6,1l1.2-0.3l0.3-1.2l0.8-0.4l1.8,0l1.3,0.2l0,0.9l2.1,0
			l0.1-0.6l0.7-0.4l0.2-0.6l1,0l0-0.4l-1.3-0.9l-0.5,0.6l0.1,0.6l-0.6,0.6l-0.3-0.4l0.1-1l0.4-0.3l-0.7-0.3l-0.3-1.1l0.4-0.5
			l-0.3-0.3l1.1-1.7l1.3,0.1l1.2-0.3l0.2,0.2l0.1,1.6l-0.3,0.3l0.8,0.4l0,0.4l0.7,0.5l0.4,1.3l1.3,0.1l1-1.4l0.6,0.1l0.8-0.9
			l1.9-0.6l0.7,0l0.3-0.5l0.6,0.8l0.5,0.2l1.1-0.2l0-0.3l1.1-1.1l0.8,0.2l0.8-0.4l0.7,0l0.5-1l-0.1-0.4l0.7-0.3l0.5-1l0.4,0
			l-0.1,0.4l0.9,0v-0.7l-0.4-0.2l0.4-1l0-0.7l-0.7-0.3l0.5-0.4l0-0.5l0.5-0.8l-0.1-0.8l2.1,1.5l0.9,0l0.9,0.4l0.6,1.1l0.3,1.2l1,0.8
			l0.5,0.6l0.1,0.7l0.7,1l-0.3,0.2l1.2,1.8l0.5-0.1l0.1,0.5l1,0l0.7-0.4l0.3,0.6L481.2,483.5z"/>
		<path class="st0" d="M415.6,421.3l0,2.3l-0.3,0.3l0.6,1.2l0.4-0.4l1.2,0.2l-0.5,0.6l0.2,0.8l-0.9-0.2l-1.6,1.5l-1-0.2l-1.7-0.9
			l-0.7,2.7l0.3,0.5l-0.3,0.6l-0.7-0.3l-0.3,1.5l0.3,0.3l-0.9,0.3l-0.3-0.3l-1.1,0l-1.1-0.6l0,0.8l-1.2,0.7l-1.4,0.1l-0.7-0.2l0-0.4
			l-0.9,1l0.1,0.3l-1,0.4l-0.1,1l0.3,0.7l-0.8,0.4l0.2,0.8l0.3,0.1l0.2,0.7l0.9,0.3l0.2,1.2l-0.3,0l0,0.7l0.3,0.8l0.2,1.6l1.2,0.3
			l0.3,1.1l0.7,0.5l0.5,0.7l-0.6,0.6l-0.3,1.5l-0.4,0.3l0,0.7l0.6,0.3l-0.1,1.4l-1.7,0.2l-0.9,0.4l-0.4,0.7l0.2-0.8l-1.1,0l0.6-0.5
			h-0.7l-0.4,0.6l-0.7-0.1l-1,0.4l-0.5,0.5l-0.6-0.1l-0.2-0.7l-0.6-0.4l-0.2,0.8l-1.3-0.5h-0.7l-0.3,0.6l-0.7-0.7l0.6-0.8l-0.8-0.6
			l0.4-0.4l-0.4-0.4l-1,0l-1,0.5l-0.7-0.7l0.2,1.1l-0.7,0.3l-1.6-0.2l-1.9,0.1l0.1-0.7l-0.2-0.9l0.3-0.1l-0.6-0.6l0-0.7l1,0.1
			l0.2-0.8l-0.7-0.2l-0.4-0.5l-0.7,0.1l0.2-0.4l-0.3-0.7l-0.6,0.3l-0.9-0.4l-0.6,0.4l-0.7,0l-0.3,1.4l-0.7,0.4l-0.1,0.5l-0.6-0.4
			l-0.6,0.2l-0.5-0.3l-0.4,0.3l-0.5-0.4l-0.9,0.7l-1.1-1.5l0.3-0.5l-0.4-0.2l0.3-0.7l-0.8-0.3l-0.6,0.3l0.3-0.6l-1.5-0.1l0.6-1.1
			l0-0.1l1-1.9l0.3,0.2l0.6-1.3l-0.3-1.1l-0.9-0.2l0.1-0.8l-0.4-0.5l-0.5,0.1l-0.2-0.7l-0.4-0.1l0.4-1.1l0.5-0.1l0.5-0.7l1.4-1.4
			l0.5-0.8l0-0.6l0.6-1.2l0.9-0.2l-0.3-0.6l0.8-0.4l0.3-1.9l1.4-0.7l0.8-0.1l0-1l-0.6-0.7l1.4-0.5l0.4,0l-0.3-0.9l-0.9-1.2l1-1.5
			l-0.1-0.5l0.6-1.9l-0.4,0l-0.1-0.8l0.8,0l0.5-0.4l0.2-0.2l0.4-0.3l0.9,0l1-0.3l0.8,0.1l0.5,0.4l0.5-0.2l1.7,1.2l1.8-0.2l1.4,0.2
			l1.2,0.7l-0.2,0.3l1.5,0.7l-0.4,0.9l2.2,0.8l0.2,0.5l0.6,0.1l0.4,0.4l0.4-0.3l0.4,0.7l1.4-0.7l1.2,0l0.1-0.2l-0.5-0.7l0.5-0.6
			l0.1-0.7l1.8-0.5l1.4,0.1l1.8,1l1.6,1.4l0.2,0.6l1.8-0.1l-0.1,0.4l0.4,0.8l0.7,0.2l0.7-0.5l0.9,0.2L415.6,421.3z"/>
		<path class="st0" d="M379.3,411.2l0,0.7l-0.5,0.3l0.1,0.8l0.9-0.2l0,0.6l-0.7-0.1l-2.8,1.1l-0.2,0.7l-0.7,0.7l-0.8,1.4l-0.6,0.3
			l-0.6-0.1l-0.2,0.7l-1.2,0.1l-0.5,0.6l-0.8-0.5l-1.3-0.4l-2-1.3l-0.7,0l-0.7-0.4l-1,0.3l-0.1,0.4l-0.9,0.2l-1.9-1.5l0.1-0.6
			l-0.5-0.4l1.2-2.7l0.8-0.9l0.1-0.5l1.1-0.7l0.9-2.3l-0.5-0.3l0-0.9l2.5,0l0.9-0.3l0.1-0.8l1.4-0.2l1.2-0.5l0.2-1.3l1,1.6l1.3,0.2
			l0.5,0.3l-0.1,1.1l0.8,0.1l0.5-0.4l0.7,0.1l0.3,1.1l0.4,0.1l0,1.2l-0.4,0.7l1,0.3l1.8,1.3L379.3,411.2z"/>
		<path class="st0" d="M428.3,425.2l-0.3,0.8l0.4,0.4l0,1l-2.1,0.5l-0.7,0.6l-0.6,0.1l-1.1-0.9l-0.7,0.9l-0.9,0l0.6,1l-0.4,0.6
			l-0.1,1.2l-0.4,0.5l-0.7,1.4l-0.5,0.2l-0.1,0.8l-1,1.1l0.3,0.6l0.5,0.9l-1.2,0.4l-0.9,0.8l-0.2-0.2l-1.1,0.6l-0.5,0l-1.8,0.6
			l-0.5,5.1l-0.9-0.3l-0.4,0.7l0.3,0.6l-0.6,0l-0.1-0.7l-0.5-0.1l0.4,1l0.6,0.5l-0.2,1l0.3,1l-0.9,0.1l0-0.3l-2,0.9l-0.8-0.4
			l-1.1-0.6l0.1-1l-0.7-0.2l0.8-0.6l0.2-0.5l-1.4-1.2l-1.5-0.6l-0.1,0.2l-0.7-0.5l-0.3-1.1l-1.2-0.3l-0.2-1.6l-0.3-0.8l0-0.7l0.3,0
			l-0.2-1.2l-0.9-0.3l-0.2-0.7l-0.3-0.1l-0.2-0.8l0.8-0.4l-0.3-0.7l0.1-1l1-0.4l-0.1-0.3l0.9-1l0,0.4l0.7,0.2l1.4-0.1l1.2-0.7l0-0.8
			l1.1,0.6l1.1,0l0.3,0.3l0.9-0.3l-0.3-0.3l0.3-1.5l0.7,0.3l0.3-0.6l-0.3-0.5l0.7-2.7l1.7,0.9l1,0.2l1.6-1.5l0.9,0.2l-0.2-0.8
			l0.5-0.6l-1.2-0.2l-0.4,0.4l-0.6-1.2l0.3-0.3l0-2.3l0.5-0.5l0-1l1.5,0.2l0.6,1.1l1.3,1.1l-0.1,0.3l1.1,0.1l0.3-0.5l0.6,0l0.3,0.4
			l0.8-1.5l-0.1-0.8l1.2,0.3l0.5-0.7l-0.1-0.8l0.9-0.5l0.1-0.6l0.5-0.1l0.3,0.8l0.7,0.6l-0.2,1.2l0.3,1.4l0.5,1l0.1,0.8l-0.6,0
			l-0.1,0.6l0.6,0.5L428.3,425.2z"/>
		<path class="st0" d="M409.9,388.5l-0.2,0.6l0,1.4l0.8,0.1l0,0.5l0.8,0.7l-0.8,0.5l-0.1,0.7l-0.4-0.2l0.2,0.7l-0.4-0.1l0,1.1l1.2,0
			l0.3,1.8l-1.3,1.2l1.4,0.7l1.1-0.5l1.3,0.1l0.7,0.3l-0.1,1l0.7,0.4l0.4-0.2l1,0.2l0.7-0.4l2.1,0.8l0.4,0.5l0.7-0.2l-0.9-2.3
			l1.2,0.1l0.6,1.5l1-0.1l0.2,0.8l0.8-0.1l1,2.3l0.6,1.9l2,0.1l1-0.2l2.2,0.4l0.7,0.7l0.3-0.2l0.9,0.2l1.2-0.2l0.1-0.2l1.3-0.5
			l-0.2,0.6l1.7,0l0.1,0.5l0.8,0.2l1,0.8l0.5-0.2l0.7,0.9l0.6,0l-0.1,0.4l0.8-0.1l-0.3,0.4l0.1,0.7l-1.7,1.1l0,1.4l-1.1,1.8
			l-0.5-0.3l-0.9,0.2l0.4,0.7l0.7-0.3l0.2,0.4l-0.8-0.1l-0.1,1.4l0.5,0.6l0.4-0.2l0.7,1.4l-1,0.7l-0.3,0.5l-0.6-0.4l0.1,0.6
			l-1.3,0.6l0.1,1.2l0.4,1l1.2,0.7l0.3,0.8l-0.1,0.6l0.2,0.5l0.1,0.2l-0.2,0.5l-0.4-0.4l-1,0.4l-0.8-0.1l-0.7,0.5l1,0.6l0.5,0.4
			l-0.2,1.7l-0.6,0.4l-0.7-0.3l-0.2,0.7l-0.3-0.4l-0.5-0.1l-1.4,0.5l-0.5-0.3l-0.6-0.3l-0.6-0.6l-0.5-1.6l-1.9,0.5l-0.9-0.3
			l-0.6-0.5l0.1-0.6l0.6,0l-0.1-0.8l-0.5-1l-0.3-1.4l0.2-1.2l-0.7-0.6l-0.3-0.8l-0.5,0.1l-0.1,0.6l-0.9,0.5l0.1,0.8l-0.5,0.7
			l-1.2-0.3l0.1,0.8l-0.8,1.5l-0.3-0.4l-0.6,0l-0.3,0.5l-1.1-0.1l0.1-0.3l-1.3-1.1l-0.6-1.1l-1.5-0.2l0,1l-0.5,0.5l-0.7,0.6
			l-0.9-0.2l-0.7,0.5l-0.7-0.2l-0.4-0.8l0.1-0.4l-1.8,0.1l-0.2-0.6l-1.6-1.4l-1.8-1l-1.4-0.1l-1.8,0.5l-0.1,0.7l-0.5,0.6l0.5,0.7
			l-0.1,0.2l-1.2,0l-1.4,0.7l-0.4-0.7l-0.4,0.3l-0.4-0.4l-0.6-0.1l-0.2-0.5l-2.2-0.8l0.4-0.9l-1.5-0.7l0.2-0.3l-1.2-0.7l-1.4-0.2
			l-1.8,0.2l-1.7-1.2l-0.5,0.2l-0.5-0.4l-0.8-0.1l-1,0.3l-0.9,0l-0.4,0.3l0.2-1.1l1.3-0.8l-0.3-0.4l1-1.1l0.8-0.1l-0.5-0.9l0.1-0.8
			l0.4-0.9l-0.4-0.8l0.5-0.6l-1.1-1l-0.5,0l0.4-0.6l-0.5-0.3l-0.2-0.9l0.9,0.1l0.1-1.9l1.1,0.1l0.5-1l-0.1-1.4l-0.8-1.4l-0.7-0.3
			l0.5-0.7l-1.1-0.7l-1.4,0.1l-0.1,0.8l-1.2,0.8l-0.1,0.8l-1.4,1.9l-0.7-0.1l-0.9,0.2l0.2,0.5l-0.6-0.1l-0.2,0.4l-0.9-0.7l0.3-1
			l-0.9-0.2l0.3-1.8l-1.5,0.2l-3.2-2.6l-1.2-1.6l-0.8-3.5l-0.4,0l0.8-1.6l-0.5-0.7l0-0.8l-0.9-0.4l0.1-0.8l0.5-0.1l-0.7-0.7l0.7-0.8
			l0.3-1.6l0.8,0l0,0.9l0.4,0v0.7l0.8,0.1l1.9-0.4l4.1-1.4l5.9-5.1l1.9-1.8l2.4-2l-0.4-4.6l0.8-0.1l1.9-0.8l0.9-3.5l0.1,1.1l1.1,1
			l1.7-1.2l1.9-2.2l0.5-0.6l1.9,1.7l0.1,1l-0.6,2.4l0.8,0l-0.1,0.9l-0.3,0.1l1.7,0.7l-0.4,0.4l0.3,0.9l-0.3,0.9l-0.4,2l0.4,0.6
			l-0.2,0.9l0.9,0.8l0.1,1.1l0.8,1.2l-0.6,0.8l-0.3,1.2l0.4,0l0.2,1l-0.6-0.3l-0.4,2l1.1,1l-0.5,2.9l0.1,0.4l2.6,0.6l0.1-0.6
			l-0.7,0.1l-0.2-1.5l1.2,0.1l0.5-0.9l1,0.2l-0.1,0.9L409.9,388.5z"/>
		<path class="st0" d="M446.8,456L446.8,456l0.5,0.1l0.4,0.7l0.5-0.1l0.8,0.7l-0.4,0.9l0.8,0.7l0.9-0.5l0,0.5l0.7,0.3l0.3,0.5l0.1,0
			l0.5,0.7l0.5,0.2l0.9,0.9l-0.3,0.5l-0.8,0.4l-0.9-0.4l-0.5,0.4l-0.5-0.3l-1.1,0.3l-0.2,0.3l0.3,0.9l-0.7,0.4l-0.6,0.7l-1.2-0.6
			l-0.6-0.6l-0.2,0.4l-1.3,1.4l-0.8,0.6l-0.4-0.6l-1.4-0.4l-1.7-1.2l-0.2-0.7l-0.5-0.5l0-0.4l-0.6-0.2l-0.5-0.7l-0.9-1.9l-0.8-0.1
			l-0.4,0.3l-1.1-0.3l-1-1.6l0.7-0.8l0.1-0.1l0.9,0.1l0.6-0.7l0.5,0.4l0.3-0.3l0.3,0.6l1.9-0.3l0.5,0.2l1-1.4l-0.1-0.7l1.1,0l0,0.1
			l0.2,0l0.3,0.8l1.4,0.1l0.8-0.4l0.3,0.3l0.7-1.1l0.4,0.8l-0.1,0.8L446.8,456z"/>
		<path class="st0" d="M451.5,434.7L451.5,434.7L451.5,434.7l-0.1,0.7l-0.4,0.2l0,0.6l0,1.1l0.6,0.1l0,0.5l0.5,0.7l0.5,0.5l0.1-0.4
			l1.1,0.2l0.9,1.2l-0.6,0l-0.4,0.6l-0.6,0.2l-0.2,0.8l-0.5-0.1l-0.6-0.8l-0.3,0l-0.6,1.4l0.4,0.6l0.8,0.6l0.3-0.6l0,0.9l-1.3,0.4
			l0.4,0.7l-0.1,0.9l1.1,0.5l0.9-0.3l0.5,0.3l0,0.9l0.7,0.6l1.1-0.9l-0.1-0.4l0.7-0.5l0-0.8l0.3-0.4l0.7,0.3l0.4-0.3l0.2,0.6
			l2.2,0.7l1.4,0.6l0.2-0.2l0.5,0.4l-0.6,0.5l-0.9,1.2l0.1,0.5l-0.9,0.7l0.1,0.8l-0.7,0.7l-0.4,1.4l-0.1,1.5l-0.2,0.4l0.5,0.8
			l-0.4-0.1l-1.3,1.2l-0.2-0.2l-0.3,0.7l0.1,0.9l0.4,0.8l1,0.2l-0.2,1l-0.6,0.1l0.5,1l0.4-0.3l1.4,0.2l0.8,0.4l0.2,0.9l0.6-0.4
			l1.2,0.5l0.9-0.3l0.5,0.5l0.5,0.2l-0.3,0.8l-1,0.7l0.4,1l-0.2,0.3l-0.6-0.5l-2.3,0l0.1,0.3l-1,0.8l-0.1,1.3l-0.3,0.6l0.4,0.3
			l0.3,1.6l-0.9,0.5l-0.4,0.9l-0.6,0.5l0.4,0.5l-0.3,0.8l0.5,1l0.4-0.2l0.5,0.8l0.6-0.3l1.7,0.9l-0.1,0.5l1.2,1.9l0.5-0.6l1.6-1
			l0.5,0.3l0.5-0.2l0.6,0.6l0.7,0.3l0.5-0.2l0.3,1.5l0.9,0.6l-0.4,0l-0.5,1l-0.7,0.3l0.1,0.4l-0.5,1l-0.7,0l-0.8,0.4l-0.8-0.2
			l-1.1,1.1l0,0.3l-1.1,0.2l-0.5-0.2l-0.6-0.8l-0.3,0.5l-0.7,0l-1.9,0.6l-0.8,0.9l-0.6-0.1l-1,1.4l-1.3-0.1l-0.4-1.3l-0.7-0.5l0-0.4
			l-0.8-0.4l0.3-0.3l-0.1-1.6l-0.2-0.2l-1.2,0.3l-1.3-0.1l-1.1,1.7l0.3,0.3l-0.4,0.5l0.3,1.1l0.7,0.3l-0.4,0.3l-0.1,1l0.3,0.4
			l0.6-0.6l-0.1-0.6l0.5-0.6l1.3,0.9l0,0.4l-1,0l-0.2,0.6L450,487l-0.1,0.6l-2.1,0l0-0.9l-1.3-0.2l-1.8,0l-0.8,0.4l-0.3,1.2
			l-1.2,0.3l-0.6-1l-0.3,0.8l-0.6,0.2l-0.8,0l-0.7,0.3l-0.3-1l0.3-0.3l-0.2-0.8l-1.6-0.2l-0.1,0.3l-1,0l-1.1,0.8l-0.7-0.5l-2.2-0.9
			l1.3-0.6l-1.3-0.5l-1,0.1l0.3-1.1l-0.5-0.9l-1.3-0.4l-0.8,0l0.2-1.1l-0.6,0l-0.1-0.4l-0.4,0.4l0.1-0.7l-0.2-0.8l1.4-1.6l1.2-0.2
			l0.1-0.6l1.1-0.3l0.1-0.5l0.5-0.1l1.4,1.3l0.4-0.1l0-1l-0.1-2.3l-0.5-1.5l0.4-0.7l-0.7-0.1l0.4-1l0.7-1.1l0,0l0.5-0.7l-0.8-0.1
			l0.5-0.4l0.5-1.4l0.3-0.3l0.2-0.4l-0.3-0.8l0.2-0.9l-0.4-1.1l0.1-1l0.3-0.4l-0.6-1.2l0.3-0.5l-0.3-1.5l0.4,0l-0.3-0.6l1.1,0.3
			l0.4-0.3l0.8,0.1l0.9,1.9l0.5,0.7l0.6,0.2l0,0.4l0.5,0.5l0.2,0.7l1.7,1.2l1.4,0.4l0.4,0.6l0.8-0.6l1.3-1.4l0.2-0.4l0.6,0.6
			l1.2,0.6l0.6-0.7l0.7-0.4l-0.3-0.9l0.2-0.3l1.1-0.3l0.5,0.3l0.5-0.4l0.9,0.4l0.8-0.4l0.3-0.5l-0.9-0.9l-0.5-0.2l-0.5-0.7l-0.1,0
			l-0.3-0.5l-0.7-0.3l0-0.5l-0.9,0.5l-0.8-0.7l0.4-0.9l-0.8-0.7l-0.5,0.1l-0.4-0.7l-0.4-0.1l-0.1,0l-0.9-0.2l0.1-0.8l-0.4-0.8
			l-0.7,1.1l-0.3-0.3l-0.8,0.4l-1.4-0.1l-0.3-0.8l1-0.4l0-0.4l-0.7-0.2l-0.6-1.2l-0.8-0.2l0.8-0.8l0-0.4l0.9-1l0.6,0.2l0.4-0.3
			l-0.4-1.2l0.4-0.9l0.8-0.5l0.2-0.4l-0.7-0.1l0.1-0.7l-0.4-0.7l-0.6-0.7l-1,0.8l-0.5,0l-0.2-0.9l0.5-0.7l1.3,0.1l-0.1-0.8l1,0
			l0.9-1.2l0.1-0.5l1-0.5l0.5-1.2l0.1-0.4l1.3-0.9l0.2-0.7l-0.4-0.9l0.4-0.6l-0.4-0.2l0.8-2.2l0.7,0l0.3,0.5l0.9-0.3l1,0.5
			L451.5,434.7z"/>
		<path class="st0" d="M438.5,423.7l0,0.1l-1.3,1.8l0.5,0.4l0.8-0.1l-0.2,0.4l0.5,0.5l0.2,0.5l0.3,0.2l0.1,0.1l1.4,0l0.7-0.3
			l0.1,0.5l0.8,0.5l0.6-0.4l0.2,0.5l1,0.8l-0.2,1.2l-0.6,0l-0.3,1.2l-0.4,0.4l0.1,0.6L442,433l0.5,1.3l-1.2,0.3l0.1-0.3l-0.9-0.7
			l0.2-0.5l-1.5,0.2l-0.6,1.4l0.2,0.5l-1.1,0.3l-0.6,0.8l0.4,0.1l1.8-1.2l-0.5,0.8l-0.2,0.6l-0.5,0.4l0.2,1l-0.7,0.1l-0.1,0.7
			l-0.6,0.7l-0.7,0.3l0.8,1.1l0,1.3l0.5,0.5l1,0.2l1.3-1.3l1.1-0.3l0.1-0.5l0.7-0.7l1.1-0.9l0.7,0l1.7-2.3l0.2-0.4l0.5,0.8l0.5,1.9
			l0.4,0.3l-0.5,1.2l-1,0.5l-0.1,0.5l-0.9,1.2l-1,0l0.1,0.8l-1.3-0.1l-0.5,0.7l0.2,0.9l0.5,0l1-0.8l0.6,0.7l0.4,0.7l-0.1,0.7
			l0.7,0.1l-0.2,0.4l-0.8,0.5l-0.4,0.9l0.4,1.2l-0.4,0.3l-0.6-0.2l-0.9,1l0,0.4l-0.8,0.8l0.8,0.2l0.6,1.2l0.7,0.2l0,0.4l-1,0.4
			l-0.2,0l0-0.1l-1.1,0l0.1,0.7l-1,1.4l-0.5-0.2l-1.9,0.3l-0.3-0.6l-0.3,0.3l-0.5-0.4l-0.6,0.7l-0.9-0.1l-0.1-1l0.9,0l-0.2-1.1
			l0.4-0.1l0.2-0.8l-1.1-1.3l-0.3,0.4l-0.2-0.7l-1.6-0.6l-0.3,0.5l-1.5-0.8l-0.6,0.6l-0.6,1.3l-1-0.5l-0.2-0.7l1.1-0.5l-0.1-0.5
			l-0.6-0.6l0.9-0.3l0-1l-0.8-0.7l-0.2,0.3l-0.1,1.3v0v0v0l-0.4,0.2l0-0.8l-0.6,0.6l0.1-0.4l-0.4-0.5l-1.2,0.1l-1.2,1.4l0.4,0.4
			l-0.2,0.7l-0.9,0.6l-1.4,1.5l-0.7-0.2l0.3-1.2l-0.7,0l-1.2-1l0.2-0.9l0.6-0.8l-0.4-1.3l-1-1.5l0.1-0.5l-2,0.5l-0.5-0.7l-1.1,0.2
			l-1.2-1l-0.9-1.1l-0.3,0.3l0-0.1l0.5-5.1l1.8-0.6l0.5,0l1.1-0.6l0.2,0.2l0.9-0.8l1.2-0.4L420,436l-0.3-0.6l1-1.1l0.1-0.8l0.5-0.2
			l0.7-1.4l0.4-0.5l0.1-1.2l0.4-0.6l-0.6-1l0.9,0l0.7-0.9l1.1,0.9l0.6-0.1l0.7-0.6l2.1-0.5l0-1l-0.4-0.4l0.3-0.8l1.9-0.5l0.5,1.6
			l0.6,0.6l0.6,0.3l0.5,0.3l1.4-0.5l0.5,0.1l0.3,0.4l0.2-0.7l0.7,0.3l0.6-0.4l0.2-1.7l-0.5-0.4l-1-0.6l0.7-0.5l0.8,0.1l1-0.4
			l0.4,0.4l0.2-0.5l0.4-0.1L438.5,423.7z"/>
		<path class="st0" d="M450.4,406.8l-0.2,0.2l0.1,1.4l0.5,1.8l0.9,2.1l1.6,2.6l0.9,1.2l2.3,2.3l1.8,1.5l0,0.9l-0.8,2.2l-0.6,1.2
			l-0.2,2l0.4,1.2l2.1,4.7l0.9,1.5l0.6,1.7l-0.1,0.3l0.4,1.1l0.6,0.9l1.6,1.8l1.2,1l1.3,1.8l2.2,2.3l3.6,4.4l0.3,0.7l0.8,1l1.3,1.3
			l0.8,2.3l0.1,1.5l0.4,0.7l0,0.9l1.1,1.5l-0.1,1.3l0.4,1.6l0.7,0.7l1.3,0.6l0.1,0.4l0.9,0.6l0.5,0.8l-0.1,1l0.6,0.6l1.6,0.2
			l0.2,1.6l0.3,1.1l1.4,1.3l2.1,0.8l1.3,0.8l1.7,0.4l2.1,0.1l2.7,0l2,0.1l1,1l0.7,0.2l0.5,1l1.1,0.6l3,0.3l0.5,0.6l0.2,1.1l0.7,1.1
			l1.1,0.9l0.8,1l0.3,1.5l0.8,0.7l1.6,0.3l1.9-0.2l3.9-0.9l0,0.7l0.5,0l0,0.8l0.5,1.3l-0.2,1l0.4,0.4l-0.4,0.5l0.1,1.6l0.8,0
			l0.2,0.6l0.8-0.2l0.4,0.6l0.2,0.9l0.5,0.4l0.9,0.1l-0.2,0.3l1.3,0.7l0.6-0.1l0.4,0.4l0.3,0.8l1.4,1.3l0.5,0.2l0,0.9l-0.5,1.3
			l-0.7,0.6l1,0.9l-0.1,0.4l0.6,0.1l-1,0.5l0,0.5l-1.9,0.2l-0.5,0.4l-0.4,1l-0.6,0.2l-0.1,0.5l-18.4-1l0.2-1.4l0.3-0.8l-1.4-0.4
			l-1.8-0.8l-3.1-4.2l-0.4-0.3l0.4-0.5l1.2-0.2l-0.1-0.7l-0.8-0.9l-0.5,0.4l-0.5-0.1l-0.7,0.9l-0.6,0l-0.7,0.5l-0.3-0.1l-0.9,1.1
			l-0.1-0.2l-0.7,0.7l-1.3,0.5l-0.8-0.2l-1,0.5l-0.7-1.2l-1-0.4l0.5,0l-0.2-0.4l-0.8-0.3l-0.6-0.6l-0.1-0.6l-0.5-0.3l0.6-0.7
			l0.3-1.3l0.9-1.9l-0.6-3.3l-1.2-0.1l-0.2-0.3l-0.7,0l-0.4,0.1l-0.6,0.2l-0.1,0l-0.8,0.1l-0.3-0.6l-0.7,0.4l-1,0l-0.1-0.5l-0.5,0.1
			l-1.2-1.8l0.3-0.2l-0.7-1l-0.1-0.7l-0.5-0.6l-1-0.8l-0.3-1.2l-0.6-1.1l-0.9-0.4l-0.9,0l-2.1-1.5l0.1,0.8l-0.5,0.8l0,0.5l-0.5,0.4
			l0.7,0.3l0,0.7l-0.4,1l0.4,0.2v0.7l-0.9,0l0.1-0.4l-0.9-0.6l-0.3-1.5l-0.5,0.2l-0.7-0.3l-0.6-0.6l-0.5,0.2l-0.5-0.3l-1.6,1
			l-0.5,0.6l-1.2-1.9l0.1-0.5l-1.7-0.9l-0.6,0.3l-0.5-0.8l-0.4,0.2l-0.5-1l0.3-0.8l-0.4-0.5l0.6-0.5l0.4-0.9l0.9-0.5l-0.3-1.6
			l-0.4-0.3l0.3-0.6l0.1-1.3l1-0.8l-0.1-0.3l2.3,0l0.6,0.5l0.2-0.3l-0.4-1l1-0.7l0.3-0.8l-0.5-0.2l-0.5-0.5l-0.9,0.3l-1.2-0.5
			l-0.6,0.4l-0.2-0.9l-0.8-0.4l-1.4-0.2l-0.4,0.3l-0.5-1l0.6-0.1l0.2-1l-1-0.2l-0.4-0.8l-0.1-0.9l0.3-0.7l0.2,0.2l1.3-1.2l0.4,0.1
			l-0.5-0.8l0.2-0.4l0.1-1.5l0.4-1.4l0.7-0.7l-0.1-0.8l0.9-0.7l-0.1-0.5l0.9-1.2l0.6-0.5l-0.5-0.4l-0.2,0.2l-1.4-0.6l-2.2-0.7
			l-0.2-0.6l-0.4,0.3l-0.7-0.3L456,445l0,0.8l-0.7,0.5l0.1,0.4l-1.1,0.9l-0.7-0.6l0-0.9l-0.5-0.3l-0.9,0.3l-1.1-0.5l0.1-0.9
			l-0.4-0.7l1.3-0.4l0-0.9l-0.3,0.6l-0.8-0.6l-0.4-0.6l0.6-1.4l0.3,0l0.6,0.8l0.5,0.1l0.2-0.8l0.6-0.2l0.4-0.6l0.6,0l-0.9-1.2
			l-1.1-0.2l-0.1,0.4l-0.5-0.5l-0.5-0.7l0-0.5l-0.6-0.1l0-1.1l0-0.6l0.4-0.2l0.1-0.7v0v0l0.1-0.4l-1-0.5l-0.9,0.3l-0.3-0.5l-0.7,0
			l-0.8,2.2l0.4,0.2l-0.4,0.6l0.4,0.9l-0.2,0.7l-1.3,0.9l-0.1,0.4l-0.4-0.3l-0.5-1.9l-0.5-0.8l-0.2,0.4l-1.7,2.3l-0.7,0l-1.1,0.9
			l-0.7,0.7l-0.1,0.5l-1.1,0.3l-1.3,1.3l-1-0.2l-0.5-0.5l0-1.3l-0.8-1.1l0.7-0.3l0.6-0.7l0.1-0.7l0.7-0.1l-0.2-1l0.5-0.4l0.2-0.6
			l0.5-0.8l-1.8,1.2l-0.4-0.1l0.6-0.8l1.1-0.3l-0.2-0.5l0.6-1.4l1.5-0.2l-0.2,0.5l0.9,0.7l-0.1,0.3l1.2-0.3L442,433l0.6-0.6
			l-0.1-0.6l0.4-0.4l0.3-1.2l0.6,0l0.2-1.2l-1-0.8l-0.2-0.5l-0.6,0.4l-0.8-0.5l-0.1-0.5l-0.7,0.3l-1.4,0l-0.1-0.1l-0.3-0.2l-0.2-0.5
			l-0.5-0.5l0.2-0.4l-0.8,0.1l-0.5-0.4l1.3-1.8l0-0.1l-0.2-0.6l-0.4,0.1l-0.1-0.2l-0.2-0.5l0.1-0.6l-0.3-0.8l-1.2-0.7l-0.4-1
			l-0.1-1.2l1.3-0.6l-0.1-0.6l0.6,0.4l0.3-0.5l1-0.7l-0.7-1.4l-0.4,0.2l-0.5-0.6l0.1-1.4l0.8,0.1l-0.2-0.4L437,413l-0.4-0.7l0.9-0.2
			l0.5,0.3l1.1-1.8l0-1.4l1.7-1.1l-0.1-0.7l0.3-0.4l-0.8,0.1l0.1-0.4l-0.6,0l-0.7-0.9l-0.5,0.2l-1-0.8l-0.8-0.2l-0.1-0.5l-1.7,0
			l0.2-0.6l1-0.1l0.4,0.3l0.8-0.1l1.8-0.6l0.6,0.6l1,0.2l0.7-0.5l-0.1-1l0.7,0.3l0.5-0.3l1,0.1l0.1,0.8l1.2,0.5l0.2,0.6l0.8,0.4
			l1.2-0.1l0.3,0.4l-0.5,0.6l0.8,0.1l0.4,0.7l0.7,0.6l0.8,0.3l0.3-0.6L450.4,406.8z"/>
		<path class="st0" d="M414.5,300.7l0.5-0.1l0.3,0.8l0.4,0l0.8,1.1L413,305l0.1,1.1l2.8,1.1l0.2,3.1l1.2,3.4l0.5,0.7l-1.5,2.8
			l-0.6-0.2l0.1,0.8l0.3-0.4l2.1,0.5l0,0.3l0.7,0.2l0.2,0.6l-0.7,1.1l0.1,0.8l-0.7,0.6l0,0.5l2.1,0.1l2.5,1.3l-0.2,3l-0.4,1.8
			l0.5,0.9l0.7-0.5l1.8,1.5l1.1-0.1l0.5,3.2l0.2,0.6l1.7-0.4l0.7-0.5l2.1,2.6l1.3-1.5l4.2,0.6l0.1,7.8l0,2.5h2.8l0,0.8l-8.2,6.6
			l-1,0.6l-1.3,0l0.1-0.3l-0.6-0.8l-0.5,1l-0.5,0.3l-0.8,0l-0.3,1l0.4,1.7l-0.9,1.1l0.4,1.6l-0.5,0.1l-1.4-0.6l-1.2,0.6l-0.4,0.6
			l-1.1,0.2l-0.9,1l0,0.7l-1.3,0.4l-0.6,0l-1.7,0.9l-0.5,0.4l0.2,1.4l1.5-0.4l0.8,2.1l-0.1,1.3l-1,2.4l-0.1,1.7l1.5,1.5l0.5,0.1
			l0,0.7l0.9,0.7l0.5,1.8l-0.6-0.2l-1.4,2l-0.7,0.3l-1.1-0.3l-2.1-0.1l-1,0.2l-1,2.1l-0.8,2.1l0.7,3.4l-1.1-0.3l-1.7-0.1l-1.1,1.1
			l1.2,0.6l-0.5,1.4l-2.2-0.4l0.1-0.9l-1-0.2l-0.5,0.9l-1.2-0.1l0.2,1.5l0.7-0.1l-0.1,0.6l-2.6-0.6l-0.1-0.4l0.5-2.9l-1.1-1l0.4-2
			l0.6,0.3l-0.2-1l-0.4,0l0.3-1.2l0.6-0.8l-0.8-1.2l-0.1-1.1l-0.9-0.8l0.2-0.9l-0.4-0.6l0.4-2l0.3-0.9l-0.3-0.9l0.4-0.4l-1.7-0.7
			l0.3-0.1l0.1-0.9l-0.8,0l0.6-2.4l-0.1-1l-1.9-1.7l-0.5,0.6l-1-1.8l-0.1-0.8l0.1-3l-0.5-1.6l1.7-1.6l-1.6-1.5l0.3-3.2l1.6-1.4
			l2-0.4l2.6,0.6l2,0.7l0.1-0.7l1.1,0.3l0.6-0.2l-0.6-0.7l0.3-0.3l-0.2-0.8l-1.2-0.6l-1.6,0.3l-1-0.2l0.3-1.4l-1.2-0.5l-0.1-0.6
			l-0.9-0.1l0.1-0.5l-0.7-0.2l0.3-0.3l1.2,0.1l-0.2-0.3l-1-0.2l-0.6-0.5l-1,0.1l-0.7-1.3l-0.9-0.1l-0.4-1.7l-1-1.8l0.7-1.9l-0.2-0.5
			l-1.2-0.2l-0.2-2.3l-0.5-0.2l-0.6-0.9l-1.2-0.7l-0.5-0.6l-0.5-1.2l-1.8-2.1l5-4.5l2.9-2.7l1.1,2.4l1.3-1.4l0.4-1.4l0.9-1l-0.2-1
			l0.2-0.4l-0.1-1.9l0.1-1.3l-2-0.6l-0.8-0.6l-0.5,0.6l-0.4-0.1l-0.9,0.7l-0.5-0.6l-0.1-2.4l2.7-2.7l4.5-1.2l1.2-5.7l2.8-2.3
			l3.3,3.6l1.2-1.2L414.5,300.7z"/>
		<path class="st0" d="M414.5,300.7l-1.6,1.9l-1.2,1.2l-3.3-3.6l-2.8,2.3l-1.2,5.7l-4.5,1.2l-2.7,2.7l0.1,2.4l0.5,0.6l0.9-0.7
			l0.4,0.1l0.5-0.6l0.8,0.6l2,0.6l-0.1,1.3l0.1,1.9l-0.2,0.4l0.2,1l-0.9,1L401,322l-1.3,1.4l-1.1-2.4l-2.9,2.7l-5,4.5l1.8,2.1
			l0.5,1.2l0.5,0.6l1.2,0.7l0.6,0.9l0.5,0.2l0.2,2.3l1.2,0.2l0.2,0.5l-0.7,1.9l1,1.8l0.4,1.7l0.9,0.1l0.7,1.3l1-0.1l0.6,0.5l1,0.2
			l0.2,0.3l-1.2-0.1l-0.3,0.3l0.7,0.2l-0.1,0.5l0.9,0.1l0.1,0.6l1.2,0.5l-0.3,1.4l1,0.2l1.6-0.3l1.2,0.6l0.2,0.8l-0.3,0.3l0.6,0.7
			l-0.6,0.2l-1.1-0.3l-0.1,0.7l-2-0.7l-2.6-0.6l-2,0.4l-1.6,1.4l-0.3,3.2l1.6,1.5l-1.7,1.6l0.5,1.6l-0.1,3l0.1,0.8l-0.8,0l-1-0.5
			l-1,0.8l-2.1-0.9l-0.8-0.6l-0.6-1.1l-0.6-1.6l-2.5-0.9l-1,0.5l-1,1l-2.8-0.4l-0.3-0.8l0.6,0.2l0.1-0.9l-1-0.5l-0.5,0.4l-1.5-0.7
			l-1-1.9l-0.3-0.9l-4.1-1l-2.7-0.9l-1-0.1l-2.9,0.2l0.3,2.2l-3.9-1.3l-3.2,5.7l-0.1,0.6l-1.2-0.8l-0.9-0.4l-0.6,0.1l-1.6-0.6
			l-2.8-2.7l0.2-0.6l-0.5-0.5l0.2-0.7l-1.7-1l-0.7-1.3l-0.6-0.5l-0.7-1l-0.4-0.1l-0.2-0.7l0.5-0.7l0.3-1l1-0.5l1.2,0.5l-0.1-0.8
			l-0.5-0.1l-1.9-2l-0.3-0.4l0.7-0.4l0.8-1.6l0.5,0l0.5-1.5l0.5-0.8l0.1-1.3l-0.4-0.7l-0.1-5.5l1.6-2.8l-1-1.5l-1-4.7l-4.6-1.8
			l-0.4-0.5l-0.7-0.1l-1-2l-0.4-0.1l-1.3-1.2l0-0.8l1.2-0.9l0.1-0.5l0.6-0.3l-0.2-1.2l-0.5-0.2l-0.3-0.7l0-1.7l-0.4-0.6l-0.2-1.1
			l-0.8-0.3l0.4-4.7l-0.3-1.1L344,304l-0.2-1.1l0.3-1.6l-0.9-1.2l0.6-0.6l-1-0.2l0.3-1.8l0.9,0.3l0.3-0.9l-0.9-0.3l1-2.8l1.7-3.7
			l0.7-1.1l1.5-3.1l-0.1-0.4l0.9-2.1l0.7,0.6l0.7-1.1l1.8-3.5l0.1-0.6l0.8-1l0.9-1.7l0.5,0.6l0.9-0.3l1.3,0.4l0.6-0.2l0.3-1.5
			l0.4-0.6l0.7-0.2l0.7-1.6l1.4-0.3l0.9-0.7l-0.6-0.6l0.4-2l0.7-0.1l0.2-0.9l-0.1-0.8l0.5-0.8l-0.1-0.7l1.2-1.5l0-0.9l0.8-0.7l0-0.9
			l1.2-0.3l1-0.6l0.3,0.5l0.6-0.8l1.4,0.1l0.8,0.3l-0.1-0.4l0.9-1.7l0.7-0.2l0.7,0.5l1.1,0.4l0.2-0.2l0.8,0.9l1.7,0.4l1.2-0.6
			l0.4,0.4l1.3,0l0.6-0.3l0.7,0.5l0.7-0.1l1.1,0.5l0.8-0.2l1.5,0l0.5-0.9l0.1,1l0.7-0.1l0.7-0.5l0.1,0.7l0.9-0.3l-0.3,0.4l0.7,0.9
			l0.3,1.1l0.9-0.1l-0.2,0.9l0.3,0.8l0.3-0.9l0.5-0.1l0.2,1.2l-0.2,0.9l1.3,0.1l0.5,0.8l1.6,0.3l0.1,0.5l0.9,1.5l0.9,0.3l1.1,0.8
			l0.1,0.5l1.5,0.8l0.5,1.1l-0.2,0.3l1.2,1.1l0.4,0.2l0.3,0.7l0.3,1.8l-0.1,0.8l0.9,0.9l0.5,1.5h0.4l0.3,1.4l0.4,0.3l0.2,1.6
			l0.9,0.3l0,0.6l0.8,0.5l-0.2,0.7l0.4,0.7l0.9,0.3l-0.6,0.4l0.6,1l-0.2,0.6l1.1,1.8l-0.1,0.7l0.6,0.7l0.7,0.2l0.1,0.8l2.1,0.9
			l0.6,1.2l0.7,0.5l0.5,1.4l1,0.2l-0.1,0.6l0.8,1l-0.1,0.7l0.3,0.3l0.1,1L414.5,300.7z"/>
		<path class="st0" d="M450.4,406.8l-0.8,0.5l-0.3,0.6l-0.8-0.3l-0.7-0.6l-0.4-0.7l-0.8-0.1l0.5-0.6l-0.3-0.4l-1.2,0.1l-0.8-0.4
			l-0.2-0.6l-1.2-0.5l-0.1-0.8l-1-0.1l-0.5,0.3l-0.7-0.3l0.1,1l-0.7,0.5l-1-0.2l-0.6-0.6l-1.8,0.6l-0.8,0.1l-0.4-0.3l-1,0.1
			l-1.3,0.5l-0.1,0.2l-1.2,0.2l-0.9-0.2l-0.3,0.2l-0.7-0.7l-2.2-0.4l-1,0.2l-2-0.1l-0.6-1.9l-1-2.3l-0.8,0.1l-0.2-0.8l-1,0.1
			l-0.6-1.5l-1.2-0.1l0.9,2.3l-0.7,0.2l-0.4-0.5l-2.1-0.8l-0.7,0.4l-1-0.2l-0.4,0.2l-0.7-0.4l0.1-1l-0.7-0.3l-1.3-0.1l-1.1,0.5
			l-1.4-0.7l1.3-1.2l-0.3-1.8l-1.2,0l0-1.1l0.4,0.1l-0.2-0.7l0.4,0.2l0.1-0.7l0.8-0.5l-0.8-0.7l0-0.5l-0.8-0.1l0-1.4l0.2-0.6
			l0.5-1.4l-1.2-0.6l1.1-1.1l1.7,0.1l1.1,0.3l-0.7-3.4l0.8-2.1l1-2.1l1-0.2l2.1,0.1l1.1,0.3l0.7-0.3l1.4-2l0.6,0.2l-0.5-1.8
			l-0.9-0.7l0-0.7l-0.5-0.1l-1.5-1.5l0.1-1.7l1-2.4l0.1-1.3l-0.8-2.1l-1.5,0.4l-0.2-1.4l0.5-0.4l1.7-0.9l0.6,0l1.3-0.4l0-0.7l0.9-1
			l1.1-0.2l0.4-0.6l1.2-0.6l1.4,0.6l0.5-0.1l-0.4-1.6l0.9-1.1l-0.4-1.7l0.3-1l0.8,0l0.5-0.3l0.5-1l0.6,0.8l-0.1,0.3l1.3,0l1-0.6
			l8.2-6.6l0-0.8h-2.8l0-2.5l-0.1-7.8l-4.2-0.6l-1.3,1.5l-2.1-2.6l-0.7,0.5l-1.7,0.4l-0.2-0.6l-0.5-3.2l-1.1,0.1l-1.8-1.5l-0.7,0.5
			l-0.5-0.9l0.4-1.8l0.2-3l-2.5-1.3l-2.1-0.1l0-0.5l0.7-0.6l-0.1-0.8l0.7-1.1l-0.2-0.6l-0.7-0.2l0-0.3l-2.1-0.5l-0.3,0.4l-0.1-0.8
			l0.6,0.2l1.5-2.8l-0.5-0.7l-1.2-3.4l-0.2-3.1l-2.8-1.1L413,305l3.5-2.6l0.3,0.4l0.8,0l0.4,0.6l0.7-0.3l0.8,0.5l0.8,1L420,306
			l0.9,0.4l-0.3,0.8l0.1,0.5l-0.3,1.5l-0.6,0.5l0.8,0.2l0,0.6l1,0.4l0.3,1.4l-0.2,0.5l0.2,1.2l-0.4,0.6l0.1,0.8l0.5,0l0.7,0.8l0,0.8
			l1,0.5l-0.1,0.5l1.1,0.7l0.4,1.1l0,0.8l0.5,0.4l0.2,1.3l0.4,0.7l0.2,1.6l0.7,0.2l0.6,1l-0.3,1l0.5,0.6l0.7-0.3l0.5,0.4l0.6-0.1
			l0.8,0.5l0.1-0.4l0.5,0.8l1.6-0.3l0.5,0.8l1.7,1.3l0.2,0.5l1.4-0.4l0.4,0.6l1.8,0l1.4,1.3l0.9-0.2l0,0.5l1.5,1.3l1,0.4l0.2-0.4
			l0.6,0.5l1.2-0.3l0.1,0.6l0.7-0.5l0.9-0.1l0.2,0.3l1.6-0.3l0.3,0.2l1-0.1l0.4,0.6l1.2-0.2l1.2,0.3l0.1,0.6l0.9,1l0.6,0.1l0.4,0.9
			l1.1,0l0.1,0.6l1.4,0.3l0.3-1l-0.3-0.3l0.5-0.5l1.2-0.1l-0.2-0.4l0.8,0.1l0.6-0.3l1.1,0.2l-0.1,2.5l-0.4,2.3l-0.5,1.4l-2.2,4.1
			l-2,4.1l-1.6,4l-0.8,2.5l-1.3,5.1l-0.6,2.7l-0.3,2.2l-0.4,4.1l-0.2,3.3l0,3l-0.1,2.4l-0.4,4.4l-0.1,2l0.2,6.3l-0.1,2l-0.4,1.9
			l-0.9,2.3l-0.3,1.9l0,1.8l0.4,2l0.4,1.2L450.4,406.8z"/>
		<path class="st0" d="M629.3,421.3l0,9.2l-3.7,6.5l-3.8,3.9l-0.6,0l0,0.5l-2.5,2.5l-2.2-0.2l-0.8,0.7l-1.8,0l-1.9,1.1l0.3,0
			l-0.1,0.9l-1.2-0.1l-0.8,0.3l-1.2,0.8L609,449l-1.4,0l-0.9,2.4h-0.8l-0.3,0.3l-0.2,1.1l-0.6,0.2l-0.5-0.5l-0.5,0.9l-0.4-0.1
			l-0.4,1l0.9-0.1l0,0.4l-0.6-0.1l-0.1,0.6l-1.5-0.5l-0.2,1.6l0.4,0l0,0.6l-0.7,0l0.1-1l-1.4,0l0.1,0.5l-1.3,1.1l-2-1.8l-0.6-0.9
			l-0.4,0l-0.4-0.8l0.3-0.5l-0.9-0.1l-1.1-1.8l0-0.9l-0.3-0.3l0.1-1.1l-2.6-3.4l-0.8,0.8l-0.1-1.2l-0.8-0.1l0.1-0.8l-0.6,0l0.1-0.6
			l0.6,0l-2.9-3.7l-0.8,0.5l-0.3,0.6L584,441l-1,0.1l0-0.5l-0.9-0.2l0.2-0.9l-0.2-0.5l-1.8,0.1l-0.9-0.3l0.1-5.5l-0.4,0l0.7-2.3
			l0.7-1l4-2.5l1.9-0.5l1-0.7l1.5-0.6l5-1.1l2.7-0.4l5.1-0.5l3.9-0.7l2.6-0.7l0.7-0.4l1.6-1.4l1.3-0.1l2.7-0.6l1,0.3l1.3-0.2
			l0.1-0.3l1.1-0.7l0.8-0.2l1,0.2l1.9,0.1l2.5,1l1.4,0.5L629.3,421.3z M591,400.3l1,0.3l1.5,1.7l-0.1,1.6l-0.8,0.9l-1.8-1.3l0.5,0.1
			l-0.9-0.8l-0.1-0.6l0.6,0.1l0.4-0.6l-0.7-1.2L591,400.3z"/>
		<path class="st0" d="M598.6,457.5l2.6,2.4l0,5.4l0.2,0l-0.2,2.5l0,4.4l-0.1,0.4l0,5.2l0.4,0l0.1,1.2l-0.3,0l0.1,1.7h-0.3L601,482
			l0.3-0.1l0,1.4l-1,0l0,1.1l1,0l-0.3,0.4l0,0.7l-0.8,0l0,1.2l0.9,0v0.2l0,2.3l-5.9,0l-7.6,0l-3.4,0l-4.1,0.1l-3.9-0.1l-7,0l0-2.7
			l-2.3,0l-0.4-0.2l-1.3,0l-1.9-1.6l-1,0l-0.9-0.4l-1.4-0.9l0-0.7l-0.3,0.4l-0.7,0.1l-0.7,0.9l-0.2,2.8l0.2,0.6l-0.5,0.7l-2.9-1.8
			l-1.1-0.2l-0.7-0.6l-1,0l-0.2-0.5l-0.6-0.2l-0.5-0.9l-1.2,0.1l-0.9-1.1l0.2-1l-0.5-1.1l0.1-1.3l-0.1-2.2l-2.3,0l-0.2-0.3l-0.5,0.6
			l-1.1-0.8l-0.2-1.3l-0.7-1.1l-0.1-0.6l1.5-0.3l3.2-0.2l3.4-0.4l0.9,0l0.8,1.1l0.9,0.5l0.2-0.9l1.8-0.3l1.8-1l2.4-1.1l1.6-1.7
			l1.9-1.2l1.1-0.4l2.1-1.2l0.6-0.6l1.5-1l1.6-1.2l2.4-2.2l0.7-1l0-0.8l0.4-1.5l-0.2-1.4l0.5-1.3l-0.4-0.8l0.7-1l0.1-0.6l0.7-0.7
			l2-1.3l1-1.5l-0.3-0.8l0.2-0.4l-0.5-0.9l0.2-0.7l-0.3-1.2l0.3-0.3l-0.2-0.8l0-2.2l0.1-0.7l-0.3-2.4l0.9-2.5l-0.1-1.2l0.8-1.1
			l-0.1-1l0.2-0.6l0.4,0l-0.1,5.5l0.9,0.3l1.8-0.1l0.2,0.5l-0.2,0.9l0.9,0.2l0,0.5l1-0.1l1.1,0.3l0.3-0.6l0.8-0.5l2.9,3.7l-0.6,0
			l-0.1,0.6l0.6,0l-0.1,0.8l0.8,0.1l0.1,1.2l0.8-0.8l2.6,3.4l-0.1,1.1l0.3,0.3l0,0.9l1.1,1.8l0.9,0.1l-0.3,0.5l0.4,0.8l0.4,0
			l0.6,0.9L598.6,457.5z"/>
		<path class="st0" d="M632.3,479l-0.4,0.2l1-1.5L632.3,479z M633.9,472.5l0.5,1l0,0.7L633.9,472.5z M643.3,438.6l-0.5,1.1l-1,1.3
			l-0.2,0l-1.2,1.7l-1.5,1.3l-0.6-1.3l0.1-1.4l1.6-2.6l0.5-0.3l0.5,0.5l0.9-0.1l1.6-0.9L643.3,438.6z M601.1,487.2v-0.2l-0.9,0
			l0-1.2l0.8,0l0-0.7l0.3-0.4l-1,0l0-1.1l1,0l0-1.4L601,482l0.1-1.3h0.3l-0.1-1.7l0.3,0l-0.1-1.2l-0.4,0l0-5.2l0.1-0.4l0-4.4
			l0.2-2.5l-0.2,0l0-5.4l-2.6-2.4l1.3-1.1l-0.1-0.5l1.4,0l-0.1,1l0.7,0l0-0.6l-0.4,0l0.2-1.6l1.5,0.5l0.1-0.6l0.6,0.1l0-0.4
			l-0.9,0.1l0.4-1l0.4,0.1l0.5-0.9l0.5,0.5l0.6-0.2l0.2-1.1l0.3-0.3h0.8l0.9-2.4l1.4,0l0.2-1.5l1.2-0.8l0.8-0.3l1.2,0.1l0.1-0.9
			l-0.3,0l1.9-1.1l1.8,0l0.8-0.7l2.2,0.2l2.5-2.5l0-0.5l0.6,0l3.8-3.9l3.7-6.5l0-9.2l0.9,0.1l0.4,0.5l0.5-0.2l1.4,0.4l1.7,0.2
			l0.5,0.4l0.5-0.5l1.6-0.5l0.1-1.4l-0.4-0.2l0.8-0.7l0.3,0.4l1.6,0.4l0.4,1.1l1.2,1.6l0.7,2.8l0.3,0l0.2-1.1l0.4-0.3l0-0.7l-0.5-1
			l0.4,0.2l0.1,1.2l-0.4,0.9l0.2,1.1l0,1.5l1.1,0.4l-0.3,0.4l-0.5,1.7l-0.4,0l-0.6,2.3l-0.5,1l-0.8,0.8l-0.8,1.1l0,0.3l-0.8,0.5
			l-0.2,0.6l-1.3,1.5l-1.3,1.1l-1.3,0.9L633,442l-0.7,1.7l-1,1.3l-0.9,2.3l-0.1,1.1l0.2,1.5l0.6,0.9l-0.7-0.5l0.3,1.2l-0.7,1.2
			l-1.5,0.4l-1.1,1.8l-1.8,0.5l0.1,1.5l0.6,0.7l0.4-0.2l0.4,1.1l0.6-0.9l1.1-0.2l0.4,0.5l0.6-0.6l-0.3-0.3l1-0.2l0.1-0.7l0.7,0.6
			L631,459l-1,0.7l-0.5,0.7l-0.5-0.6l-1.4,1l-0.3,0.6l-0.2,1.5l-0.4,0.5l0.1,0.6l0.9,0.4l0.4-0.9l1.1-1.3l0.7-0.4l1,0.2l-1.6,2.1
			l-0.2,2l-1,1.9l-0.5,1.2l-0.2,1.2l-0.3,0.5l-0.2,1.4l-0.7,0.8l-0.2,0.7l-0.3,2.3l-0.4,0.9l0,1.4l-1,1.6l-0.2,0.7l-0.2,1.9l-0.4,0
			l-0.6,0.8l-0.4-0.3h-1.8v-4.7l-3.8,0l0-1.1l-1.3-0.3l-1.1,0.2l-0.2-0.3l-0.7,0.3l-0.6-0.2l-0.7,0.6l-0.5,1.9l-1.1,1.3l0,0.9
			l-1.6,1.1l0.1,0.5l-0.5,0.8l0,0.9l-0.9,0.6l-0.2,0.9l-1.7,1.5l-0.9-0.6l-0.2-0.5l-0.7,0.1l-0.8-0.8l-0.8,0.1l-1,0.4L601.1,487.2z
			 M636.9,419.2l-0.4,0.6l-1.2,0.7l-0.9,0.2l-1.2,0l-0.1-0.4l-1.2,0.6l1.1-1l1.1,0.5l1.1-0.1l1.1-0.5L636.9,419.2z"/>
	</g>
	<path id="state-borders" class="st0" d="M401.1,469.8l1.2-0.9l0.2-1.3l1.3-0.5l0.8-0.6l0.4-1.5l0.5-0.2l-0.2-0.7l0.9-1.3l0.1-1.9
		l0.3-0.6l1.4-0.3l0.4-0.6l-0.2-0.1l0.2-1.4l-0.7-0.5l-0.2-1.4l-0.5-0.7l0.7-0.9l0.8,0.4l0.7-0.5l0.1-1.8l0.2-0.5l1.2,0l-0.7-0.5
		l-0.5-0.7l0-1.2l0.3-0.4l-0.7,0l0-0.9l0.3,0.2l0.8,0.4l2-0.9l0,0.3l0.9-0.1l-0.3-1l0.2-1l-0.6-0.5l-0.4-1l0.5,0.1l0.1,0.7l0.6,0
		l-0.3-0.6l0.4-0.7l0.9,0.3l0,0.1l0.3-0.3l0.9,1.1l1.2,1l1.1-0.2l0.5,0.7l2-0.5l-0.1,0.5l1,1.5l0.4,1.3l-0.6,0.8l-0.2,0.9l1.2,1
		l0.7,0l-0.3,1.2l0.7,0.2l1.4-1.5l0.9-0.6l0.2-0.7l-0.4-0.4l1.2-1.4l1.2-0.1l0.4,0.5l-0.1,0.4l0.6-0.6l0,0.8l0.4-0.2v0l0.1-1.3
		l0.2-0.3l0.8,0.7l0,1l-0.9,0.3l0.6,0.6l0.1,0.5l-1.1,0.5l0.2,0.7l1,0.5l0.6-1.3l0.6-0.6l1.5,0.8l0.3-0.5l1.6,0.6l0.2,0.7l0.3-0.4
		l1.1,1.3l-0.2,0.8l-0.4,0.1l0.2,1.1l-0.9,0l0.1,1l-0.1,0.1l-0.7,0.8l1,1.6l0.3,0.6l-0.4,0l0.3,1.5l-0.3,0.5l0.6,1.2l-0.3,0.4
		l-0.1,1l0.4,1.1l-0.2,0.9l0.3,0.8l-0.2,0.4l-0.6,0.2l-0.9,1.1l-1.3,0.1l-1.2-0.6l-0.2-1.1l-0.8-0.7l-1.1-0.2l-0.9-0.2l-0.5,0.7
		l-1.1-0.3l-0.2-0.5l-1.6-0.1l-0.9-0.7l-0.6-1.8l-0.5-0.2l0.1-0.5l-0.5-0.2l0.6-1.4l0.6-0.3l1.3-1.1l0.2-0.8l0.1-0.8l0.8,0.2
		l-0.3-0.5l0.7-1l0.4,0.4l-0.4,0.5l0.3,0.5l0.9,0.2l0.3,1l-0.2,0.8l1.2,0.6l0.6,0.8l-0.3,1.3l0.6,0.6l-0.5,0.2l0.3,0.8l-0.1,0.9
		l-0.4,0.9 M374.5,487.2l0-0.5l-0.6-0.4l-0.2-1.3l0.4-1.9l0.3-0.4l1.5-0.2l0.4-0.3l1,0l0.2-0.5l0.7,0l0.6-0.8l0.6-0.2l0-1.3l-0.5-1
		l0.5-0.7l-0.5-0.6l0.1-1.1l0.6-0.7l1.3-0.5l1-0.1l0.2,0.4l1.1-0.3l0.6,0.5l0.3,0.9l1.4,0.7l1.2-0.1l0.5-0.4l0.7,0.2l0.1-0.3
		l1.4-0.5l1.2,0.2l0.4,0.4l1.7,0.2l1.4-0.4l0.1,0.6l0.5,0.2l0.4,0.7l0.6-0.1l0.8-0.8l0.6,0.4l0.8-0.1l0.3,0.7l0.7,0.2l0.3,0.5
		l0.5-0.2l0.2,0.7l0.6,0.2l0.9-0.9l-0.9-0.8l-1.9-1.1l-0.4-0.8l0.2-1.3l-0.2-0.9l-0.4-0.1l0.2-0.8l-0.4-0.3l0.1-1.5l0.3-0.6l0.5-0.2
		l0.8,0.8l0,0.5l1.4-1.3l0.2-0.4l0.5,0.5l1.4,0.5l0.3,0.6l0.9,0.3l-0.3,1.5l-0.5,0.2l-0.2,0.9l1,0.8l-0.3,0.8l0.3,0.8l0.6-0.5
		l0.6,0.8l-0.4,1.3l0.5,0.1l0.9,1l0.7-0.2l0.2-0.9l0.4,0.2l0.6-0.7l1.4-1.1l0.6-0.1l0.5-1.2l0.7-0.4l1.1,1l0.3-0.6l1-0.6l0.5,0.1
		l1.1-0.3l0.4-1l0.6-1l1.1,0.5l-0.6-1l0.2-0.3l0.6,0.3l0.5,0.9l0.1-0.3l0.7,0l0.4,0.7l0.4,0.1l0.7-0.5l0.5,1.4l0.2,0.6l0.6,0.4
		l-0.1,0.5l1.1,1.2l0.1,0.6l0.5-0.4v0.5l2.6,0.2l0.7-0.3l0.2,0.7l1.1,1.1l-0.1,0.6l0.1,0l0.2,0.8l-0.1,0.7l0.4-0.4l0.1,0.4l0.6,0
		l-0.2,1.1l0.8,0l1.3,0.4l0.5,0.9l-0.3,1.1l1-0.1l1.3,0.5l-1.3,0.6l2.2,0.9l0.7,0.5l1.1-0.8l1,0l0.1-0.3l1.6,0.2l0.2,0.8l-0.3,0.3
		l0.3,1v0.5l-1.2,1.2l0.1,1.7l0.3,0l0.2,0.9l0.8,0.5l0.6-0.1l0.8,1.3l0.3,1l-0.4,0.4l0.5,1.1l0.3,1.2l-0.3,0l-0.3,0.9l0.4,0.5
		l1.1-0.1l0.7,0.6l-0.2,0.5l-0.1,1.2l1.2,0.2l1.3,0.8l1.3,0.5l-0.4,0.4l-0.5-0.1l-0.9,1.2l0.7,1.6l-0.6,2l-0.5,0.7l-1.1,0.2
		l-0.6-0.1l0,0.9l0.4,1.5l-0.6,0.4l-0.9,0.2l-0.6-0.3l-0.2,0.3l-1,0.2l0.1,0.9l0.6,0.1l0.1,0.8l-0.9,1.2l-1-0.1l-1.5,0.7l-0.2,0.6
		 M424.3,465.2l-0.6,0.6l0.1,1.1l-0.1,1.7l-0.9,1l-0.7,0l-0.4,0.3l0.1,0.9l-0.7,1.2l-0.5,0.7 M435.6,467.4l-0.3,0.3l-0.5,1.4
		l-0.5,0.4l0.8,0.1l-0.5,0.7l0,0l-0.7,1.1l-0.4,1l0.7,0.1l-0.4,0.7l0.5,1.5l0.1,2.3l0,1l-0.4,0.1l-1.4-1.3l-0.5,0.1l-0.1,0.5
		l-1.1,0.3l-0.1,0.6l-1.2,0.2l-1.4,1.6 M250.2,329.1l1-0.5l0.2,0.2v0v0l0.4,0.5l0.7,0.2h0l0.5-0.3l0.5-0.9l1.1-0.9l1.2,0.2l0.5-0.5
		l0.5,0.2l0.1-0.8l0.7-0.5l-1.3-0.1l0.4-0.2l0.3-1.2l1.7-0.4l0.8-0.4l1,0.1l0-1.1l0.8-0.7l0-0.8l0.5-0.2l0.5-1.3l0.7-0.2l-0.3-0.4
		l0.7-1.1l0.9-1.8l0.7-0.1l-1.4-0.2l0.3-1l1.3,0.5l1-0.2l0.3,0.4l0.5-0.6l0.4,0.5l0.5-0.5l1,0.2l0.2,0.6l-0.9,0.9l0.1,1l0.9,0.5
		l0.6-0.5l0,0.8l0.9-0.1l1.2,1.4l-0.2,0.6l0.6,0.2l-0.2,1.5l-1.2,0.9l0.5,0.2l1.6,2l-0.1,1.1l-0.7,0.6l2.7,4.2l0,0.6l1.1,0.5
		l0.1,0.6l0.5,0l0.3-0.7l3.1,0.2l0.6,1.1l1-0.6l0.8-0.1l1.2,0.6l0.7,0.6l0,0.5l0.5,0.9l-0.3,1.5l0.9,0.6l-0.1,0.3l0.9,0.5l2.4,1.8
		l-0.1,0.7l0.9,0.5l0.3-0.5l0.4,0.3l0,0.6l-0.5,0.1l0.4,0.6l-2.8,1.5l-0.7-0.2l-0.1,0.9l0.5,0.2l-0.1,1.1l-1,0.6l0.7,1.8l-0.6-0.1
		l0.9,1.3l0.7,0.4l-0.5,0.3l0.4,0.7l-0.1,2.6l1.1,0.4l0.9,1.9l1.6,1.3l-0.3,0.2l0.3,0.7l1.1-0.1l2.8,3.1l0.4,1.3l0.9,1.8l1.1,0.6
		l0,0.7l-0.6,0.4l0.3,0.7l1.2,1.8l0.8,0.2l1.9-0.5l0.6-1.1l1-0.3l2,0.7l1.4,1.3l0.1,0.9l0.5,0l0.7,1.4l0.2,0.9L307,373l1.5,0.9
		l0.1,0.3l-0.6,0.7l0.8,0.1l0.7,0.8l-0.2,0.5l-1.5-0.6l-0.1,1.3l1,1.9l-0.4,1.1l0.3,1.8l0.3,0.7l0.1-0.7l1.3-0.4l0.8,1.1l0.1,1
		l0.6,0.5l-0.3,0.6l0.7,0.5l-0.5,0.9l0.3,0.2l0.5,1.5l0.7,0.2l0.2,1.4l-0.3,1.1l0.8,0.6l0.7,0.2l0.9-0.5l1.5,0.2l0.4,0.6l-0.4,0.2
		l0.1,1l-0.4,0l-0.4,0.9l-0.8,0.4l0.5,1.4l-0.5,1.4l-0.4,0.7l0,0.9l0.4,1.4l0.6-0.1l0.4,1.3l0,1.2l-0.4,0.4l-0.6-0.4l-0.5,0.2
		l-0.1-0.4h-1l0-0.4l-1-0.5l-0.7,0.3l0.4,1v0.8l-0.4,0l-1-1.3 M153.2,205.3l-0.7,0.4l-0.6-0.4l-0.9,0.4l0.1,0.7l-0.6,1l0.1,0.8
		l-1.1,1.3l-0.5,0.9l1.3,1.4l-0.2,0.7l0.6,2.2l-0.2,0.9l0,1.6l1,1l1.2,0.2l0.6,0.9 M189,296.1h-11.4h-13.8 M258.9,229.2l-1.1,1.9
		l-1.1,0l-0.4,0.7l0.7-0.3l0.2,0.5l0.8,0l-0.7,1.2l1.3,0.7l0.1,0.6l0.6,0.4l-0.3,0.4l1.2,0l0,0.6l-2.1,0l0,2.1l-2.4-0.1l0.2,0.9
		l-0.1,1.8l-0.2,0.7l0.5-0.1l0.9,1l-0.1,1.3l0.8,0.4l1.8,0.4l0.9,0.5l0.4,1.8l0.9,0l-0.2,0.6l-0.6,0.4l0.5,0.9l0,0.7l0.7,0.1
		l0.7,1.1l-0.1,0.3l-1.2-0.6l0.2,5.4l-0.2,2l0.2,1.7l-0.5,0.3l0.1,0.5l1.5,0.2l0,1.2l-0.9,0.4l-1.2,0l0.7,1.1l-0.6,0.2l0.3,1.8
		l-0.4,0.3l0.3,1.1l-1.3,0.5l0.8,3.2l-0.2,0.8l-0.8,0l-0.3,2.1l0.3-0.2l0.5,0.9l-0.5,0.6l0.6,3.2l-0.1,1l0.3,0.2l0.8,2.2l1,0.5
		l0.1,2.1l0.9,1.5l0.1,1l0.3,0.2L263,287l0.6,1.7l-0.6,0.2l0,0.6l-0.5,0.3l-0.9-0.6l-0.6,0.2l-0.1,0.9l-0.8-0.2l-1.1,0.6l-3.7,0.2
		l-0.4-0.3l-0.2,0.4l-0.4-0.4l-0.9,0.1l0.2,1.5l-0.1,1.4l0.6,2.2l0.7,0.8l1.1,0.8l0.2,1.7l0.8,0.3l-0.9,1.1l0.4,0.8l1.1,0l1.2,0.8
		l0.2,1.4l0.7,1.4l1,0.4l-0.1,1.6l0.5,0.7l0.1,0.9l0.7,1.3l-1.3,1.5l0.4,1.2l0.6,0.5l0.2,1.5l-0.1,0.8l0.7-0.2l-0.2,0.7l1.2,0.5
		 M289.7,341.9l1.7,0.4l0.4,1.4l2.3-0.3l1.3,0.3l0.7-0.4l0.4-0.9l1.2-0.8l1.3-1.3l-1.6,1l-0.1-4.3l0.2-0.8l1.6-0.4l0.2-0.6l-0.5-1.1
		l0.2-1l0.8-0.5l-0.3-1.3l2.1-2.8l0.4,0.3l0.2-0.6l-0.5,0.1l0.1-0.6l0.6-0.2l0.4-1.2l-0.2-0.8l-0.5-0.5l0.7-0.3l0.4-2.2l0.5-0.7
		l1-0.4l-0.8-0.3l0-0.9l0.9-0.1l0.4,0.4l0.9-1.7l1.9,1.6l0.8,0.4l0.5-0.1l1.6,1.7l-0.3-0.7l0.8-0.3l1.2,1.9l1.3,0.1l-0.3-1.3
		l1.2,2.7l0.9,0.1l0,0.3l0.4,0.4l0.3-0.4l0.9,0.2l0.6-0.3l0.4,0.4l-0.2,0.5l0.7,0.5l0.5-0.5l0.4,0.5l2.8-1.2l0.8,2l1-0.7l0.5,0.1
		l1.2-1.2l1.6,0l1.1,0.3l2.2,2.4l0.5-0.2l0.3,0.8l1.3-1.4l0.1-1l1.1-2.7l1.8-1l0.8-1.3l-0.5-0.7l0-0.7l0.7-0.9l0.8,1.3l0.8,0.1
		l2.4,0.6l0.2-0.6l0.7-0.1l0,0.5l2.3,0l2.8,0.6l0.7,0.1l0.4,0.5l4.6,1.8l1,4.7l1,1.5l-1.6,2.8l0.1,5.5l0.4,0.7l-0.1,1.3l-0.5,0.8
		l-0.5,1.5l-0.5,0l-0.8,1.6l-0.7,0.4l0.3,0.4l1.9,2l0.5,0.1l0.1,0.8l-1.2-0.5l-1,0.5l-0.3,1l-0.5,0.7l0.2,0.7l0.4,0.1l0.7,1l0.6,0.5
		l0.7,1.3l1.7,1l-0.2,0.7l0.5,0.5l-0.2,0.6l2.8,2.7l1.6,0.6l0.6-0.1l0.9,0.4l1.2,0.8l0.1-0.6l3.2-5.7 M335.9,404l-0.4-0.2l-2.1,0.9
		l-0.2,0.6l-0.8-0.8l-0.7-0.4l-0.2-0.9l-0.9,0l0-1.5l-0.3-0.5l-0.8,0.2l-0.8-0.3l-0.3-1.4l-1.4-0.1l-0.1,0.8l-1.7,1.9l-0.5,0.1
		l-0.3-1.6l-1.1-1.3l0.3-0.6l2.9-0.9l-0.4-0.2l0.2-1l-0.5-0.5l-0.5,0.3l-0.5-0.6l0-0.9l-0.4-0.6l0.2-0.6l-0.3-0.5l-1.1,0.3l-1.5,0.1
		l-2.3,0l-0.4,0.2l-0.5-1.5l-0.1-1l-0.6-0.2 M354,276.2l-0.9,1.7l-0.8,1l-0.1,0.6l-1.8,3.5l-0.7,1.1l-0.7-0.6l-0.9,2.1l0.1,0.4
		l-1.5,3.1l-0.7,1.1l-1.7,3.7l-1,2.8l0.9,0.3l-0.3,0.9l-0.9-0.3l-0.3,1.8l1,0.2l-0.6,0.6l0.9,1.2l-0.3,1.6l0.2,1.1l0.2-0.1l0.3,1.1
		l-0.4,4.7l0.8,0.3l0.2,1.1l0.4,0.6l0,1.7l0.3,0.7l0.5,0.2l0.2,1.2l-0.6,0.3l-0.1,0.5l-1.2,0.9l0,0.8l1.3,1.2l0.4,0.1l1,2
		 M329.9,464.4l0.3-0.2l1.5,0.7l-0.2-0.5l0.4,0l0.4-1l0.6-0.4l0.6,0.5l0.9-0.8l0.7-0.2l0,0.4l1-0.4l0.5,0.2l1.2-0.6l1,0.2l1.2-0.3
		l-0.2-0.6l0.7-0.7l0.3-0.8l-0.3-0.1l0.3-0.7l0.2-0.3l1.7,0.8l1.1,0.4l0.2-0.5l1.2,1l1.8-0.8l0.4-0.7l1.3-0.4l0,0.7l0.8,1.3l0.5,0.3
		l0.4,0.7l0.5,0.3l-0.4,0.8l-0.1,1.5l0.3,0.6l-0.5,1.2l0,0.9l0.6,0.7v1.2l-1.2,1.1l-0.2,0.6l-0.8-0.4l-0.4,0.5l0.4,0.5l-0.1,0.7
		l-1.4,0.8l-0.7,1.3 M336.8,405.3l-0.1,1.3l-0.6,0.6l-0.6,2.5l0.1,1.1l-0.1,1.5l1.5-0.5l0.6,0.6l0.9-0.3l0.3,0.3l-0.5,1.1l0.1,1.1
		l1.2,1.1l1.4-0.1l1.2,0.4l1,0l-0.1,0.5l0.8,0.9l-0.7,1.1l0.4,0.4l-0.3,0.5l0.6,0.4l0.6,0.3l0.1,0.7l0.9,0.5l0.4-0.2l0.5,0.5
		l0.5,0.9l-0.8,0.3l0.4,0.7l-0.1,0.7l-0.9,0.7l-0.3,1l-0.8,0l-1,0.3l-1-0.4l-0.7,0.5l-0.3,0.6l-0.6,0.2l-0.6-0.3l-1.1,0.3l-0.8-0.1
		l-0.4,0.8l0.3,0.4l-0.3,1.5l-0.2,0.5l0.1,1l0.6,0.2l-0.8,0.7l-0.6,1l-0.7,0.5l-0.7,0l0.2,0.5l-0.4,0.5l0.8-0.3l0.5,0.5l0.3-0.2
		l0.7,1.7l-0.2,1.7l-0.4-0.3l-0.2-1.3l-1.1-0.7l-0.8-1l-0.9-0.4l-0.9-0.7l-0.7-1.3l-0.8-0.4l-0.4,0.2l-1.2-0.4l0-0.3l-0.9-0.5
		l0.1-0.4l-1-0.3l-0.9,0.1l-2.3,2.1l-0.7-0.2l-0.6,0.2l-0.1-0.4l-0.7,0.2l-0.9,0.8l-0.6,1.1l0,1l-0.4-0.2l-0.7,0.6l-0.2,0.8
		l-0.6,0.6 M350.9,468.3l0.1-0.3l1.9,0l0.8,0.1l1.9-0.9l0.3,1l0.5,0.6l0.9,0.1l1-1.7l0.6-0.1l0.1-0.4h0.6l-0.4-0.5l-0.1-1l0.7,0.2
		l0.3-1l0.8-0.1l0.5-0.5l0.7,0.1l1.6-1l1.4,0.8l0.6-0.9v-0.6l0.5-0.5l0.2-0.8l0.6-0.9l0.1-1l0.4-0.2l-0.6-0.4l-0.1-0.5l-1.4,0.7
		l-0.6-0.5l-0.5,0.3l-0.4,0l0.5-0.8l-0.2-1.3l-0.9-0.3L363,455l0.3-0.3l-0.5-0.7l-0.2-0.7l0.4-0.6l0.9,0l0.2-1.6l-0.9-1l-1.7-0.5
		l-0.4,0.2l-0.8-0.6l-0.7,0.2l-0.4,0.4l-0.6-0.7l0.5-0.9l-0.4-0.8l0.2-0.9l0.6,0.2l1.3-0.2l-0.5-0.6l1.4,0.2l1,1l-0.1-0.6l0.6,0
		l0.9-0.5l0.9-0.1l-0.1-0.9l1-0.2l0.3-0.7l1,0.1l0.6-0.3l-0.2-0.3l1.7-0.9l1.2,0.2l1-0.6l1,0.4l0.8-0.4l0.6,0l0.1-0.4l1.3-0.1
		l1.5,0.1l-0.3,0.6l0.6-0.3l0.8,0.3l-0.3,0.7l0.4,0.2l-0.3,0.5l1.1,1.5l0.9-0.7l0.5,0.4l0.4-0.3l0.5,0.3l0.6-0.2l0.6,0.4l0.1-0.5
		l0.7-0.4l0.3-1.4l0.7,0l0.6-0.4l0.9,0.4l0.6-0.3l0.3,0.7l-0.2,0.4l0.7-0.1l0.4,0.5l0.7,0.2l-0.2,0.8l-1-0.1l0,0.7l0.6,0.6l-0.3,0.1
		l0.2,0.9l-0.1,0.7l1.9-0.1l1.6,0.2l0.7-0.3l-0.2-1.1l0.7,0.7l1-0.5l1,0l0.4,0.4l-0.4,0.4l0.8,0.6l-0.6,0.8l0.7,0.7l0.3-0.6h0.7
		l1.3,0.5l0.2-0.8l0.6,0.4l0.2,0.7l0.6,0.1l0.5-0.5l1-0.4l0.7,0.1l0.4-0.6h0.7l-0.6,0.5l1.1,0l-0.2,0.8l0.4-0.7l0.9-0.4l1.7-0.2
		l0.1-1.4l-0.6-0.3l0-0.7l0.4-0.3l0.3-1.5l0.6-0.6l-0.5-0.7l0.1-0.2l1.5,0.6l1.4,1.2l-0.2,0.5l-0.8,0.6l0.7,0.2l-0.1,1l1.1,0.6
		 M363.8,417l0.9-0.2l0.1-0.4l1-0.3l0.7,0.4l0.7,0l2,1.3l1.3,0.4l0.8,0.5l0.5-0.6l1.2-0.1l0.2-0.7l0.6,0.1l0.6-0.3l0.8-1.4l0.7-0.7
		l0.2-0.7l2.8-1.1l0.7,0.1l0-0.6l-0.9,0.2l-0.1-0.8l0.5-0.3l0-0.7 M385.4,415.5l-0.5,0.4l-0.8,0l0.1,0.8l0.4,0l-0.6,1.9l0.1,0.5
		l-1,1.5l0.9,1.2l0.3,0.9l-0.4,0l-1.4,0.5l0.6,0.7l0,1l-0.8,0.1l-1.4,0.7l-0.3,1.9l-0.8,0.4l0.3,0.6l-0.9,0.2l-0.6,1.2l0,0.6
		l-0.5,0.8l-1.4,1.4l-0.5,0.7l-0.5,0.1l-0.4,1.1l0.4,0.1l0.2,0.7l0.5-0.1l0.4,0.5l-0.1,0.8l0.9,0.2l0.3,1.1l-0.6,1.3l-0.3-0.2
		l-1,1.9l0,0.1l-0.6,1.1 M516.5,522.5l-0.6-0.3l-1.2-2.2l-0.1-0.7l1.1-0.7l0.3-1.1l-0.3-1l-1.5-2.4l4.7-12.3l0.1-0.5l0.6-0.2l0.4-1
		l0.5-0.4l1.9-0.2l0-0.5l1-0.5l1.7-2.4l0.5-1.9l0.5,0.1l0.1-0.7l0.5-0.1l0.6-1l0.5-0.1l0.1-0.9l-0.7-1.4l0.7,0.2l0.3-1.5l-0.2-0.7
		l0.2-0.9l0.7-0.1l0.5-0.8l0.5,0.6l0.6-0.2l1.1,0.5l0.9,0.8l-0.7,0.6l0.3,0.5l0.4-0.4l1,0l0.5,0.8l-0.5,0.6l-0.3,0.9l0.4,0.3
		l-0.1,1.5l0.7,0.7l0.2,0.9l0.8,0.9l0.1-0.4l0.9-0.1l1,0.5l0.2,0.9l-0.6,0.2l1.2,0.1l0.3,1l0.7,0.2l0.9-0.6l0.3-1.2l1.1-0.9
		l-0.1-0.5l0.4-0.5l0.7,0l0.2-0.4l1.5,0l1.5-0.9l0-1.6l0.4-0.2l0.9,0.4l0.8-1l1-0.8l0.7,0.4l0.7-1.7l0.6,0.2l-0.2-0.5l1-0.4l0.5-0.5
		l0.8,0.4l-0.1,0.7l0.5-0.7l1.1,0.3l0.6-0.3l0.6,0.9l-0.2,0.6l0.2,0.7l-0.3,0.6l-0.6,0.1l1.6,0.6l1.1,0.6l0.6,1l-0.3,0.1l0.4,0.6
		l0.1,0.8l-0.6,1.6l2,0.8l0-0.4l0.8,0.6l1.6,0.3l0,0.5l0.6,0.7l-0.7,0.1l-0.2,0.9 M523.3,498.6l-0.6-0.1l0.1-0.4l-1-0.9l0.7-0.6
		l0.5-1.3l0-0.9l-0.5-0.2l-1.4-1.3l-0.3-0.8l-0.4-0.4l-0.6,0.1l-1.3-0.7l0.2-0.3l-0.9-0.1l-0.5-0.4l-0.2-0.9l-0.4-0.6L516,489
		l-0.2-0.6l-0.8,0l-0.1-1.6l0.4-0.5L515,486l0.2-1l-0.5-1.3l0-0.8l-0.5,0l0-0.7 M543.2,474.1l0.1,0.6l0.7,1.1l0.2,1.3l1.1,0.8
		l0.5-0.6l0.2,0.3l2.3,0l0.1,2.2l-0.1,1.3l0.5,1.1l-0.2,1l0.9,1.1l1.2-0.1l0.5,0.9l0.6,0.2l0.2,0.5l1,0l0.7,0.6l1.1,0.2l2.9,1.8
		l0.5-0.7l-0.2-0.6l0.2-2.8l0.7-0.9l0.7-0.1l0.3-0.4l0,0.7l1.4,0.9l0.9,0.4l1,0l1.9,1.6l1.3,0l0.4,0.2l2.3,0l0,2.7 M439.3,488.5
		l0.7-0.3l0.8,0l0.6-0.2l0.3-0.8l0.6,1l1.2-0.3l0.3-1.2l0.8-0.4l1.8,0l1.3,0.2l0,0.9l2.1,0l0.1-0.6l0.7-0.4l0.2-0.6l1,0l0-0.4
		l-1.3-0.9l-0.5,0.6l0.1,0.6l-0.6,0.6l-0.3-0.4l0.1-1l0.4-0.3l-0.7-0.3l-0.3-1.1l0.4-0.5l-0.3-0.3l1.1-1.7l1.3,0.1l1.2-0.3l0.2,0.2
		l0.1,1.6l-0.3,0.3l0.8,0.4l0,0.4l0.7,0.5l0.4,1.3l1.3,0.1l1-1.4l0.6,0.1l0.8-0.9l1.9-0.6l0.7,0l0.3-0.5l0.6,0.8l0.5,0.2l1.1-0.2
		l0-0.3l1.1-1.1l0.8,0.2l0.8-0.4l0.7,0l0.5-1l-0.1-0.4l0.7-0.3l0.5-1l0.4,0l-0.1,0.4l0.9,0v-0.7l-0.4-0.2l0.4-1l0-0.7l-0.7-0.3
		l0.5-0.4l0-0.5l0.5-0.8l-0.1-0.8l2.1,1.5l0.9,0l0.9,0.4l0.6,1.1l0.3,1.2l1,0.8l0.5,0.6l0.1,0.7l0.7,1l-0.3,0.2l1.2,1.8l0.5-0.1
		l0.1,0.5l1,0l0.7-0.4l0.3,0.6l0.8-0.1l0.1,0l0.6-0.2l0.4-0.1l0.7,0l0.2,0.3l1.2,0.1l0.6,3.3l-0.9,1.9l-0.3,1.3l-0.6,0.7l0.5,0.3
		l0.1,0.6l0.6,0.6l0.8,0.3l0.2,0.4l-0.5,0l1,0.4l0.7,1.2l1-0.5l0.8,0.2l1.3-0.5l0.7-0.7l0.1,0.2l0.9-1.1l0.3,0.1l0.7-0.5l0.6,0
		l0.7-0.9l0.5,0.1l0.5-0.4l0.8,0.9l0.1,0.7l-1.2,0.2l-0.4,0.5l0.4,0.3l3.1,4.2l1.8,0.8l1.4,0.4l-0.3,0.8l-0.2,1.4l18.4,1
		 M385.6,415.3l0.4-0.3l0.9,0l1-0.3l0.8,0.1l0.5,0.4l0.5-0.2l1.7,1.2l1.8-0.2l1.4,0.2l1.2,0.7l-0.2,0.3l1.5,0.7l-0.4,0.9l2.2,0.8
		l0.2,0.5l0.6,0.1l0.4,0.4l0.4-0.3l0.4,0.7l1.4-0.7l1.2,0l0.1-0.2l-0.5-0.7l0.5-0.6l0.1-0.7l1.8-0.5l1.4,0.1l1.8,1l1.6,1.4l0.2,0.6
		l1.8-0.1l-0.1,0.4l0.4,0.8l0.7,0.2l0.7-0.5l0.9,0.2l0.7-0.6l0,2.3l-0.3,0.3l0.6,1.2l0.4-0.4l1.2,0.2l-0.5,0.6l0.2,0.8l-0.9-0.2
		l-1.6,1.5l-1-0.2l-1.7-0.9l-0.7,2.7l0.3,0.5l-0.3,0.6l-0.7-0.3l-0.3,1.5l0.3,0.3l-0.9,0.3l-0.3-0.3l-1.1,0l-1.1-0.6l0,0.8l-1.2,0.7
		l-1.4,0.1l-0.7-0.2l0-0.4l-0.9,1l0.1,0.3l-1,0.4l-0.1,1l0.3,0.7l-0.8,0.4l0.2,0.8l0.3,0.1l0.2,0.7l0.9,0.3l0.2,1.2l-0.3,0l0,0.7
		l0.3,0.8l0.2,1.6l1.2,0.3l0.3,1.1l0.7,0.5 M415.6,421.3l0.5-0.5l0-1l1.5,0.2l0.6,1.1l1.3,1.1l-0.1,0.3l1.1,0.1l0.3-0.5l0.6,0
		l0.3,0.4l0.8-1.5l-0.1-0.8l1.2,0.3l0.5-0.7l-0.1-0.8l0.9-0.5l0.1-0.6l0.5-0.1l0.3,0.8l0.7,0.6l-0.2,1.2l0.3,1.4l0.5,1l0.1,0.8
		l-0.6,0l-0.1,0.6l0.6,0.5l0.9,0.3l-0.3,0.8l0.4,0.4l0,1l-2.1,0.5l-0.7,0.6l-0.6,0.1l-1.1-0.9l-0.7,0.9l-0.9,0l0.6,1l-0.4,0.6
		l-0.1,1.2l-0.4,0.5l-0.7,1.4l-0.5,0.2l-0.1,0.8l-1,1.1l0.3,0.6l0.5,0.9l-1.2,0.4l-0.9,0.8l-0.2-0.2l-1.1,0.6l-0.5,0l-1.8,0.6
		l-0.5,5.1 M398.8,365l0.5-0.6l1.9,1.7l0.1,1l-0.6,2.4l0.8,0l-0.1,0.9l-0.3,0.1l1.7,0.7l-0.4,0.4l0.3,0.9l-0.3,0.9l-0.4,2l0.4,0.6
		l-0.2,0.9l0.9,0.8l0.1,1.1l0.8,1.2l-0.6,0.8l-0.3,1.2l0.4,0l0.2,1l-0.6-0.3l-0.4,2l1.1,1l-0.5,2.9l0.1,0.4l2.6,0.6l0.1-0.6
		l-0.7,0.1l-0.2-1.5l1.2,0.1l0.5-0.9l1,0.2l-0.1,0.9l2.2,0.4l-0.2,0.6l0,1.4l0.8,0.1l0,0.5l0.8,0.7l-0.8,0.5l-0.1,0.7l-0.4-0.2
		l0.2,0.7l-0.4-0.1l0,1.1l1.2,0l0.3,1.8l-1.3,1.2l1.4,0.7l1.1-0.5l1.3,0.1l0.7,0.3l-0.1,1l0.7,0.4l0.4-0.2l1,0.2l0.7-0.4l2.1,0.8
		l0.4,0.5l0.7-0.2l-0.9-2.3l1.2,0.1l0.6,1.5l1-0.1l0.2,0.8l0.8-0.1l1,2.3l0.6,1.9l2,0.1l1-0.2l2.2,0.4l0.7,0.7l0.3-0.2l0.9,0.2
		l1.2-0.2l0.1-0.2l1.3-0.5l-0.2,0.6l1.7,0l0.1,0.5l0.8,0.2l1,0.8l0.5-0.2l0.7,0.9l0.6,0l-0.1,0.4l0.8-0.1l-0.3,0.4l0.1,0.7l-1.7,1.1
		l0,1.4l-1.1,1.8l-0.5-0.3l-0.9,0.2l0.4,0.7l0.7-0.3l0.2,0.4l-0.8-0.1l-0.1,1.4l0.5,0.6l0.4-0.2l0.7,1.4l-1,0.7l-0.3,0.5l-0.6-0.4
		l0.1,0.6l-1.3,0.6l0.1,1.2l0.4,1l1.2,0.7l0.3,0.8l-0.1,0.6l0.2,0.5l0.1,0.2l-0.2,0.5l-0.4-0.4l-1,0.4l-0.8-0.1l-0.7,0.5l1,0.6
		l0.5,0.4l-0.2,1.7l-0.6,0.4l-0.7-0.3l-0.2,0.7l-0.3-0.4l-0.5-0.1l-1.4,0.5l-0.5-0.3l-0.6-0.3l-0.6-0.6l-0.5-1.6l-1.9,0.5
		 M435.1,456.5l0.9,0.1l0.6-0.7l0.5,0.4l0.3-0.3l0.3,0.6l1.9-0.3l0.5,0.2l1-1.4l-0.1-0.7l1.1,0l0,0.1l0.2,0l0.3,0.8l1.4,0.1l0.8-0.4
		l0.3,0.3l0.7-1.1l0.4,0.8l-0.1,0.8l0.9,0.2l0.1,0l0.4,0.1l0.4,0.7l0.5-0.1l0.8,0.7l-0.4,0.9l0.8,0.7l0.9-0.5l0,0.5l0.7,0.3l0.3,0.5
		l0.1,0l0.5,0.7l0.5,0.2l0.9,0.9l-0.3,0.5l-0.8,0.4l-0.9-0.4l-0.5,0.4l-0.5-0.3l-1.1,0.3l-0.2,0.3l0.3,0.9l-0.7,0.4l-0.6,0.7
		l-1.2-0.6l-0.6-0.6l-0.2,0.4l-1.3,1.4l-0.8,0.6l-0.4-0.6l-1.4-0.4l-1.7-1.2l-0.2-0.7l-0.5-0.5l0-0.4l-0.6-0.2l-0.5-0.7l-0.9-1.9
		l-0.8-0.1l-0.4,0.3l-1.1-0.3 M442.2,454.4l1-0.4l0-0.4l-0.7-0.2l-0.6-1.2l-0.8-0.2l0.8-0.8l0-0.4l0.9-1l0.6,0.2l0.4-0.3l-0.4-1.2
		l0.4-0.9l0.8-0.5l0.2-0.4l-0.7-0.1l0.1-0.7l-0.4-0.7l-0.6-0.7l-1,0.8l-0.5,0l-0.2-0.9l0.5-0.7l1.3,0.1l-0.1-0.8l1,0l0.9-1.2
		l0.1-0.5l1-0.5l0.5-1.2l0.1-0.4l1.3-0.9l0.2-0.7l-0.4-0.9l0.4-0.6l-0.4-0.2l0.8-2.2l0.7,0l0.3,0.5l0.9-0.3l1,0.5l-0.1,0.4v0v0
		l-0.1,0.7l-0.4,0.2l0,0.6l0,1.1l0.6,0.1l0,0.5l0.5,0.7l0.5,0.5l0.1-0.4l1.1,0.2l0.9,1.2l-0.6,0l-0.4,0.6l-0.6,0.2l-0.2,0.8
		l-0.5-0.1l-0.6-0.8l-0.3,0l-0.6,1.4l0.4,0.6l0.8,0.6l0.3-0.6l0,0.9l-1.3,0.4l0.4,0.7l-0.1,0.9l1.1,0.5l0.9-0.3l0.5,0.3l0,0.9
		l0.7,0.6l1.1-0.9l-0.1-0.4l0.7-0.5l0-0.8l0.3-0.4l0.7,0.3l0.4-0.3l0.2,0.6l2.2,0.7l1.4,0.6l0.2-0.2l0.5,0.4l-0.6,0.5l-0.9,1.2
		l0.1,0.5l-0.9,0.7l0.1,0.8l-0.7,0.7l-0.4,1.4l-0.1,1.5l-0.2,0.4l0.5,0.8l-0.4-0.1l-1.3,1.2l-0.2-0.2l-0.3,0.7l0.1,0.9l0.4,0.8
		l1,0.2l-0.2,1l-0.6,0.1l0.5,1l0.4-0.3l1.4,0.2l0.8,0.4l0.2,0.9l0.6-0.4l1.2,0.5l0.9-0.3l0.5,0.5l0.5,0.2l-0.3,0.8l-1,0.7l0.4,1
		l-0.2,0.3l-0.6-0.5l-2.3,0l0.1,0.3l-1,0.8l-0.1,1.3l-0.3,0.6l0.4,0.3l0.3,1.6l-0.9,0.5l-0.4,0.9l-0.6,0.5l0.4,0.5l-0.3,0.8l0.5,1
		l0.4-0.2l0.5,0.8l0.6-0.3l1.7,0.9l-0.1,0.5l1.2,1.9l0.5-0.6l1.6-1l0.5,0.3l0.5-0.2l0.6,0.6l0.7,0.3l0.5-0.2l0.3,1.5l0.9,0.6
		 M437.9,423.2l0.4-0.1l0.2,0.6l0,0.1l-1.3,1.8l0.5,0.4l0.8-0.1l-0.2,0.4l0.5,0.5l0.2,0.5l0.3,0.2l0.1,0.1l1.4,0l0.7-0.3l0.1,0.5
		l0.8,0.5l0.6-0.4l0.2,0.5l1,0.8l-0.2,1.2l-0.6,0l-0.3,1.2l-0.4,0.4l0.1,0.6L442,433l0.5,1.3l-1.2,0.3l0.1-0.3l-0.9-0.7l0.2-0.5
		l-1.5,0.2l-0.6,1.4l0.2,0.5l-1.1,0.3l-0.6,0.8l0.4,0.1l1.8-1.2l-0.5,0.8l-0.2,0.6l-0.5,0.4l0.2,1l-0.7,0.1l-0.1,0.7l-0.6,0.7
		l-0.7,0.3l0.8,1.1l0,1.3l0.5,0.5l1,0.2l1.3-1.3l1.1-0.3l0.1-0.5l0.7-0.7l1.1-0.9l0.7,0l1.7-2.3l0.2-0.4l0.5,0.8l0.5,1.9l0.4,0.3
		 M435,404.1l1-0.1l0.4,0.3l0.8-0.1l1.8-0.6l0.6,0.6l1,0.2l0.7-0.5l-0.1-1l0.7,0.3l0.5-0.3l1,0.1l0.1,0.8l1.2,0.5l0.2,0.6l0.8,0.4
		l1.2-0.1l0.3,0.4l-0.5,0.6l0.8,0.1l0.4,0.7l0.7,0.6l0.8,0.3l0.3-0.6l0.8-0.5 M416.5,302.5L413,305l0.1,1.1l2.8,1.1l0.2,3.1l1.2,3.4
		l0.5,0.7l-1.5,2.8l-0.6-0.2l0.1,0.8l0.3-0.4l2.1,0.5l0,0.3l0.7,0.2l0.2,0.6l-0.7,1.1l0.1,0.8l-0.7,0.6l0,0.5l2.1,0.1l2.5,1.3
		l-0.2,3l-0.4,1.8l0.5,0.9l0.7-0.5l1.8,1.5l1.1-0.1l0.5,3.2l0.2,0.6l1.7-0.4l0.7-0.5l2.1,2.6l1.3-1.5l4.2,0.6l0.1,7.8l0,2.5h2.8
		l0,0.8l-8.2,6.6l-1,0.6l-1.3,0l0.1-0.3l-0.6-0.8l-0.5,1l-0.5,0.3l-0.8,0l-0.3,1l0.4,1.7l-0.9,1.1l0.4,1.6l-0.5,0.1l-1.4-0.6
		l-1.2,0.6l-0.4,0.6l-1.1,0.2l-0.9,1l0,0.7l-1.3,0.4l-0.6,0l-1.7,0.9l-0.5,0.4l0.2,1.4l1.5-0.4l0.8,2.1l-0.1,1.3l-1,2.4l-0.1,1.7
		l1.5,1.5l0.5,0.1l0,0.7l0.9,0.7l0.5,1.8l-0.6-0.2l-1.4,2l-0.7,0.3l-1.1-0.3l-2.1-0.1l-1,0.2l-1,2.1l-0.8,2.1l0.7,3.4l-1.1-0.3
		l-1.7-0.1l-1.1,1.1l1.2,0.6l-0.5,1.4 M397.8,363.2l1,1.8l-1.9,2.2l-1.7,1.2l-1.1-1l-0.1-1.1l-0.9,3.5l-1.9,0.8l-0.8,0.1l0.4,4.6
		l-2.4,2l-1.9,1.8l-5.9,5.1l-4.1,1.4l-1.9,0.4l-0.8-0.1v-0.7l-0.4,0l0-0.9l-0.8,0l-0.3,1.6l-0.7,0.8l0.7,0.7l-0.5,0.1l-0.1,0.8
		l0.9,0.4l0,0.8l0.5,0.7l-0.8,1.6l0.4,0l0.8,3.5l1.2,1.6l3.2,2.6l1.5-0.2l-0.3,1.8l0.9,0.2l-0.3,1l0.9,0.7l0.2-0.4l0.6,0.1l-0.2-0.5
		l0.9-0.2l0.7,0.1l1.4-1.9l0.1-0.8l1.2-0.8l0.1-0.8l1.4-0.1l1.1,0.7l-0.5,0.7l0.7,0.3l0.8,1.4l0.1,1.4l-0.5,1l-1.1-0.1l-0.1,1.9
		l-0.9-0.1l0.2,0.9l0.5,0.3l-0.4,0.6l0.5,0l1.1,1l-0.5,0.6l0.4,0.8l-0.4,0.9l-0.1,0.8l0.5,0.9l-0.8,0.1l-1,1.1l0.3,0.4l-1.3,0.8
		l-0.2,1.1l-0.2,0.2l-0.5-0.2l-0.4-0.8l-0.1-1.2l-1.4,0.2l-0.1-0.6l-0.9-0.6l-0.7-0.8l-1.9-0.3l0-0.2l-1.8-1.3l-1-0.3l0.4-0.7l0-1.2
		l-0.4-0.1l-0.3-1.1l-0.7-0.1l-0.5,0.4l-0.8-0.1l0.1-1.1l-0.5-0.3l-1.3-0.2l-1-1.6l-0.2,1.3l-1.2,0.5l-1.4,0.2l-0.1,0.8l-0.9,0.3
		l-2.5,0l0,0.9l0.5,0.3l-0.9,2.3l-1.1,0.7l-0.1,0.5l-0.8,0.9l-1.2,2.7l0.5,0.4l-0.1,0.6l1.9,1.5l-0.3,0.5l-0.8,0.4l0.7,1.4l1.2,0.4
		l0,0.6l1.1,0.2l0.1,0.6l-0.5,1l-0.1,0.7l0.3,0.8l-0.9,0.5l-0.4-0.8l-1,1.2l-0.4-0.2l-0.4,0.6l-1.4,1.1l-0.2,0.6l-0.7-0.2l-0.9-0.8
		l-0.5,0.3l-0.6-0.3l-0.4,1.2l0.2,0.8l-0.5,0.4l0.7,0.6l-0.3,0.5l-0.9,0.4l-1.4-0.8l-0.8,0.2l-0.4,0.6l-0.3-0.2l-0.8,0.4l-0.5-0.2
		l-0.9-1.2l0-0.4l-0.9-0.1l-0.6,0.3l-0.1-0.3l-0.7,0.6L349,428l-0.3-0.9l-0.4-0.3l-0.1-1.6l-0.4-0.1l-0.9,0.4l-0.1-0.7l1-0.6
		l2.7-0.3l0.1-0.4l-0.6-1.3l-0.6,0.1l-0.3,0.9l-1.3-1.3l-0.7-0.1l0.5-0.7l-0.4-0.4l0.1-0.5l0.7-0.3l0.9,0.3l0-0.6l0.8,0l-0.1-1.1
		l0.4-0.6l0.3-1.2l-0.4-0.6l-0.8-0.6l0.8,0l0.4-0.5l0.6,0.4l0-0.5l1.1-1.3l1.1-0.1l0.1-0.5l1-0.9l0.2,0.3l1.3,0l-0.2-0.5l1.6-0.3
		l0.1-0.9l-0.8-0.2l0.5-0.6l0.9-0.4l-0.4-0.5l-0.1-0.7l0.9-0.6l-0.1-0.5l-0.8-0.9l-1.6-0.1l-0.6,0.3l0.2-0.8l0.7-0.5v-0.6l-0.5,0.1
		l-0.4-0.6l-0.2,0.3l-0.9-0.4l-0.3,0.4l-1,0.4l0.4,0.6l-0.2,1l0.5-0.5l0.5,0.2l-0.3,1.2l-0.4-0.2l-1.2,0.6l-0.5,1.8l-0.6,0.3
		l-0.8-0.1v-0.4l-1.1,0.1l-0.4,0.5l-1.4-0.2l-0.1-0.4l0.5-0.7l0.5-1.4l0.5-0.7l-0.7-0.3l0-0.9l0.5,0.1l0.2-1.3l0.4-0.6l-0.2-1.7
		l-0.6-0.7l-0.8,0.3l-1.1-0.5l-0.7,0.3l-0.3,1.5l-0.4,1l0,1l-0.6,0.6l0.3,1l-0.6,2.3l-0.7-1.3l-0.4-1.8l1-1.6l-0.3-1.1l0.4-0.5
		l-0.2-0.4l0.3-1l1.4-0.7l0.3-2.1l-0.4-0.2l-1.3,0l-1-0.4l-2,0.1l-0.8,0.9l1,0.5l-0.2,0.3l0.2,1.1l0.8,1l-0.6,0.2l1.3,0.9l-0.5,1.1
		l-0.8,0.4l-0.2,0.9l-0.6-0.2l-0.8,0.4l0.7-2.1l-0.5-1.3l-0.7,0.3l0.1,0.4l-0.9-0.3l-0.5,0.2l-0.1,0.9l0.5,0.3l0.1,0.9l-0.8-0.6
		l-0.8,0.6l0,0.8l-0.6,0.1l0-0.4l-1-0.4l0-0.4l0.9-1.2l-0.4-1.2l1.1-1.1l-0.5-1l0.5-1.3l0.7-1.2l0.6,0.4l1.9-0.2l-0.5-0.8l0.1-1.4
		l-0.8-0.8l-0.3-0.6l-0.1-0.5l0-2.8l0.8-1l0.3-3.3l0.8-2.1l1.2-1l1.8-1.2l0.2-0.9l0.5-0.2l0.7,0.5l0.5-1.2l-1.2-0.1l0.2-0.4l-0.4-1
		l0.8-1l-0.7-1.3l0.4-0.6l0.2-1.1l-0.3,0l-0.6-0.8l1.1-0.6l2-1.7l0.6-0.4l0.4,0.7l1.3-1.7l-0.2-1.7l1.1,0l0.4-0.6l0.7-0.4l0.4-1.7
		l0.6,0.1l1.8-0.1l0.5-0.4l0.5,0.6l1-0.3l1.2,0.6l1-1.2l1,0.6l0.3-0.5l1.2,0.6l0.2-0.6l1.1,1.5l0.8-0.4l0.6,0.6l0.8,0l1.6-0.5
		l0.1-0.2l1.3,0.1l0.9-0.4l0-1.2l-0.2-2.3l-0.3-1.9l-0.9-3.7l-1.9-0.8v-0.7l0.5,0l0.2-0.6l-0.7-1.1l3.9,1.3l-0.3-2.2l2.9-0.2l1,0.1
		l2.7,0.9l4.1,1l0.3,0.9l1,1.9l1.5,0.7l0.5-0.4l1,0.5l-0.1,0.9l-0.6-0.2l0.3,0.8l2.8,0.4l1-1l1-0.5l2.5,0.9l0.6,1.6l0.6,1.1l0.8,0.6
		l2.1,0.9l1-0.8l1,0.5L397.8,363.2l-0.1-0.8l0.1-3l-0.5-1.6l1.7-1.6l-1.6-1.5l0.3-3.2l1.6-1.4l2-0.4l2.6,0.6l2,0.7l0.1-0.7l1.1,0.3
		l0.6-0.2l-0.6-0.7l0.3-0.3l-0.2-0.8l-1.2-0.6l-1.6,0.3l-1-0.2l0.3-1.4l-1.2-0.5l-0.1-0.6l-0.9-0.1l0.1-0.5l-0.7-0.2l0.3-0.3
		l1.2,0.1l-0.2-0.3l-1-0.2l-0.6-0.5l-1,0.1l-0.7-1.3l-0.9-0.1l-0.4-1.7l-1-1.8l0.7-1.9l-0.2-0.5l-1.2-0.2l-0.2-2.3l-0.5-0.2
		l-0.6-0.9l-1.2-0.7l-0.5-0.6l-0.5-1.2l-1.8-2.1l5-4.5l2.9-2.7l1.1,2.4l1.3-1.4l0.4-1.4l0.9-1l-0.2-1l0.2-0.4l-0.1-1.9l0.1-1.3
		l-2-0.6l-0.8-0.6l-0.5,0.6l-0.4-0.1l-0.9,0.7l-0.5-0.6l-0.1-2.4l2.7-2.7l4.5-1.2l1.2-5.7l2.8-2.3l3.3,3.6l1.2-1.2l1.6-1.9
		 M629.3,421.3l0,9.2l-3.7,6.5l-3.8,3.9l-0.6,0l0,0.5l-2.5,2.5l-2.2-0.2l-0.8,0.7l-1.8,0l-1.9,1.1l0.3,0l-0.1,0.9l-1.2-0.1l-0.8,0.3
		l-1.2,0.8L609,449l-1.4,0l-0.9,2.4h-0.8l-0.3,0.3l-0.2,1.1l-0.6,0.2l-0.5-0.5l-0.5,0.9l-0.4-0.1l-0.4,1l0.9-0.1l0,0.4l-0.6-0.1
		l-0.1,0.6l-1.5-0.5l-0.2,1.6l0.4,0l0,0.6l-0.7,0l0.1-1l-1.4,0l0.1,0.5l-1.3,1.1l-2-1.8l-0.6-0.9l-0.4,0l-0.4-0.8l0.3-0.5l-0.9-0.1
		l-1.1-1.8l0-0.9l-0.3-0.3l0.1-1.1l-2.6-3.4l-0.8,0.8l-0.1-1.2l-0.8-0.1l0.1-0.8l-0.6,0l0.1-0.6l0.6,0l-2.9-3.7l-0.8,0.5l-0.3,0.6
		L584,441l-1,0.1l0-0.5l-0.9-0.2l0.2-0.9l-0.2-0.5l-1.8,0.1l-0.9-0.3l0.1-5.5l-0.4,0 M598.6,457.5l2.6,2.4l0,5.4l0.2,0l-0.2,2.5
		l0,4.4l-0.1,0.4l0,5.2l0.4,0l0.1,1.2l-0.3,0l0.1,1.7h-0.3L601,482l0.3-0.1l0,1.4l-1,0l0,1.1l1,0l-0.3,0.4l0,0.7l-0.8,0l0,1.2l0.9,0
		v0.2"/>
</g>
</svg>
