<?xml version="1.0" encoding="utf-8"?>
<!-- Generator: Adobe Illustrator 21.1.0, SVG Export Plug-In . SVG Version: 6.00 Build 0)  -->
<svg version="1.1" id="Capa_1" xmlns="http://www.w3.org/2000/svg" xmlns:xlink="http://www.w3.org/1999/xlink" x="0px" y="0px"
	 viewBox="0 0 700 700" style="enable-background:new 0 0 700 700;" xml:space="preserve">
<style type="text/css">
	.st0{fill:#606060;stroke:#FFFFFF;stroke-miterlimit:10;}
	.st1{fill:#C4C4C4;stroke:#FFFFFF;stroke-miterlimit:10;}
</style>
<g transform="translate(-1165.991943359375,-1505.1595458984375),scale(4,4)">
	<g id="states">
		<path class="st0" d="M441.3,539.7l-0.9-0.2l-0.5,0.7l-1.1-0.3l-0.2-0.5l-1.6-0.1l-0.9-0.7l-0.6-1.8l-0.5-0.2l0.1-0.5l-0.5-0.2
			l0.6-1.4l0.6-0.3l1.3-1.1l0.2-0.8l0.1-0.8l0.8,0.2l-0.3-0.5l0.7-1l0.4,0.4l-0.4,0.5l0.3,0.5l0.9,0.2l0.3,1l-0.2,0.8l1.2,0.6
			l0.6,0.8l-0.3,1.3l0.6,0.6l-0.5,0.2l0.3,0.8l-0.1,0.9L441.3,539.7z"/>
		<path class="st1" d="M415.9,545.1l-0.3,1.5l-0.5,0.2l-0.2,0.9l1,0.8l-0.3,0.8l0.3,0.8l0.6-0.5l0.6,0.8l-0.4,1.3l0.5,0.1l0.9,1
			l0.7-0.2l0.2-0.9l0.4,0.2l0.6-0.7l1.4-1.1l0.6-0.1l0.5-1.2l0.7-0.4l1.1,1l0.3-0.6l1-0.6l0.5,0.1l1.1-0.3l0.4-1l0.6-1l1.1,0.5
			l-0.6-1l0.2-0.3l0.6,0.3l0.5,0.9l0.1-0.3h0.7l0.4,0.7l0.4,0.1l0.7-0.5l0.5,1.4l0.2,0.6l0.6,0.4l-0.1,0.5l1.1,1.2l0.1,0.6l0.5-0.4
			v0.5l2.6,0.2l0.7-0.3l0.2,0.7l1.1,1.1l-0.1,0.6h0.1l0.2,0.8l-0.1,0.7l0.4-0.4l0.1,0.4h0.6l-0.2,1.1h0.8l1.3,0.4l0.5,0.9l-0.3,1.1
			l1-0.1l1.3,0.5l-1.3,0.6l2.2,0.9l0.7,0.5l1.1-0.8h1l0.1-0.3l1.6,0.2l0.2,0.8l-0.3,0.3l0.3,1v0.5l-1.2,1.2l0.1,1.7h0.3l0.2,0.9
			l0.8,0.5l0.6-0.1l0.8,1.3l0.3,1l-0.4,0.4l0.5,1.1l0.3,1.2H453l-0.3,0.9l0.4,0.5l1.1-0.1l0.7,0.6l-0.2,0.5l-0.1,1.2l1.2,0.2
			l1.3,0.8l1.3,0.5l-0.4,0.4l-0.5-0.1l-0.9,1.2l0.7,1.6l-0.6,2l-0.5,0.7l-1.1,0.2l-0.6-0.1v0.9l0.4,1.5l-0.6,0.4l-0.9,0.2l-0.6-0.3
			l-0.2,0.3l-1,0.2l0.1,0.9l0.6,0.1l0.1,0.8l-0.9,1.2l-1-0.1l-1.5,0.7l-0.2,0.6l-0.3-0.5l-2.1-2l-1.5-1.8l-1.2,0.1l-0.2,0.4
			l-0.9-0.1l-3-1.1l-4.4-1.2l-2.1-0.4l-2-0.1l-0.6,0.1l-1.1-0.3l-1.5-0.8l-1.4-1.2l-0.7-0.2l0.4-0.5l-0.6-0.3l-0.6,0.2l-0.8-0.8
			l-0.5-0.3l-2.3-0.7l-2.4-1l-5.7-2l-1.6-0.4l-1.7-0.7l-2.5-0.9l-2.1-0.8h-0.5l0.2-0.4l-0.4-0.5l-1.7-1.2l-0.7-0.7l-1-0.5l-3.1-1.3
			v-0.7l-0.8-0.8l-1.8-0.4l-0.2-0.5l-0.6-0.1l-0.1-0.7l-0.6-0.8l-1.2-0.8l-0.6-1.3l-0.7-0.6l-2.5-1.3l-1.2-0.4l-1.1,0.1l-0.6,0.8
			v-0.5l-0.6-0.4l-0.2-1.3l0.4-1.9l0.3-0.4l1.5-0.2l0.4-0.3h1l0.2-0.5h0.7l0.6-0.8l0.6-0.2V553l-0.5-1l0.5-0.7l-0.5-0.6l0.1-1.1
			l0.6-0.7l1.3-0.5l1-0.1l0.2,0.4l1.1-0.3l0.6,0.5l0.3,0.9l1.4,0.7l1.2-0.1l0.5-0.4l0.7,0.2l0.1-0.3l1.4-0.5l1.2,0.2l0.4,0.4
			l1.7,0.2l1.4-0.4l0.1,0.6l0.5,0.2l0.4,0.7l0.6-0.1l0.8-0.8l0.6,0.4l0.8-0.1l0.3,0.7l0.7,0.2l0.3,0.5l0.5-0.2l0.2,0.7l0.6,0.2
			l0.9-0.9l-0.9-0.8l-1.9-1.1l-0.4-0.8l0.2-1.3l-0.2-0.9l-0.4-0.1l0.2-0.8l-0.4-0.3l0.1-1.5l0.3-0.6l0.5-0.2l0.8,0.8v0.5l1.4-1.3
			l0.2-0.4l0.5,0.5l1.4,0.5l0.3,0.6L415.9,545.1z"/>
		<path class="st1" d="M425.9,517.6L425.9,517.6l0.3-0.2l0.9,1.1l1.2,1l1.1-0.2l0.5,0.7l2-0.5l-0.1,0.5l1,1.5l0.4,1.3l-0.6,0.8
			l-0.2,0.9l1.2,1h0.7l-0.3,1.2l0.7,0.2l1.4-1.5l0.9-0.6l0.2-0.7l-0.4-0.4l1.2-1.4l1.2-0.1l0.4,0.5l-0.1,0.4l0.6-0.6v0.8l0.4-0.2
			l0,0l0,0l0,0l0.1-1.3l0.2-0.3l0.8,0.7v1l-0.9,0.3l0.6,0.6l0.1,0.5l-1.1,0.5l0.2,0.7l1,0.5l0.6-1.3l0.6-0.6l1.5,0.8l0.3-0.5
			l1.6,0.6l0.2,0.7l0.3-0.4l1.1,1.3l-0.2,0.8l-0.4,0.1l0.2,1.1h-0.9l0.1,1l-0.1,0.1l-0.7,0.8l1,1.6l0.3,0.6h-0.4l0.3,1.5l-0.3,0.5
			l0.6,1.2l-0.3,0.4l-0.1,1l0.4,1.1l-0.2,0.9l0.3,0.8l-0.2,0.4l-0.6,0.2l-0.9,1.1l-1.3,0.1l-1.2-0.6l-0.2-1.1l-0.8-0.7l-1.1-0.2
			l0.4-0.9l0.1-0.9l-0.3-0.8l0.5-0.2l-0.6-0.6l0.3-1.3l-0.6-0.8l-1.2-0.6l0.2-0.8l-0.3-1l-0.9-0.2l-0.3-0.5l0.4-0.5l-0.4-0.4l-0.7,1
			l0.3,0.5l-0.8-0.2l-0.1,0.8l-0.2,0.8l-1.3,1.1l-0.6,0.3l-0.6,1.4l0.5,0.2l-0.1,0.5l0.5,0.2l0.6,1.8l-0.6,0.6l0.1,1.1l-0.1,1.7
			l-0.9,1h-0.7l-0.4,0.3l0.1,0.9l-0.7,1.2l-0.5,0.7l-0.7,0.5l-0.4-0.1l-0.4-0.7h-0.7l-0.1,0.3l-0.5-0.9l-0.6-0.3l-0.2,0.3l0.6,1
			l-1.1-0.5l-0.6,1l-0.4,1l-1.1,0.3l-0.5-0.1l-1,0.6l-0.3,0.6l-1.1-1l-0.7,0.4l-0.5,1.2l-0.6,0.1l-1.4,1.1l-0.6,0.7l-0.4-0.2
			l-0.2,0.9l-0.7,0.2l-0.9-1l-0.5-0.1l0.4-1.3l-0.6-0.8l-0.6,0.5l-0.3-0.8l0.3-0.8l-1-0.8l0.2-0.9l0.5-0.2l0.3-1.5l-0.9-0.3
			l-0.3-0.6l-1.4-0.5l-0.5-0.5l1.2-0.9l0.2-1.3l1.3-0.5l0.8-0.6l0.4-1.5l0.5-0.2l-0.2-0.7l0.9-1.3l0.1-1.9l0.3-0.6l1.4-0.3l0.4-0.6
			l-0.2-0.1l0.2-1.4l-0.7-0.5L419,529l-0.5-0.7l0.7-0.9l0.8,0.4l0.7-0.5l0.1-1.8l0.2-0.5h1.2l-0.7-0.5l-0.5-0.7v-1.2l0.3-0.4h-0.7
			v-0.9l0.3,0.2l0.8,0.4l2-0.9v0.3l0.9-0.1l-0.3-1l0.2-1l-0.6-0.5l-0.4-1l0.5,0.1l0.1,0.7h0.6l-0.3-0.6l0.4-0.7L425.9,517.6z"/>
		<path class="st0" d="M441.3,539.7l1.1,0.2l0.8,0.7l0.2,1.1l1.2,0.6l1.3-0.1l0.9-1.1l0.6-0.2l-0.3,0.3l-0.5,1.4l-0.5,0.4l0.8,0.1
			l-0.5,0.7l0,0l-0.7,1.1l-0.4,1l0.7,0.1l-0.4,0.7l0.5,1.5l0.1,2.3v1l-0.4,0.1l-1.4-1.3l-0.5,0.1l-0.1,0.5l-1.1,0.3l-0.1,0.6
			l-1.2,0.2l-1.4,1.6h-0.1l0.1-0.6l-1.1-1.1l-0.2-0.7l-0.7,0.3l-2.6-0.2v-0.5l-0.5,0.4l-0.1-0.6l-1.1-1.2l0.1-0.5l-0.6-0.4l-0.2-0.6
			l-0.5-1.4l0.5-0.7l0.7-1.2l-0.1-0.9l0.4-0.3h0.7l0.9-1l0.1-1.7l-0.1-1.1l0.6-0.6l0.9,0.7l1.6,0.1l0.2,0.5l1.1,0.3l0.5-0.7
			L441.3,539.7z"/>
		<path class="st1" d="M297,411.1l0.9,0.5l2.4,1.8l-0.1,0.7l0.9,0.5l0.3-0.5l0.4,0.3v0.6l-0.5,0.1l0.4,0.6l-2.8,1.5l-0.7-0.2
			l-0.1,0.9l0.5,0.2l-0.1,1.1l-1,0.6l0.7,1.8l-0.6-0.1l0.9,1.3l0.7,0.4l-0.5,0.3l0.4,0.7l-0.1,2.6l1.1,0.4l0.9,1.9l1.6,1.3l-0.3,0.2
			l0.3,0.7l1.1-0.1l2.8,3.1l0.4,1.3l0.9,1.8l1.1,0.6v0.7l-0.6,0.4l0.3,0.7l1.2,1.8l0.8,0.2l1.9-0.5l0.6-1.1l1-0.3l2,0.7l1.4,1.3
			l0.1,0.9h0.5l0.7,1.4l0.2,0.9l-0.3,1.3l1.5,0.9l0.1,0.3l-0.6,0.7l0.8,0.1l0.7,0.8l-0.2,0.5l-1.5-0.6l-0.1,1.3l1,1.9l-0.4,1.1
			l0.3,1.8l0.3,0.7l0.1-0.7l1.3-0.4l0.8,1.1l0.1,1l0.6,0.5l-0.3,0.6l0.7,0.5l-0.5,0.9l0.3,0.2l0.5,1.5l0.7,0.2l0.2,1.4l-0.3,1.1
			l0.8,0.6l0.7,0.2l0.9-0.5l1.5,0.2l0.4,0.6l-0.4,0.2l0.1,1h-0.4L328,467l-0.8,0.4l0.5,1.4l-0.5,1.4l-0.4,0.7v0.9l0.4,1.4l0.6-0.1
			l0.4,1.3v1.2l-0.4,0.4l-0.6-0.4l-0.5,0.2l-0.1-0.4h-1V475l-1-0.5l-0.7,0.3l0.4,1v0.8h-0.4l-1-1.3l-1-2l-1-1.2l-1.6-1.5l-1.2-0.8
			l-2.1-2.5l-1.7-1.8l-0.8-0.6l-1.6-1.6l-0.7-0.1v-0.7l-0.6-0.5l-0.7-1.3l0.2-0.4l-0.8-1.2l-1.8-1.7v-0.3l-1-0.8l-0.1-0.4l-2.1-1.7
			l0.3-0.6l-0.9-1.1l-0.6-1.1l-0.2-0.9l-2-2l-3.3-2.9l-3.5-2.4l-1.4-1.3l-3.3-2.4l-2.3-1.3l-0.9-1.3l-1.6-1l-1.1-0.9l-0.3-0.5
			l-0.1-1l-1.2-1.5l-0.6-0.3l-0.3-0.8l-1.7-3l-1.7-1.4l-0.5-1.3l-0.7-0.5l-0.7-1l-1.1-0.8l-2.7-1.2l-1.7-0.5h-0.8l-2-1l-1.9-0.3
			l-1.1-1.1l-0.7-1l-0.8-0.3l-1-1.2l-1.3-0.4l-1.7,0.2l-0.3-2.3l-0.4-1l0.2-1.6l-0.5-1.1l0.7-2.1l1.7-2.8l0.4-1.5l0.5-0.8l1-0.5
			l0.2,0.2l0,0l0,0l0.4,0.5l0.7,0.2l0,0l0.5-0.3l0.5-0.9l1.1-0.9l1.2,0.2l0.5-0.5l0.5,0.2l0.1-0.8l0.7-0.5l-1.3-0.1l0.4-0.2l0.3-1.2
			l1.7-0.4l0.8-0.4l1,0.1v-1.1l0.8-0.7V395l0.5-0.2l0.5-1.3l0.7-0.2l-0.3-0.4l0.7-1.1l0.9-1.8l0.7-0.1l-1.4-0.2l0.3-1l1.3,0.5l1-0.2
			l0.3,0.4l0.5-0.6l0.4,0.5l0.5-0.5l1,0.2l0.2,0.6l-0.9,0.9l0.1,1l0.9,0.5l0.6-0.5v0.8l0.9-0.1l1.2,1.4l-0.2,0.6l0.6,0.2l-0.2,1.5
			l-1.2,0.9l0.5,0.2l1.6,2l-0.1,1.1l-0.7,0.6l2.7,4.2v0.6l1.1,0.5l0.1,0.6h0.5l0.3-0.7l3.1,0.2l0.6,1.1l1-0.6l0.8-0.1l1.2,0.6
			l0.7,0.6v0.5l0.5,0.9l-0.3,1.5l0.9,0.6L297,411.1z"/>
		<path class="st1" d="M157.9,362.1l0.8,2.1l-0.1,1.2l0.3,0.4v1l-0.5,0.7v1.5l-1.2-0.1l-0.1-0.6l-0.8-0.6l-0.9,0.4l0.1-0.8l0.6-0.5
			l1.3-1.6l-0.4-1.4l0.3-1.2L157.9,362.1z M198.5,356.1l0.6,0.2l1.7,1.5l-0.3,0.3l-0.6-0.8l-1-0.6L198.5,356.1z M187.4,347.8
			l0.4,0.1l-0.1,1L187.4,347.8z M187.6,338.6l1.6,1.2l0.6,0.7l0.7,1.5l-0.4,0.6l0.1,0.9l0.3,0.2l1.6,0.3l1.3-0.1l0.1,1.2l-0.1,2
			l0.5,1.2l0.8,0.2l-0.3,1.4l-1.3-0.8l-1.1-0.9l-0.9-1.4l-1.8-1.3l-0.8-1.4l-0.8-0.1l-1.3-2.4l-0.3-0.1v-0.9l0.5-1.2l-0.1-0.5
			L187.6,338.6z M103.6,346.2l-0.2,0.5l0.3,0.9l1,0.8l0.2,1.1v1.8l-0.3,0.7l-0.9,0.3l0.2-0.5l-0.2-1.2l-0.6-1.7l-0.8-0.5v-1.7
			L103.6,346.2z M166.1,293l0.6,1.1l0.8,0.6l0.3,0.8h-1.2l-1.3-1l-0.1-1.7L166.1,293z M164.9,278.7l-0.7,0.4l-0.6-0.4l-0.9,0.4
			l0.1,0.7l-0.6,1l0.1,0.8l-1.1,1.3l-0.5,0.9l1.3,1.4l-0.2,0.7l0.6,2.2l-0.2,0.9v1.6l1,1l1.2,0.2l0.6,0.9l-0.2,1.8l0.5,1.2v1.1
			l-0.7,0.8l-0.4,1.5v1.5l-0.4,0.7v2.9l-0.1,2l0.4,1.3l1,0.9l-0.4,0.8l0.4,0.5l1.6,0.9l0.4,2.4l-0.2,2l0.1,1.6l0.8,1.6l0.3,1.1v1.6
			l-0.4,2.9l0.3,0.4l-0.5,1.2l1.5,2.6l0.3,1.2l0.5,0.8l0.8,0.3l0.3,0.7l1,0.5v0.7l0.5,1.6l0.9,0.7h0.7l0.4-0.6l1.1,0.5l0.9,1.1
			l1.5,1.1l0.4,0.8l0.9,0.4l1,1.1l1.9,1.7l1,0.5l1.4,1.7l1,0.8l0.2,0.6l-0.6,0.7l0.2,0.6l1.3,1.5l0.5,1.4l-0.4,0.3l0.3,1.2l-0.2,0.4
			l0.8,1.1l0.5-0.1v-1.1l1-0.1l0.1,0.5l0.9,0.4l-0.1,1.3l0.4,0.8h0.4l1.1-0.8l0.5,0.1l0.7,0.9v0.9l0.7,1.8l0.5,0.5v0.7l0.4,1.7
			l1.5,1l0.6,0.1l1.4-0.4l0.6,0.8l0.4-0.2v1.2l-0.3,0.9l-0.1,1.1l1.5,1.7l-0.4,1.2l0.4,1.4l-0.3,0.8l0.7,0.5h-11.4h-13.8l1.1-1.6
			l1-1.7l0.4-0.9l-0.4-0.7l-0.7-0.2l1.1-2.7l0.3-1.2l-0.4-1.1l-0.8-0.9l-0.8-0.2v-1.4l-0.3-0.3l-1.5-0.1v-0.6l-0.8-0.7l-0.5-0.1
			l0.1-0.5l-0.6-1.2l-0.4-0.1l-0.2-0.9l-1.4-1.3l-0.8,0.2l-0.2-0.5l-1-0.7l-0.1-1.5l-0.5-0.8l-1.4-0.3l-0.5-1.5l-1.2-0.6l-0.9-1.3
			l-1.5-1.7l-2.3-1.1l-1.9-0.2l-0.8-1.4l-1.1-0.8l-1.4-0.3l-1.2-1.2h-1l-1.5-1.6h-0.5l-1.4-1.2l0.3-1.4l-0.3-1.5l-0.7-1l-1.2-0.1
			l0.5-2.8l-0.4-1.2l0.1-0.9l-0.1-1.7l-0.5-1.2l-1.3-1.2l-0.7-0.1l-1,0.8l-0.2-1.3l-0.5-0.8l0.4-3.6l-0.4-1.4l-0.1-1.3l-0.3-0.7
			l-0.7-0.2l-0.6-0.6l-0.6-0.2l-1.6-2.1l-0.9,0.2l-0.3-0.5l0.5-2.6v-0.9l-1.5-2.7l-1-0.9l-0.6-0.8l-0.2-0.8l-1.2-1.1h-0.6l-0.1-0.7
			l-0.7-0.4l-0.8-1.2l0.7-0.3l-0.3-0.7l0.3-1l-1.4-1.8l1.2,0.6l0.4-0.3l0.6-1.7l-0.3-0.9h-0.7l-0.5-0.7l-0.9-0.2l-0.3-1.3l-1.5-0.4
			l-0.5-0.7l-0.3-1.4l-0.8-2.4l-1.6-0.6l-1.2-2.6l-0.6-1.9v-1l30.9-2.9l11.1-0.9l-1.4,2.7L164.9,278.7z"/>
		<path class="st1" d="M204.3,355v1.2h-0.8l-0.2-1L204.3,355z M208.9,345.2l0.5,0.7l-0.2,1.1l0.9,1.4l0.4,1.1l-0.6,2.9l-0.6,0.9
			l-0.1,1.1l-0.6,0.4l-0.9-0.4l-0.7-0.7l-1-0.1l-0.2-0.3l-2-1.2l1.2-0.8l0.4-0.6l-0.3-1.3l0.5-3.1l0.5-0.6l0.7,0.3l0.9-0.7
			L208.9,345.2z M167.3,293.9l1.3,0.1l-0.2,0.5L167.3,293.9z M164.9,278.7l9.9,3.5l18.1,6.7l9.5,3.4l27.8,10.3h11.1h25.6h3.8
			l-1.1,1.9h-1.1l-0.4,0.7l0.7-0.3l0.2,0.5h0.8l-0.7,1.2l1.3,0.7l0.1,0.6l0.6,0.4l-0.3,0.4h1.2v0.6h-2.1v2.1l-2.4-0.1l0.2,0.9
			l-0.1,1.8l-0.2,0.7l0.5-0.1l0.9,1l-0.1,1.3l0.8,0.4l1.8,0.4l0.9,0.5l0.4,1.8h0.9l-0.2,0.6l-0.6,0.4l0.5,0.9v0.7l0.7,0.1l0.7,1.1
			l-0.1,0.3l-1.2-0.6l0.2,5.4l-0.2,2l0.2,1.7l-0.5,0.3l0.1,0.5l1.5,0.2v1.2l-0.9,0.4h-1.2l0.7,1.1l-0.6,0.2l0.3,1.8l-0.4,0.3
			l0.3,1.1l-1.3,0.5l0.8,3.2l-0.2,0.8h-0.8l-0.3,2.1l0.3-0.2l0.5,0.9l-0.5,0.6l0.6,3.2l-0.1,1l0.3,0.2l0.8,2.2l1,0.5l0.1,2.1
			l0.9,1.5l0.1,1l0.3,0.2l-0.6,0.9l0.6,1.7l-0.6,0.2v0.6l-0.5,0.3l-0.9-0.6l-0.6,0.2l-0.1,0.9l-0.8-0.2l-1.1,0.6l-3.7,0.2l-0.4-0.3
			l-0.2,0.4L266,364l-0.9,0.1l0.2,1.5l-0.1,1.4l0.6,2.2l0.7,0.8l1.1,0.8l0.2,1.7l0.8,0.3l-0.9,1.1l0.4,0.8h1.1l1.2,0.8l0.2,1.4
			l0.7,1.4l1,0.4l-0.1,1.6l0.5,0.7l0.1,0.9l0.7,1.3l-1.3,1.5l0.4,1.2l0.6,0.5l0.2,1.5l-0.1,0.8l0.7-0.2l-0.2,0.7l1.2,0.5l1.4,0.2
			l-0.7,0.1l-0.9,1.8l-0.7,1.1l0.3,0.4l-0.7,0.2l-0.5,1.3l-0.5,0.2v0.8l-0.8,0.7v1.1l-1-0.1l-0.8,0.4l-1.7,0.4l-0.3,1.2l-0.4,0.2
			l1.3,0.1l-0.7,0.5l-0.1,0.8l-0.5-0.2l-0.5,0.5l-1.2-0.2l-1.1,0.9l-0.5,0.9l-0.5,0.3l0,0l-0.7-0.2l-0.4-0.5l0,0l0,0l-0.2-0.2
			l-1,0.5l0.1-2.5l-0.2-0.9l-0.9-1.5l-0.8-0.6l-1-1.2l-1.4-0.2l-1.2-0.4l-1.2-0.1l-0.9,0.4l-1.5-0.7l-1.1-1.1l-0.4-0.7l-0.7-2.5
			l-0.8-1.2l-0.2-1l-0.5-0.4l-1.3-0.3l-1-0.6l-3.3-0.9l-1.7-1.7l-1.2-0.8h-1.1l-1.2-0.6l0.2-3.4l-0.1-0.9l-0.5-1.5l0.4-1.8l-0.3-1.5
			l0.5-1l1.2-0.2l-1-0.8h-0.9l-3.2-0.8l-0.3-0.6l-1.1,0.7l-0.3,0.5l0.9-0.2l-0.5,1.2l-1.4-1.3l-0.3-1l-0.7-0.1l-0.7,0.5l-1.3-0.9
			l-0.6-0.2l-0.6-0.9l-1.1-0.8l-0.1-0.6l-0.6-1.4l-0.1-0.7l-0.7-0.4l-0.3-1.1l-1.1-0.9l-0.1-1l-0.5-0.4l-1.6-0.6l-1.1-0.6l-1.2-0.3
			l-0.9-2.7l-0.6-0.7l-1.2-0.8l-1-0.9l-0.4-0.8l0.9-0.6l-1.5-1.2l-0.8-0.2l-0.3-0.8l-1.1-1.2l-1.1-0.2l0.4-0.4l-0.3-0.7v-1.8
			l-0.7-1.3h-0.5l0.4-1.2l-0.4-1.4L209,343l-1,0.3l-1.1-0.4l-0.3-0.8l0.7-1.5l0.1-0.6l-0.9-0.8l-0.1-0.8l-1.2-1.2l-0.3-0.9l-0.9-0.9
			l-0.5-1.4l-0.8-1.1l-0.2-1.1l-1.4-0.5l0.2-1.7l-0.5-1.4l0.1-2.2l-0.4-1l-0.8-0.8H199l0.3-0.7l-0.1-1.6l-0.3-0.8l-1.3-1.7l-0.7-0.6
			l-1.5-2.6l-0.9-3l0.5-1.7l0.1-1.6l-0.6-1.8l0.6,1.3l0.5-0.8l0.1-0.8l-0.7-2.4l-1.5-0.7l-0.3-0.4h-0.8l-1.7-0.5l-3.2-0.6l-0.4-0.5
			l-1.1-0.2l0.2-0.8l-0.5-1.4l-0.1-0.9l-0.8-0.8l-2-0.9l-0.8-0.6l-1.5-0.2l-0.7-0.5l0.1,1.1l0.3,0.3l-0.5,0.7l-0.5-0.1l-0.2,0.8
			h-2.1l-1-0.4l-1.6-1l-0.7-0.8l-2.7-1.5l-1.1-1.2l-1.1-0.6l-1,0.1l-0.8-0.3l-0.6-0.8h-0.9l-0.6-0.9l-1.2-0.2l-1-1V289l0.2-0.9
			l-0.6-2.2l0.2-0.7l-1.3-1.4l0.5-0.9l1.1-1.3l-0.1-0.8l0.6-1l-0.1-0.7l0.9-0.4l0.6,0.4L164.9,278.7z"/>
		<path class="st1" d="M252.4,444.3v0.3l-1.3-0.3l-0.9-2.1l0.1-0.6l-0.4-0.6l0.2-1L252.4,444.3z M242.7,437.1l1.1,1.1l-0.3,0.9
			l-0.7,0.5V439l-0.6-0.3l-0.3-1.2L242.7,437.1z M242.1,435.9l0.5,0.7l-0.9-0.3L242.1,435.9z M236.6,426l0.7,1l1.2,0.3l0.5,0.4
			l0.1,1.1l0.8,1.5l-1,0.3l0.2-0.4l-1.4-1.1l-0.5-1.4l-0.5-0.2L236.6,426z M236.9,422.2l-0.3,0.7l-0.4-0.3L236.9,422.2z
			 M235.4,414.3l0.2,2.3l-0.8-0.9l0.1-0.8L235.4,414.3z M230.9,414.3l0.4,0.9l-0.6,0.1l-0.2-0.9L230.9,414.3z M230.4,407.3L230,408
			l0.2,1.3l-0.7-0.6l-1.3,1.8v0.8l-0.4,0.3v0.8l-0.5-0.3l0.3-2.1l0.7-1.2l-0.1-1l0.8-0.5l0.4,0.3L230.4,407.3z M212.6,384.3l0.6,0.8
			l-0.3,0.6l-0.5-0.1l-0.4-1L212.6,384.3z M215,380.7l0.3,0.5l-0.6-0.1L215,380.7z M158.3,371.8l0.6,0.4l-0.3,0.3L158.3,371.8z
			 M175.5,369.5h13.8h11.4l0.1,0.7l-0.3,2l0.9,0.7l0.3,1.4l0.8,0.9h0.3l0.8,1.2l1.1,0.2l1.9,0.9l1.1,0.8l0.6,1.2l0.4,2.1l1.1,1.2
			l0.7,1.4l-0.3,0.8l0.9,0.9l1.4,0.7l1.4,0.3l1,0.4l-0.9,1.3l-0.1,1.4l0.6,0.5l0.4,0.9l0.8,0.7l1.4-0.8l1.3,1l0.4,0.7l1,0.7l0.3,0.5
			l1.5,1l-0.1,2.5l0.2,0.4l1.9,0.7l-0.4,1.2l0.1,0.8l1.3,1.4l0.2,1.1l-0.2,0.6l0.9,2.7l0.5,0.7l-0.5,1l0.2,0.4l-0.4,0.7l0.3,1.2
			l0.1,1.4h0.3l0.2,1.3l1.4,0.9l0.6,2.2l1.4,1.7l1.7,0.2l-0.2,1.2l0.4,0.7l0.4,1.5l0.8,1l-0.2,0.8l0.4,0.9l0.2,1.2l0.5,0.4l0.3,0.9
			l0.6,0.3l0.3,0.6l0.9,0.3l0.2,0.9l1.1,1.6l0.5,1.5l-0.6,2l-0.6,0.6l-0.2,1l0.2,2l0.8,1l-0.1,1.1l0.3,1l0.6,0.7l0.6,1.2l1,0.8
			l2.7,0.7l1.7-0.1l-0.1-1l-0.5-0.4l-0.1-1.1l0.7-0.7l1.1,0.2v0.5l0.8,0.5l0.3,0.8l1.7,0.8l1.2,1l0.3,2.1l1,0.4l1.8-0.6l0.4,0.8
			l-0.6,0.9l0.3,1.2l0.8,0.6l1.3,1.5l-0.2,1.3l0.4,1.5l3,1.3l0.9,0.5l-0.2,0.5l0.3,0.8l0.6,0.7l-0.1,0.6l0.3,0.6l-0.3,0.2l0.1,1.4
			l-0.5,2l-1.3,1.7l-0.8,0.5l-1.6,0.5l-0.8,0.6l-0.3,0.7l-1,0.4l-0.3,0.6l-0.8,0.7l-0.8,0.2l0.1,0.3l-1.2,0.1l-1-0.6l-0.6-0.7
			l-0.8-1.5l-0.2-1.5l-0.7-2.5l-0.1-1.1l-1.8-3.6l-0.8-1.2l-1.1-1l-3.1-1.5l-0.8-0.5l-1.5-1.3l-2.5-2.8l-3.4-3.3l-1.8-1.3l-2.2-1.4
			l-2.7-1.5l-2.2-1l-0.9-0.2l-1.9,0.3l-0.3,0.8l-0.7-0.8l-3.3-2.5l-2.8-1.4v-0.5l-1.2-1.3l0.7-0.6L212,434l-0.7-0.8l-0.9-0.4
			l-0.7,0.3l-0.5-0.4l0.4-0.8l1.4-3.9l0.8-2.9l0.3-2.1l0.4-1.2l0.3-2.4l-0.1-5.1l-0.5-1.3l-1.1-3.3l-0.7-0.9l-1.3-0.7v-0.5l-0.6-1.5
			l-1.1-1.3l-1.1-0.3l-0.4,0.5l-2.7-1.8l-0.5,0.2l-0.6-0.8l-1.7-1.3l-1-0.9l-1.9-1.2l-1.5-1.4l-1-0.6l-0.2-0.4l-1.1-0.6l-1.1-0.2
			l-0.3-1l-1.6-0.9l-1.5-0.2l-0.9,0.4l-0.6,1.4l-0.5,0.3l-1.1-0.5l-0.7-0.9l-0.9-0.4l-0.8-2.1l-0.9-0.9l-0.8-0.5l-1.3-0.4l-1,0.5
			l-0.9-1l-0.2-0.6l-1.2-1.2l-1-0.5l-1.5-0.2l-0.3,0.4l-1.6-1.1l-0.8,0.1v-0.6l-0.9-0.4v-2.1l-0.4-1.4l-1.2-0.8l-0.4-0.5l-1.2-0.6
			l-1.3-0.4l-0.7-1.5l-0.6-0.6h-0.9l-0.2-0.5l-1-0.5l-0.2-0.6l-0.8-0.4l-0.2,0.2l-0.6-0.9l-0.4-1.2l-0.4-0.5l0.5-0.3l0.7,0.6
			l1.6-0.1l1.2,0.1l0.3,0.3h1.8l0.8,0.4l1.5,0.3l1.3-0.2l0.6,0.3l1-0.5l2-1.5l0.6,0.1l0.5-0.5v-1.1L175.5,369.5z"/>
		<path class="st1" d="M409.5,436.6l1,1.8l-1.9,2.2l-1.7,1.2l-1.1-1l-0.1-1.1l-0.9,3.5l-1.9,0.8l-0.8,0.1l0.4,4.6l-2.4,2l-1.9,1.8
			l-5.9,5.1l-4.1,1.4l-1.9,0.4l-0.8-0.1v-0.7h-0.4v-0.9h-0.8l-0.3,1.6l-0.7,0.8l0.7,0.7l-0.5,0.1l-0.1,0.8l0.9,0.4v0.8l0.5,0.7
			l-0.8,1.6h0.4l0.8,3.5l1.2,1.6l3.2,2.6l1.5-0.2l-0.3,1.8l0.9,0.2l-0.3,1l0.9,0.7l0.2-0.4l0.6,0.1l-0.2-0.5l0.9-0.2l0.7,0.1
			l1.4-1.9l0.1-0.8l1.2-0.8l0.1-0.8l1.4-0.1l1.1,0.7l-0.5,0.7l0.7,0.3l0.8,1.4l0.1,1.4l-0.5,1l-1.1-0.1l-0.1,1.9l-0.9-0.1l0.2,0.9
			l0.5,0.3l-0.4,0.6h0.5l1.1,1l-0.5,0.6l0.4,0.8l-0.4,0.9l-0.1,0.8l0.5,0.9l-0.8,0.1l-1,1.1l0.3,0.4l-1.3,0.8l-0.2,1.1l-0.2,0.2
			l-0.5-0.2l-0.4-0.8l-0.1-1.2l-1.4,0.2l-0.1-0.6l-0.9-0.6l-0.7-0.8l-1.9-0.3v-0.2l-1.8-1.3l-1-0.3l0.4-0.7v-1.2l-0.4-0.1l-0.3-1.1
			l-0.7-0.1l-0.5,0.4l-0.8-0.1l0.1-1.1l-0.5-0.3l-1.3-0.2l-1-1.6l-0.2,1.3l-1.2,0.5l-1.4,0.2l-0.1,0.8l-0.9,0.3h-2.5v0.9l0.5,0.3
			l-0.9,2.3l-1.1,0.7l-0.1,0.5l-0.8,0.9l-1.2,2.7l0.5,0.4l-0.1,0.6l1.9,1.5l-0.3,0.5l-0.8,0.4l0.7,1.4l1.2,0.4v0.6l1.1,0.2l0.1,0.6
			l-0.5,1l-0.1,0.7l0.3,0.8l-0.9,0.5l-0.4-0.8l-1,1.2l-0.4-0.2l-0.4,0.6l-1.4,1.1l-0.2,0.6l-0.7-0.2l-0.9-0.8l-0.5,0.3l-0.6-0.3
			l-0.4,1.2l0.2,0.8l-0.5,0.4l0.7,0.6l-0.3,0.5l-0.9,0.4l-1.4-0.8l-0.8,0.2L366,503l-0.3-0.2l-0.8,0.4l-0.5-0.2l-0.9-1.2v-0.4
			l-0.9-0.1l-0.6,0.3l-0.1-0.3l-0.7,0.6l-0.5-0.5l-0.3-0.9l-0.4-0.3l-0.1-1.6l-0.4-0.1l-0.9,0.4l-0.1-0.7l1-0.6l2.7-0.3l0.1-0.4
			l-0.6-1.3l-0.6,0.1l-0.3,0.9l-1.3-1.3l-0.7-0.1l0.5-0.7l-0.4-0.4l0.1-0.5l0.7-0.3l0.9,0.3V493h0.8l-0.1-1.1l0.4-0.6l0.3-1.2
			l-0.4-0.6l-0.8-0.6h0.8l0.4-0.5l0.6,0.4v-0.5l1.1-1.3l1.1-0.1l0.1-0.5l1-0.9l0.2,0.3h1.3l-0.2-0.5l1.6-0.3l0.1-0.9l-0.8-0.2
			l0.5-0.6l0.9-0.4l-0.4-0.5l-0.1-0.7l0.9-0.6l-0.1-0.5l-0.8-0.9l-1.6-0.1l-0.6,0.3l0.2-0.8l0.7-0.5V478l-0.5,0.1l-0.4-0.6l-0.2,0.3
			l-0.9-0.4l-0.3,0.4l-1,0.4l0.4,0.6l-0.2,1l0.5-0.5l0.5,0.2l-0.3,1.2l-0.4-0.2l-1.2,0.6l-0.5,1.8l-0.6,0.3l-0.8-0.1v-0.4l-1.1,0.1
			l-0.4,0.5l-1.4-0.2l-0.1-0.4l0.5-0.7l0.5-1.4l0.5-0.7l-0.7-0.3v-0.9l0.5,0.1l0.2-1.3l0.4-0.6l-0.2-1.7l-0.6-0.7l-0.8,0.3l-1.1-0.5
			l-0.7,0.3l-0.3,1.5l-0.4,1v1l-0.6,0.6l0.3,1l-0.6,2.3l-0.7-1.3l-0.4-1.8l1-1.6l-0.3-1.1l0.4-0.5l-0.2-0.4l0.3-1l1.4-0.7l0.3-2.1
			l-0.4-0.2h-1.3l-1-0.4l-2,0.1l-0.8,0.9l1,0.5l-0.2,0.3l0.2,1.1l0.8,1l-0.6,0.2l1.3,0.9L354,477l-0.8,0.4l-0.2,0.9l-0.6-0.2
			l-0.8,0.4l0.7-2.1l-0.5-1.3l-0.7,0.3l0.1,0.4l-0.9-0.3l-0.5,0.2l-0.1,0.9l0.5,0.3l0.1,0.9l-0.8-0.6l-0.8,0.6v0.8l-0.6,0.1v-0.4
			l-1-0.4v-0.4l0.9-1.2l-0.4-1.2l1.1-1.1l-0.5-1l0.5-1.3l0.7-1.2l0.6,0.4l1.9-0.2l-0.5-0.8l0.1-1.4l-0.8-0.8l-0.3-0.6l-0.1-0.5v-2.8
			l0.8-1l0.3-3.3l0.8-2.1l1.2-1l1.8-1.2l0.2-0.9l0.5-0.2l0.7,0.5l0.5-1.2l-1.2-0.1l0.2-0.4l-0.4-1l0.8-1l-0.7-1.3l0.4-0.6l0.2-1.1
			h-0.3l-0.6-0.8l1.1-0.6l2-1.7l0.6-0.4l0.4,0.7l1.3-1.7l-0.2-1.7h1.1l0.4-0.6l0.7-0.4l0.4-1.7l0.6,0.1l1.8-0.1l0.5-0.4l0.5,0.6
			l1-0.3l1.2,0.6l1-1.2l1,0.6l0.3-0.5l1.2,0.6l0.2-0.6l1.1,1.5l0.8-0.4l0.6,0.6h0.8l1.6-0.5l0.1-0.2l1.3,0.1l0.9-0.4v-1.2l-0.2-2.3
			l-0.3-1.9l-0.9-3.7l-1.9-0.8v-0.7h0.5l0.2-0.6l-0.7-1.1l3.9,1.3l-0.3-2.2l2.9-0.2l1,0.1l2.7,0.9l4.1,1l0.3,0.9l1,1.9l1.5,0.7
			l0.5-0.4l1,0.5l-0.1,0.9l-0.6-0.2l0.3,0.8l2.8,0.4l1-1l1-0.5l2.5,0.9l0.6,1.6l0.6,1.1l0.8,0.6l2.1,0.9l1-0.8l1,0.5L409.5,436.6z"
			/>
		<path class="st1" d="M327.5,398.5l0.4,0.4l0.3-0.4l0.9,0.2l0.6-0.3l0.4,0.4l-0.2,0.5l0.7,0.5l0.5-0.5l0.4,0.5l2.8-1.2l0.8,2l1-0.7
			l0.5,0.1l1.2-1.2h1.6l1.1,0.3l2.2,2.4l0.5-0.2l0.3,0.8l1.3-1.4l0.1-1l1.1-2.7l1.8-1l0.8-1.3l-0.5-0.7v-0.7l0.7-0.9l0.8,1.3
			l0.8,0.1l2.4,0.6l0.2-0.6l0.7-0.1v0.5h2.3l2.8,0.6l0.7,0.1l0.4,0.5l4.6,1.8l1,4.7l1,1.5l-1.6,2.8l0.1,5.5l0.4,0.7l-0.1,1.3
			l-0.5,0.8l-0.5,1.5h-0.5l-0.8,1.6l-0.7,0.4l0.3,0.4l1.9,2l0.5,0.1l0.1,0.8l-1.2-0.5l-1,0.5l-0.3,1l-0.5,0.7l0.2,0.7l0.4,0.1l0.7,1
			l0.6,0.5l0.7,1.3l1.7,1l-0.2,0.7l0.5,0.5l-0.2,0.6l2.8,2.7l1.6,0.6l0.6-0.1l0.9,0.4l1.2,0.8l0.1-0.6l3.2-5.7l0.7,1.1l-0.2,0.6
			h-0.5v0.7l1.9,0.8l0.9,3.7l0.3,1.9l0.2,2.3v1.2l-0.9,0.4l-1.3-0.1l-0.1,0.2l-1.6,0.5h-0.8l-0.6-0.6l-0.8,0.4l-1.1-1.5l-0.2,0.6
			l-1.2-0.6l-0.3,0.5l-1-0.6l-1,1.2l-1.2-0.6l-1,0.3l-0.5-0.6l-0.5,0.4l-1.8,0.1l-0.6-0.1l-0.4,1.7l-0.7,0.4l-0.4,0.6h-1.1l0.2,1.7
			l-1.3,1.7l-0.4-0.7l-0.6,0.4l-2,1.7l-1.1,0.6l0.6,0.8h0.3l-0.2,1.1l-0.4,0.6l0.7,1.3l-0.8,1l0.4,1l-0.2,0.4l1.2,0.1l-0.5,1.2
			l-0.7-0.5l-0.5,0.2l-0.2,0.9l-1.8,1.2l-1.2,1l-0.8,2.1l-0.3,3.3l-0.8,1v2.8l0.1,0.5l0.3,0.6l0.8,0.8l-0.1,1.4l0.5,0.8l-1.9,0.2
			l-0.6-0.4l-0.7,1.2l-0.5,1.3l0.5,1l-1.1,1.1l0.4,1.2l-0.9,1.2l-0.4-0.2l-2.1,0.9l-0.2,0.6l-0.8-0.8l-0.7-0.4l-0.2-0.9h-0.9v-1.5
			l-0.3-0.5l-0.8,0.2l-0.8-0.3l-0.3-1.4l-1.4-0.1l-0.1,0.8l-1.7,1.9l-0.5,0.1L336,475l-1.1-1.3l0.3-0.6l2.9-0.9l-0.4-0.2l0.2-1
			l-0.5-0.5l-0.5,0.3l-0.5-0.6v-0.9l-0.4-0.6l0.2-0.6l-0.3-0.5l-1.1,0.3l-1.5,0.1H331l-0.4,0.2l-0.5-1.5l-0.1-1l-0.6-0.2l-0.4-0.6
			l-1.5-0.2l-0.9,0.5l-0.7-0.2l-0.8-0.6l0.3-1.1l-0.2-1.4l-0.7-0.2l-0.5-1.5l-0.3-0.2l0.5-0.9l-0.7-0.5l0.3-0.6l-0.6-0.5l-0.1-1
			l-0.8-1.1l-1.3,0.4l-0.1,0.7l-0.3-0.7l-0.3-1.8l0.4-1.1l-1-1.9l0.1-1.3l1.5,0.6l0.2-0.5l-0.7-0.8l-0.8-0.1l0.6-0.7l-0.1-0.3
			l-1.8-1.5l0.2-1.1l-0.2-0.9L318,443h-0.5l-0.1-0.9l-1.4-1.3l-2-0.7l-1,0.3l-0.6,1.1l-1.9,0.5l-0.8-0.2l-1.2-1.8l-0.3-0.7l0.6-0.4
			v-0.7l-1.1-0.6l-0.9-1.8l-0.4-1.3l-2.8-3.1l-1.1,0.1l-0.3-0.7l0.3-0.2l-1.6-1.3l-0.9-1.9l-1.1-0.4l0.1-2.6l-0.4-0.7l0.5-0.3
			l-0.7-0.4l-0.9-1.3l0.6,0.1l-0.7-1.8l1-0.6l0.1-1.1l-0.5-0.2l0.1-0.9l0.7,0.2l2.8-1.5l-0.4-0.6l1.7,0.4l0.4,1.4l2.3-0.3l1.3,0.3
			l0.7-0.4l0.4-0.9l1.2-0.8l1.3-1.3l-1.6,1l-0.1-4.3l0.2-0.8l1.6-0.4l0.2-0.6l-0.5-1.1l0.2-1l0.8-0.5l-0.3-1.3l2.1-2.8l0.4,0.3
			l0.2-0.6l-0.5,0.1l0.1-0.6l0.6-0.2l0.4-1.2l-0.2-0.8l-0.5-0.5l0.7-0.3l0.4-2.2l0.5-0.7l1-0.4l-0.8-0.3v-0.9l0.9-0.1l0.4,0.4
			l0.9-1.7l1.9,1.6l0.8,0.4l0.5-0.1l1.6,1.7l-0.3-0.7l0.8-0.3l1.2,1.9l1.3,0.1l-0.3-1.3l1.2,2.7l0.9,0.1L327.5,398.5z"/>
		<path class="st1" d="M365.7,349.6l-0.9,1.7l-0.8,1l-0.1,0.6l-1.8,3.5l-0.7,1.1l-0.7-0.6l-0.9,2.1l0.1,0.4l-1.5,3.1l-0.7,1.1
			l-1.7,3.7l-1,2.8l0.9,0.3l-0.3,0.9l-0.9-0.3l-0.3,1.8l1,0.2l-0.6,0.6l0.9,1.2l-0.3,1.6l0.2,1.1l0.2-0.1l0.3,1.1l-0.4,4.7l0.8,0.3
			l0.2,1.1l0.4,0.6v1.7l0.3,0.7l0.5,0.2l0.2,1.2l-0.6,0.3l-0.1,0.5l-1.2,0.9v0.8l1.3,1.2l0.4,0.1l1,2l-2.8-0.6h-2.3v-0.5l-0.7,0.1
			l-0.2,0.6l-2.4-0.6l-0.8-0.1l-0.8-1.3l-0.7,0.9v0.7l0.5,0.7l-0.8,1.3l-1.8,1l-1.1,2.7l-0.1,1l-1.3,1.4l-0.3-0.8l-0.5,0.2l-2.2-2.4
			l-1.1-0.3h-1.6l-1.2,1.2l-0.5-0.1l-1,0.7l-0.8-2l-2.8,1.2l-0.4-0.5l-0.5,0.5l-0.7-0.5l0.2-0.5l-0.4-0.4l-0.6,0.3l-0.9-0.2
			l-0.3,0.4l-0.4-0.4v-0.3l-0.9-0.1l-1.2-2.7l0.3,1.3l-1.3-0.1l-1.2-1.9l-0.8,0.3l0.3,0.7l-1.6-1.7l-0.5,0.1l-0.8-0.4l-1.9-1.6
			l-0.9,1.7l-0.4-0.4l-0.9,0.1v0.9l0.8,0.3l-1,0.4l-0.5,0.7l-0.4,2.2l-0.7,0.3l0.5,0.5l0.2,0.8l-0.4,1.2l-0.6,0.2l-0.1,0.6l0.5-0.1
			l-0.2,0.6l-0.4-0.3l-2.1,2.8l0.3,1.3l-0.8,0.5l-0.2,1l0.5,1.1l-0.2,0.6l-1.6,0.4l-0.2,0.8l0.1,4.3l1.6-1l-1.3,1.3l-1.2,0.8
			l-0.4,0.9l-0.7,0.4l-1.3-0.3l-2.3,0.3l-0.4-1.4l-1.7-0.4l0.5-0.1v-0.6l-0.4-0.3l-0.3,0.5l-0.9-0.5l0.1-0.7l-2.4-1.8l-0.9-0.5
			l0.1-0.3l-0.9-0.6l0.3-1.5l-0.5-0.9v-0.5l-0.7-0.6l-1.2-0.6l-0.8,0.1l-1,0.6l-0.6-1.1l-3.1-0.2l-0.3,0.7h-0.5l-0.1-0.6l-1.1-0.5
			v-0.6l-2.7-4.2l0.7-0.6l0.1-1.1l-1.6-2l-0.5-0.2l1.2-0.9l0.2-1.5l-0.6-0.2l0.2-0.6l-1.2-1.4l-0.9,0.1v-0.8l-0.6,0.5l-0.9-0.5
			l-0.1-1l0.9-0.9l-0.2-0.6l-1-0.2l-0.5,0.5l-0.4-0.5l-0.5,0.6l-0.3-0.4l-1,0.2l-1.3-0.5l-0.3,1l-1.2-0.5l0.2-0.7l-0.7,0.2l0.1-0.8
			l-0.2-1.5l-0.6-0.5l-0.4-1.2l1.3-1.5l-0.7-1.3l-0.1-0.9l-0.5-0.7l0.1-1.6l-1-0.4l-0.7-1.4l-0.2-1.4l-1.2-0.8h-1.1l-0.4-0.8
			l0.9-1.1l-0.8-0.3l-0.2-1.7l-1.1-0.8l-0.7-0.8l-0.6-2.2l0.1-1.4l-0.2-1.5l0.9-0.1l0.4,0.4l0.2-0.4l0.4,0.3l3.7-0.2l1.1-0.6
			l0.8,0.2l0.1-0.9l0.6-0.2l0.9,0.6l0.5-0.3V362l0.6-0.2l-1.2-1.4l0.3-0.7l-0.3-0.2l-0.1-1l-0.9-1.5l-0.1-2.1l-1-0.5l-0.8-2.2
			l-0.3-0.2l0.1-1l-0.6-3.2l0.5-0.6l-0.5-0.9l-0.3,0.2l0.3-2.1h0.8l0.2-0.8l-0.8-3.2l1.3-0.5l-0.3-1.1l0.4-0.3l-0.3-1.8l0.6-0.2
			l-0.7-1.1h1.2l0.9-0.4v-1.2l-1.5-0.2l-0.1-0.5l0.5-0.3l-0.2-1.7l0.2-2l-0.2-5.4l1.2,0.6l0.1-0.3l-0.7-1.1l-0.7-0.1v-0.7l-0.5-0.9
			l0.6-0.4l0.2-0.6h-0.9l-0.4-1.8l-0.9-0.5l-1.8-0.4l-0.8-0.4l0.1-1.3l-0.9-1l-0.5,0.1l0.2-0.7l0.1-1.8l-0.2-0.9l2.4,0.1v-2.1h2.1
			v-0.6h-1.2l0.3-0.4l-0.6-0.4l-0.1-0.6l-1.3-0.7l0.7-1.2h-0.8l-0.2-0.5l-0.7,0.3l0.4-0.7h1.1l1.1-1.9h9.6v-9.2h5.5h11.1h12.7
			l0.7,0.7l0.6-0.3l1.2,0.7l1.4,2.3l0.4,1.2l0.5,0.3l0.5,1.3l1.5,1.2l1,0.6l1.3,0.1l0.8,0.6l0.4,1.1l1.1,0.5l1.3,1.8l0.4,0.7
			l0.6,0.1l0.6,0.6l1.1,0.4l0.8,0.7l0.8,1.9l2.4,1.8l0.4,0.8l1.3,0.9l0.5-0.3l0.6,0.6l0.7-0.2l1,1.1l0.7,0.1l1.1,1.4l0.8-0.1
			l0.6,1.6l0.8,0.1l0.9,1.8l0.1,1.5l0.4,0.5l-0.2,0.5l0.8,0.5L339,323l1.1,1.6l0.5,0.3l0.8,1.6l-0.2,0.9l0.1,1.2l-0.3,0.5l0.6,1.9
			l-0.2,0.6l0.8,1.2l0.2,0.8l0.5,0.4l0.7,1.4l0.1,1.2l1.3,1.4l1.2,0.8l0.2,0.6l0.8,0.5l1.3,0.1l1,0.7l-0.2,0.5l1,1.3l1,0.4l1.2,1.1
			l1.1,0.5l3.3,0.6v0.8l0.7,0.1l0.4,0.8l2.9,0.5l2.1,2.3l1.3,0.5l0.2-0.6L365.7,349.6z"/>
		<path class="st1" d="M166.4,552.9h0.7l-0.1,0.4l-1,0.2l-0.1-0.5L166.4,552.9z M231.7,543.8l1.2,1.1v1.2l-0.5,0.3l-0.4-0.5
			l-0.8-0.2l-0.5-1l0.6-0.3L231.7,543.8z M362.6,541.7l-1.2,1.1l-0.2,0.6l-0.8-0.4l-0.4,0.5l0.4,0.5l-0.1,0.7l-1.4,0.8l-0.7,1.3
			l-1.7-1.6l-2-1.3l-0.6-0.6l-2.4-1.3l-1.8-0.8l-2-0.7l0.5-0.6l-0.1-0.5l-0.8-0.5l-0.6-0.1l-0.2,0.5l-0.4-0.3l-0.5,0.4l-0.2-0.5
			l-0.7-0.3l-3.5-1l0.3-0.2l1.5,0.7l-0.2-0.5h0.4l0.4-1l0.6-0.4l0.6,0.5l0.9-0.8l0.7-0.2v0.4l1-0.4l0.5,0.2l1.2-0.6l1,0.2l1.2-0.3
			l-0.2-0.6l0.7-0.7l0.3-0.8l-0.3-0.1l0.3-0.7l0.2-0.3l1.7,0.8l1.1,0.4l0.2-0.5l1.2,1l1.8-0.8l0.4-0.7l1.3-0.4v0.7l0.8,1.3l0.5,0.3
			l0.4,0.7l0.5,0.3l-0.4,0.8l-0.1,1.5l0.3,0.6l-0.5,1.2v0.9l0.6,0.7v0.9H362.6z"/>
		<path class="st1" d="M314.8,497.1l-0.4,0.8l-0.5-0.4L314.8,497.1z M311.2,494.7l1,0.2l0.3,0.4l-0.5,0.8l-1.9-0.9l0.6-0.5H311.2z
			 M307.3,490.9l1.4,0.2l0.7,0.5v0.4l0.5,0.6l-0.5,1l-0.2-0.3l-1.5-0.7l-0.4-1V490.9z M307,489.4l0.2,0.7l-0.5-0.2L307,489.4z
			 M347.6,477.4v0.4l1,0.4v0.4l-0.1,1.3l-0.6,0.6l-0.6,2.5l0.1,1.1l-0.1,1.5l1.5-0.5l0.6,0.6l0.9-0.3l0.3,0.3l-0.5,1.1l0.1,1.1
			l1.2,1.1l1.4-0.1l1.2,0.4h1l-0.1,0.5l0.8,0.9l-0.7,1.1l0.4,0.4l-0.3,0.5l0.6,0.4l0.6,0.3l0.1,0.7l0.9,0.5l0.4-0.2l0.5,0.5l0.5,0.9
			l-0.8,0.3l0.4,0.7l-0.1,0.7l-0.9,0.7l-0.3,1h-0.8l-1,0.3l-1-0.4l-0.7,0.5l-0.3,0.6l-0.6,0.2l-0.6-0.3l-1.1,0.3l-0.8-0.1l-0.4,0.8
			l0.3,0.4l-0.3,1.5l-0.2,0.5l0.1,1l0.6,0.2l-0.8,0.7l-0.6,1l-0.7,0.5h-0.7l0.2,0.5l-0.4,0.5l0.8-0.3l0.5,0.5l0.3-0.2l0.7,1.7
			l-0.2,1.7l-0.4-0.3l-0.2-1.3l-1.1-0.7l-0.8-1l-0.9-0.4l-0.9-0.7l-0.7-1.3l-0.8-0.4l-0.4,0.2l-1.2-0.4v-0.3l-0.9-0.5l0.1-0.4
			l-1-0.3l-0.9,0.1l-2.3,2.1l-0.7-0.2l-0.6,0.2l-0.1-0.4l-0.7,0.2l-0.9,0.8l-0.6,1.1v1l-0.4-0.2l-0.7,0.6l-0.2,0.8l-0.6,0.6
			l-0.6-1.1l-0.9-0.6l-0.6,0.5l-2.1-0.7l0.4-0.3l0.7-1.6l0.4-0.2l0.4-0.8l0.7-0.4l0.7-1l0.1-0.5l0.8,0.2l0.5-0.5l0.2-0.8l-0.1-1.5
			l0.3-0.5l-0.3-1.9l-0.3-0.8l0.5-1.2l0.5-0.7l-0.2-0.8l-0.6-0.7l-0.5,0.3l-2.5-1.7l-0.6-0.7l-1.5-3.2l-1.3-2.1l-0.6-1.1l-0.3-1
			l0.1-2.7l-0.4-2.8l-0.5-1.8l-1.1-2.4l1,1.3h0.4v-0.8l-0.4-1l0.7-0.3l1,0.5v0.4h1l0.1,0.4l0.5-0.2l0.6,0.4l0.4-0.4v-1.2l-0.4-1.3
			L327,473l-0.4-1.4v-0.9l0.4-0.7l0.5-1.4l-0.5-1.4l0.8-0.4l0.4-0.9h0.4l-0.1-1l0.4-0.2l0.6,0.2l0.1,1l0.5,1.5l0.4-0.2h2.3l1.5-0.1
			l1.1-0.3l0.3,0.5l-0.2,0.6l0.4,0.6v0.9l0.5,0.6l0.5-0.3l0.5,0.5l-0.2,1l0.4,0.2l-2.9,0.9l-0.3,0.6l1.1,1.3l0.3,1.6l0.5-0.1
			l1.7-1.9l0.1-0.8l1.4,0.1l0.3,1.4l0.8,0.3l0.8-0.2l0.3,0.5v1.5h0.9l0.2,0.9l0.7,0.4l0.8,0.8l0.2-0.6l2.1-0.9L347.6,477.4z"/>
		<path class="st1" d="M417.3,517.2l0.1-0.2l1.5,0.6l1.4,1.2l-0.2,0.5l-0.8,0.6l0.7,0.2l-0.1,1l1.1,0.6l-0.3-0.2v0.9h0.7l-0.3,0.4
			v1.2l0.5,0.7l0.7,0.5h-1.2l-0.2,0.5l-0.1,1.8l-0.7,0.5l-0.8-0.4l-0.7,0.9l0.5,0.7l0.2,1.4l0.7,0.5l-0.2,1.4l0.2,0.1l-0.3,0.8
			l-1.4,0.3l-0.3,0.6l-0.1,1.9l-0.9,1.3l0.2,0.7l-0.5,0.2l-0.4,1.5l-0.8,0.6l-1.3,0.5l-0.2,1.3l-1.2,0.9l-0.2,0.4l-1.4,1.3v-0.5
			l-0.8-0.8l-0.5,0.2l-0.3,0.6l-0.1,1.5l0.4,0.3l-0.2,0.8l0.4,0.1l0.2,0.9l-0.2,1.3l0.4,0.8l1.9,1.1l0.9,0.8l-0.9,0.9l-0.6-0.2
			l-0.2-0.7l-0.5,0.2l-0.3-0.5l-0.7-0.2l-0.3-0.7l-0.8,0.1l-0.6-0.4l-0.8,0.8l-0.6,0.1l-0.4-0.7l-0.5-0.2l-0.1-0.6l-1.4,0.4
			l-1.7-0.2l-0.4-0.4l-1.2-0.2l-1.4,0.5l-0.1,0.3l-0.7-0.2l-0.5,0.4l-1.2,0.1l-1.4-0.7l-0.3-0.9l-0.6-0.5l-1.1,0.3l-0.2-0.4l-1,0.1
			l-1.3,0.5l-0.6,0.7l-0.1,1.1l0.5,0.6l-0.5,0.7l0.5,1v1.3l-0.6,0.2l-0.6,0.8h-0.7l-0.2,0.5h-1l-0.4,0.3l-1.5,0.2l-0.3,0.4l-0.4,1.9
			l0.2,1.3l0.6,0.4v0.5l-1,0.5l-2.1-1l-3.1-0.9l-2.1-0.5l-1.9-0.2l-1.2-0.4l-3.5-1.6l-1.3-0.4h-0.9l-1.7-0.7l-1.5-0.3l-0.8-0.4
			l-0.4,0.1l-0.9-0.6l-1.3-0.6l-0.7-1v-0.4l-0.9-1.8l-0.9-0.9l-1.4-0.9l0.4-0.5l-0.9-1.1l0.7-1.3l1.4-0.8l0.1-0.7l-0.4-0.5l0.4-0.5
			l0.8,0.4l0.2-0.6l1.2-1.1l0.1-0.3h1.9l0.8,0.1l1.9-0.9l0.3,1l0.5,0.6l0.9,0.1l1-1.7l0.6-0.1l0.1-0.4h0.6l-0.4-0.5l-0.1-1l0.7,0.2
			l0.3-1l0.8-0.1l0.5-0.5l0.7,0.1l1.6-1l1.4,0.8l0.6-0.9v-0.6l0.5-0.5l0.2-0.8l0.6-0.9l0.1-1l0.4-0.2l-0.6-0.4l-0.1-0.5l-1.4,0.7
			l-0.6-0.5l-0.5,0.3h-0.4l0.5-0.8l-0.2-1.3l-0.9-0.3l-0.4-1.5l0.3-0.3l-0.5-0.7l-0.2-0.7l0.4-0.6h0.9l0.2-1.6l-0.9-1l-1.7-0.5
			l-0.4,0.2l-0.8-0.6l-0.7,0.2l-0.4,0.4l-0.6-0.7l0.5-0.9l-0.4-0.8l0.2-0.9l0.6,0.2l1.3-0.2l-0.5-0.6l1.4,0.2l1,1l-0.1-0.6h0.6
			l0.9-0.5l0.9-0.1l-0.1-0.9l1-0.2l0.3-0.7l1,0.1l0.6-0.3l-0.2-0.3l1.7-0.9l1.2,0.2l1-0.6l1,0.4l0.8-0.4h0.6l0.1-0.4l1.3-0.1
			l1.5,0.1l-0.3,0.6l0.6-0.3l0.8,0.3l-0.3,0.7l0.4,0.2l-0.3,0.5l1.1,1.5l0.9-0.7l0.5,0.4l0.4-0.3l0.5,0.3l0.6-0.2l0.6,0.4l0.1-0.5
			l0.7-0.4l0.3-1.4h0.7l0.6-0.4l0.9,0.4l0.6-0.3l0.3,0.7l-0.2,0.4l0.7-0.1l0.4,0.5l0.7,0.2l-0.2,0.8l-1-0.1v0.7l0.6,0.6l-0.3,0.1
			l0.2,0.9l-0.1,0.7l1.9-0.1l1.6,0.2l0.7-0.3l-0.2-1.1l0.7,0.7l1-0.5h1l0.4,0.4l-0.4,0.4l0.8,0.6l-0.6,0.8l0.7,0.7l0.3-0.6h0.7
			l1.3,0.5l0.2-0.8l0.6,0.4l0.2,0.7l0.6,0.1l0.5-0.5l1-0.4l0.7,0.1l0.4-0.6h0.7l-0.6,0.5h1.1l-0.2,0.8l0.4-0.7l0.9-0.4l1.7-0.2
			l0.1-1.4l-0.6-0.3v-0.7l0.4-0.3l0.3-1.5l0.6-0.6L417.3,517.2z"/>
		<path class="st0" d="M360,500.2l0.4,0.3l0.3,0.9l0.7,0.3l0.7-0.6l0.1,0.3l0.6-0.3l0.9,0.1v0.4l0.9,1.2l0.5,0.2l0.8-0.4l0.3,0.2
			l0.4-0.6l0.8-0.2l1.4,0.8l0.9-0.4l0.3-0.5l-0.7-0.6l0.5-0.4l-0.2-0.8l0.4-1.2l0.6,0.3l0.5-0.3l0.9,0.8l0.7,0.2l0.2-0.6l1.4-1.1
			l0.4-0.6l0.4,0.2l1-1.2l0.4,0.8l0.9-0.5l-0.3-0.8l0.1-0.7l0.5-1l-0.1-0.6l-1.1-0.2V493l-1.2-0.4l-0.7-1.4l0.8-0.4l0.3-0.5l0.9-0.2
			l0.1-0.4l1-0.3l0.7,0.4h0.7l2,1.3l1.3,0.4l0.8,0.5l0.5-0.6l1.2-0.1l0.2-0.7l0.6,0.1l0.6-0.3l0.8-1.4l0.7-0.7l0.2-0.7l2.8-1.1
			l0.7,0.1V486l-0.9,0.2l-0.1-0.8l0.5-0.3v-0.7l1.9,0.3l0.7,0.8l0.9,0.6l0.1,0.6l1.4-0.2l0.1,1.2l0.4,0.8l0.5,0.2l-0.5,0.4h-0.8
			l0.1,0.8h0.4l-0.6,1.9l0.1,0.5l-1,1.5l0.9,1.2l0.3,0.9h-0.4l-1.4,0.5l0.6,0.7v1l-0.8,0.1l-1.4,0.7l-0.3,1.9l-0.8,0.4l0.3,0.6
			l-0.9,0.2l-0.6,1.2v0.6l-0.5,0.8l-1.4,1.4l-0.5,0.7l-0.5,0.1l-0.4,1.1l0.4,0.1l0.2,0.7l0.5-0.1l0.4,0.5l-0.1,0.8l0.9,0.2l0.3,1.1
			l-0.6,1.3l-0.3-0.2l-1,1.9v0.1l-0.6,1.1l-1.3,0.1l-0.1,0.4H385l-0.8,0.4l-1-0.4l-1,0.6l-1.2-0.2l-1.7,0.9l0.2,0.3l-0.6,0.3l-1-0.1
			l-0.3,0.7l-1,0.2l0.1,0.9l-0.9,0.1l-0.9,0.5h-0.6l0.1,0.6l-1-1l-1.4-0.2l0.5,0.6l-1.3,0.2l-0.6-0.2l-0.2,0.9l0.4,0.8l-0.5,0.9
			l0.6,0.7l0.4-0.4l0.7-0.2l0.8,0.6l0.4-0.2l1.7,0.5l0.9,1l-0.2,1.6h-0.9l-0.4,0.6l0.2,0.7l0.5,0.7l-0.3,0.1l0.4,1.1l0.9,0.3
			l0.2,1.3l-0.5,0.8h0.4l0.5-0.3l0.6,0.5l1.4-0.7l0.1,0.5l0.6,0.4l-0.4,0.2l-0.1,1l-0.6,0.9l-0.2,0.8l-0.5,0.5v0.6l-0.6,0.9
			l-1.4-0.8l-1.6,1l-0.7-0.1l-0.5,0.5l-0.8,0.1l-0.3,1l-0.7-0.2l0.1,1l0.4,0.5h-0.7l-0.1,0.4l-0.6,0.1l-1,1.7l-0.9-0.1l-0.5-0.6
			l-0.3-1l-1.9,0.9l-0.8-0.1h-1.9l-0.1,0.3v-1.2l-0.6-0.7V539l0.5-1.2l-0.3-0.6l0.1-1.5l0.4-0.8l-0.5-0.3l-0.4-0.7l-0.5-0.3
			l-0.8-1.3v-0.7l-1.3,0.4l-0.4,0.7l-1.8,0.8l-1.2-1l-0.2,0.5l-1.1-0.4l-1.7-0.8l-0.2,0.3l-0.3,0.7l0.3,0.1l-0.3,0.8l-0.7,0.7
			l0.2,0.6l-1.2,0.3l-1-0.2l-1.2,0.6l-0.5-0.2l-1,0.4v-0.4l-0.7,0.2l-0.9,0.8l-0.6-0.5l-0.6,0.4l-0.4,1h-0.4l0.2,0.5l-1.5-0.7
			l-0.3,0.2l0.1-0.6l-0.8-0.2l0.1-0.3h-1.4l0.4-0.9l-0.7-0.4l-0.9,0.4l-1-0.4l-1.7-1.5l0.1-0.9l-0.8-0.6l0.2-0.4l-0.4-0.3l-0.1-0.9
			l-0.4-0.4l-0.7,0.4l-0.4-0.7l-0.6-0.2l-1.1-1l-1.4-2.3l-1.1-1.4l-1.7-2.5l-0.8-1.6l0.1-1.6l-0.3-0.9l-1.7-1.6l-0.5-0.9l-0.1-0.8
			l0.7-0.4l0.7-0.8l1.5-0.4l2.8-0.2l0.8-0.2l1.2-0.8l0.4-1.1l-0.2-0.7l-0.6-0.3l0.6-0.6l0.2-0.8l0.7-0.6l0.4,0.2v-1l0.6-1.1l0.9-0.8
			l0.7-0.2l0.1,0.4l0.6-0.2l0.7,0.2l2.3-2.1l0.9-0.1l1,0.3L341,504l0.9,0.5v0.3l1.2,0.4l0.4-0.2l0.8,0.4l0.7,1.3l0.9,0.7l0.9,0.4
			l0.8,1l1.1,0.7l0.2,1.3l0.4,0.3l0.2-1.7l-0.7-1.7l-0.3,0.2l-0.5-0.5l-0.8,0.3l0.4-0.5l-0.2-0.5h0.7l0.7-0.5l0.6-1l0.8-0.7
			l-0.6-0.2l-0.1-1l0.2-0.5l0.3-1.5l-0.3-0.4l0.4-0.8l0.8,0.1l1.1-0.3l0.6,0.3l0.6-0.2l0.3-0.6l0.7-0.5l1,0.4l1-0.3h0.8l0.3-1
			l0.9-0.7l0.1-0.7l-0.4-0.7l0.8-0.3l-0.5-0.9l-0.5-0.5l-0.4,0.2l-0.9-0.5l-0.1-0.7l-0.6-0.3l-0.6-0.4l0.3-0.5l-0.4-0.4l0.7-1.1
			l-0.8-0.9l0.1-0.5h-1l-1.2-0.4l-1.4,0.1l-1.2-1.1l-0.1-1.1l0.5-1.1l-0.3-0.3l-0.9,0.3l-0.6-0.6l-1.5,0.5l0.1-1.5l-0.1-1.1l0.6-2.5
			l0.6-0.6l0.1-1.3l0.6-0.1v-0.8l0.8-0.6l0.8,0.6l-0.1-0.9l-0.5-0.3l0.1-0.9l0.5-0.2l0.9,0.3l-0.1-0.4l0.7-0.3l0.5,1.3l-0.7,2.1
			l0.8-0.4l0.6,0.2l0.2-0.9l0.8-0.4l0.5-1.1l-1.3-0.9l0.6-0.2l-0.8-1l-0.2-1.1l0.2-0.3l-1-0.5l0.8-0.9l2-0.1l1,0.4h1.3l0.4,0.2
			l-0.3,2.1l-1.4,0.7l-0.3,1l0.2,0.4l-0.4,0.5l0.3,1.1l-1,1.6l0.4,1.8l0.7,1.3l0.6-2.3l-0.3-1l0.6-0.6v-1l0.4-1l0.3-1.5l0.7-0.3
			l1.1,0.5l0.8-0.3l0.6,0.7l0.2,1.7l-0.4,0.6l-0.2,1.3l-0.5-0.1v0.9l0.7,0.3l-0.5,0.7l-0.5,1.4l-0.5,0.7l0.1,0.4l1.4,0.2l0.4-0.5
			l1.1-0.1v0.4l0.8,0.1l0.6-0.3l0.5-1.8l1.2-0.6l0.4,0.2l0.3-1.2l-0.5-0.2l-0.5,0.5l0.2-1l-0.4-0.6l1-0.4l0.3-0.4l0.9,0.4l0.2-0.3
			l0.4,0.6l0.5-0.1v0.6l-0.7,0.5l-0.2,0.8l0.6-0.3l1.6,0.1l0.8,0.9l0.1,0.5l-0.9,0.6l0.1,0.7l0.4,0.5l-0.9,0.4l-0.5,0.6l0.8,0.2
			l-0.1,0.9l-1.6,0.3l0.2,0.5h-1.3l-0.2-0.3l-1,0.9l-0.1,0.5l-1.1,0.1l-1.1,1.3v0.5l-0.6-0.4l-0.4,0.5h-0.8l0.8,0.6l0.4,0.6
			l-0.3,1.2l-0.4,0.6l0.1,1.1h-0.8v0.6l-0.9-0.3l-0.7,0.3l-0.1,0.5l0.4,0.4l-0.5,0.7l0.7,0.1l1.3,1.3l0.3-0.9l0.6-0.1l0.6,1.3
			l-0.1,0.4l-2.7,0.3l-1,0.6l0.1,0.7l0.9-0.4l0.4,0.1L360,500.2z"/>
		<path class="st0" d="M572.9,573.2l0.2,0.6l1.3,0.5l0.1,0.6l0.4-0.4l1,0.3l-0.1,1.1l0.7,0.3l0.2,0.5l0.7,0.9l0.9,0.3v0.4l1,1v0.4
			l1,0.3l0.4,0.4v-0.6h0.5l-0.3,0.5l0.7,0.1l0.3,0.7l0.6-0.1l0.5,0.5h0.9v0.4l0.7,0.2l1,0.8l0.9,1.5l0.1,0.8l0.5,0.3l-0.4,0.2v0.8
			h0.5l0.6,1l1.9,0.2l-0.1,0.6h1.1l0.4,0.6l0.1,0.9l-0.8,1.1l0.3,0.3l-0.6,0.2v1.2l0.5,0.4l-0.5,1.2l0.3,0.4h-8.9h-13.6l-8.3,14.7
			l2.6,3.5l-0.7,1.1l-0.5-0.1l-0.4,0.6v2.1l-0.6,0.7l0.4,1l-0.1,0.6l0.4,0.4v1l-0.4,0.4l-0.2,1.1l-0.8,0.8l-5.1-5l-2.8-3l-3.7-3.9
			l-4.6-4.5l-3-2.7l-3.7-3l-2.7-2l-1.5-0.9l-2.3-1.2l-1.4-0.3l-0.6-0.3l-1.2-2.2l-0.1-0.7l1.1-0.7l0.3-1.1l-0.3-1l-1.5-2.4l4.7-12.3
			l0.1-0.5l0.6-0.2l0.4-1l0.5-0.4l1.9-0.2v-0.5l1-0.5l1.7-2.4l0.5-1.9l0.5,0.1l0.1-0.7l0.5-0.1l0.6-1l0.5-0.1l0.1-0.9l-0.7-1.4
			l0.7,0.2l0.3-1.5l-0.2-0.7l0.2-0.9l0.7-0.1l0.5-0.8l0.5,0.6l0.6-0.2l1.1,0.5l0.9,0.8l-0.7,0.6l0.3,0.5l0.4-0.4h1l0.5,0.8l-0.5,0.6
			l-0.3,0.9l0.4,0.3l-0.1,1.5l0.7,0.7l0.2,0.9l0.8,0.9l0.1-0.4l0.9-0.1l1,0.5l0.2,0.9l-0.6,0.2l1.2,0.1l0.3,1l0.7,0.2l0.9-0.6
			l0.3-1.2l1.1-0.9l-0.1-0.5l0.4-0.5h0.7l0.2-0.4h1.5l1.5-0.9v-1.6l0.4-0.2l0.9,0.4l0.8-1l1-0.8l0.7,0.4l0.7-1.7l0.6,0.2l-0.2-0.5
			l1-0.4l0.5-0.5l0.8,0.4l-0.1,0.7l0.5-0.7l1.1,0.3l0.6-0.3l0.6,0.9l-0.2,0.6l0.2,0.7l-0.3,0.6l-0.6,0.1l1.6,0.6l1.1,0.6l0.6,1
			l-0.3,0.1l0.4,0.6l0.1,0.8l-0.6,1.6l2,0.8v-0.4l0.8,0.6l1.6,0.3v0.5l0.6,0.7l-0.7,0.1L572.9,573.2z"/>
		<path class="st0" d="M580.8,562.9v10.3h-7.9l0.2-0.9l0.7-0.1l-0.6-0.7V571l-1.6-0.3l-0.8-0.6v0.4l-2-0.8l0.6-1.6l-0.1-0.8
			l-0.4-0.6l0.3-0.1l-0.6-1l-1.1-0.6l-1.6-0.6l0.6-0.1l0.3-0.6l-0.2-0.7l0.2-0.6l-0.6-0.9l-0.6,0.3l-1.1-0.3l-0.5,0.7l0.1-0.7
			l-0.8-0.4l-0.5,0.5l-1,0.4l0.2,0.5l-0.6-0.2l-0.7,1.7l-0.7-0.4l-1,0.8l-0.8,1l-0.9-0.4l-0.4,0.2v1.6l-1.5,0.9h-1.5l-0.2,0.4H553
			l-0.4,0.5l0.1,0.5l-1.1,0.9l-0.3,1.2l-0.9,0.6l-0.7-0.2l-0.3-1l-1.2-0.1l0.6-0.2l-0.2-0.9l-1-0.5l-0.9,0.1l-0.1,0.4l-0.8-0.9
			l-0.2-0.9l-0.7-0.7l0.1-1.5l-0.4-0.3l0.3-0.9l0.5-0.6l-0.5-0.8h-1l-0.4,0.4l-0.3-0.5l0.7-0.6l-0.9-0.8l-1.1-0.5l-0.6,0.2l-0.5-0.6
			l-0.5,0.8l-0.7,0.1l-0.2,0.9l0.2,0.7l-0.3,1.5l-0.7-0.2l0.7,1.4l-0.1,0.9l-0.5,0.1l-0.6,1l-0.5,0.1l-0.1,0.7l-0.5-0.1l-0.5,1.9
			l-1.7,2.4l-0.6-0.1l0.1-0.4l-1-0.9l0.7-0.6l0.5-1.3v-0.9l-0.5-0.2l-1.4-1.3l-0.3-0.8l-0.4-0.4l-0.6,0.1l-1.3-0.7l0.2-0.3l-0.9-0.1
			l-0.5-0.4l-0.2-0.9l-0.4-0.6l-0.5-0.4l-0.2-0.6h-0.8l-0.1-1.6l0.4-0.5l-0.3-0.3l0.2-1l-0.5-1.3v-0.8h-0.5v-0.7l4.8-1.6l4.7-1.7
			l2.1-0.5l1.3-0.2l5.2-0.2l1.2,0.2l2.2-0.2l1.5-0.6l1.1-0.9l1.1-1.7l0.7,0.1l1.3-0.2l1.8-0.5l0.1,0.6l0.7,1.1l0.2,1.3l1.1,0.8
			l0.5-0.6l0.2,0.3h2.3l0.1,2.2l-0.1,1.3l0.5,1.1l-0.2,1l0.9,1.1l1.2-0.1l0.5,0.9l0.6,0.2l0.2,0.5h1l0.7,0.6l1.1,0.2l2.9,1.8
			l0.5-0.7l-0.2-0.6l0.2-2.8l0.7-0.9l0.7-0.1l0.3-0.4v0.7l1.4,0.9l0.9,0.4h1l1.9,1.6h1.3l0.4,0.2h2.3L580.8,562.9z"/>
		<path class="st1" d="M492.9,556.9L492.9,556.9l0.7-0.1l0.4-0.1h0.7l0.2,0.3l1.2,0.1l0.6,3.3l-0.9,1.9l-0.3,1.3l-0.6,0.7l0.5,0.3
			l0.1,0.6l0.6,0.6l0.8,0.3l0.2,0.4h-0.5l1,0.4l0.7,1.2l1-0.5l0.8,0.2l1.3-0.5l0.7-0.7l0.1,0.2l0.9-1.1l0.3,0.1l0.7-0.5h0.6l0.7-0.9
			l0.5,0.1l0.5-0.4l0.8,0.9l0.1,0.7l-1.2,0.2l-0.4,0.5l0.4,0.3l3.1,4.2l1.8,0.8l1.4,0.4l-0.3,0.8l-0.2,1.4l18.4,1l-4.7,12.3l1.5,2.4
			l0.3,1l-0.3,1.1l-1.1,0.7l0.1,0.7l1.2,2.2l0.6,0.3l-3.5-1.7l-3.2-1.1l-2.7-0.6l-2.5-0.3l-3.1-0.1l-3.6,0.6l-1.3-0.1l-0.2,0.4
			l-1.4,0.2l-0.8,0.9l-1.1,0.4l-0.7,0.8l0.2,0.5l-1,0.4l-0.1,0.4h-0.8l-1.5,0.3l-1.6,0.8l-1.8,0.3l-0.2,0.4l-1.8,0.4l-1.4,0.4
			l-1.6,0.7l-0.4,0.4l-0.8,0.1l-0.2,0.4l-1.8,1h-2.1l-1.3-0.2l-1.2,0.7h-0.9l-2.6-1.1l-2.7-0.4l-1.2-0.7l-1.5-0.4l-0.6-0.4l-0.2-0.6
			l-0.7-0.2l-1.6-0.9l-1.4-0.4l-1.5-0.1l-0.2,0.1l-1.9-0.3l-0.9-0.3l-0.6,0.1l-1.3-0.3l-0.7,0.3l-1.9-0.4l-3-2.1l-2.2-1.3l-2.4-1.2
			l-1.2-0.3l-2-0.3l-2.6-0.9l0.2-0.6l1.5-0.7l1,0.1l0.9-1.2l-0.1-0.8l-0.6-0.1l-0.1-0.9l1-0.2l0.2-0.3l0.6,0.3l0.9-0.2l0.6-0.4
			l-0.4-1.5v-0.9l0.6,0.1l1.1-0.2l0.5-0.7l0.6-2l-0.7-1.6l0.9-1.2l0.5,0.1l0.4-0.4l-1.3-0.5l-1.3-0.8l-1.2-0.2l0.1-1.2l0.2-0.5
			l-0.7-0.6l-1.1,0.1l-0.4-0.5l0.3-0.9h0.3l-0.3-1.2l-0.5-1.1l0.4-0.4l-0.3-1l-0.8-1.3L451,567l-0.8-0.5l-0.2-0.9h-0.3l-0.1-1.7
			l1.2-1.2v-0.5l0.7-0.3h0.8l0.6-0.2l0.3-0.8l0.6,1l1.2-0.3l0.3-1.2l0.8-0.4h1.8l1.3,0.2v0.9h2.1l0.1-0.6l0.7-0.4l0.2-0.6h1v-0.4
			l-1.3-0.9l-0.5,0.6l0.1,0.6L461,560l-0.3-0.4l0.1-1l0.4-0.3l-0.7-0.3l-0.3-1.1l0.4-0.5l-0.3-0.3l1.1-1.7l1.3,0.1l1.2-0.3l0.2,0.2
			l0.1,1.6l-0.3,0.3l0.8,0.4v0.4l0.7,0.5l0.4,1.3l1.3,0.1l1-1.4l0.6,0.1l0.8-0.9l1.9-0.6h0.7l0.3-0.5l0.6,0.8l0.5,0.2l1.1-0.2v-0.3
			l1.1-1.1l0.8,0.2l0.8-0.4h0.7l0.5-1l-0.1-0.4l0.7-0.3l0.5-1h0.4l-0.1,0.4h0.9v-0.7l-0.4-0.2l0.4-1V550l-0.7-0.3l0.5-0.4v-0.5
			l0.5-0.8l-0.1-0.8l2.1,1.5h0.9l0.9,0.4l0.6,1.1l0.3,1.2l1,0.8l0.5,0.6l0.1,0.7l0.7,1l-0.3,0.2l1.2,1.8l0.5-0.1l0.1,0.5h1l0.7-0.4
			l0.3,0.6L492.9,556.9z"/>
		<path class="st0" d="M427.3,494.7v2.3l-0.3,0.3l0.6,1.2l0.4-0.4l1.2,0.2l-0.5,0.6l0.2,0.8l-0.9-0.2l-1.6,1.5l-1-0.2l-1.7-0.9
			l-0.7,2.7l0.3,0.5l-0.3,0.6l-0.7-0.3l-0.3,1.5l0.3,0.3l-0.9,0.3l-0.3-0.3H420l-1.1-0.6v0.8l-1.2,0.7l-1.4,0.1l-0.7-0.2v-0.4
			l-0.9,1l0.1,0.3l-1,0.4l-0.1,1l0.3,0.7l-0.8,0.4l0.2,0.8l0.3,0.1l0.2,0.7l0.9,0.3l0.2,1.2h-0.3v0.7l0.3,0.8l0.2,1.6l1.2,0.3
			l0.3,1.1l0.7,0.5l0.5,0.7l-0.6,0.6l-0.3,1.5l-0.4,0.3v0.7l0.6,0.3l-0.1,1.4l-1.7,0.2l-0.9,0.4l-0.4,0.7l0.2-0.8h-1.1l0.6-0.5h-0.7
			l-0.4,0.6l-0.7-0.1l-1,0.4l-0.5,0.5l-0.6-0.1l-0.2-0.7l-0.6-0.4l-0.2,0.8l-1.3-0.5h-0.7l-0.3,0.6l-0.7-0.7l0.6-0.8l-0.8-0.6
			l0.4-0.4l-0.4-0.4h-1l-1,0.5L403,521l0.2,1.1l-0.7,0.3l-1.6-0.2l-1.9,0.1l0.1-0.7l-0.2-0.9l0.3-0.1l-0.6-0.6v-0.7l1,0.1l0.2-0.8
			l-0.7-0.2l-0.4-0.5L398,518l0.2-0.4l-0.3-0.7l-0.6,0.3l-0.9-0.4l-0.6,0.4h-0.7l-0.3,1.4l-0.7,0.4l-0.1,0.5l-0.6-0.4l-0.6,0.2
			l-0.5-0.3l-0.4,0.3l-0.5-0.4l-0.9,0.7l-1.1-1.5l0.3-0.5l-0.4-0.2l0.3-0.7l-0.8-0.3l-0.6,0.3l0.3-0.6L387,516l0.6-1.1v-0.1l1-1.9
			l0.3,0.2l0.6-1.3l-0.3-1.1l-0.9-0.2l0.1-0.8l-0.4-0.5l-0.5,0.1l-0.2-0.7l-0.4-0.1l0.4-1.1l0.5-0.1l0.5-0.7l1.4-1.4l0.5-0.8v-0.6
			l0.6-1.2l0.9-0.2l-0.3-0.6l0.8-0.4l0.3-1.9l1.4-0.7l0.8-0.1v-1l-0.6-0.7l1.4-0.5h0.4l-0.3-0.9l-0.9-1.2l1-1.5l-0.1-0.5l0.6-1.9
			h-0.4l-0.1-0.8h0.8l0.5-0.4l0.2-0.2l0.4-0.3h0.9l1-0.3l0.8,0.1l0.5,0.4l0.5-0.2l1.7,1.2l1.8-0.2l1.4,0.2l1.2,0.7l-0.2,0.3l1.5,0.7
			l-0.4,0.9l2.2,0.8l0.2,0.5l0.6,0.1l0.4,0.4l0.4-0.3l0.4,0.7l1.4-0.7h1.2l0.1-0.2l-0.5-0.7l0.5-0.6l0.1-0.7l1.8-0.5l1.4,0.1l1.8,1
			l1.6,1.4l0.2,0.6l1.8-0.1l-0.1,0.4l0.4,0.8l0.7,0.2l0.7-0.5l0.9,0.2L427.3,494.7z"/>
		<path class="st1" d="M391,484.6v0.7l-0.5,0.3l0.1,0.8l0.9-0.2v0.6l-0.7-0.1l-2.8,1.1l-0.2,0.7l-0.7,0.7l-0.8,1.4l-0.6,0.3
			l-0.6-0.1l-0.2,0.7l-1.2,0.1l-0.5,0.6l-0.8-0.5l-1.3-0.4l-2-1.3h-0.7l-0.7-0.4l-1,0.3l-0.1,0.4l-0.9,0.2l-1.9-1.5l0.1-0.6
			l-0.5-0.4l1.2-2.7l0.8-0.9l0.1-0.5l1.1-0.7l0.9-2.3l-0.5-0.3v-0.9h2.5l0.9-0.3l0.1-0.8l1.4-0.2l1.2-0.5l0.2-1.3l1,1.6l1.3,0.2
			l0.5,0.3l-0.1,1.1l0.8,0.1l0.5-0.4l0.7,0.1l0.3,1.1l0.4,0.1v1.2l-0.4,0.7l1,0.3l1.8,1.3L391,484.6z"/>
		<path class="st1" d="M440,498.6l-0.3,0.8l0.4,0.4v1l-2.1,0.5l-0.7,0.6l-0.6,0.1l-1.1-0.9l-0.7,0.9H434l0.6,1l-0.4,0.6l-0.1,1.2
			l-0.4,0.5l-0.7,1.4l-0.5,0.2l-0.1,0.8l-1,1.1l0.3,0.6l0.5,0.9l-1.2,0.4l-0.9,0.8l-0.2-0.2l-1.1,0.6h-0.5l-1.8,0.6l-0.5,5.1
			l-0.9-0.3l-0.4,0.7l0.3,0.6h-0.6l-0.1-0.7l-0.5-0.1l0.4,1l0.6,0.5l-0.2,1l0.3,1l-0.9,0.1v-0.3l-2,0.9l-0.8-0.4l-1.1-0.6l0.1-1
			l-0.7-0.2l0.8-0.6l0.2-0.5l-1.4-1.2l-1.5-0.6l-0.1,0.2l-0.7-0.5l-0.3-1.1l-1.2-0.3l-0.2-1.6l-0.3-0.8v-0.7h0.3l-0.2-1.2l-0.9-0.3
			l-0.2-0.7l-0.3-0.1l-0.2-0.8l0.8-0.4l-0.3-0.7l0.1-1l1-0.4l-0.1-0.3l0.9-1v0.4l0.7,0.2l1.4-0.1l1.2-0.7v-0.8l1.1,0.6h1.1l0.3,0.3
			l0.9-0.3l-0.3-0.3l0.3-1.5l0.7,0.3l0.3-0.6l-0.3-0.5l0.7-2.7l1.7,0.9l1,0.2l1.6-1.5l0.9,0.2l-0.2-0.8l0.5-0.6l-1.2-0.2l-0.4,0.4
			l-0.6-1.2l0.3-0.3v-2.3l0.5-0.5v-1l1.5,0.2l0.6,1.1l1.3,1.1l-0.1,0.3l1.1,0.1l0.3-0.5h0.6l0.3,0.4l0.8-1.5l-0.1-0.8l1.2,0.3
			l0.5-0.7l-0.1-0.8l0.9-0.5l0.1-0.6l0.5-0.1l0.3,0.8l0.7,0.6l-0.2,1.2l0.3,1.4l0.5,1l0.1,0.8h-0.6l-0.1,0.6l0.6,0.5L440,498.6z"/>
		<path class="st1" d="M421.6,461.9l-0.2,0.6v1.4l0.8,0.1v0.5l0.8,0.7l-0.8,0.5l-0.1,0.7l-0.4-0.2l0.2,0.7l-0.4-0.1v1.1h1.2l0.3,1.8
			l-1.3,1.2l1.4,0.7l1.1-0.5l1.3,0.1l0.7,0.3l-0.1,1l0.7,0.4l0.4-0.2l1,0.2l0.7-0.4l2.1,0.8l0.4,0.5l0.7-0.2l-0.9-2.3l1.2,0.1
			l0.6,1.5l1-0.1l0.2,0.8l0.8-0.1l1,2.3l0.6,1.9l2,0.1l1-0.2l2.2,0.4l0.7,0.7l0.3-0.2l0.9,0.2l1.2-0.2l0.1-0.2l1.3-0.5l-0.2,0.6h1.7
			l0.1,0.5l0.8,0.2l1,0.8l0.5-0.2l0.7,0.9h0.6l-0.1,0.4l0.8-0.1l-0.3,0.4l0.1,0.7l-1.7,1.1v1.4l-1.1,1.8l-0.5-0.3l-0.9,0.2l0.4,0.7
			l0.7-0.3l0.2,0.4l-0.8-0.1l-0.1,1.4l0.5,0.6l0.4-0.2l0.7,1.4l-1,0.7l-0.3,0.5l-0.6-0.4l0.1,0.6l-1.3,0.6l0.1,1.2l0.4,1l1.2,0.7
			l0.3,0.8l-0.1,0.6l0.2,0.5l0.1,0.2l-0.2,0.5l-0.4-0.4l-1,0.4l-0.8-0.1l-0.7,0.5l1,0.6l0.5,0.4l-0.2,1.7l-0.6,0.4l-0.7-0.3
			l-0.2,0.7l-0.3-0.4l-0.5-0.1l-1.4,0.5l-0.5-0.3l-0.6-0.3l-0.6-0.6l-0.5-1.6l-1.9,0.5l-0.9-0.3l-0.6-0.5l0.1-0.6h0.6l-0.1-0.8
			l-0.5-1l-0.3-1.4l0.2-1.2l-0.7-0.6l-0.3-0.8l-0.5,0.1l-0.1,0.6l-0.9,0.5l0.1,0.8l-0.5,0.7l-1.2-0.3l0.1,0.8l-0.8,1.5l-0.3-0.4
			h-0.6l-0.3,0.5l-1.1-0.1l0.1-0.3l-1.3-1.1l-0.6-1.1l-1.5-0.2v1l-0.5,0.5l-0.7,0.6l-0.9-0.2l-0.7,0.5l-0.7-0.2l-0.4-0.8l0.1-0.4
			l-1.8,0.1l-0.2-0.6l-1.6-1.4l-1.8-1l-1.4-0.1l-1.8,0.5l-0.1,0.7l-0.5,0.6l0.5,0.7l-0.1,0.2h-1.2l-1.4,0.7l-0.4-0.7l-0.4,0.3
			l-0.4-0.4l-0.6-0.1l-0.2-0.5l-2.2-0.8l0.4-0.9l-1.5-0.7l0.2-0.3l-1.2-0.7l-1.4-0.2l-1.8,0.2l-1.7-1.2l-0.5,0.2l-0.5-0.4l-0.8-0.1
			l-1,0.3h-0.9l-0.4,0.3l0.2-1.1l1.3-0.8l-0.3-0.4l1-1.1l0.8-0.1l-0.5-0.9l0.1-0.8l0.4-0.9l-0.4-0.8l0.5-0.6l-1.1-1h-0.5l0.4-0.6
			l-0.5-0.3l-0.2-0.9l0.9,0.1l0.1-1.9l1.1,0.1l0.5-1l-0.1-1.4l-0.8-1.4l-0.7-0.3l0.5-0.7l-1.1-0.7l-1.4,0.1l-0.1,0.8l-1.2,0.8
			l-0.1,0.8l-1.4,1.9l-0.7-0.1l-0.9,0.2l0.2,0.5l-0.6-0.1l-0.2,0.4l-0.9-0.7l0.3-1l-0.9-0.2l0.3-1.8l-1.5,0.2l-3.2-2.6l-1.2-1.6
			l-0.8-3.5h-0.4l0.8-1.6l-0.5-0.7v-0.8l-0.9-0.4l0.1-0.8l0.5-0.1l-0.7-0.7l0.7-0.8l0.3-1.6h0.8v0.9h0.4v0.7l0.8,0.1l1.9-0.4
			l4.1-1.4l5.9-5.1l1.9-1.8l2.4-2l-0.4-4.6l0.8-0.1l1.9-0.8l0.9-3.5l0.1,1.1l1.1,1l1.7-1.2l1.9-2.2l0.5-0.6l1.9,1.7l0.1,1l-0.6,2.4
			h0.8l-0.1,0.9l-0.3,0.1l1.7,0.7l-0.4,0.4l0.3,0.9l-0.3,0.9l-0.4,2l0.4,0.6l-0.2,0.9l0.9,0.8l0.1,1.1l0.8,1.2l-0.6,0.8l-0.3,1.2
			h0.4l0.2,1l-0.6-0.3l-0.4,2l1.1,1l-0.5,2.9l0.1,0.4l2.6,0.6l0.1-0.6l-0.7,0.1l-0.2-1.5l1.2,0.1l0.5-0.9l1,0.2l-0.1,0.9
			L421.6,461.9z"/>
		<path class="st1" d="M458.5,529.4L458.5,529.4l0.5,0.1l0.4,0.7l0.5-0.1l0.8,0.7l-0.4,0.9l0.8,0.7l0.9-0.5v0.5l0.7,0.3l0.3,0.5h0.1
			l0.5,0.7l0.5,0.2l0.9,0.9l-0.3,0.5l-0.8,0.4l-0.9-0.4l-0.5,0.4l-0.5-0.3l-1.1,0.3l-0.2,0.3l0.3,0.9l-0.7,0.4l-0.6,0.7l-1.2-0.6
			l-0.6-0.6l-0.2,0.4l-1.3,1.4l-0.8,0.6l-0.4-0.6l-1.4-0.4l-1.7-1.2l-0.2-0.7l-0.5-0.5v-0.4l-0.6-0.2l-0.5-0.7l-0.9-1.9l-0.8-0.1
			l-0.4,0.3l-1.1-0.3l-1-1.6l0.7-0.8l0.1-0.1l0.9,0.1l0.6-0.7l0.5,0.4l0.3-0.3l0.3,0.6l1.9-0.3l0.5,0.2l1-1.4l-0.1-0.7h1.1v0.1h0.2
			l0.3,0.8l1.4,0.1l0.8-0.4l0.3,0.3l0.7-1.1l0.4,0.8l-0.1,0.8L458.5,529.4z"/>
		<path class="st0" d="M463.2,508.1L463.2,508.1L463.2,508.1l-0.1,0.7l-0.4,0.2v0.6v1.1l0.6,0.1v0.5l0.5,0.7l0.5,0.5l0.1-0.4
			l1.1,0.2l0.9,1.2h-0.6l-0.4,0.6l-0.6,0.2l-0.2,0.8l-0.5-0.1l-0.6-0.8h-0.3l-0.6,1.4l0.4,0.6l0.8,0.6l0.3-0.6v0.9l-1.3,0.4l0.4,0.7
			l-0.1,0.9l1.1,0.5l0.9-0.3l0.5,0.3v0.9l0.7,0.6l1.1-0.9l-0.1-0.4l0.7-0.5v-0.8l0.3-0.4l0.7,0.3l0.4-0.3l0.2,0.6l2.2,0.7l1.4,0.6
			l0.2-0.2l0.5,0.4l-0.6,0.5l-0.9,1.2l0.1,0.5l-0.9,0.7l0.1,0.8l-0.7,0.7l-0.4,1.4l-0.1,1.5l-0.2,0.4l0.5,0.8l-0.4-0.1l-1.3,1.2
			l-0.2-0.2l-0.3,0.7l0.1,0.9l0.4,0.8l1,0.2l-0.2,1l-0.6,0.1l0.5,1l0.4-0.3l1.4,0.2l0.8,0.4l0.2,0.9l0.6-0.4l1.2,0.5l0.9-0.3
			l0.5,0.5l0.5,0.2l-0.3,0.8l-1,0.7l0.4,1l-0.2,0.3l-0.6-0.5h-2.3l0.1,0.3l-1,0.8l-0.1,1.3l-0.3,0.6l0.4,0.3l0.3,1.6l-0.9,0.5
			l-0.4,0.9l-0.6,0.5l0.4,0.5l-0.3,0.8l0.5,1l0.4-0.2l0.5,0.8l0.6-0.3l1.7,0.9l-0.1,0.5l1.2,1.9l0.5-0.6l1.6-1l0.5,0.3l0.5-0.2
			l0.6,0.6l0.7,0.3l0.5-0.2l0.3,1.5l0.9,0.6h-0.4l-0.5,1l-0.7,0.3l0.1,0.4l-0.5,1h-0.7l-0.8,0.4l-0.8-0.2l-1.1,1.1v0.3l-1.1,0.2
			l-0.5-0.2l-0.6-0.8l-0.3,0.5h-0.7l-1.9,0.6l-0.8,0.9l-0.6-0.1l-1,1.4l-1.3-0.1l-0.4-1.3l-0.7-0.5v-0.4l-0.8-0.4l0.3-0.3l-0.1-1.6
			l-0.2-0.2l-1.2,0.3l-1.3-0.1l-1.1,1.7l0.3,0.3L461,557l0.3,1.1l0.7,0.3l-0.4,0.3l-0.1,1l0.3,0.4l0.6-0.6l-0.1-0.6l0.5-0.6l1.3,0.9
			v0.4h-1l-0.2,0.6l-1.2,0.2l-0.1,0.6h-2.1v-0.9l-1.3-0.2h-1.8l-0.8,0.4l-0.3,1.2l-1.2,0.3l-0.6-1l-0.3,0.8l-0.6,0.2h-0.8l-0.7,0.3
			l-0.3-1l0.3-0.3l-0.2-0.8l-1.6-0.2l-0.1,0.3h-1l-1.1,0.8l-0.7-0.5l-2.2-0.9l1.3-0.6l-1.3-0.5l-1,0.1l0.3-1.1l-0.5-0.9l-1.3-0.4
			h-0.8l0.2-1.1h-0.6l-0.1-0.4L440,555l0.1-0.7l-0.2-0.8l1.4-1.6l1.2-0.2l0.1-0.6l1.1-0.3l0.1-0.5l0.5-0.1l1.4,1.3l0.4-0.1v-1
			l-0.1-2.3l-0.5-1.5l0.4-0.7l-0.7-0.1l0.4-1l0.7-1.1l0,0l0.5-0.7l-0.8-0.1l0.5-0.4l0.5-1.4l0.3-0.3l0.2-0.4l-0.3-0.8l0.2-0.9
			l-0.4-1.1l0.1-1l0.3-0.4l-0.6-1.2l0.3-0.5l-0.3-1.5h0.4l-0.3-0.6l1.1,0.3l0.4-0.3l0.8,0.1l0.9,1.9l0.5,0.7l0.6,0.2v0.4l0.5,0.5
			l0.2,0.7l1.7,1.2l1.4,0.4l0.4,0.6l0.8-0.6l1.3-1.4l0.2-0.4l0.6,0.6l1.2,0.6l0.6-0.7l0.7-0.4l-0.3-0.9l0.2-0.3l1.1-0.3l0.5,0.3
			l0.5-0.4l0.9,0.4l0.8-0.4l0.3-0.5l-0.9-0.9l-0.5-0.2l-0.5-0.7h-0.1l-0.3-0.5l-0.7-0.3v-0.5l-0.9,0.5l-0.8-0.7l0.4-0.9l-0.8-0.7
			l-0.5,0.1l-0.4-0.7l-0.4-0.1h-0.1l-0.9-0.2l0.1-0.8l-0.4-0.8l-0.7,1.1l-0.3-0.3l-0.8,0.4l-1.4-0.1l-0.3-0.8l1-0.4v-0.4l-0.7-0.2
			l-0.6-1.2l-0.8-0.2l0.8-0.8V524l0.9-1l0.6,0.2l0.4-0.3l-0.4-1.2l0.4-0.9l0.8-0.5l0.2-0.4l-0.7-0.1l0.1-0.7l-0.4-0.7l-0.6-0.7
			l-1,0.8h-0.5l-0.2-0.9l0.5-0.7l1.3,0.1l-0.1-0.8h1l0.9-1.2l0.1-0.5l1-0.5l0.5-1.2l0.1-0.4l1.3-0.9l0.2-0.7l-0.4-0.9l0.4-0.6
			l-0.4-0.2l0.8-2.2h0.7l0.3,0.5l0.9-0.3l1,0.5L463.2,508.1z"/>
		<path class="st1" d="M450.2,497.1v0.1l-1.3,1.8l0.5,0.4l0.8-0.1l-0.2,0.4l0.5,0.5l0.2,0.5l0.3,0.2l0.1,0.1h1.4l0.7-0.3l0.1,0.5
			l0.8,0.5l0.6-0.4l0.2,0.5l1,0.8l-0.2,1.2h-0.6l-0.3,1.2l-0.4,0.4l0.1,0.6l-0.8,0.4l0.5,1.3L453,508l0.1-0.3l-0.9-0.7l0.2-0.5
			l-1.5,0.2l-0.6,1.4l0.2,0.5l-1.1,0.3l-0.6,0.8l0.4,0.1l1.8-1.2l-0.5,0.8l-0.2,0.6l-0.5,0.4l0.2,1l-0.7,0.1l-0.1,0.7l-0.6,0.7
			l-0.7,0.3l0.8,1.1v1.3l0.5,0.5l1,0.2l1.3-1.3l1.1-0.3l0.1-0.5l0.7-0.7l1.1-0.9h0.7l1.7-2.3l0.2-0.4l0.5,0.8l0.5,1.9l0.4,0.3
			l-0.5,1.2l-1,0.5l-0.1,0.5l-0.9,1.2h-1l0.1,0.8l-1.3-0.1l-0.5,0.7l0.2,0.9h0.5l1-0.8l0.6,0.7l0.4,0.7l-0.1,0.7l0.7,0.1l-0.2,0.4
			l-0.8,0.5l-0.4,0.9l0.4,1.2l-0.4,0.3l-0.6-0.2l-0.9,1v0.4l-0.8,0.8l0.8,0.2l0.6,1.2l0.7,0.2v0.4l-1,0.4h-0.2v-0.1h-1.1l0.1,0.7
			l-1,1.4l-0.5-0.2l-1.9,0.3l-0.3-0.6l-0.3,0.3l-0.5-0.4l-0.6,0.7l-0.9-0.1l-0.1-1h0.9l-0.2-1.1l0.4-0.1l0.2-0.8l-1.1-1.3l-0.3,0.4
			l-0.2-0.7l-1.6-0.6l-0.3,0.5l-1.5-0.8l-0.6,0.6l-0.6,1.3l-1-0.5l-0.2-0.7l1.1-0.5l-0.1-0.5l-0.6-0.6l0.9-0.3v-1l-0.8-0.7l-0.2,0.3
			l-0.1,1.3l0,0l0,0l0,0l-0.4,0.2v-0.8l-0.6,0.6l0.1-0.4l-0.4-0.5l-1.2,0.1l-1.2,1.4l0.4,0.4l-0.2,0.7l-0.9,0.6l-1.4,1.5l-0.7-0.2
			l0.3-1.2h-0.7l-1.2-1l0.2-0.9l0.6-0.8l-0.4-1.3l-1-1.5l0.1-0.5l-2,0.5l-0.5-0.7l-1.1,0.2l-1.2-1l-0.9-1.1l-0.3,0.3v-0.1l0.5-5.1
			l1.8-0.6h0.5l1.1-0.6l0.2,0.2l0.9-0.8l1.2-0.4l-0.7-0.7l-0.3-0.6l1-1.1l0.1-0.8l0.5-0.2l0.7-1.4l0.4-0.5l0.1-1.2l0.4-0.6l-0.6-1
			h0.9l0.7-0.9l1.1,0.9l0.6-0.1l0.7-0.6l2.1-0.5v-1l-0.4-0.4l0.3-0.8l1.9-0.5l0.5,1.6l0.6,0.6l0.6,0.3l0.5,0.3l1.4-0.5l0.5,0.1
			l0.3,0.4l0.2-0.7l0.7,0.3l0.6-0.4l0.2-1.7l-0.5-0.4l-1-0.6l0.7-0.5l0.8,0.1l1-0.4l0.4,0.4l0.2-0.5l0.4-0.1L450.2,497.1z"/>
		<path class="st0" d="M462.1,480.2l-0.2,0.2l0.1,1.4l0.5,1.8l0.9,2.1l1.6,2.6l0.9,1.2l2.3,2.3l1.8,1.5v0.9l-0.8,2.2l-0.6,1.2
			l-0.2,2l0.4,1.2l2.1,4.7l0.9,1.5l0.6,1.7l-0.1,0.3l0.4,1.1l0.6,0.9l1.6,1.8l1.2,1l1.3,1.8l2.2,2.3l3.6,4.4l0.3,0.7l0.8,1l1.3,1.3
			l0.8,2.3l0.1,1.5l0.4,0.7v0.9l1.1,1.5l-0.1,1.3l0.4,1.6l0.7,0.7l1.3,0.6l0.1,0.4l0.9,0.6l0.5,0.8l-0.1,1l0.6,0.6l1.6,0.2l0.2,1.6
			l0.3,1.1l1.4,1.3l2.1,0.8l1.3,0.8l1.7,0.4l2.1,0.1h2.7l2,0.1l1,1l0.7,0.2l0.5,1l1.1,0.6l3,0.3l0.5,0.6l0.2,1.1l0.7,1.1l1.1,0.9
			l0.8,1l0.3,1.5l0.8,0.7l1.6,0.3l1.9-0.2l3.9-0.9v0.7h0.5v0.8l0.5,1.3l-0.2,1l0.4,0.4l-0.4,0.5l0.1,1.6h0.8l0.2,0.6l0.8-0.2
			l0.4,0.6l0.2,0.9l0.5,0.4l0.9,0.1l-0.2,0.3l1.3,0.7l0.6-0.1l0.4,0.4l0.3,0.8l1.4,1.3l0.5,0.2v0.9l-0.5,1.3l-0.7,0.6l1,0.9
			l-0.1,0.4l0.6,0.1l-1,0.5v0.5l-1.9,0.2l-0.5,0.4l-0.4,1l-0.6,0.2l-0.1,0.5l-18.4-1l0.2-1.4l0.3-0.8l-1.4-0.4l-1.8-0.8l-3.1-4.2
			l-0.4-0.3l0.4-0.5l1.2-0.2l-0.1-0.7l-0.8-0.9l-0.5,0.4l-0.5-0.1l-0.7,0.9h-0.6l-0.7,0.5l-0.3-0.1l-0.9,1.1l-0.1-0.2l-0.7,0.7
			l-1.3,0.5l-0.8-0.2l-1,0.5l-0.7-1.2l-1-0.4h0.5l-0.2-0.4l-0.8-0.3l-0.6-0.6l-0.1-0.6l-0.5-0.3l0.6-0.7l0.3-1.3l0.9-1.9l-0.6-3.3
			l-1.2-0.1l-0.2-0.3h-0.7l-0.4,0.1l-0.6,0.2h-0.1l-0.8,0.1l-0.3-0.6l-0.7,0.4h-1l-0.1-0.5l-0.5,0.1l-1.2-1.8l0.3-0.2l-0.7-1
			l-0.1-0.7l-0.5-0.6l-1-0.8l-0.3-1.2l-0.6-1.1l-0.9-0.4h-0.9l-2.1-1.5l0.1,0.8l-0.5,0.8v0.5l-0.5,0.4l0.7,0.3v0.7l-0.4,1l0.4,0.2
			v0.7h-0.9l0.1-0.4l-0.9-0.6l-0.3-1.5l-0.5,0.2l-0.7-0.3l-0.6-0.6l-0.5,0.2l-0.5-0.3l-1.6,1l-0.5,0.6l-1.2-1.9l0.1-0.5l-1.7-0.9
			l-0.6,0.3l-0.5-0.8l-0.4,0.2l-0.5-1l0.3-0.8l-0.4-0.5l0.6-0.5l0.4-0.9l0.9-0.5l-0.3-1.6l-0.4-0.3l0.3-0.6l0.1-1.3l1-0.8l-0.1-0.3
			h2.3l0.6,0.5l0.2-0.3l-0.4-1l1-0.7l0.3-0.8l-0.5-0.2l-0.5-0.5l-0.9,0.3l-1.2-0.5l-0.6,0.4l-0.2-0.9l-0.8-0.4l-1.4-0.2l-0.4,0.3
			l-0.5-1l0.6-0.1l0.2-1l-1-0.2l-0.4-0.8l-0.1-0.9l0.3-0.7l0.2,0.2l1.3-1.2l0.4,0.1l-0.5-0.8l0.2-0.4l0.1-1.5l0.4-1.4l0.7-0.7
			l-0.1-0.8l0.9-0.7l-0.1-0.5l0.9-1.2l0.6-0.5l-0.5-0.4l-0.2,0.2l-1.4-0.6l-2.2-0.7l-0.2-0.6l-0.4,0.3l-0.7-0.3l-0.6,0.5v0.8
			l-0.7,0.5l0.1,0.4L466,521l-0.7-0.6v-0.9l-0.5-0.3l-0.9,0.3l-1.1-0.5l0.1-0.9l-0.4-0.7l1.3-0.4v-0.9l-0.3,0.6l-0.8-0.6l-0.4-0.6
			l0.6-1.4h0.3l0.6,0.8l0.5,0.1l0.2-0.8l0.6-0.2l0.4-0.6h0.6l-0.9-1.2l-1.1-0.2l-0.1,0.4l-0.5-0.5l-0.5-0.7v-0.5l-0.6-0.1v-1.1v-0.6
			l0.4-0.2l0.1-0.7l0,0l0,0l0.1-0.4l-1-0.5l-0.9,0.3l-0.3-0.5h-0.7l-0.8,2.2l0.4,0.2l-0.4,0.6l0.4,0.9l-0.2,0.7l-1.3,0.9l-0.1,0.4
			l-0.4-0.3l-0.5-1.9l-0.5-0.8l-0.2,0.4l-1.7,2.3h-0.7l-1.1,0.9l-0.7,0.7l-0.1,0.5l-1.1,0.3l-1.3,1.3l-1-0.2l-0.5-0.5v-1.3l-0.8-1.1
			l0.7-0.3l0.6-0.7l0.1-0.7l0.7-0.1l-0.2-1l0.5-0.4l0.2-0.6l0.5-0.8l-1.8,1.2l-0.4-0.1l0.6-0.8l1.1-0.3l-0.2-0.5l0.6-1.4l1.5-0.2
			l-0.2,0.5l0.9,0.7l-0.1,0.3l1.2-0.3l-0.1-1.2l0.6-0.6l-0.1-0.6l0.4-0.4l0.3-1.2h0.6l0.2-1.2l-1-0.8l-0.2-0.5l-0.6,0.4l-0.8-0.5
			l-0.1-0.5l-0.7,0.3h-1.4l-0.1-0.1l-0.3-0.2l-0.2-0.5l-0.5-0.5l0.2-0.4l-0.8,0.1l-0.5-0.4l1.3-1.8v-0.1l-0.2-0.6l-0.4,0.1l-0.1-0.2
			l-0.2-0.5l0.1-0.6l-0.3-0.8l-1.2-0.7l-0.4-1l-0.1-1.2l1.3-0.6l-0.1-0.6l0.6,0.4l0.3-0.5l1-0.7l-0.7-1.4l-0.4,0.2l-0.5-0.6l0.1-1.4
			l0.8,0.1l-0.2-0.4l-0.7,0.5l-0.4-0.7l0.9-0.2l0.5,0.3l1.1-1.8v-1.4l1.7-1.1l-0.1-0.7l0.3-0.4l-0.8,0.1l0.1-0.4h-0.6l-0.7-0.9
			l-0.5,0.2l-1-0.8l-0.8-0.2l-0.1-0.5h-1.7l0.2-0.6l1-0.1l0.4,0.3l0.8-0.1l1.8-0.6l0.6,0.6l1,0.2l0.7-0.5l-0.1-1l0.7,0.3l0.5-0.3
			l1,0.1l0.1,0.8l1.2,0.5l0.2,0.6l0.8,0.4l1.2-0.1l0.3,0.4l-0.5,0.6l0.8,0.1l0.4,0.7l0.7,0.6l0.8,0.3l0.3-0.6L462.1,480.2z"/>
		<path class="st1" d="M426.2,374.1l0.5-0.1l0.3,0.8h0.4l0.8,1.1l-3.5,2.5l0.1,1.1l2.8,1.1l0.2,3.1l1.2,3.4l0.5,0.7l-1.5,2.8
			l-0.6-0.2l0.1,0.8l0.3-0.4l2.1,0.5v0.3l0.7,0.2l0.2,0.6l-0.7,1.1l0.1,0.8l-0.7,0.6v0.5l2.1,0.1l2.5,1.3l-0.2,3l-0.4,1.8l0.5,0.9
			l0.7-0.5l1.8,1.5l1.1-0.1l0.5,3.2l0.2,0.6l1.7-0.4l0.7-0.5l2.1,2.6l1.3-1.5l4.2,0.6l0.1,7.8v2.5h2.8v0.8l-8.2,6.6l-1,0.6h-1.3
			l0.1-0.3l-0.6-0.8l-0.5,1l-0.5,0.3h-0.8l-0.3,1l0.4,1.7l-0.9,1.1l0.4,1.6l-0.5,0.1l-1.4-0.6l-1.2,0.6l-0.4,0.6l-1.1,0.2l-0.9,1
			v0.7l-1.3,0.4h-0.6l-1.7,0.9l-0.5,0.4l0.2,1.4l1.5-0.4l0.8,2.1l-0.1,1.3l-1,2.4l-0.1,1.7l1.5,1.5l0.5,0.1v0.7l0.9,0.7l0.5,1.8
			l-0.6-0.2l-1.4,2l-0.7,0.3l-1.1-0.3l-2.1-0.1l-1,0.2l-1,2.1l-0.8,2.1l0.7,3.4l-1.1-0.3l-1.7-0.1l-1.1,1.1l1.2,0.6l-0.5,1.4
			l-2.2-0.4l0.1-0.9l-1-0.2l-0.5,0.9l-1.2-0.1l0.2,1.5l0.7-0.1l-0.1,0.6l-2.6-0.6l-0.1-0.4l0.5-2.9l-1.1-1l0.4-2l0.6,0.3l-0.2-1H415
			l0.3-1.2l0.6-0.8l-0.8-1.2l-0.1-1.1l-0.9-0.8l0.2-0.9l-0.4-0.6l0.4-2l0.3-0.9l-0.3-0.9l0.4-0.4l-1.7-0.7l0.3-0.1l0.1-0.9h-0.8
			l0.6-2.4l-0.1-1l-1.9-1.7l-0.5,0.6l-1-1.8l-0.1-0.8l0.1-3l-0.5-1.6l1.7-1.6l-1.6-1.5l0.3-3.2l1.6-1.4l2-0.4l2.6,0.6l2,0.7l0.1-0.7
			l1.1,0.3l0.6-0.2l-0.6-0.7l0.3-0.3l-0.2-0.8l-1.2-0.6l-1.6,0.3l-1-0.2l0.3-1.4l-1.2-0.5l-0.1-0.6l-0.9-0.1l0.1-0.5l-0.7-0.2
			l0.3-0.3l1.2,0.1l-0.2-0.3l-1-0.2l-0.6-0.5l-1,0.1l-0.7-1.3l-0.9-0.1l-0.4-1.7l-1-1.8l0.7-1.9l-0.2-0.5l-1.2-0.2l-0.2-2.3
			l-0.5-0.2l-0.6-0.9l-1.2-0.7l-0.5-0.6l-0.5-1.2l-1.8-2.1l5-4.5l2.9-2.7l1.1,2.4l1.3-1.4l0.4-1.4l0.9-1l-0.2-1l0.2-0.4l-0.1-1.9
			l0.1-1.3l-2-0.6l-0.8-0.6l-0.5,0.6l-0.4-0.1l-0.9,0.7l-0.5-0.6l-0.1-2.4l2.7-2.7l4.5-1.2l1.2-5.7l2.8-2.3l3.3,3.6l1.2-1.2
			L426.2,374.1z"/>
		<path class="st1" d="M426.2,374.1l-1.6,1.9l-1.2,1.2l-3.3-3.6l-2.8,2.3l-1.2,5.7l-4.5,1.2l-2.7,2.7l0.1,2.4l0.5,0.6l0.9-0.7
			l0.4,0.1l0.5-0.6l0.8,0.6l2,0.6l-0.1,1.3l0.1,1.9l-0.2,0.4l0.2,1l-0.9,1l-0.5,1.3l-1.3,1.4l-1.1-2.4l-2.9,2.7l-5,4.5l1.8,2.1
			l0.5,1.2l0.5,0.6l1.2,0.7l0.6,0.9l0.5,0.2l0.2,2.3l1.2,0.2l0.2,0.5l-0.7,1.9l1,1.8l0.4,1.7l0.9,0.1l0.7,1.3l1-0.1l0.6,0.5l1,0.2
			l0.2,0.3l-1.2-0.1l-0.3,0.3l0.7,0.2l-0.1,0.5l0.9,0.1l0.1,0.6l1.2,0.5l-0.3,1.4l1,0.2l1.6-0.3l1.2,0.6l0.2,0.8l-0.3,0.3l0.6,0.7
			l-0.6,0.2l-1.1-0.3l-0.1,0.7l-2-0.7l-2.6-0.6l-2,0.4l-1.6,1.4l-0.3,3.2l1.6,1.5l-1.7,1.6l0.5,1.6l-0.1,3l0.1,0.8h-0.8l-1-0.5
			l-1,0.8l-2.1-0.9l-0.8-0.6l-0.6-1.1l-0.6-1.6l-2.5-0.9l-1,0.5l-1,1l-2.8-0.4l-0.3-0.8l0.6,0.2l0.1-0.9l-1-0.5l-0.5,0.4l-1.5-0.7
			l-1-1.9l-0.3-0.9l-4.1-1l-2.7-0.9l-1-0.1l-2.9,0.2l0.3,2.2l-3.9-1.3l-3.2,5.7l-0.1,0.6l-1.2-0.8l-0.9-0.4l-0.6,0.1l-1.6-0.6
			l-2.8-2.7l0.2-0.6l-0.5-0.5l0.2-0.7l-1.7-1l-0.7-1.3l-0.6-0.5l-0.7-1l-0.4-0.1l-0.2-0.7l0.5-0.7l0.3-1l1-0.5l1.2,0.5l-0.1-0.8
			l-0.5-0.1l-1.9-2l-0.3-0.4l0.7-0.4l0.8-1.6h0.5l0.5-1.5l0.5-0.8l0.1-1.3l-0.4-0.7l-0.1-5.5l1.6-2.8l-1-1.5l-1-4.7l-4.6-1.8
			l-0.4-0.5l-0.7-0.1l-1-2l-0.4-0.1l-1.3-1.2v-0.8l1.2-0.9l0.1-0.5l0.6-0.3l-0.2-1.2l-0.5-0.2l-0.3-0.7v-1.7l-0.4-0.6l-0.2-1.1
			l-0.8-0.3l0.4-4.7l-0.3-1.1l-0.3,0.6l-0.2-1.1l0.3-1.6l-0.9-1.2l0.6-0.6l-1-0.2l0.3-1.8l0.9,0.3l0.3-0.9l-0.9-0.3l1-2.8l1.7-3.7
			l0.7-1.1l1.5-3.1l-0.1-0.4l0.9-2.1l0.7,0.6l0.7-1.1l1.8-3.5l0.1-0.6l0.8-1l0.9-1.7l0.5,0.6l0.9-0.3l1.3,0.4l0.6-0.2l0.3-1.5
			l0.4-0.6l0.7-0.2l0.7-1.6l1.4-0.3l0.9-0.7l-0.6-0.6l0.4-2l0.7-0.1l0.2-0.9l-0.1-0.8l0.5-0.8l-0.1-0.7l1.2-1.5v-0.9l0.8-0.7v-0.9
			l1.2-0.3l1-0.6l0.3,0.5l0.6-0.8l1.4,0.1l0.8,0.3l-0.1-0.4l0.9-1.7l0.7-0.2l0.7,0.5l1.1,0.4l0.2-0.2l0.8,0.9l1.7,0.4l1.2-0.6
			l0.4,0.4h1.3l0.6-0.3l0.7,0.5l0.7-0.1l1.1,0.5l0.8-0.2h1.5l0.5-0.9l0.1,1l0.7-0.1l0.7-0.5l0.1,0.7l0.9-0.3l-0.3,0.4l0.7,0.9
			l0.3,1.1l0.9-0.1l-0.2,0.9l0.3,0.8l0.3-0.9l0.5-0.1l0.2,1.2l-0.2,0.9l1.3,0.1l0.5,0.8l1.6,0.3l0.1,0.5l0.9,1.5l0.9,0.3l1.1,0.8
			l0.1,0.5l1.5,0.8l0.5,1.1l-0.2,0.3l1.2,1.1l0.4,0.2l0.3,0.7l0.3,1.8l-0.1,0.8l0.9,0.9l0.5,1.5h0.4l0.3,1.4l0.4,0.3l0.2,1.6
			l0.9,0.3v0.6l0.8,0.5l-0.2,0.7l0.4,0.7l0.9,0.3l-0.6,0.4l0.6,1l-0.2,0.6l1.1,1.8l-0.1,0.7l0.6,0.7l0.7,0.2l0.1,0.8l2.1,0.9
			l0.6,1.2l0.7,0.5l0.5,1.4l1,0.2l-0.1,0.6l0.8,1l-0.1,0.7l0.3,0.3l0.1,1L426.2,374.1z"/>
		<path class="st1" d="M462.1,480.2l-0.8,0.5l-0.3,0.6l-0.8-0.3l-0.7-0.6l-0.4-0.7l-0.8-0.1l0.5-0.6l-0.3-0.4l-1.2,0.1l-0.8-0.4
			l-0.2-0.6l-1.2-0.5l-0.1-0.8l-1-0.1l-0.5,0.3l-0.7-0.3l0.1,1l-0.7,0.5l-1-0.2l-0.6-0.6l-1.8,0.6l-0.8,0.1l-0.4-0.3l-1,0.1
			l-1.3,0.5l-0.1,0.2l-1.2,0.2l-0.9-0.2l-0.3,0.2l-0.7-0.7l-2.2-0.4l-1,0.2l-2-0.1l-0.6-1.9l-1-2.3l-0.8,0.1l-0.2-0.8l-1,0.1
			l-0.6-1.5l-1.2-0.1l0.9,2.3l-0.7,0.2l-0.4-0.5l-2.1-0.8l-0.7,0.4l-1-0.2l-0.4,0.2l-0.7-0.4l0.1-1l-0.7-0.3l-1.3-0.1l-1.1,0.5
			l-1.4-0.7l1.3-1.2l-0.3-1.8h-1.2v-1.1l0.4,0.1l-0.2-0.7l0.4,0.2l0.1-0.7l0.8-0.5l-0.8-0.7v-0.5l-0.8-0.1v-1.4l0.2-0.6l0.5-1.4
			l-1.2-0.6l1.1-1.1l1.7,0.1l1.1,0.3l-0.7-3.4l0.8-2.1l1-2.1l1-0.2l2.1,0.1l1.1,0.3l0.7-0.3l1.4-2l0.6,0.2l-0.5-1.8l-0.9-0.7v-0.7
			l-0.5-0.1l-1.5-1.5l0.1-1.7l1-2.4l0.1-1.3l-0.8-2.1l-1.5,0.4l-0.2-1.4l0.5-0.4l1.7-0.9h0.6l1.3-0.4v-0.7l0.9-1l1.1-0.2l0.4-0.6
			l1.2-0.6l1.4,0.6l0.5-0.1l-0.4-1.6l0.9-1.1l-0.4-1.7l0.3-1h0.8l0.5-0.3l0.5-1l0.6,0.8l-0.1,0.3h1.3l1-0.6l8.2-6.6v-0.8h-2.8v-2.5
			l-0.1-7.8l-4.2-0.6l-1.3,1.5l-2.1-2.6l-0.7,0.5l-1.7,0.4l-0.2-0.6l-0.5-3.2l-1.1,0.1l-1.8-1.5l-0.7,0.5l-0.5-0.9l0.4-1.8l0.2-3
			l-2.5-1.3l-2.1-0.1v-0.5l0.7-0.6l-0.1-0.8l0.7-1.1l-0.2-0.6l-0.7-0.2v-0.3l-2.1-0.5l-0.3,0.4l-0.1-0.8l0.6,0.2l1.5-2.8L429,387
			l-1.2-3.4l-0.2-3.1l-2.8-1.1l-0.1-1l3.5-2.6l0.3,0.4h0.8l0.4,0.6l0.7-0.3l0.8,0.5l0.8,1l-0.3,1.4l0.9,0.4l-0.3,0.8l0.1,0.5
			l-0.3,1.5l-0.6,0.5l0.8,0.2v0.6l1,0.4l0.3,1.4l-0.2,0.5l0.2,1.2l-0.4,0.6l0.1,0.8h0.5l0.7,0.8v0.8l1,0.5l-0.1,0.5l1.1,0.7l0.4,1.1
			v0.8l0.5,0.4l0.2,1.3l0.4,0.7l0.2,1.6l0.7,0.2l0.6,1l-0.3,1l0.5,0.6l0.7-0.3l0.5,0.4l0.6-0.1l0.8,0.5l0.1-0.4l0.5,0.8l1.6-0.3
			l0.5,0.8l1.7,1.3l0.2,0.5l1.4-0.4l0.4,0.6h1.8l1.4,1.3l0.9-0.2v0.5l1.5,1.3l1,0.4l0.2-0.4l0.6,0.5l1.2-0.3l0.1,0.6l0.7-0.5
			l0.9-0.1l0.2,0.3l1.6-0.3l0.3,0.2l1-0.1l0.4,0.6l1.2-0.2l1.2,0.3l0.1,0.6l0.9,1l0.6,0.1l0.4,0.9h1.1l0.1,0.6l1.4,0.3l0.3-1
			l-0.3-0.3l0.5-0.5l1.2-0.1l-0.2-0.4l0.8,0.1l0.6-0.3l1.1,0.2l-0.1,2.5l-0.4,2.3l-0.5,1.4l-2.2,4.1l-2,4.1l-1.6,4l-0.8,2.5
			l-1.3,5.1L464,438l-0.3,2.2l-0.4,4.1l-0.2,3.3v3L463,453l-0.4,4.4l-0.1,2l0.2,6.3l-0.1,2l-0.4,1.9l-0.9,2.3l-0.3,1.9v1.8l0.4,2
			l0.4,1.2L462.1,480.2z"/>
		<path class="st0" d="M641,494.7v9.2l-3.7,6.5l-3.8,3.9h-0.6v0.5l-2.5,2.5l-2.2-0.2l-0.8,0.7h-1.8l-1.9,1.1h0.3l-0.1,0.9l-1.2-0.1
			l-0.8,0.3l-1.2,0.8v1.6h-1.4l-0.9,2.4h-0.8l-0.3,0.3l-0.2,1.1l-0.6,0.2l-0.5-0.5l-0.5,0.9l-0.4-0.1l-0.4,1l0.9-0.1v0.4l-0.6-0.1
			l-0.1,0.6l-1.5-0.5l-0.2,1.6h0.4v0.6h-0.7l0.1-1h-1.4l0.1,0.5l-1.3,1.1l-2-1.8l-0.6-0.9h-0.4l-0.4-0.8l0.3-0.5l-0.9-0.1l-1.1-1.8
			V524l-0.3-0.3l0.1-1.1l-2.6-3.4l-0.8,0.8l-0.1-1.2l-0.8-0.1l0.1-0.8h-0.6l0.1-0.6h0.6l-2.9-3.7l-0.8,0.5l-0.3,0.6l-1.3-0.3l-1,0.1
			V514l-0.9-0.2l0.2-0.9l-0.2-0.5l-1.8,0.1l-0.9-0.3l0.1-5.5h-0.4l0.7-2.3l0.7-1l4-2.5l1.9-0.5l1-0.7l1.5-0.6l5-1.1l2.7-0.4l5.1-0.5
			l3.9-0.7l2.6-0.7l0.7-0.4l1.6-1.4l1.3-0.1l2.7-0.6l1,0.3l1.3-0.2l0.1-0.3l1.1-0.7l0.8-0.2l1,0.2l1.9,0.1l2.5,1l1.4,0.5L641,494.7z
			 M602.7,473.7l1,0.3l1.5,1.7l-0.1,1.6l-0.8,0.9l-1.8-1.3l0.5,0.1l-0.9-0.8l-0.1-0.6l0.6,0.1l0.4-0.6l-0.7-1.2L602.7,473.7z"/>
		<path class="st1" d="M610.3,530.9l2.6,2.4v5.4h0.2l-0.2,2.5v4.4l-0.1,0.4v5.2h0.4l0.1,1.2H613l0.1,1.7h-0.3l-0.1,1.3l0.3-0.1v1.4
			h-1v1.1h1l-0.3,0.4v0.7h-0.8v1.2h0.9v0.2v2.3h-5.9h-7.6h-3.4l-4.1,0.1l-3.9-0.1h-7v-2.7h-2.3l-0.4-0.2h-1.3l-1.9-1.6h-1l-0.9-0.4
			l-1.4-0.9v-0.7l-0.3,0.4l-0.7,0.1l-0.7,0.9l-0.2,2.8l0.2,0.6l-0.5,0.7l-2.9-1.8l-1.1-0.2l-0.7-0.6h-1l-0.2-0.5l-0.6-0.2l-0.5-0.9
			l-1.2,0.1l-0.9-1.1l0.2-1l-0.5-1.1l0.1-1.3l-0.1-2.2h-2.3l-0.2-0.3l-0.5,0.6l-1.1-0.8l-0.2-1.3l-0.7-1.1l-0.1-0.6l1.5-0.3l3.2-0.2
			l3.4-0.4h0.9l0.8,1.1l0.9,0.5l0.2-0.9l1.8-0.3l1.8-1l2.4-1.1l1.6-1.7l1.9-1.2l1.1-0.4l2.1-1.2l0.6-0.6l1.5-1l1.6-1.2l2.4-2.2
			l0.7-1v-0.8l0.4-1.5l-0.2-1.4l0.5-1.3l-0.4-0.8l0.7-1l0.1-0.6l0.7-0.7l2-1.3l1-1.5l-0.3-0.8l0.2-0.4l-0.5-0.9l0.2-0.7l-0.3-1.2
			l0.3-0.3l-0.2-0.8V516l0.1-0.7l-0.3-2.4l0.9-2.5l-0.1-1.2l0.8-1.1l-0.1-1l0.2-0.6h0.4l-0.1,5.5l0.9,0.3l1.8-0.1l0.2,0.5l-0.2,0.9
			l0.9,0.2v0.5l1-0.1l1.1,0.3l0.3-0.6l0.8-0.5l2.9,3.7h-0.6l-0.1,0.6h0.6l-0.1,0.8l0.8,0.1l0.1,1.2l0.8-0.8l2.6,3.4l-0.1,1.1
			l0.3,0.3v0.9l1.1,1.8l0.9,0.1l-0.3,0.5l0.4,0.8h0.4l0.6,0.9L610.3,530.9z"/>
		<path class="st1" d="M644,552.4l-0.4,0.2l1-1.5L644,552.4z M645.6,545.9l0.5,1v0.7L645.6,545.9z M655,512l-0.5,1.1l-1,1.3h-0.2
			l-1.2,1.7l-1.5,1.3l-0.6-1.3l0.1-1.4l1.6-2.6l0.5-0.3l0.5,0.5l0.9-0.1l1.6-0.9L655,512z M612.8,560.6v-0.2h-0.9v-1.2h0.8v-0.7
			l0.3-0.4h-1V557h1v-1.4l-0.3-0.2l0.1-1.3h0.3l-0.1-1.7h0.3l-0.1-1.2h-0.4V546l0.1-0.4v-4.4l0.2-2.5h-0.2v-5.4l-2.6-2.4l1.3-1.1
			l-0.1-0.5h1.4l-0.1,1h0.7v-0.6h-0.4l0.2-1.6l1.5,0.5l0.1-0.6l0.6,0.1v-0.4l-0.9,0.1l0.4-1l0.4,0.1l0.5-0.9l0.5,0.5l0.6-0.2
			l0.2-1.1l0.3-0.3h0.8l0.9-2.4h1.4l0.2-1.5l1.2-0.8l0.8-0.3l1.2,0.1l0.1-0.9h-0.3l1.9-1.1h1.8l0.8-0.7l2.2,0.2l2.5-2.5v-0.5h0.6
			l3.8-3.9l3.7-6.5v-9.2l0.9,0.1l0.4,0.5l0.5-0.2l1.4,0.4l1.7,0.2l0.5,0.4l0.5-0.5l1.6-0.5l0.1-1.4l-0.4-0.2l0.8-0.7l0.3,0.4
			l1.6,0.4l0.4,1.1l1.2,1.6l0.7,2.8h0.3l0.2-1.1l0.4-0.3v-0.7l-0.5-1l0.4,0.2l0.1,1.2l-0.4,0.9l0.2,1.1v1.5l1.1,0.4l-0.3,0.4
			l-0.5,1.7h-0.4l-0.6,2.3l-0.5,1l-0.8,0.8l-0.8,1.1v0.3l-0.8,0.5l-0.2,0.6l-1.3,1.5l-1.3,1.1l-1.3,0.9l-1.6,1.7l-0.7,1.7l-1,1.3
			l-0.9,2.3l-0.1,1.1l0.2,1.5l0.6,0.9l-0.7-0.5l0.3,1.2l-0.7,1.2l-1.5,0.4l-1.1,1.8l-1.8,0.5l0.1,1.5l0.6,0.7l0.4-0.2l0.4,1.1
			l0.6-0.9l1.1-0.2l0.4,0.5l0.6-0.6l-0.3-0.3l1-0.2l0.1-0.7l0.7,0.6l-0.3,2.3l-1,0.7l-0.5,0.7l-0.5-0.6l-1.4,1l-0.3,0.6l-0.2,1.5
			l-0.4,0.5l0.1,0.6l0.9,0.4l0.4-0.9l1.1-1.3l0.7-0.4l1,0.2l-1.6,2.1l-0.2,2l-1,1.9l-0.5,1.2l-0.2,1.2l-0.3,0.5l-0.2,1.4l-0.7,0.8
			l-0.2,0.7l-0.3,2.3l-0.4,0.9v1.4l-1,1.6l-0.2,0.7l-0.2,1.9h-0.4l-0.6,0.8l-0.4-0.3h-1.8v-4.7h-3.8v-1.1l-1.3-0.3l-1.1,0.2
			l-0.2-0.3l-0.7,0.3l-0.6-0.2L624,551l-0.5,1.9l-1.1,1.3v0.9l-1.6,1.1l0.1,0.5l-0.5,0.8v0.9l-0.9,0.6l-0.2,0.9l-1.7,1.5l-0.9-0.6
			l-0.2-0.5l-0.7,0.1l-0.8-0.8l-0.8,0.1l-1,0.4L612.8,560.6z M648.6,492.6l-0.4,0.6l-1.2,0.7l-0.9,0.2h-1.2l-0.1-0.4l-1.2,0.6l1.1-1
			l1.1,0.5l1.1-0.1l1.1-0.5L648.6,492.6z"/>
	</g>
</g>
</svg>
